<?xml version="1.0" standalone="no"?>
<!DOCTYPE svg PUBLIC "-//W3C//DTD SVG 20010904//EN"
 "http://www.w3.org/TR/2001/REC-SVG-20010904/DTD/svg10.dtd">
<svg version="1.0" xmlns="http://www.w3.org/2000/svg"
 width="1280.000000pt" height="640.000000pt" viewBox="0 0 1280.000000 640.000000"
 preserveAspectRatio="xMidYMid meet">
<metadata>
Created by potrace 1.15, written by Peter Selinger 2001-2017
</metadata>
<g transform="translate(0.000000,640.000000) scale(0.100000,-0.100000)"
fill="#000000" stroke="none">
<path d="M4080 6364 c-441 -68 -1100 -335 -1915 -777 -757 -410 -1122 -681
-1416 -1048 -92 -115 -461 -800 -563 -1044 -163 -392 -221 -738 -161 -970 42
-163 158 -305 310 -379 44 -22 217 -116 385 -209 545 -303 927 -454 1625 -641
154 -42 366 -105 470 -141 105 -37 314 -108 465 -160 288 -97 337 -115 590
-213 397 -154 489 -189 690 -262 411 -149 800 -280 980 -330 121 -33 424 -97
570 -119 271 -41 715 -51 1155 -26 284 16 274 15 520 45 94 11 616 66 1160
120 545 55 1042 107 1105 115 487 67 1002 203 1520 402 107 42 231 88 275 103
399 138 616 284 696 468 59 135 154 826 223 1607 45 503 45 461 -3 605 -23 69
-65 171 -93 228 -60 124 -61 125 -354 312 -139 89 -256 155 -348 197 -223 101
-334 170 -362 225 -18 35 -12 89 11 108 8 7 15 16 15 20 0 5 -523 183 -1162
396 -640 212 -1208 406 -1264 429 -331 141 -1058 324 -2139 540 -1153 231
-1999 365 -2550 405 -185 13 -319 11 -435 -6z"/>
</g>
</svg>
