<?xml version="1.0" encoding="UTF-8"?>
<svg viewBox="0 0 858.28577 156.42856" xmlns="http://www.w3.org/2000/svg">
 <g transform="translate(-94.286 -478.08)">
  <path d="m94.286 478.08h857.14v154.29h-857.14z" fill="#ccc"/>
  <g transform="translate(-48.571 225.71)" fill="#1a1a1a">
   <path d="m142.86 295.22h35.714v34.286h-35.714z"/>
   <path d="m142.86 335.22h94.286v34.286h-94.286z"/>
   <path d="m242.86 334.51h94.286v34.286h-94.286z"/>
   <path d="m142.86 373.79h60v34.286h-60z"/>
   <path d="m235 255.93h94.286v34.286h-94.286z"/>
   <path d="m282.86 295.22h94.286v34.286h-94.286z"/>
   <path d="m142.86 255.93h88.571v34.286h-88.571z"/>
   <path d="m182.14 295.22h94.286v34.286h-94.286z"/>
   <path d="m334.86 255.22h94.286v34.286h-94.286z"/>
   <path d="m342.86 335.22h94.286v34.286h-94.286z"/>
   <path d="m382.86 295.22h94.286v34.286h-94.286z"/>
   <path d="m206.86 374.51h94.286v34.286h-94.286z"/>
   <path d="m306.86 374.51h94.286v34.286h-94.286z"/>
   <path d="m406.86 374.51h94.286v34.286h-94.286z"/>
   <path d="m442.86 335.22h94.286v34.286h-94.286z"/>
   <path d="m482.86 295.22h94.286v34.286h-94.286z"/>
   <path d="m434.86 255.22h94.286v34.286h-94.286z"/>
   <path d="m534.86 255.22h94.286v34.286h-94.286z"/>
   <path d="m582.86 295.22h94.286v34.286h-94.286z"/>
   <path d="m542.86 335.22h94.286v34.286h-94.286z"/>
   <path d="m506.86 374.51h94.286v34.286h-94.286z"/>
   <path d="m606.86 374.51h94.286v34.286h-94.286z"/>
   <path d="m642.86 335.22h94.286v34.286h-94.286z"/>
   <path d="m742.86 335.22h94.286v34.286h-94.286z"/>
   <path d="m682.86 295.22h94.286v34.286h-94.286z"/>
   <path d="m634.86 255.22h94.286v34.286h-94.286z"/>
   <path d="m706.86 374.51h94.286v34.286h-94.286z"/>
   <path d="m734.86 255.22h94.286v34.286h-94.286z"/>
   <path d="m842.86 335.22h94.286v34.286h-94.286z"/>
   <path d="m806.86 374.51h94.286v34.286h-94.286z"/>
   <path d="m782.86 295.22h94.286v34.286h-94.286z"/>
   <path d="m882.86 295.22h94.286v34.286h-94.286z"/>
   <path d="m834.86 255.22h94.286v34.286h-94.286z"/>
   <path d="m906.86 374.51h94.286v34.286h-94.286z"/>
   <path d="m942.86 335.22h57.143v34.286h-57.143z"/>
   <path d="m982.86 295.22h15.714v34.286h-15.714z"/>
   <path d="m934.86 255.22h62.857v34.286h-62.857z"/>
  </g>
 </g>
</svg>
