<?xml version="1.0" standalone="no"?>
<!DOCTYPE svg PUBLIC "-//W3C//DTD SVG 20010904//EN"
 "http://www.w3.org/TR/2001/REC-SVG-20010904/DTD/svg10.dtd">
<svg version="1.0" xmlns="http://www.w3.org/2000/svg"
 width="1280.000000pt" height="652.000000pt" viewBox="0 0 1280.000000 652.000000"
 preserveAspectRatio="xMidYMid meet">
<metadata>
Created by potrace 1.15, written by Peter Selinger 2001-2017
</metadata>
<g transform="translate(0.000000,652.000000) scale(0.100000,-0.100000)"
fill="#000000" stroke="none">
<path d="M12600 6398 c-363 -212 -469 -288 -705 -503 -154 -142 -490 -427
-625 -532 -115 -89 -218 -153 -358 -222 -193 -96 -256 -116 -367 -116 -83 0
-95 3 -150 33 -33 18 -108 77 -166 130 -106 98 -378 299 -605 449 -363 240
-812 402 -1312 474 -120 17 -177 21 -307 16 -180 -5 -212 -13 -423 -99 -97
-40 -122 -54 -118 -67 4 -11 -11 -27 -51 -53 -72 -48 -98 -49 -292 -3 -82 19
-173 35 -204 35 -89 0 -214 -29 -347 -80 -69 -26 -142 -53 -164 -60 -64 -21
-153 -16 -251 13 -131 40 -179 37 -295 -18 -68 -32 -108 -45 -139 -45 -54 0
-167 31 -264 72 -40 17 -93 33 -120 37 l-47 6 31 38 31 37 -69 31 c-227 104
-387 137 -593 124 -295 -18 -680 -105 -967 -217 -158 -62 -402 -186 -528 -268
-208 -136 -523 -371 -625 -465 -132 -122 -195 -155 -297 -155 -107 0 -185 23
-351 105 -163 80 -229 119 -347 208 -124 93 -473 386 -608 511 -198 182 -286
254 -403 332 -125 83 -516 315 -522 310 -2 -2 117 -147 265 -323 309 -366 381
-455 556 -684 236 -309 370 -452 597 -634 350 -282 689 -417 1005 -402 224 11
349 76 635 327 159 141 252 206 395 278 253 126 470 209 655 249 130 28 353
25 490 -6 92 -21 383 -106 433 -126 14 -6 17 -2 17 19 0 25 1 26 22 12 13 -8
43 -20 67 -26 24 -6 58 -25 74 -41 l30 -30 -26 -27 c-14 -15 -31 -47 -37 -72
-8 -30 -26 -60 -57 -92 -39 -39 -45 -50 -39 -73 9 -36 99 -130 139 -146 76
-30 83 -60 36 -159 -39 -81 -59 -186 -59 -301 0 -79 -3 -97 -29 -147 -38 -76
-71 -215 -71 -299 0 -87 31 -215 74 -306 40 -86 57 -105 145 -161 210 -136
244 -218 261 -621 18 -428 75 -638 265 -980 98 -178 112 -267 79 -505 -24
-169 -15 -293 31 -445 24 -79 38 -149 42 -205 5 -82 4 -88 -26 -145 -26 -48
-31 -67 -26 -95 15 -84 95 -172 199 -221 77 -36 137 -46 154 -26 7 7 23 69 37
137 22 109 25 147 25 344 0 137 6 268 15 341 8 66 15 171 15 233 l0 112 36 0
c36 0 36 0 30 -37 -14 -102 -15 -150 -3 -290 7 -89 10 -183 6 -225 -12 -111
-10 -371 2 -430 15 -74 39 -151 53 -165 7 -8 47 -13 106 -14 110 -3 160 14
229 77 100 89 125 203 77 343 -30 87 -32 117 -9 191 15 47 17 110 18 455 2
327 5 417 19 495 40 226 94 396 149 467 18 23 51 65 73 95 54 69 65 104 52
160 -10 44 -7 90 12 188 8 40 7 111 -1 257 -20 328 0 400 138 493 63 43 86 65
103 100 38 77 60 162 60 233 0 56 5 76 29 120 29 50 30 55 25 157 -7 156 -9
160 -89 280 -72 107 -74 112 -61 139 22 41 29 95 21 156 -5 45 -14 63 -49 102
-80 89 -82 118 -13 149 50 23 113 77 133 115 23 46 17 72 -26 113 -36 34 -40
42 -40 87 0 44 -4 54 -32 79 -31 29 -31 30 -14 49 36 39 146 103 200 115 l56
13 0 -56 0 -57 118 39 c158 51 367 102 483 118 242 31 555 -52 969 -257 181
-90 241 -132 441 -306 290 -253 412 -311 654 -311 324 0 630 130 988 420 217
176 337 307 630 688 89 115 292 365 452 555 338 403 320 380 309 379 -5 0 -79
-41 -164 -91z m-6247 -5408 c-10 -60 -14 -149 -13 -305 l1 -220 -35 -28 -36
-27 -13 32 c-8 18 -26 61 -41 95 -24 58 -26 73 -26 212 l0 150 86 91 c48 50
88 89 89 88 2 -2 -4 -41 -12 -88z m343 -24 c53 -47 54 -49 54 -105 0 -31 8
-78 16 -106 11 -33 16 -79 15 -133 l-2 -83 -39 -35 c-22 -20 -49 -51 -60 -69
-15 -24 -29 -34 -54 -37 l-33 -4 -6 195 c-4 107 -7 254 -7 328 l0 134 31 -18
c18 -10 56 -40 85 -67z"/>
</g>
</svg>
