<?xml version="1.0" standalone="no"?>
<!DOCTYPE svg PUBLIC "-//W3C//DTD SVG 20010904//EN"
 "http://www.w3.org/TR/2001/REC-SVG-20010904/DTD/svg10.dtd">
<svg version="1.0" xmlns="http://www.w3.org/2000/svg"
 width="935.000000pt" height="1280.000000pt" viewBox="0 0 935.000000 1280.000000"
 preserveAspectRatio="xMidYMid meet">
<metadata>
Created by potrace 1.15, written by Peter Selinger 2001-2017
</metadata>
<g transform="translate(0.000000,1280.000000) scale(0.100000,-0.100000)"
fill="#000000" stroke="none">
<path d="M4410 12789 c-374 -11 -511 -31 -561 -82 -53 -53 -69 -104 -69 -225
l0 -107 -223 -127 c-360 -206 -479 -261 -852 -393 -352 -125 -397 -146 -628
-298 -188 -124 -266 -188 -422 -348 -239 -246 -256 -268 -487 -649 -154 -254
-190 -308 -368 -555 -174 -241 -297 -466 -464 -853 -83 -191 -123 -313 -186
-555 -124 -484 -144 -614 -144 -942 1 -334 26 -495 79 -495 8 0 32 17 53 38
46 43 45 39 103 382 61 364 94 477 288 979 81 209 95 237 274 526 150 240 214
316 315 368 128 65 169 72 427 70 233 -2 479 -12 473 -19 -3 -2 -69 -20 -148
-40 -290 -73 -377 -112 -630 -286 -178 -122 -196 -137 -204 -170 -19 -78 2
-81 299 -41 184 24 234 26 610 29 389 2 406 2 330 -13 -241 -45 -407 -106
-770 -282 -308 -150 -424 -261 -318 -302 35 -14 114 -8 422 32 193 25 284 32
496 35 159 3 254 1 245 -4 -8 -5 -40 -12 -72 -16 -142 -16 -254 -51 -508 -161
-449 -195 -608 -293 -630 -390 -10 -42 9 -68 43 -60 251 58 560 96 766 94 147
-1 366 -22 331 -32 -14 -4 -39 -7 -57 -7 -44 0 -209 -34 -296 -61 -134 -42
-590 -284 -665 -353 -42 -39 -82 -101 -82 -129 0 -16 37 -51 64 -61 11 -4 90
17 200 53 99 33 208 65 241 72 70 16 555 19 650 5 l60 -9 -88 -18 c-177 -36
-464 -138 -606 -216 -187 -103 -432 -283 -478 -352 -29 -43 -30 -87 -2 -102
17 -9 36 -5 103 20 214 80 593 142 965 155 80 3 141 2 135 -3 -5 -4 -97 -41
-204 -81 -350 -132 -398 -156 -662 -342 -151 -106 -222 -169 -272 -242 -79
-113 -22 -134 185 -67 68 22 153 47 189 56 36 9 126 36 201 60 107 35 162 47
250 55 62 5 114 8 116 6 2 -2 -11 -9 -29 -16 -18 -8 -123 -57 -233 -111 -170
-83 -217 -111 -309 -185 -142 -113 -280 -246 -301 -290 -9 -19 -15 -49 -13
-66 5 -56 24 -57 160 -9 373 130 494 167 700 217 125 30 233 54 240 54 7 -1
-31 -16 -85 -34 -105 -36 -115 -42 -457 -280 -190 -132 -262 -193 -363 -306
-67 -74 -97 -126 -97 -169 0 -29 22 -61 42 -61 38 0 155 42 283 102 223 104
313 136 628 218 121 32 128 30 35 -10 -121 -51 -205 -110 -413 -293 -259 -228
-445 -432 -445 -489 0 -33 39 -78 68 -78 10 0 94 46 186 101 158 96 261 144
576 273 88 36 226 77 257 76 4 0 -29 -20 -74 -44 -118 -61 -174 -107 -315
-257 -243 -259 -385 -430 -447 -541 -28 -49 -32 -65 -29 -115 3 -55 5 -58 30
-61 36 -4 49 4 170 100 217 173 527 348 831 469 126 50 231 89 233 86 3 -3
-19 -18 -48 -34 -29 -16 -125 -74 -213 -128 -88 -54 -193 -119 -234 -144 -215
-130 -454 -387 -572 -615 -50 -97 -62 -128 -63 -170 -1 -45 1 -51 21 -54 37
-5 84 27 203 143 63 61 143 130 177 153 145 99 576 302 932 440 11 4 13 0 7
-19 -4 -13 -22 -96 -41 -184 -43 -200 -61 -258 -142 -470 -154 -400 -227 -671
-280 -1030 -32 -216 -21 -710 23 -1055 29 -236 111 -599 184 -821 45 -138 143
-334 198 -397 60 -70 142 -70 142 -1 0 16 -22 134 -49 262 -88 413 -104 544
-104 857 -1 144 7 325 21 505 35 444 48 535 104 704 39 120 218 480 297 598
64 95 94 124 198 187 51 32 64 36 82 26 12 -6 21 -19 21 -29 0 -11 -18 -83
-41 -161 -52 -184 -69 -273 -69 -373 0 -121 24 -184 61 -161 6 3 46 79 89 169
82 166 149 271 195 301 22 14 32 15 66 5 22 -7 43 -19 46 -28 3 -8 -11 -86
-31 -172 -39 -168 -56 -258 -83 -446 -42 -288 -4 -1138 67 -1540 27 -150 37
-184 67 -211 31 -28 55 -30 79 -7 18 19 18 12 -12 343 -18 193 -20 925 -3
1105 12 129 70 458 100 565 19 69 69 172 89 185 16 10 25 -19 30 -95 7 -79 24
-126 52 -144 24 -15 49 11 120 120 56 89 81 110 114 97 29 -11 45 -67 65 -231
18 -144 22 -241 26 -699 4 -455 3 -556 -12 -700 -10 -92 -18 -232 -19 -310 -1
-133 0 -144 21 -164 28 -28 47 -20 73 32 66 128 124 539 161 1129 17 280 7
651 -25 885 -28 206 -34 363 -14 383 39 39 112 -17 162 -122 19 -39 57 -144
86 -233 33 -105 60 -173 75 -190 l25 -28 25 28 c63 71 60 157 -18 527 -37 175
-24 208 79 197 119 -12 180 -74 281 -285 173 -360 257 -619 297 -914 22 -157
40 -516 39 -778 0 -214 -4 -264 -41 -560 -70 -553 -75 -632 -43 -763 21 -89
33 -107 59 -91 81 47 385 979 461 1414 35 197 44 317 44 550 -1 366 -74 954
-164 1314 -68 275 -128 405 -341 750 -37 61 -66 111 -65 112 10 10 470 -191
651 -284 257 -132 301 -162 463 -315 92 -87 131 -118 157 -123 19 -3 40 -3 47
1 21 13 3 88 -44 185 -61 125 -102 185 -225 329 -167 194 -233 243 -764 563
-49 29 -84 54 -79 56 16 5 412 -157 506 -207 192 -103 417 -244 521 -327 181
-143 224 -154 224 -52 0 56 -24 109 -98 213 -103 147 -442 515 -562 613 -35
28 -101 70 -145 92 -44 22 -76 40 -72 40 5 0 47 -9 93 -21 83 -20 146 -44 389
-148 182 -78 198 -86 367 -187 86 -52 167 -94 180 -94 48 0 81 67 56 113 -19
36 -191 230 -268 303 -36 34 -141 128 -235 208 -151 131 -183 153 -290 206
-66 33 -117 60 -113 60 12 0 227 -58 348 -94 140 -41 175 -55 367 -145 223
-104 315 -122 329 -66 9 38 -3 74 -51 140 -79 111 -207 220 -480 409 -271 187
-303 205 -425 242 -156 47 -16 21 271 -51 164 -40 364 -105 623 -199 118 -43
153 -46 162 -12 3 13 0 43 -6 67 -15 53 -118 160 -285 293 -128 102 -173 128
-411 241 -97 47 -178 86 -181 88 -2 2 20 2 49 0 127 -9 214 -26 325 -64 65
-22 154 -49 198 -59 44 -11 127 -35 184 -55 105 -35 203 -46 216 -25 32 52
-121 211 -365 379 -196 135 -283 178 -583 291 -125 47 -227 88 -227 93 0 4 10
5 23 3 12 -3 105 -8 207 -11 261 -9 669 -74 825 -131 119 -45 142 -49 159 -35
22 18 20 57 -5 97 -47 77 -372 306 -564 399 -176 85 -357 142 -532 167 -46 7
-83 15 -83 19 0 15 153 21 430 17 317 -5 278 1 567 -95 155 -52 174 -52 209 2
17 26 17 29 0 60 -52 96 -108 135 -441 306 -123 63 -249 120 -305 137 -98 31
-256 62 -319 62 -82 1 1 18 143 30 230 19 519 -3 799 -61 82 -17 155 -28 163
-25 18 7 18 59 -1 95 -39 77 -258 200 -670 376 -192 82 -318 121 -455 140
l-85 11 127 8 c167 10 304 1 646 -40 382 -46 419 -45 436 12 20 67 -177 190
-612 383 -97 43 -199 86 -227 95 -74 24 -265 66 -302 66 -17 0 -35 5 -38 10
-4 7 107 10 327 10 329 0 429 -6 733 -45 175 -22 215 -23 230 -2 15 21 8 65
-14 91 -31 35 -385 269 -459 303 -80 36 -283 100 -414 129 -43 10 -76 19 -74
21 3 4 597 33 696 34 72 2 125 -16 205 -66 62 -39 169 -154 211 -226 17 -30
113 -194 212 -364 225 -387 248 -433 316 -636 65 -192 123 -428 196 -807 43
-221 57 -275 72 -283 28 -15 70 10 80 46 19 72 30 355 25 635 -4 244 -9 315
-26 410 -53 282 -127 535 -225 771 -35 85 -80 201 -100 259 -69 197 -176 395
-365 675 -96 143 -259 399 -363 569 -311 511 -568 824 -806 984 -84 57 -213
127 -432 237 -266 133 -341 165 -595 252 -292 100 -381 146 -550 283 -38 31
-107 82 -151 114 l-82 58 -4 116 c-5 137 -21 182 -83 224 -22 15 -62 32 -90
37 -145 30 -509 37 -1065 20z"/>
</g>
</svg>
