<?xml version="1.0" standalone="no"?>
<!DOCTYPE svg PUBLIC "-//W3C//DTD SVG 20010904//EN"
 "http://www.w3.org/TR/2001/REC-SVG-20010904/DTD/svg10.dtd">
<svg version="1.0" xmlns="http://www.w3.org/2000/svg"
 width="1280.000000pt" height="1027.000000pt" viewBox="0 0 1280.000000 1027.000000"
 preserveAspectRatio="xMidYMid meet">
<metadata>
Created by potrace 1.15, written by Peter Selinger 2001-2017
</metadata>
<g transform="translate(0.000000,1027.000000) scale(0.100000,-0.100000)"
fill="#000000" stroke="none">
<path d="M8585 9509 c-4 -6 -27 -19 -51 -30 -29 -12 -52 -31 -65 -54 -17 -29
-27 -35 -54 -35 -19 0 -40 7 -49 15 -18 18 -30 18 -114 3 -57 -11 -66 -15 -77
-41 -7 -16 -9 -43 -6 -60 4 -17 2 -55 -4 -84 -12 -61 -47 -94 -120 -112 -24
-6 -47 -15 -50 -21 -3 -5 -14 -10 -24 -10 -10 0 -24 -7 -31 -15 -14 -17 -61
-20 -76 -5 -7 7 -19 8 -35 2 -40 -16 -120 -31 -194 -38 -43 -4 -80 -13 -96
-24 -47 -33 -404 -73 -454 -51 -61 27 -75 29 -107 21 -37 -11 -143 -9 -154 3
-4 4 -14 7 -22 7 -8 0 -28 6 -45 14 -18 7 -51 21 -74 31 -37 16 -60 31 -123
87 -29 26 -66 36 -170 48 -58 6 -128 21 -157 32 -48 19 -56 20 -115 8 -52 -11
-70 -21 -103 -54 l-40 -41 -122 -1 c-95 -1 -127 -4 -140 -16 -23 -20 -205
-108 -223 -108 -7 0 -27 -11 -44 -23 -17 -13 -43 -27 -58 -31 -16 -3 -28 -11
-28 -16 0 -5 -32 -40 -70 -79 l-70 -70 -94 5 c-91 5 -94 4 -114 -21 -19 -23
-19 -29 -7 -78 7 -28 16 -59 19 -69 5 -11 -11 -34 -58 -83 -65 -65 -66 -68
-66 -119 0 -40 -5 -57 -20 -71 -24 -22 -37 -80 -21 -99 9 -10 9 -20 0 -40 -7
-14 -16 -26 -21 -26 -10 0 -54 -91 -63 -130 -5 -21 -14 -30 -36 -35 -16 -4
-31 -11 -34 -16 -12 -18 7 -98 24 -104 9 -3 27 -21 40 -40 19 -29 23 -43 18
-78 -6 -45 1 -64 48 -117 12 -14 25 -36 29 -50 7 -30 105 -107 161 -127 61
-21 261 -129 292 -158 67 -61 130 -89 198 -88 36 1 66 -4 75 -12 24 -20 199
-93 264 -110 33 -9 73 -22 90 -30 17 -7 48 -21 69 -29 23 -9 36 -20 32 -26 -4
-7 2 -14 14 -17 12 -3 21 -9 21 -13 0 -4 11 -12 25 -18 62 -29 114 -77 121
-112 3 -19 15 -53 25 -76 10 -22 19 -45 19 -51 0 -6 10 -25 23 -44 12 -19 28
-52 35 -74 6 -22 23 -56 37 -75 14 -18 25 -39 25 -45 0 -14 59 -75 72 -75 5 0
39 -28 76 -63 37 -35 90 -76 117 -92 28 -16 77 -48 110 -71 102 -70 154 -84
314 -84 89 0 163 -6 207 -16 l69 -15 29 -60 c33 -66 50 -84 106 -114 49 -25
140 -128 140 -158 0 -12 18 -41 40 -63 37 -39 42 -41 83 -37 31 4 56 -1 90
-16 25 -12 51 -21 56 -21 6 0 16 -20 23 -45 11 -42 14 -45 45 -45 43 0 92 21
118 49 20 23 76 51 102 51 8 0 30 -16 50 -35 33 -32 38 -34 57 -22 33 22 94
29 132 17 25 -8 39 -9 48 -1 7 6 28 8 48 5 21 -4 45 -1 59 7 13 7 52 12 86 11
42 0 63 4 66 13 9 21 64 36 80 21 24 -25 82 -28 118 -7 46 27 135 37 142 16 6
-15 46 -22 48 -7 0 4 2 17 3 29 2 13 5 26 8 29 15 15 71 11 110 -8 39 -19 45
-19 69 -6 19 11 31 13 44 5 10 -5 50 -10 89 -11 39 0 74 -4 77 -9 9 -13 61 14
101 54 32 30 47 38 95 43 77 9 86 9 171 -5 57 -9 78 -9 100 1 15 6 62 15 105
17 70 5 81 4 108 -16 19 -14 37 -20 50 -16 13 5 25 -1 38 -17 18 -21 25 -22
112 -20 125 3 142 8 163 42 9 17 22 30 29 30 6 0 23 12 39 27 22 21 30 24 42
14 20 -17 50 -6 66 24 11 21 21 25 56 25 23 0 49 6 56 14 8 7 30 21 48 31 37
19 90 65 90 77 0 4 12 28 28 53 33 56 118 110 189 121 26 3 62 12 78 18 17 7
51 9 79 6 36 -5 54 -2 70 10 11 9 41 26 66 37 25 12 60 37 78 57 19 20 40 36
48 36 8 0 14 4 14 9 0 5 11 12 25 15 23 6 24 10 23 74 0 37 -7 79 -15 95 -15
29 -17 26 32 42 8 2 15 15 15 28 0 14 16 39 40 62 22 21 40 45 40 51 0 7 9 16
20 19 15 5 20 15 20 41 0 24 9 44 34 71 18 21 44 56 58 78 27 43 76 99 93 106
6 2 26 27 46 54 34 47 36 54 32 115 -4 63 -28 130 -47 130 -20 0 -148 115
-160 145 -8 18 -19 36 -25 39 -6 4 -11 18 -11 32 0 40 -36 99 -78 126 -36 24
-39 30 -39 72 0 41 -4 50 -42 85 -24 22 -50 54 -59 73 -10 18 -30 39 -47 48
-16 8 -32 19 -34 24 -2 4 -30 38 -63 75 -44 48 -70 69 -98 76 -41 11 -80 40
-80 60 0 20 -26 36 -62 39 -47 4 -48 5 -48 18 0 7 -13 26 -28 43 -16 16 -35
49 -42 73 -15 49 -54 82 -95 82 -18 0 -38 12 -62 40 -20 22 -43 40 -50 40 -21
0 -84 51 -93 76 -5 13 -27 29 -54 39 -25 10 -46 24 -46 31 0 7 -12 22 -27 34
-16 12 -28 31 -28 43 0 24 -79 85 -113 86 -12 1 -40 10 -62 21 -22 11 -46 20
-55 20 -9 0 -18 7 -21 15 -9 23 -76 58 -116 60 -20 0 -51 8 -70 17 -18 9 -53
22 -78 29 -25 7 -52 19 -61 26 -8 7 -23 13 -32 13 -25 0 -85 39 -92 60 -4 14
-20 20 -60 25 -39 5 -56 12 -60 25 -6 18 -45 40 -70 40 -8 0 -15 5 -15 10 0 6
-8 13 -17 17 -35 12 -83 54 -83 72 0 17 -19 32 -45 35 -16 2 -75 40 -75 48 0
4 -26 15 -57 24 -32 9 -66 23 -76 32 -10 9 -28 17 -40 18 -55 6 -144 5 -168
-1 -21 -5 -34 0 -62 24 -19 17 -39 31 -45 31 -6 0 -19 12 -30 27 l-19 27 -100
-11 c-55 -6 -109 -15 -119 -20 -11 -5 -34 -17 -52 -26 -50 -25 -86 -21 -119
11 -31 32 -78 48 -88 31z"/>
<path d="M3241 7519 c-13 -5 -46 -9 -75 -8 -119 2 -202 -3 -221 -15 -11 -7
-69 -25 -130 -40 -179 -43 -188 -47 -237 -83 -27 -19 -48 -38 -48 -42 0 -9
-65 -39 -95 -43 -11 -2 -24 -12 -29 -23 -11 -25 -55 -57 -125 -90 -42 -19 -75
-27 -140 -30 -99 -4 -146 -15 -184 -40 -15 -9 -33 -15 -41 -12 -15 6 -20 1
-91 -80 -20 -23 -44 -42 -53 -42 -9 1 -35 -4 -57 -10 -22 -5 -61 -13 -87 -16
-27 -3 -48 -10 -48 -15 0 -16 -58 -40 -96 -40 -48 0 -112 -19 -147 -43 -30
-20 -100 -109 -130 -166 -10 -19 -21 -58 -24 -87 -5 -50 -11 -59 -80 -131 -50
-52 -72 -82 -68 -92 19 -48 16 -68 -11 -97 -35 -37 -84 -114 -84 -132 0 -7 -8
-32 -18 -55 -62 -141 -60 -125 -24 -227 10 -30 17 -63 14 -72 -6 -24 -97 -105
-136 -123 -48 -22 -66 -40 -65 -66 2 -33 -28 -99 -57 -126 -14 -13 -24 -33
-24 -50 0 -17 -8 -33 -19 -40 -18 -11 -19 -21 -15 -99 5 -103 36 -179 83 -207
16 -10 50 -41 75 -71 l46 -53 -9 -69 c-10 -83 -3 -100 47 -114 52 -14 62 -22
76 -63 7 -20 26 -51 42 -69 39 -43 46 -63 32 -93 -10 -22 -8 -29 14 -53 14
-15 28 -35 31 -44 4 -10 15 -18 26 -18 25 0 59 -34 78 -80 8 -19 26 -49 39
-67 21 -28 28 -31 58 -26 32 5 96 -14 96 -28 0 -4 8 -9 19 -12 14 -3 17 -11
14 -30 -5 -23 -1 -26 33 -32 22 -4 63 -16 91 -27 33 -12 59 -17 70 -12 10 4
50 10 90 13 63 5 73 4 77 -11 2 -11 14 -18 30 -18 28 0 32 10 15 43 -9 16 -9
22 0 25 6 2 11 12 11 21 0 10 9 26 21 37 13 12 18 26 15 39 -4 15 4 31 25 53
31 32 42 32 85 5 12 -7 63 -27 114 -44 51 -16 106 -41 122 -54 16 -14 34 -25
39 -25 15 0 109 -97 109 -113 0 -27 12 -47 27 -47 8 0 27 -8 41 -18 20 -14 41
-18 77 -16 48 3 125 -20 125 -37 0 -4 8 -8 18 -8 9 -1 26 -2 37 -3 11 0 48 2
83 6 54 6 67 4 88 -13 14 -11 31 -18 37 -16 7 1 35 8 62 15 28 6 69 21 92 33
42 21 42 21 65 2 47 -40 67 -47 104 -35 20 7 43 24 52 40 25 41 72 76 120 91
24 7 49 21 56 31 10 14 21 17 38 13 17 -4 29 0 43 16 20 21 20 21 -3 36 l-22
16 27 25 c24 22 31 24 56 14 23 -9 36 -8 58 4 26 13 29 13 29 -1 0 -8 10 -16
23 -17 12 -1 29 -2 37 -3 8 0 21 -5 29 -9 10 -7 22 0 40 20 27 30 66 41 86 24
18 -15 79 4 90 28 19 43 65 16 67 -40 1 -28 6 -39 20 -44 12 -3 17 -12 14 -20
-3 -9 2 -18 12 -21 9 -4 22 -13 28 -21 14 -19 169 -11 229 12 44 16 53 13 129
-47 20 -16 53 -31 76 -34 26 -4 40 -11 40 -20 0 -12 7 -13 28 -8 15 4 44 8 64
10 21 2 43 7 49 11 6 3 43 10 81 14 48 6 76 14 90 27 23 23 15 51 -18 64 -13
4 -24 12 -24 17 0 13 63 32 106 32 22 0 52 9 68 19 17 11 33 18 37 15 4 -2 10
0 14 6 4 6 14 4 29 -5 20 -13 29 -13 82 1 32 8 81 15 107 16 27 0 63 4 80 9
20 5 55 4 101 -5 151 -30 154 -30 189 5 17 18 33 27 35 20 2 -6 19 -11 37 -11
24 0 34 5 38 20 4 16 14 20 47 20 31 0 47 6 65 26 14 15 25 34 25 43 0 31 39
80 85 106 53 32 86 84 105 167 7 32 21 65 31 74 10 9 26 39 35 66 21 63 108
155 184 194 82 41 82 41 65 81 -8 20 -15 46 -15 58 0 38 -27 89 -59 113 -17
12 -31 29 -31 37 0 8 -18 27 -40 41 -23 15 -40 35 -40 45 0 11 -4 19 -9 19 -5
0 -20 19 -34 43 -14 23 -66 79 -115 124 -56 52 -98 99 -112 128 -12 25 -26 47
-31 51 -5 3 -9 13 -9 24 0 10 -6 20 -14 23 -8 3 -22 22 -32 42 -14 29 -29 42
-76 62 -52 23 -58 29 -60 57 -3 72 -5 94 -16 152 -5 33 -24 85 -41 115 -17 30
-34 61 -38 69 -3 8 -36 53 -73 100 -36 47 -76 99 -88 116 -13 19 -34 34 -51
37 -18 4 -57 32 -98 72 -129 125 -139 135 -146 135 -4 0 -16 9 -27 20 -11 11
-31 20 -45 20 -17 0 -31 9 -43 28 -9 15 -36 52 -59 82 -23 30 -45 67 -48 83
-4 15 -11 30 -16 33 -5 3 -9 14 -9 25 0 22 -167 209 -186 209 -6 0 -17 6 -23
14 -6 8 -26 16 -44 19 -63 10 -105 31 -127 64 -16 23 -31 33 -49 33 -14 0 -37
9 -51 20 -14 11 -35 20 -47 20 -12 0 -33 5 -46 11 -32 14 -98 -18 -123 -60
-18 -31 -19 -31 -164 -47 -52 -6 -56 -5 -77 24 -24 33 -81 66 -133 77 -19 4
-45 17 -58 29 -20 18 -36 21 -110 21 -48 1 -100 6 -115 13 -16 7 -45 12 -65
12 -20 1 -60 9 -88 18 -29 10 -60 15 -70 11 -11 -3 -28 -3 -39 1 -11 4 -31 3
-44 -1z"/>
<path d="M10822 5047 c-15 -4 -71 -9 -124 -12 -96 -4 -135 -16 -140 -43 -7
-32 -138 -54 -177 -30 -15 9 -27 9 -58 -4 -21 -8 -69 -23 -108 -32 -71 -17
-118 -49 -131 -89 -4 -11 -34 -48 -68 -82 -116 -116 -206 -245 -206 -294 0
-25 -37 -70 -66 -81 -29 -11 -66 -66 -107 -161 -33 -74 -75 -146 -109 -185
-28 -32 -41 -84 -22 -91 17 -6 64 -94 64 -118 0 -8 5 -15 11 -15 18 0 39 -68
39 -129 0 -49 4 -64 22 -81 12 -11 27 -20 33 -20 21 0 82 -75 88 -107 4 -18
13 -48 22 -69 13 -31 18 -35 40 -30 14 4 34 2 44 -4 18 -9 54 -93 44 -103 -2
-3 6 -17 18 -31 20 -23 29 -26 65 -21 25 3 46 0 49 -5 4 -6 16 -8 27 -4 20 6
36 9 106 16 21 3 41 14 55 31 15 19 37 30 69 36 26 4 59 16 73 25 27 18 160
26 184 12 5 -4 18 -2 29 5 14 9 29 8 65 -5 56 -19 89 -13 123 21 13 13 29 21
34 18 5 -3 27 6 47 20 21 14 45 25 55 25 20 0 40 32 36 58 -2 9 3 17 10 16 6
-1 35 -2 62 -2 44 -2 52 -5 60 -27 8 -20 13 -23 27 -16 78 42 116 53 146 44
20 -5 37 -19 45 -36 8 -16 21 -31 30 -34 10 -3 23 -11 31 -17 7 -6 26 -9 41
-8 15 2 32 -4 40 -12 7 -9 20 -16 29 -16 10 0 26 -7 37 -15 10 -8 27 -15 36
-15 11 0 24 -15 33 -36 11 -28 19 -35 32 -29 10 3 32 9 48 12 17 3 37 11 45
18 8 7 35 15 60 18 25 3 61 10 81 15 26 7 48 5 75 -4 46 -16 64 -5 64 37 0 16
5 29 10 29 6 0 10 11 10 24 0 13 7 40 15 59 22 54 20 154 -6 196 -26 44 -21
63 40 133 27 32 52 72 56 90 9 43 33 115 47 141 18 35 58 219 58 272 0 52 -17
87 -53 113 -10 8 -28 37 -41 66 -21 46 -95 126 -117 126 -5 0 -30 14 -56 30
-39 25 -47 35 -45 55 6 45 -29 65 -110 65 l-73 0 -60 56 c-111 103 -176 154
-198 156 -12 0 -35 2 -50 3 -15 1 -33 7 -40 14 -14 14 -30 15 -22 1 9 -15 -8
-12 -33 5 -12 9 -27 15 -34 13 -7 -1 -37 1 -66 5 -34 5 -67 4 -89 -4 -41 -13
-118 4 -127 28 -4 9 -14 13 -26 10 -11 -3 -20 -1 -20 4 0 10 -87 8 -128 -4z"/>
<path d="M7090 3625 c-30 -7 -73 -14 -94 -14 -24 -1 -51 -10 -70 -24 -17 -13
-47 -29 -66 -35 -39 -12 -121 -27 -132 -24 -4 1 -47 -8 -95 -19 -69 -16 -104
-19 -163 -14 -161 14 -318 37 -390 57 -140 38 -139 38 -235 17 -49 -12 -127
-36 -172 -55 -45 -19 -87 -34 -93 -34 -14 0 -176 -67 -210 -87 -14 -8 -50 -25
-80 -39 -96 -42 -105 -48 -124 -89 -11 -22 -36 -69 -57 -104 -21 -35 -50 -99
-65 -144 -23 -70 -26 -90 -21 -161 4 -45 13 -107 22 -139 8 -32 15 -84 15
-115 0 -99 17 -169 55 -231 20 -33 35 -72 35 -89 0 -17 4 -33 9 -36 4 -3 11
-29 15 -58 4 -29 11 -57 16 -63 4 -5 8 -13 8 -18 1 -20 16 -81 45 -176 33
-108 41 -121 145 -227 23 -24 46 -44 49 -44 3 0 21 -11 39 -25 27 -21 41 -25
68 -20 25 5 36 3 43 -9 5 -9 29 -29 55 -45 37 -24 54 -44 85 -105 21 -42 46
-90 55 -108 9 -18 17 -41 18 -51 1 -36 30 -87 84 -145 30 -34 64 -78 75 -100
11 -22 51 -71 88 -109 60 -62 78 -74 153 -102 111 -42 129 -51 135 -71 3 -9
18 -23 33 -31 15 -7 40 -24 56 -37 16 -13 35 -21 42 -18 8 3 29 -1 49 -10 28
-12 54 -13 133 -5 156 15 222 -7 244 -81 10 -33 51 -78 72 -78 3 0 38 -15 78
-34 89 -42 248 -97 346 -121 62 -15 79 -16 118 -5 42 12 47 11 72 -8 55 -44
104 -62 209 -78 59 -9 125 -23 145 -32 43 -17 126 -12 195 13 23 8 74 17 113
19 39 3 85 9 103 15 18 6 100 22 182 37 145 25 154 26 277 14 149 -15 272 -8
325 18 21 10 67 25 103 32 84 16 193 45 216 58 11 5 41 13 67 16 68 10 112 31
139 66 26 34 84 59 136 60 38 0 100 53 160 134 20 28 40 56 45 61 43 56 84
128 128 230 5 11 13 27 18 35 24 43 39 78 46 107 3 18 16 45 28 60 19 24 22
39 21 120 -2 80 -6 99 -30 145 -37 70 -77 131 -133 200 -69 86 -134 176 -151
208 -33 64 -91 139 -113 146 -26 8 -233 217 -252 255 -8 14 -30 38 -49 53 -20
15 -51 51 -70 80 -19 30 -47 62 -62 72 -26 18 -167 149 -241 226 -89 91 -113
111 -178 145 -38 20 -95 53 -125 73 -30 21 -71 42 -90 49 -19 6 -43 20 -55 31
-11 11 -56 37 -100 58 -44 22 -102 56 -129 76 -26 21 -70 51 -97 67 -26 17
-58 46 -70 66 -30 48 -113 133 -130 133 -8 0 -39 13 -70 30 -31 16 -75 32 -98
36 -23 4 -44 11 -47 15 -3 5 -49 9 -101 9 -124 0 -198 14 -303 57 -47 19 -111
43 -143 54 -76 25 -233 32 -307 14z"/>
</g>
</svg>
