<?xml version="1.0" standalone="no"?>
<!DOCTYPE svg PUBLIC "-//W3C//DTD SVG 20010904//EN"
 "http://www.w3.org/TR/2001/REC-SVG-20010904/DTD/svg10.dtd">
<svg version="1.0" xmlns="http://www.w3.org/2000/svg"
 width="1280.000000pt" height="1194.000000pt" viewBox="0 0 1280.000000 1194.000000"
 preserveAspectRatio="xMidYMid meet">
<metadata>
Created by potrace 1.15, written by Peter Selinger 2001-2017
</metadata>
<g transform="translate(0.000000,1194.000000) scale(0.100000,-0.100000)"
fill="#000000" stroke="none">
<path d="M10027 11893 c-3 -21 -35 -222 -71 -448 -362 -2283 -739 -5632 -956
-8510 -49 -654 -81 -1097 -105 -1465 -14 -217 -29 -442 -33 -500 -4 -58 -7
385 -7 985 -1 1026 -4 1222 -36 2035 -16 431 -44 931 -75 1340 -180 2427 -543
4115 -1079 5015 -85 143 -100 158 -74 74 29 -91 142 -538 179 -704 343 -1549
535 -3164 612 -5140 16 -421 16 -1912 0 -2325 -17 -434 -42 -953 -47 -965 -2
-5 -4 28 -4 75 -1 47 -8 231 -16 410 -81 1754 -267 3537 -520 4990 -400 2287
-957 3894 -1665 4801 -83 106 -177 212 -167 189 3 -8 30 -71 60 -140 246 -567
533 -1522 746 -2481 479 -2159 743 -4683 795 -7584 4 -278 -1 -248 -39 210
-211 2526 -512 4936 -761 6095 -40 187 -119 498 -128 507 -2 2 -2 -51 0 -119
2 -68 9 -350 14 -628 40 -1961 126 -3881 225 -5030 43 -487 106 -999 142
-1149 3 -14 3 -23 0 -20 -4 3 -18 55 -32 115 -13 60 -56 242 -95 404 -590
2459 -1016 4892 -1134 6475 -52 695 -46 1499 15 1839 6 32 8 61 5 64 -9 8 -79
-151 -115 -256 -231 -691 -290 -1914 -165 -3422 61 -744 188 -1742 319 -2509
19 -112 35 -211 34 -220 0 -9 -63 283 -140 649 -539 2580 -937 4310 -1220
5305 -93 325 -218 705 -233 705 -2 0 -2 -8 0 -17 2 -10 38 -304 79 -653 72
-601 100 -842 195 -1635 22 -184 58 -485 80 -667 21 -183 69 -579 105 -880 36
-302 94 -794 130 -1095 36 -302 84 -698 105 -881 22 -182 58 -483 80 -667 92
-775 124 -1040 214 -1800 53 -440 98 -818 100 -840 l5 -40 -9 35 c-5 19 -64
319 -130 665 -377 1960 -951 4751 -1220 5925 -27 118 -67 296 -89 395 -56 253
-226 966 -311 1305 -207 828 -374 1384 -500 1663 -20 46 -37 64 -26 30 6 -19
419 -2901 570 -3978 199 -1412 454 -3287 571 -4195 111 -859 224 -1855 211
-1867 -2 -2 -7 18 -11 44 -20 144 -221 1177 -336 1733 -649 3131 -1282 5152
-1772 5657 -39 40 -73 73 -77 73 -4 0 10 -71 30 -157 69 -290 188 -805 255
-1095 36 -159 94 -417 131 -575 552 -2426 967 -4480 1073 -5324 20 -159 38
-398 29 -389 -3 3 -51 122 -106 265 -688 1785 -1228 3675 -1511 5290 -223
1273 -291 2435 -195 3345 8 80 17 170 20 200 l5 55 -32 -54 c-45 -74 -123
-270 -163 -409 -81 -280 -133 -577 -172 -990 -21 -223 -30 -927 -15 -1237 80
-1686 497 -3765 1250 -6240 39 -126 67 -232 63 -236 -6 -5 -505 -77 -569 -83
-14 -1 -20 15 -30 79 -134 808 -427 2477 -553 3150 -22 116 -64 345 -95 510
-585 3128 -1100 5335 -1442 6170 -50 122 -143 306 -174 345 l-20 25 6 -40 c3
-22 46 -382 95 -800 49 -418 139 -1178 199 -1690 104 -872 163 -1372 412
-3475 248 -2099 326 -2760 419 -3550 55 -465 102 -863 105 -885 5 -44 -31 61
-261 760 l-155 470 -390 440 c-214 242 -397 447 -405 455 -9 8 11 -39 44 -105
391 -787 646 -1549 690 -2061 10 -108 6 -263 -18 -744 -6 -118 -13 -232 -15
-252 l-5 -38 5646 0 5647 0 -7 98 c-16 233 -36 634 -36 718 0 94 21 263 65
524 130 767 385 1519 684 2012 39 65 71 120 71 123 0 9 -88 -53 -190 -134
-420 -334 -753 -860 -914 -1446 -34 -126 -77 -340 -91 -457 -3 -32 -23 -109
-44 -170 l-38 -113 -6 105 c-4 58 -10 380 -13 715 -20 1823 103 3585 347 5005
185 1080 459 2067 771 2779 64 148 64 156 -7 147 -73 -10 -114 -26 -189 -77
-420 -281 -817 -1293 -1121 -2859 -283 -1458 -508 -3526 -635 -5830 -11 -206
-22 -386 -24 -400 -8 -62 -5 1003 4 1359 90 3542 496 6303 1178 8007 187 468
422 902 634 1172 27 35 48 65 46 67 -9 9 -160 -40 -231 -75 -119 -60 -226
-141 -357 -270 -134 -132 -215 -231 -339 -415 -680 -1009 -1180 -2873 -1451
-5400 -17 -159 -35 -321 -40 -360 -10 -77 -10 -82 10 410 122 3024 130 5217
24 6219 -22 213 -62 457 -77 472 -2 2 -7 -12 -10 -33z m-4170 -8045 c-3 -7 -5
-2 -5 12 0 14 2 19 5 13 2 -7 2 -19 0 -25z"/>
</g>
</svg>
