<?xml version="1.0" standalone="no"?>
<!DOCTYPE svg PUBLIC "-//W3C//DTD SVG 1.1//EN" "http://www.w3.org/Graphics/SVG/1.1/DTD/svg11.dtd" >
<svg xmlns="http://www.w3.org/2000/svg" xmlns:xlink="http://www.w3.org/1999/xlink" version="1.1">
<metadata>
Created by FontForge 20170924 at Mon Oct 24 18:10:44 2011
 By www-data
2011 Iconian Fonts - www.iconian.com
</metadata>
<defs>
<font id="MonsteramaBold" horiz-adv-x="341" >
  <font-face 
    font-family="Monsterama Bold"
    font-weight="700"
    font-stretch="normal"
    units-per-em="1000"
    panose-1="0 0 0 0 0 0 0 0 0 0"
    ascent="800"
    descent="-200"
    x-height="746"
    cap-height="839"
    bbox="-46 -160 1275 977"
    underline-thickness="50"
    underline-position="-125"
    unicode-range="U+0020-2122"
  />
<missing-glyph horiz-adv-x="500" 
 />
    <glyph glyph-name=".notdef" horiz-adv-x="500" 
 />
    <glyph glyph-name=".null" horiz-adv-x="0" 
 />
    <glyph glyph-name="nonmarkingreturn" horiz-adv-x="500" 
 />
    <glyph glyph-name="space" unicode=" " horiz-adv-x="284" 
 />
    <glyph glyph-name="space" unicode="&#xa0;" horiz-adv-x="284" 
 />
    <glyph glyph-name="FL0021h" unicode="!" horiz-adv-x="139" 
d="M56 285q0 -19 9 -22t14 -3h12v18q0 8 -1 10q2 -2 3 -2t2 -1q2 -2 2 -4q0 -1 1 -2q2 -8 6.5 -13t27.5 -11v87q-2 2 -5 6t-3 5l4 4v16l-12 10q-1 6 -1.5 19t-0.5 16l0.5 3.5l1.5 10.5t2 16l1 9v10v22v22v5q5 6 5 13v8q0 12 -1.5 20t-3.5 16l-6 27l-5 4q-2 13 -2.5 21
t-1 12.5t-0.5 8.5v10v11q11 9 11 24q0 7 -3 16t-6 20q-1 4 -1 6t-2 7q-5 16 -22 24t-39 8l4 -20q0 -2 1 -7l2 -10l-18 -51q1 -4 1.5 -6.5l1.5 -7.5q1 -7 1.5 -16t1.5 -14v-5q0 -2 0.5 -3.5t0.5 -2.5v-9q0 -4 -1.5 -7.5t-8.5 -7.5v-21q0 -17 1 -33.5t1 -32.5q1 -15 1.5 -30.5
t0.5 -30.5l-1 -6.5t-1 -11.5v2q-3 -15 -3 -24v-8q0 -8 2.5 -14.5t11.5 -11.5q0 -4 -0.5 -8.5t-0.5 -9.5q0 -7 0.5 -12t0.5 -10v-9q0 -2 1 -9t3 -12h-1q0 -2 2 -4v-7q0 -7 1.5 -11.5t8.5 -5.5zM21 112q1 -8 10.5 -16t22 -15t24.5 -12.5t19 -6.5q5 20 9.5 25.5t9.5 9.5
q6 5 11 11t8 18q2 5 2 7v5q0 11 -4 21t-9 18q-1 1 -3 5q15 4 15 18q0 8 -20 15t-41 7q-14 0 -32 -6q-2 -8 -4 -23.5t-6 -29.5q-5 -16 -8.5 -29t-3.5 -18v-4zM75 396l10 -8l-2 -3l-8 9v2z" />
    <glyph glyph-name="FL0022h" unicode="&#x22;" horiz-adv-x="241" 
d="M110 562q1 -7 13 -15t27.5 -15t31 -12.5t23.5 -6.5q-8 17 -11 28t-3 19q0 43 2 69t4.5 39.5t5.5 18t6 4.5t5 -2.5t2 -1.5l21 -9q2 5 2 10q0 11 -4 20.5t-9 17.5v-1q-2 1 -4 5q16 4 16 16q0 4 -6 7.5t-15.5 6.5t-21.5 5t-23 2q-8 0 -16.5 -1.5t-19.5 -3.5q-2 -8 -4 -22.5
t-7 -27.5v1q-3 -8 -5.5 -31t-5 -48.5t-3.5 -46t-1 -23.5v-2zM19 594q0 -6 8 -13.5t18.5 -13.5t21 -10.5t15.5 -5.5q6 15 10.5 40.5t7 50.5t3.5 43.5t0 18.5l12 -12v5q0 8 -3.5 16t-5.5 15q-2 4 -3 5q6 2 9 6.5t3 7.5q0 8 -15.5 14t-32.5 6q-8 0 -15.5 -2t-15.5 -4
q0 -8 -2 -19.5t-4 -22.5q-2 -6 -4 -25t-3.5 -40.5t-2.5 -39.5t-1 -20z" />
    <glyph glyph-name="FL0023h" unicode="#" horiz-adv-x="461" 
d="M180 224l1 1l-6 4zM308 224l1 1l-5 4zM32 293q1 -2 2 -2.5t1 -2.5q2 -4 6 -7l8 -6q-11 8 -15 13t-2 5zM242 334q0 31 -1 60t-3 60q-1 0 -2 -0.5t-2 -0.5v-1q0 -10 -8 -18v-11q0 -8 0.5 -16.5t0.5 -18.5t-0.5 -19t-0.5 -16v-19q0 -1 -0.5 -3.5t-0.5 -5.5q-1 -2 -1 -6
q5 0 9 0.5t8 0.5q1 4 1 7v7zM273 48q0 2 0.5 3.5t2.5 8.5l6 5q-16 0 -18.5 6.5t-2.5 17.5v7q-2 2 -2 12q-2 8 -3 18l-1 10v15q0 7 -0.5 15.5t-0.5 18.5t0.5 18.5t0.5 16.5v4q-15 7 -17 19q-4 -1 -8 -1h-9q1 -4 1 -7t1 -7l2 -22l13 -13v-13v-3t-1 -4l-4 -6q0 -1 4.5 -10
l6.5 -13v-128q-29 10 -35 16.5t-7 16.5q-1 5 -2 8.5t-3 7.5l1 -2q-4 7 -9 9q-4 3 -8 5.5t-8 5.5q0 -1 -0.5 -2t-0.5 -2v1q-2 -3 -3 -6.5t-6 -8.5h-9q-16 0 -18.5 6.5t-2.5 17.5v7q-2 2 -2 12q-2 8 -3.5 18l-1.5 10v15q0 7 -0.5 15.5t-0.5 18.5t0.5 18.5t0.5 16.5v4
q-10 5 -13.5 11t-5.5 14l-58 12q0 1 0.5 6.5t0.5 6.5v1q-1 0 -5 4t-10 9q0 2 -0.5 4t-0.5 4q0 5 7.5 12t18.5 8q17 2 29.5 2.5t23.5 1.5q1 4 1 7v7q0 32 -1.5 62.5t-3.5 62.5l-74 24q0 1 0.5 6t0.5 6q0 2 0.5 2.5t0.5 2.5q0 -1 -5.5 4.5l-13.5 13.5q2 0 6 -2q-6 8 -6 13
q0 11 9.5 18t20.5 7q10 1 19 2t17 2q7 0 13 0.5t11 0.5v10q9 5 11 13.5t2 17.5v13q0 2 -0.5 6t-0.5 8v6q0 10 -1 24t-3 25q-1 8 -1 11t-1 9l28 97q8 2 11.5 2.5t6.5 2.5q5 2 10.5 4t12.5 2q18 0 22 -19q2 -10 4.5 -18t4.5 -16q3 -14 5 -23.5t2 -19.5q0 -20 -15 -34v-21
q1 -7 1 -16t1 -20q1 -17 1 -33q0 -15 -5 -15l17 -13v-4q3 0 6 0.5t7 1.5h-1h4v9q8 5 10.5 13.5t2.5 17.5v13q0 2 -0.5 6t-0.5 8v6q-1 10 -2 24t-3 25q-1 8 -1 11t-1 9l25 85q-2 7 -4 14.5t-2 12.5l-4 23q28 0 49.5 -11.5t28.5 -34.5q2 -10 3.5 -18t3.5 -16q3 -14 5 -23.5
t2 -19.5q0 -20 -14 -34v-21q1 -7 1 -16t1 -20q1 -17 1 -33q0 -15 -5 -15l16 -13q0 -4 -0.5 -7t0.5 -5q26 -2 55 -8.5t60 -19.5l-22 -30h-67q0 -3 32 -15q-14 -13 -25 -17.5t-20 -6.5v-1q0 -9 -7 -18v-11q0 -8 0.5 -16.5t0.5 -18.5t-0.5 -19t-0.5 -16v-19v-5t-1 -7v1
q-1 -3 -1 -10q23 -2 48.5 -6t60.5 -12l-26 -28q-1 0 -1 -4v-14q-7 -7 -8.5 -8t-5.5 -1q-5 0 -16 9t-19 17l3 -17q-9 -3 -18.5 -5t-20.5 -2q1 -4 1 -7t1 -7l2 -22l13 -13v-13l-0.5 -3t-1.5 -4l-4 -6q0 -1 5 -10t7 -13v-128q-29 10 -35 16.5t-8 16.5q-1 5 -2 8.5t-3 7.5l1 -2
q-4 8 -8 9q-5 3 -9 5.5t-7 5.5q0 -1 -0.5 -2t-0.5 -2v1q-2 -2 -2.5 -4.5t-2.5 -4.5q17 -1 19.5 -13t2.5 -20v-15h-17q-9 0 -18.5 4t-9.5 21z" />
    <glyph glyph-name="FL0024h" unicode="$" horiz-adv-x="234" 
d="M46 535l-2 -2zM163 631h-1h-1v-1zM140 66q3 -1 7 -5q-1 1 -1 4l1 -2q-2 5 -7 10v-7zM151 522l7 8l-1 2l-9 -7zM170 277q5 7 5 16q0 3 -3 8q0 -3 -0.5 -5.5t-0.5 -5.5zM100 617q-2 -2 -3 -4l-1 -2v-1q0 -2 -0.5 -3.5t-0.5 -4.5q1 2 3 -1t4 -8v1zM116 47q0 1 0.5 2t2.5 8
l2 6q-9 1 -10.5 7t-1.5 16v9v3q0 3 -1 8q0 4 -0.5 9t-1 9.5t-1 7.5t-0.5 2v18h-2v14q-11 -9 -22 -9q-15 0 -26.5 17t-19 38.5t-11.5 41.5t-4 27q0 11 5 21q2 3 4 11l-13 16q-2 3 -2.5 4t-0.5 6q0 16 6.5 18t14.5 3h-1h1q-5 15 -5 26v6q0 26 27 26q14 0 21 -12t12 -25v1
q2 -5 2.5 -7.5t5.5 -9.5q0 -4 1 -5q-1 15 -1.5 29.5t-0.5 31.5v3q-5 7 -9.5 13.5t-8.5 13.5l1 -1q-3 3 -5.5 6.5t-4.5 7.5q-5 3 -8 8q-9 8 -17.5 17.5t-8.5 24.5q0 6 2.5 10.5t5.5 7.5q-2 6 -6 15t-8 19l-8 17v8q0 2 -0.5 3.5t-0.5 3.5q0 12 5 35.5t15.5 48.5t27.5 46.5
t40 29.5l4 24q-2 8 -2.5 15t-0.5 12v23q20 0 34.5 -12t17.5 -35q2 -13 3 -20q2 -18 3 -29q13 -15 29 -39.5t30 -48t23.5 -42.5t9.5 -24v-3q0 -9 -2 -12.5t-14 -17.5l-7 2.5t-9 4.5q-8 6 -11 7l-17 -30l-23 18v62q0 3 -4 10t-9 8q-1 0 -1 -1h-1v-14q0 -5 0.5 -12t1 -16.5
t1.5 -24.5l5 -6q1 -6 1 -13t1 -12t1.5 -9t0.5 -9q16 -23 30 -50.5t25 -56.5t17.5 -57.5t6.5 -51.5q0 -16 -5.5 -32t-10.5 -32q-5 -14 -9 -27t-5 -30q-19 -22 -44 -26q4 -8 5 -9v-133q-17 10 -23.5 16t-8.5 12v-1v-15h-14q-6 0 -13.5 4t-7.5 22z" />
    <glyph glyph-name="FL0025h" unicode="%" horiz-adv-x="454" 
d="M82 670q-17 0 -22.5 -10t-6.5 -24q-5 -2 -9 -6t-7 -13v2q-1 -2 -1 -4t-1 -4q-4 -15 -6.5 -30t-2.5 -31v-2v-1q-5 -2 -5 -12q0 -5 0.5 -8t4.5 -5q0 -5 1 -7v-12q1 2 4 5q1 -3 4 -4q0 -3 1 -4v-8q0 -10 3 -13.5t6 -8.5q1 -2 1.5 -3.5t2.5 -3.5q-8 -3 -9 -9t-1 -10v-1
q0 -4 2.5 -12.5t7 -16.5t12 -14.5t17.5 -6.5h31h1q7 0 20 5h19q7 0 13 6v-1l5.5 5.5l5 5t6 6.5l10.5 12q-11 -28 -22 -53q-5 -8 -15 -22q-3 -5 -7 -10.5t-8 -13.5l-2 -6q-5 -12 -5 -18q0 -11 7 -21q-3 -6 -6.5 -13.5t-7.5 -14.5q-4 -10 -7.5 -18.5t-7.5 -18.5
q-2 -3 -3.5 -8.5t-5.5 -24.5l-2 -5l-1 -1q-3 -5 -3 -12q0 -5 1.5 -8.5t6.5 -7.5q-9 -9 -9 -12q-1 -2 -1 -6q0 -11 6.5 -17t12.5 -8l-2 1q4 -2 9.5 -2.5t12.5 -0.5v4t1 7q2 4 3 7.5t1 8.5q0 10 -11 17q4 4 7 6q2 -5 4.5 -9t5.5 -9q1 -1 5 -9v-10q-2 -4 -2 -11q0 -5 5 -13
t20 -24l49 102q-2 6 -2 11v10v0q1 0 2 1l6 6l2 6v-2l4 7l-8 16q4 9 9.5 26.5t8.5 25.5v-2q2 4 5.5 9.5t7.5 12.5l10 16t6 10q2 3 3.5 8t4.5 10q2 5 5 9.5t5 11.5v-1q4 7 7 14.5l5 12.5v-1q2 2 2 5t2 5q8 2 14 10l4 11v-1q6 11 9 22.5t5 23.5q1 8 2.5 17t5.5 18l-7 15
q2 -2 6 6t9 20q3 9 7 19t7 20v-2l5 12l2 4q20 5 25 18.5t10 42.5l2 12t3 13q0 2 0.5 5t0.5 5q0 17 -14.5 33t-37.5 28l-8 -23l1 3q-2 -5 -3 -11.5t-1 -12.5v-1l-52 -53q-6 -16 -9.5 -25t-5.5 -14.5t-3 -9t-2 -7.5q-4 -4 -4 -10q-1 -1 -1 -2v0l-5 -14q-4 -5 -8.5 -10
t-13.5 -5l-11 -25v1q-11 -23 -21 -46.5t-19 -45.5q-4 -10 -6 -14v11q2 2 2.5 4t1.5 3q0 7 -0.5 9l-1.5 6h3q6 21 7 25.5t1 9.5v-2q0 2 2 12t2 12v21q0 16 -2.5 33t-8.5 31q-4 4 -10 7q4 6 4 13q0 2 -1 3.5t-2 3.5q2 2 3 4q0 3 -8.5 11.5t-19 18t-20 17t-10.5 7.5
q-18 0 -29 -7t-19 -16zM330 415q-17 0 -22.5 -10t-6.5 -24q-5 -2 -9 -6.5t-7 -12.5v2v-4t-1 -4q-5 -15 -7.5 -30t-2.5 -31v-2v-1q-5 -2 -5 -12q0 -11 5 -13q0 -5 1 -7v-12q1 2 4 5q1 -3 4 -4q0 -2 2 -4v-8q0 -10 2.5 -13.5t5.5 -8.5q1 -2 1.5 -3.5t2.5 -3.5q-8 -3 -9 -9.5
t-1 -9.5v-1q0 -4 2.5 -12.5t7 -16.5t12 -14.5t17.5 -6.5h31h1q5 0 9.5 1t10.5 3h19q6 0 13 7v-1l5.5 5.5l5 5t6 6.5l10.5 12v11q2 3 4 7q0 7 -0.5 9l-1.5 6h3q3 10 4.5 16t2.5 9t1.5 5t0.5 4l-1 -1q1 2 2.5 12t1.5 12v21q0 16 -2.5 33t-8.5 31q-3 3 -9 7q1 2 2 5t1 8
q0 1 -1 3t-1 4l2 4q0 3 -8.5 11.5t-19 18t-20 17t-10.5 7.5q-18 0 -29 -7t-19 -16zM102 543q0 15 8 34q3 7 5.5 16t3.5 21l-2 9q3 -3 6 -3q3 -1 4 -5.5t1 -8.5q1 -2 2 -6.5t3 -6.5l-3 5q1 -5 3 -8t4 -5q-1 -28 -3 -56.5t-7 -52.5l-2 -2q-3 -6 -7 -12v1v1q-2 4 -2 7h1
q-5 18 -10 36.5t-5 35.5zM351 288q0 18 7 33q3 8 6 17t4 21l-3 9q3 -3 6 -3q3 -1 4 -5.5t1 -8.5q1 -3 2 -7t3 -6l-3 5q1 -5 3 -8t4 -5q0 -28 -2.5 -56.5t-7.5 -52.5q-1 -1 -1 -2l-1 -1q-2 -2 -3.5 -5.5t-2.5 -5.5v1l-1 1q-2 4 -2 7h1q-5 18 -9.5 36.5t-4.5 35.5zM425 313
q-9 0 -9 10t9 10q10 0 10 -10t-10 -10zM177 568q-9 0 -9 10t9 10t9 -10t-9 -10zM431 285q5 0 7 -3.5t2 -7.5q0 -8 -2 -9.5t-7 -1.5q-4 0 -7 3v16zM183 540q5 0 7 -3.5t2 -7.5q0 -8 -2 -9.5t-7 -1.5q-4 0 -7 3v16zM403 200q0 2 0.5 4.5t5.5 2.5l8 -4l3 -8l-1 -2q-1 -1 -3 -1
q-1 0 -3 -2zM155 455q0 2 0.5 4.5t5.5 2.5l7 -4l4 -8l-1 -1l-3 -1.5t-3 -2.5zM122 435l4 -16l-12 7zM370 180l4 -16l-12 7zM419 295l14 10q0 -1 2 -1l-14 -9h-2zM171 551l14 9q0 -1 1 -1l-13 -9q-2 0 -2 1zM368 408q3 -3 3 -7l-3 -5v1v11zM119 663h1q3 -3 3 -7l-3 -5v1z
M188 265l-2 -1l-3 9z" />
    <glyph glyph-name="FL0026h" unicode="&#x26;" 
d="M120 506l8 5h-2zM112 424q2 0 2.5 -0.5t1.5 -0.5v6q-1 -1 -1.5 -2t-2.5 -3zM240 175q-1 6 -3 7.5t-6 1.5q-5 0 -7 -4t-2 -6q0 -8 9 -8q2 0 4.5 1t3.5 3zM97 433q0 -9 8 -9h6l4 8q0 8 -2.5 9.5t-7.5 1.5q-8 0 -8 -10zM150 412q-8 -6 -12 -18t-6.5 -25t-3 -24.5t-0.5 -17.5
l-14 -3v-1q0 -7 2.5 -13t5.5 -13q5 -10 8.5 -19t3.5 -18v-4l18 -17q4 2 10 4q-3 0 -3 1q22 13 28.5 18.5t6.5 11.5q0 2 -0.5 5t-0.5 5q0 4 -0.5 8t-0.5 9v11t1 14q-17 8 -21.5 30.5t-4.5 43.5v18h-1q-5 0 -12 -5zM345 419q-9 1 -19 1t-21 1q-1 -4 -6 -28t-12 -57t-15.5 -70
t-16.5 -68.5t-14 -52.5t-8 -21h-49l-6 3t-12 9q-7 6 -17 13.5t-19.5 15t-17.5 13t-11 6.5q-19 7 -26.5 11.5t-12.5 9.5l-4.5 4.5t-16.5 9.5q0 2 0.5 9t0.5 8v8v18q0 7 -1 14t-5 13q-2 4 -6 10.5t-7 11.5q-4 8 -7 11q-1 4 -1 9v4q0 2 0.5 3t0.5 3v2l4.5 6.5t9.5 10.5
q-1 -1 -1 -2v-5q0 2 0.5 4.5t0.5 4.5q0 9 2.5 19.5t13.5 15.5v2q0 13 5 21q1 2 2 3.5t1 2.5q0 2 -0.5 4t-2.5 9l46 35q-4 11 -5 22.5t-1 24.5v18q0 41 13.5 80.5t46.5 71.5v-1q2 1 3.5 2.5l3.5 3.5t6.5 5.5t12.5 10.5h19v2q14 0 29 -13q12 0 25.5 -11.5t13.5 -23.5
q0 -2 -3 -10.5t-6 -14.5q1 -5 1.5 -7t1.5 -4t1.5 -3.5t2 -6.5t4 -15t5.5 -28q-38 0 -53 7t-24 14q-8 5 -10 5t-8.5 -6.5t-19.5 -24.5v1q-2 -3 -2 -7q0 -3 -1 -7q-1 -5 -2 -10.5t-5 -10.5h1h-1v-1q3 -5 6 -11t7 -12q2 -1 5.5 -1.5t5.5 -1.5v1l173 6q1 -11 2 -28.5t1 -25.5v-7
q0 -1 -0.5 -3t-0.5 -6v-29z" />
    <glyph glyph-name="FL0027h" unicode="'" horiz-adv-x="140" 
d="M19 562q1 -7 12 -15t25 -15t28 -12.5t22 -6.5q-8 17 -10.5 28t-2.5 19q0 64 3.5 91.5t7.5 35t8 3.5t4 -3l19 -9q2 5 2 10q0 11 -4 20.5t-8 17.5v-1q-2 1 -4 5q15 4 15 16q0 4 -5.5 7.5t-14.5 6.5t-19.5 5t-20.5 2q-13 0 -33 -5q-2 -8 -4 -22.5t-6 -27.5v1q-3 -8 -5.5 -31
t-4.5 -48.5t-3 -46t-1 -23.5v-2z" />
    <glyph glyph-name="FL0028h" unicode="(" horiz-adv-x="298" 
d="M253 163q-8 -8 -20.5 -11.5t-25.5 -3.5q-12 0 -23.5 0.5t-14.5 1.5l2 -1q-16 7 -24.5 34t-12.5 60.5t-5 67.5t-1 56v7q0 10 3 40.5t7 63.5t8.5 60.5t6.5 31.5q2 2 6.5 7t9 10.5t8 10.5t4.5 7q5 8 5 19v8l2.5 -2t7.5 -5q9 10 15.5 12t12.5 3h-1q11 2 22.5 7t21.5 23t18 54
t13 101v19q-2 0 -6.5 -5.5t-10 -14.5t-11 -19.5t-9.5 -19.5q-1 4 -1 14q-1 15 -3 29.5t-22 28.5q-12 -14 -18 -19t-10 -7q-8 -5 -14 -11t-14 -23v1q-2 -2 -2 -3v0q-2 0 -6 1q-3 1 -8 1h-10q-8 -4 -19 -24t-20 -39h1q-1 -1 -1 -2l-1 -1h-27q0 -8 -1.5 -24.5t-3.5 -22.5
l-19 -25q-7 -16 -7.5 -32.5t-1.5 -33.5q-1 -22 -3.5 -41.5t-15.5 -33.5q-1 -15 -2 -33.5t-3 -36.5l-4 -58t-2 -57q0 -22 4 -52.5t12.5 -64.5t20.5 -67.5t28.5 -60.5t37 -43.5t45.5 -16.5q2 0 4 -2.5t5 -5.5q5 -4 10.5 -8.5t12.5 -4.5h5l33 -7h7q4 0 11 2.5t13.5 6.5
t11.5 9.5t5 12.5v3zM166 53q-6 0 -6 3q0 6 6 6q8 0 8 -6q0 -3 -8 -3z" />
    <glyph glyph-name="FL0029h" unicode=")" horiz-adv-x="298" 
d="M73 672q5 18 17 25t23 7q14 0 25.5 -0.5t14.5 -1.5l-2 1q16 -8 24.5 -35t12.5 -60.5t5 -67.5t1 -56v-6q0 -10 -3 -40.5t-7.5 -63.5t-8.5 -60.5t-7 -31.5l2 2q-1 -1 -5.5 -6t-9.5 -11t-9 -12t-5 -8q-6 -9 -6 -19v-8l-10 7q-10 -11 -15.5 -12.5t-10.5 -1.5q-12 -3 -23.5 -8
t-22 -23t-18.5 -54.5t-11 -101.5v-18q1 0 5 5.5t9.5 14t11 19t10.5 19.5v-7q0 -3 1 -6q1 -15 3.5 -29.5t22.5 -28.5q13 16 18 19.5t9 5.5q8 5 14.5 11t14.5 24v-1q0 3 1 3q3 0 7 -1q2 -1 6 -1h9q11 2 22 24t20 42h28q0 8 1 24t2 22l20 26q8 16 8.5 32t1.5 33q1 22 3 42
t16 34q1 15 2 33.5t2 36.5q2 29 4.5 58t2.5 57q0 21 -4 52t-12.5 65t-21 67.5t-29 60.5t-36.5 43.5t-45 16.5q-3 0 -9 8q-6 4 -11 8.5t-12 4.5h-6l-33 7h-6q-5 0 -11.5 -2.5t-13.5 -6.5t-11.5 -9.5t-4.5 -12.5v-3zM155 799q7 0 7 -3q0 -6 -7 -6t-7 6q0 3 7 3z" />
    <glyph glyph-name="FL002Ah" unicode="*" horiz-adv-x="239" 
d="M35 798v3v-3zM84 672q-3 0 -5 -2l1 -14l8 1v14q-1 1 -4 1zM20 630q0 5 3 8q-2 6 -2 7q0 7 5 10l1 2l-1 -1q2 11 8 15q2 2 4 4.5t5 5.5l3 2q-2 4 -2 10q0 5 4 11l4 6l13 9l-41 66l8 8l0.5 1t2.5 3v-2v2l3 6q-1 0 -3 -2q1 6 3 13t6 11l-3 -1q2 2 6 3.5t9 1.5q3 0 8 -1.5
t9 -4.5v1q5 -3 8 -5.5t7 -4.5q15 -12 25.5 -19.5t18.5 -15.5l3 2l-1 -1l1 1q0 1 1 2q3 5 4.5 8t9.5 16l29 7q1 3 5 9l10 10q13 -13 22 -24t9 -24l-1 -3q-1 -3 -1.5 -6t-2.5 -8q-2 -10 -5.5 -15.5t-15.5 -5.5h-5l-1 -1l-4.5 -6t-7.5 -11l3 -7l-1 -1l3 -2v1q15 -17 30 -36.5
t29 -46.5l-35 -5q-2 1 -6.5 6t-10.5 10.5t-12.5 10.5t-11.5 7q2 -3 4 -9.5t7 -14.5q-23 2 -33.5 6.5t-18.5 11.5l-5 -4q-2 -2 -5.5 -4.5t-2.5 -1.5q-2 -2 -4 -4.5t-4 -4.5l7 -12l-9 -9l3 -3l-40 -40q-18 18 -18 26q0 1 0.5 3.5t0.5 3.5l1 1q-1 1 -1 2t-1 2q-3 -6 -10 -12
l-10 10q-4 3 -7 7.5t-3 9.5z" />
    <glyph glyph-name="FL002Bh" unicode="+" horiz-adv-x="323" 
d="M178 315q-6 0 -6 -8l8 -9l7 7zM191 223h-11q-6 0 -12 1.5t-11.5 5t-6.5 9.5q-7 2 -8.5 5t-1.5 9q-3 4 -3 7q-2 3 -2.5 6.5t-0.5 4.5v6q0 3 -0.5 6t-0.5 7v7q-9 4 -11 8t-2 12v4q0 5 0.5 8t0.5 6q0 4 1 7l-85 25q0 1 0.5 6t0.5 6q0 2 0.5 2.5t0.5 2.5q0 -1 -6 4t-13 13
q2 0 6 -2q-6 6 -6 13q0 10 9 17t20 7q18 1 33 3q14 2 24.5 3t20.5 1h4v2q0 2 -0.5 3.5t-0.5 2.5l-1.5 10.5t-5.5 17.5l20 30q-3 4 -3 9q-1 -1 -4 2.5t-14 13.5q29 0 52.5 -4.5t28.5 -16.5v1q2 -3 4.5 -8.5t1.5 -4.5q6 -11 6 -19q0 -7 -2 -10.5t-9 -7.5v-2q0 -5 0.5 -9
t2.5 -18l8 -2v-1q26 -3 54.5 -8t60.5 -19l-22 -28h-65q0 -5 31 -15q-17 -14 -30.5 -18t-24.5 -5q-2 -8 -2 -9q-1 -4 -1.5 -6.5l-0.5 -2.5v-16l15 -7v-10v-6q2 -1 2.5 -2t2.5 -2v-57q-25 4 -30 7.5t-7 7.5v-1q-1 1 -1.5 2.5l-0.5 1.5h-2q-1 0 -3 1v-4v-13z" />
    <glyph glyph-name="FL002Ch" unicode="," horiz-adv-x="140" 
d="M19 4q1 -7 12 -15t25 -15.5t28 -13t22 -6.5q-8 17 -10.5 28t-2.5 19q0 64 3.5 91.5t7.5 35t8 3.5t4 -3l19 -9q2 5 2 11q0 11 -4 20t-8 17v-1q-3 3 -4 5q15 4 15 16q0 4 -5.5 7.5t-14.5 6.5t-19.5 5t-20.5 2q-8 0 -16 -1t-17 -4q-2 -8 -4 -22.5t-6 -27.5v1q-3 -8 -5.5 -31
t-4.5 -48.5t-3 -46t-1 -23.5v-1z" />
    <glyph glyph-name="FL002Dh" unicode="-" horiz-adv-x="323" 
d="M45 313l133 -33l8 11h27q12 0 27 3t34 16q-31 10 -31 13h65l22 25q-44 14 -86 19t-78 7q-9 3 -17.5 4t-20.5 1q-14 0 -30 -1t-39 -3h2q-3 0 -6 -0.5t-6 -0.5q-11 0 -20 -6.5t-9 -14.5q0 -5 6 -11q-4 2 -6 2q7 -6 13 -10.5l6 -4.5q0 -1 -0.5 -1.5t-0.5 -1.5t-0.5 -2
t-0.5 -2z" />
    <glyph glyph-name="FL002Eh" unicode="." horiz-adv-x="139" 
d="M21 98q1 -7 10.5 -14t22 -13.5t24.5 -11t19 -5.5q5 17 9.5 22t9.5 9q6 5 11 10t9 18v2q0 8 -5.5 14.5t-13.5 11.5q-11 7 -11 10q0 1 15 9q14 6 14 16t-15 14.5t-34 4.5q-22 0 -43 -6q-2 -8 -4 -21.5t-6 -25.5q-5 -14 -8.5 -25.5t-3.5 -15.5v-3z" />
    <glyph glyph-name="FL002Fh" unicode="/" horiz-adv-x="323" 
d="M65 143q1 -2 1.5 -4t2.5 -5v-10q-2 -4 -2 -11q0 -5 5 -13t20 -24l47 102q-1 6 -1 11v10l2 1l6 6l2 6v-2l3 7l-7 16q4 9 9.5 26.5t8.5 25.5v-2q1 4 4.5 9.5t7.5 12.5q5 8 9.5 16t6.5 10q2 3 3.5 8t4.5 10q2 5 4.5 9.5t5.5 11.5v-1q3 7 6 14.5l5 12.5v-1q2 2 2.5 5t1.5 5
q9 3 13 10l5 11v-1q5 11 8 22.5t5 23.5q2 8 3.5 17t4.5 18l-6 15q2 -2 5.5 6t8.5 20q3 9 7 19t6 20v-2l6 12l2 4q19 5 24 18.5t10 42.5l2 12t3 13q0 2 0.5 5t0.5 5q0 17 -14 33t-37 28l-8 -23l1 3q-2 -5 -3 -11.5t-1 -12.5v-1l-51 -53q-6 -16 -9.5 -25t-5.5 -14.5t-3 -9
t-2 -7.5q-3 -5 -3 -10q-1 -1 -1 -2v0l-6 -14q-3 -5 -7.5 -10t-13.5 -5l-11 -25v1q-11 -23 -20.5 -46.5t-18.5 -45.5q-7 -17 -13.5 -33.5t-14.5 -33.5q-2 -5 -5.5 -10.5t-7.5 -11.5q-4 -5 -8 -10.5t-7 -13.5l-3 -6q-5 -12 -5 -18q0 -12 8 -21q-4 -6 -7 -13.5t-7 -14.5
q-5 -10 -8 -18.5t-7 -18.5q-2 -3 -3.5 -8.5t-5.5 -24.5l-2 -5l-1 -1q-3 -5 -3 -12q0 -9 8 -16q-5 -5 -6.5 -7.5t-2.5 -4.5v-6q0 -11 6.5 -17t11.5 -8l-2 1q4 -2 9.5 -2.5t11.5 -0.5v4t1 7q2 4 3 7.5t1 8.5q0 10 -10 17l6 6q2 -5 5 -9t6 -9zM111 265l-2 -1l-4 9z" />
    <glyph glyph-name="FL0030h" unicode="0" 
d="M160 171l7 4l-4 4zM313 415q1 5 9 10h-12q0 1 -1 1v1l2 -6q-4 5 -5.5 7t-2.5 7q-2 -1 -4 -1h-1h-2zM60 499q7 0 7 8q0 7 -7 7t-7 -7q0 -8 7 -8zM57 404q-1 4 -7 4q-4 0 -6 -3t-2 -6q0 -10 8 -10t8 9zM212 428q0 22 -5 41t-11 39q-6 18 -10.5 36.5t-5.5 39.5l2 8
q1 3 2 6.5t1 5.5v2q0 2 -9.5 4.5t-14.5 2.5h-2q-9 -2 -12.5 -17t-4.5 -27q-1 -5 -1.5 -9.5t-2.5 -8.5q-2 -10 -7.5 -13.5t-10.5 -8.5q-3 -3 -3 -6v-8q0 3 7 3v-39q0 -19 1 -39q2 4 3 8t3 9l7 7q8 4 14.5 5t11.5 1q17 0 24.5 -11t7.5 -27q0 -8 -2 -15t-4 -17q-25 -19 -39 -19
q-16 0 -22 12q3 -64 15 -116l-3 5l1.5 -3t3.5 -5q3 -5 7 -12.5t8 -14.5t8 -11.5t6 -4.5l5 15l0.5 0.5t0.5 1.5l-1 -2q2 5 2.5 9.5t2.5 9.5l-1 -1q11 42 19.5 83t8.5 81zM48 214q-7 8 -7 15q0 5 0.5 14t1.5 17v-1q1 9 2 19t1 7l6 -7l4 5q-4 -1 -17 10.5t-17 43.5l3 -5
q-1 3 -2.5 10.5t-3 15.5t-2.5 15t-1 9v47q0 33 4 69.5t16 62.5q5 7 9.5 9.5t8.5 4.5q8 2 8 8q0 1 -3 4q-5 3 -8.5 8.5t-3.5 16.5q0 6 1.5 9l3.5 7q0 2 1 3t1 2q-1 2 -1.5 2.5t-1.5 2.5l-3 3q0 5 15 21t33 33.5t34 31.5t18 14q22 0 38.5 -8.5t29 -21t21.5 -28t17 -29.5
q2 -4 2.5 -5.5t10.5 -15.5l-2 1q2 -2 10 -6q11 -4 22 -11.5t18 -30.5q8 -34 14 -69t6 -72q0 -2 -0.5 -4.5t-0.5 -5.5v-9q10 -2 10 -14q0 -8 -4.5 -11.5t-7.5 -4.5v-1q2 -7 2.5 -8.5t0.5 -4.5q0 -14 -14 -28l-3.5 -3.5l-2.5 -2.5v-31q-1 -11 -6 -23t-11 -23l-13 -27h1
q16 0 19.5 -9t3.5 -20v-6q0 -7 -3.5 -22.5t-11 -31.5t-19.5 -28t-28 -12h-2q-4 0 -6 1.5t-10 10.5q6 11 12 23t9 23q-1 -2 -2 -3.5t-2 -3.5q-5 -8 -11.5 -15t-18.5 -9q1 -2 1 -6q0 -14 -9.5 -17.5t-19.5 -3.5q-20 0 -49 18v-7h-25q-10 0 -19 12q-10 11 -18 27.5t-13 28.5
q-3 3 -5.5 6t-4.5 5l-6 -6v15z" />
    <glyph glyph-name="FL0031h" unicode="1" horiz-adv-x="174" 
d="M96 181v-1v1zM94 188q-1 -1 -1 -3zM103 252l2 -2l7 8v1zM103 119q6 4 11 5q-2 2 -2 4l-3.5 -3.5l-3.5 -3.5zM137 103q0 -17 -9.5 -20t-17.5 -3h-13v14q0 5 0.5 11t3.5 11q-3 -6 -4 -9t-2 -5q-1 -4 -2 -7t-4 -6t-10 -6.5t-20 -8.5v112l10 17q-1 0 -3 4q0 2 -1 4.5t-1 4.5
v11l12 11q0 5 -1.5 13.5t-3.5 17.5q-1 7 -1.5 13t-0.5 9q0 2 -1 9t-2 16t-1.5 17.5t-0.5 11.5v16q0 6 -0.5 13t-0.5 15t0.5 16t0.5 14v9q-7 7 -7 15v12q0 13 2 24.5t4 22.5l4 18t3 18l18 15q-8 8 -8.5 18.5t0.5 21.5q0 4 0.5 7t0.5 6l-49 6v15q-13 15 -13 32q0 8 2 17.5
t6 24.5q2 5 2.5 10.5t2.5 12.5q2 9 17 17.5t34.5 15t39 10.5t28.5 4q-2 -13 -2.5 -15.5t-0.5 -5.5q0 -4 -2 -11t-4 -12l23 -73v-7q0 -2 -1 -8q-2 -10 -3 -21.5t-2 -19.5v-7v-12v-10q0 -7 2 -13.5t10 -11.5v-25q0 -48 -3 -91q-1 -21 -2 -41.5t-1 -41.5q0 -5 1 -11.5t3 -13.5
t2 -15v-15v-10q0 -9 -3 -17t-14 -13v-2q0 -6 0.5 -14t0.5 -16t-0.5 -15t-0.5 -13v-14q0 -3 -1 -7.5t-5 -26.5v-5q0 -10 -2 -15.5t-14 -6.5l3 -2q2 -5 2 -6v-4z" />
    <glyph glyph-name="FL0032h" unicode="2" horiz-adv-x="221" 
d="M118 170q-1 0 -1.5 -0.5l-0.5 -0.5zM121 169l3 -3zM125 130q2 2 3 2q-1 3 1 4h-2l-0.5 -0.5t-1.5 -0.5v-5zM121 169h-1q0 1 -1 1h-1l-3 -7q0 -8 1.5 -10t5.5 -2q8 1 6.5 7t-7.5 12v-1zM166 99q-10 0 -17 7v-12h-37v4q-5 -5 -22 -5q-23 0 -44 30q-1 20 -5 33.5t-7 27.5
q-5 18 -8.5 36t-3.5 36q0 31 7 68t18.5 74t26.5 71.5t32 59.5q14 2 20.5 15.5t6.5 26.5q0 2 -0.5 3t-0.5 2q-5 2 -8.5 4.5t-3.5 10.5q0 5 3 14q1 3 2 7t1 -1v3v4q0 3 -1 6q-1 0 -1.5 -0.5t-1.5 -0.5l-4 -4q-15 0 -16 2.5t-3 4.5h-1q0 1 1 1h-2q-4 0 -7 -9t-3 -13v-66
l-21 -23l-15 32q-1 -1 -2 -1l-1 -1q-7 -7 -20 -11q-10 16 -11.5 20.5t-1.5 12.5v3q0 4 6 19.5t15.5 36.5t21 44.5t22.5 44t21 34.5t15 16t11 2q23 0 40 -22.5t28.5 -52.5t17 -60t5.5 -45q0 -2 -0.5 -3t-0.5 -2v-9q-1 -2 -4 -10.5t-6 -18.5t-5.5 -18.5t-2.5 -9.5v-5l4 -6
t2 -10q0 -15 -6 -25t-14 -20l-8 -12l1 1q-12 -22 -25.5 -47.5t-25 -53.5t-19 -56t-8.5 -55q9 2 21 11t18 20q13 -6 19.5 -7t11.5 -1h18q4 0 8 -0.5t9 -1.5h4q14 -3 14 -27q0 -14 -5.5 -34.5t-13.5 -40.5t-18 -34t-20 -14z" />
    <glyph glyph-name="FL0033h" unicode="3" horiz-adv-x="282" 
d="M56 107q1 -4 8 -4q2 0 5 2.5t3 4.5q0 10 -8 10q-5 0 -7 -1.5t-2 -7.5zM181 449v-1h1l8 -4q3 0 6 2.5t3 6.5q0 2 -2 5.5t-7 3.5q-8 0 -10 -8zM98 816h21q9 -9 14 -14.5t7.5 -8t3.5 -4t2 -2.5h-1q32 -41 46 -91.5t14 -102.5v-25q0 -17 -1.5 -33.5t-5.5 -30.5l47 -45
q-2 -9 -2.5 -11.5t-0.5 -4.5q0 -6 3 -12q2 -5 3.5 -10t1.5 -13v-7q11 -5 13.5 -18.5t2.5 -24.5q0 -2 2 -10q0 2 2 0h-1q3 -3 7 -6.5t4 -8.5v-3q0 -2 0.5 -3.5t0.5 -3.5t-0.5 -3.5t-0.5 -3.5v-6q-2 -3 -5.5 -11t-6.5 -17q-4 -8 -5.5 -12t-2.5 -6v1q-3 -10 -5 -19t-2 -20v-23
q0 -5 0.5 -12.5t2.5 -15.5q-11 -8 -15 -12t-7 -8q-5 -8 -11 -13.5t-20 -10.5q-6 -2 -16 -11t-21.5 -20t-22 -22.5t-16.5 -18.5l-11 -12h-55q-4 0 -11.5 10.5t-15 24t-13 24.5t-5.5 13q0 14 3.5 27.5t8.5 27.5q4 11 6.5 22t2.5 24q0 4 -0.5 7.5t-0.5 6.5q0 2 -0.5 3t-0.5 3
q0 16 15 16q5 0 13 -5t24 -16q8 -6 21.5 -15.5t27.5 -19.5v-2q2 -3 7 -4l18 22v6q0 14 3.5 25t7.5 22q4 10 7 19.5t3 18.5q0 3 1 4l-15 6q0 7 -1 22.5t-3 32t-7 32.5t-12 25l-4 1q-8 5 -12 5q-2 0 -6 -3t-21 -21v33h-9q-9 -1 -26.5 -2t-31.5 -2v34v11v10v14t0.5 19l1 20
t0.5 17l86 -14q2 0 5 1t5 2q5 9 9 18.5t7 18.5q-3 8 -4 15t-2 15q-1 6 -1.5 11t-2.5 7q-13 25 -19 34t-10 9q-1 0 -3 -2.5t-6 -5.5h1q-5 -4 -11 -9t-14.5 -9t-21 -7t-30.5 -3q5 40 8.5 53.5t5.5 18.5v1q0 2 1 9q-4 9 -6.5 19t-2.5 12q0 15 12 28t25 15q11 16 30 16v-2z" />
    <glyph glyph-name="FL0034h" unicode="4" horiz-adv-x="325" 
d="M64 713v-6t2 -4q-11 -2 -12.5 -8.5t-1.5 -13.5v-3q-5 -20 -5.5 -24.5t-0.5 -8.5v-12q0 -5 -0.5 -11.5t-0.5 -15.5q0 -7 0.5 -13.5t0.5 -12.5v-4q-11 -5 -14.5 -12t-3.5 -15v-10q0 -15 0.5 -20t1 -5.5t1 0t0.5 -2.5q3 -14 3 -23v-14q0 -18 1.5 -35t9 -29.5t23 -20
t42.5 -7.5q15 0 39 3q0 18 -8 26v2q13 -7 27 -7h15h2l8 -16h1v-14v-31q0 -5 -1 -11.5t-3 -13.5q-3 -14 -3 -30v-10q0 -9 3.5 -17t15.5 -13v-2q0 -6 -0.5 -14t-0.5 -16t0.5 -15t0.5 -13v-14q0 -3 0.5 -7.5t5.5 -26.5v-5q0 -10 2 -15.5t15 -6.5l-2 -2q-2 -5 -2.5 -6t-0.5 -4
q0 -17 10.5 -20t18.5 -3h14v14q0 8 -2 18t-16 12q1 1 1 2t1 3v-1v2q4 -5 13 -9l-1 1q8 -4 11 -7q2 -4 3 -6.5t2 -4.5q1 -5 2.5 -8.5t5.5 -7t11.5 -7t21.5 -8.5v112q-2 2 -6 8.5t-5 8.5l0.5 1t2.5 3q1 2 2 4.5t1 4.5v12l-14 11q-1 4 -2 11.5t-1.5 16t-0.5 15.5v10q0 2 0.5 9
t2.5 16q1 9 2 20t1 9v16q0 6 0.5 13t0.5 15t-0.5 16t-0.5 14v9q7 6 7 15v21q0 3 -1 6q7 12 7 20l1 -1q0 7 -5.5 14.5t-12.5 10.5q-1 5 -2 10.5t-1 13.5l-19 15q8 8 8.5 18.5t-0.5 21.5v14q0 8 -1 13v15q8 8 10.5 15t2.5 17q0 8 -1.5 17t-6.5 23l1 -1q-2 5 -3.5 11.5
t-3.5 14.5q-7 20 -28 29.5t-47 9.5q2 -14 3 -18l1 -4q0 -5 2 -11t4 -11l-24 -73q1 -5 1 -15q2 -9 3 -21.5t2 -20.5v-6q0 -3 0.5 -6.5t0.5 -5.5v-10q0 -7 -2.5 -13.5t-10.5 -11.5v-30q-2 0 -3 -0.5l-1 -0.5q-11 -2 -22.5 -3t-22.5 -4v15q-1 6 -1.5 10.5t-0.5 6.5v9t0.5 13.5
t1 14.5t0.5 11l14 12v11q0 2 -1.5 5.5t-1.5 5.5q-2 2 -2 0q0 1 4.5 7.5t6.5 9.5v105q-14 -5 -22 -8t-11.5 -6t-5 -6.5t-2.5 -7.5q-1 -3 -1 -5t-1 -4q-2 -2 -5.5 -4t-5.5 -4q-3 -2 -6.5 -4.5t-6.5 -5.5q0 1 -0.5 1.5t-0.5 1.5v-1q-1 1 -1 2t-1 2q13 2 15 11.5t2 17.5v14
q-5 0 -12.5 -0.5t-14 -2.5t-11 -6.5t-4.5 -13.5zM90 569l7 7l3 -2l-8 -8q-2 0 -2 3zM251 259l9 -7l-2 -2l-7 8v1zM274 508l4 2l-4 -4v2z" />
    <glyph glyph-name="FL0035h" unicode="5" horiz-adv-x="221" 
d="M151 755h-37v-4q-5 5 -22 5h-5q-2 0 -6 1q-5 1 -11.5 1.5t-13.5 0.5q-8 0 -15 -3t-14 -12l-4 -151v-6q0 -20 3.5 -34.5t9.5 -26t14.5 -20.5t18.5 -18q10 -8 20 -20t22 -30q7 -1 11.5 -23t7.5 -50t4 -53.5t1 -33.5v-5q-13 -5 -13 -15q0 -8 3 -15l2 -6v-2v-11q-1 1 -2 1
l-1 1q-5 2 -5 4q-7 0 -11.5 -2.5t-6.5 -4.5q-1 -1 0 -1h-2q-4 0 -7 9.5t-3 13.5v65l-21 23l-15 -33l-3 3q-3 2 -8.5 5t-11.5 6q-10 -16 -11.5 -20t-1.5 -13v-3q0 -6 12.5 -36t29.5 -64.5t33.5 -63t25.5 -31.5q5 -2 10 -2q24 0 41 22.5t28.5 52.5t17 60t5.5 45q0 2 -0.5 3
t-0.5 3v7q-1 2 -2 15.5t-3 32.5t-3.5 41t-2.5 41t-2 32t-1 14v5q5 5 5 16q0 15 -6 25t-13 20l-8 12v-1q-12 21 -25.5 32t-26.5 19q-12 8 -20 15.5t-9 27.5q9 -3 20.5 -11.5t17.5 -18.5q11 5 18.5 6t13.5 1h18q5 0 8.5 0.5t8.5 1.5h4q14 5 14 27q0 14 -5.5 35t-13.5 40.5
t-18.5 33.5t-20.5 14q-9 0 -16 -7v12zM121 679h-2l-2 8q0 8 1.5 9.5t5.5 1.5q8 -2 6.5 -7t-7.5 -12v1q-1 -1 -2 -1zM130 717q-3 -3 1 -3h-3h-1v1v4q0 -1 3 -2zM126 684q-2 -4 -3 -4zM118 681l1 -2l-0.5 0.5t-0.5 1.5z" />
    <glyph glyph-name="FL0036h" unicode="6" horiz-adv-x="307" 
d="M118 139h2h-2zM171 637h-1h-3h4zM88 255l-4 -3l4 -5l3 4zM172 718q-5 0 -5 -5q0 -6 7 -6q4 0 4.5 1l1.5 3l1 3q0 4 -9 4zM156 237q3 0 8 -1t10 -1q1 8 3 18.5t4 22.5v-1q3 15 6 31t5.5 31.5t4 28.5t1.5 21l0.5 0.5t1.5 0.5l-85 -4q3 -29 6 -50t7 -24l3 -6t4 -9
q3 -9 8 -19.5t7 -16.5q2 -5 3 -10t1 -9l-1 -3h3zM196 597q-5 10 -10.5 19t-7.5 18q-2 3 -7 3q-14 -5 -24.5 -18.5t-17.5 -32t-11 -39t-6 -37.5q11 3 24.5 5t27.5 2q42 0 81 -20.5t56 -66.5q-1 -18 -1.5 -38.5t-1.5 -40.5q-1 -23 -1 -47q0 -23 -2 -40l-1 -2q-1 -5 -1 -10v-8
q0 -4 -1 -7v1l-1 -10q-1 -10 -7.5 -32t-15.5 -44.5t-19 -39.5t-19 -17h-3q-8 1 -12.5 6t-8.5 13q-2 -8 -8 -15t-20 -12q-10 13 -14 16.5t-7 5.5l-7 3.5t-7 8.5q-5 4 -8 15l2 -3q-1 1 -1.5 2.5l-0.5 1.5q-1 3 -3 3h-4h-7q-3 0 -3 -1q-7 4 -19 23t-20 35l-25 5v17q0 5 -0.5 11
t-2.5 9l2 -2l-16 23q-3 6 -4 14t-1 16q0 6 0.5 13.5t0.5 12.5q1 5 1 10v10q0 10 -2.5 19.5t-10.5 17.5q0 8 0.5 17.5t0.5 17.5q0 6 -0.5 13t-0.5 15q-1 11 -1.5 21.5t-0.5 21.5q0 8 0.5 15t1.5 15q3 25 15 64t31.5 75.5t46.5 62.5t59 26h8q7 -1 11 -5t6 -8v-1h1h3l33 3l6 -1
h-2q4 -1 9 -7.5t10.5 -14.5t9 -16.5t4.5 -13.5v1l22 -86l-1 1q1 -3 2 -6.5t1 -8.5q0 -12 -10.5 -21.5t-38.5 -9.5q-14 0 -35 3q0 14 -5 27t-11 24z" />
    <glyph glyph-name="FL0037h" unicode="7" horiz-adv-x="256" 
d="M165 644q-1 0 -2 -1h1zM148 709l7 -16l2 -1l-3 16l-3 1h-3zM215 664q-8 0 -8 -6l1 -4q2 -5 6 -5l4 1q3 1 4 6q0 6 -7 8zM86 720q-8 0 -8 -4q0 -9 8 -9q9 0 9 9q0 4 -9 4zM142 78q-6 8 -10.5 14.5t-8.5 16.5q-5 -7 -14 -11.5t-23 -4.5q-16 0 -49 9l21 91v19q1 0 1 2v16
l4 -5q0 9 6 12v4l42 172q5 5 14 17t11 21q-6 7 -12.5 17t-7.5 12l-1 10q0 2 1.5 15.5t4.5 30t6.5 31.5t7.5 21h2q4 4 8 9.5t6 12.5q-2 2 -4.5 4t-4.5 6l12 22h-2q-9 0 -24 3t-22 21h-74v54h29v3q0 8 2.5 13t5.5 9l2 4t1 16l123 1q6 0 8 -1t3 -3l1 1q22 0 24 -17l0.5 -2
t0.5 -4v1q0 -5 1.5 -10t3.5 -12q5 -1 11 -3.5t12 -8.5q3 -4 5.5 -8.5t2.5 -6.5q0 -4 -1.5 -11.5t-4.5 -14.5q-2 -5 -7 -8.5t-7 -5.5v-3l-7 -35v1l-20 -110q10 -3 10 -18q0 -19 -16 -19h-1l-29 -168q-5 -6 -8.5 -7t-5.5 -1q-4 0 -8.5 2t-9.5 4q0 -2 0.5 -4t0.5 -4v-11l2 -8
v-4q7 -5 7 -17l1 -8q0 -3 -2.5 -18.5t-6 -33t-7.5 -32t-6 -16.5q-1 -1 -3 -5t-4 -9q9 -2 14 -6.5t11 -14.5z" />
    <glyph glyph-name="FL0038h" unicode="8" horiz-adv-x="325" 
d="M150 523q0 6 -4 9q2 -3 2.5 -5t1.5 -4zM139 398q2 -2 3.5 -4t3.5 -4q0 8 -7 8zM140 538q3 3 3 7l-7 -2zM100 460q-5 -2 -5 -9q0 -9 7 -9zM153 547l20 -9l38 7q4 2 7 3t5 2l-4 3q-3 -3 -3 -5q0 1 -3 3.5t-5 5.5q-8 6 -12.5 12t-4.5 15q-1 3 -1 7q0 11 9 19.5t20 17.5
q4 3 7.5 5.5t6.5 4.5l-11 1l2 -1q-18 0 -28.5 1.5t-16.5 4t-8.5 6t-4.5 7.5q-12 -9 -30 -10l-2 -6t-1 -4l3 -7v1q2 -6 4 -12.5t2 -13.5q0 -6 -2 -14q4 -11 8 -21.5t9 -21.5zM138 367q-1 -1 -1.5 -2l-0.5 -1l2 -2q5 -5 8 -12t3 -23l-12 -6q0 -2 0.5 -3t0.5 -2
q0 -10 2.5 -19.5t5.5 -17.5q3 -12 6.5 -23t3.5 -22q0 -8 -1 -11l11 -16q4 7 10.5 13.5t17.5 6.5q10 0 18 -7q0 10 3 20t7 21q3 9 5.5 18t2.5 20v8q0 1 -1 2l-5 49q-6 4 -13 11l-3 1q-6 4 -7 4q-8 0 -10.5 1t-7.5 7h-4q-2 0 -4.5 -0.5t-4.5 0.5q-3 -1 -5.5 -0.5t-4.5 0.5v-32
q-8 8 -11.5 12t-6.5 6zM171 816v-12h1q1 0 1 -3v15h26q9 -13 13 -19t8 -11q12 -20 25 -42t24 -46.5t18 -50.5t7 -53v-25q0 -14 -7.5 -26.5t-15.5 -24.5q-3 -4 -5.5 -7.5t-4.5 -7.5l38 -46q-2 -7 -2 -10v-4l0.5 -5.5t1.5 -8.5q4 -7 4 -21q0 -6 -1 -8q9 -5 11.5 -18t2.5 -24
q0 -2 0.5 -4.5t0.5 -5.5l1 -1l9 -14v-3q0 -2 0.5 -3.5t0.5 -3.5t-0.5 -3.5t-0.5 -3.5v-3q0 -2 -2 -9t-5 -14.5t-5.5 -14t-3.5 -9.5l1 1q-3 -11 -5 -21t-2 -20v-23q0 -5 0.5 -12.5t2.5 -15.5q-10 -9 -12.5 -12.5t-4.5 -6.5q-5 -7 -9.5 -12.5t-12.5 -10.5q-10 -4 -25.5 -22.5
t-27.5 -35.5q-5 -12 -8 -20t-14 -8h-45q-7 0 -12.5 7.5t-10.5 19.5q-11 17 -26 35.5t-22 21.5q-12 5 -17.5 12.5t-10.5 16.5q-1 3 -15 15q1 8 2 15.5t1 12.5v23q0 11 -2 20.5t-5 19.5v-2q-1 1 -2.5 7.5t-4.5 15.5v-1q-3 8 -5.5 16t-2.5 10v4q0 2 -0.5 3.5t-0.5 3.5t0.5 3.5
t0.5 3.5v3q0 5 2.5 8t5.5 6q2 2 2 1q2 8 2 10q0 11 1.5 24t10.5 18v8q0 7 0.5 11.5t2.5 9.5q1 3 2 9.5t1 4.5v5t-2 9l38 47q-5 14 -5.5 30.5t-0.5 33.5v25q0 52 10.5 102.5t36.5 90.5q3 5 7.5 11t14.5 19h26z" />
    <glyph glyph-name="FL0039h" unicode="9" horiz-adv-x="336" 
d="M258 618l3 -4l2 2l-3 3zM168 88q3 0 5 3v-1q0 8 -7 8q-6 0 -7 -4v-3q0 -3 9 -3zM183 635q-4 1 -9 1t-9 1q-2 -7 -3.5 -17.5t-3.5 -22.5q-3 -17 -6.5 -36t-6.5 -37.5t-4.5 -34.5t-1.5 -26q0 -4 -3 -5l95 6q-2 33 -5.5 56.5t-6.5 28.5h1q-1 0 -4.5 8t-8 17.5t-8.5 19.5
t-5 15v-2q-5 10 -5 22v6h-6zM140 223q5 -11 11 -22t8 -19q4 -6 11 -6q1 0 1.5 0.5t1.5 0.5h-3q16 4 27.5 20.5t19 38t12.5 45.5t7 44q-27 -9 -59 -9q-23 0 -45.5 5.5t-43 17.5t-36.5 30.5t-25 44.5q1 19 1 40t1 41q1 29 2 56.5t3 47.5l1 5q1 5 1 12v8t1 9v-1l1 11q1 11 8 36
t16.5 50t21 44t20.5 19h3q9 -2 14.5 -8.5t8.5 -15.5q3 10 9 18.5t20 14.5q10 -12 15 -17t9 -7q8 -5 13.5 -10.5t12.5 -22.5q1 -3 6 -3h3q10 0 14 -1q11 -7 19.5 -24.5t16.5 -34.5q0 -1 2 -5l27 -3v-18q0 -7 0.5 -14.5t2.5 -11.5l16 -22q3 -7 4 -16t1 -17q0 -7 -0.5 -14.5
t-0.5 -14.5q-1 -6 -1 -12v-11q0 -12 3 -23.5t11 -20.5v-23v-23q0 -10 1 -22q1 -11 1 -23v-23v-21q0 -10 -2 -20v1q-2 -18 -8.5 -44.5t-17 -55t-25 -57t-32 -51.5t-37.5 -37t-43 -14q-2 0 -5.5 0.5t-5.5 0.5q-8 2 -11 5t-6 8q-2 2 -2 3h-5l-36 -3l-6 1h2q-4 1 -10 7.5
t-11.5 15.5t-9.5 18t-5 15l-24 98q-1 3 -1.5 6t-0.5 9q0 13 11.5 23.5t42.5 10.5q8 0 16.5 -1t19.5 -2q0 -17 5.5 -30.5t12.5 -26.5h-1z" />
    <glyph glyph-name="FL003Ah" unicode=":" horiz-adv-x="139" 
d="M21 109q1 -8 10.5 -16t22 -14.5t24.5 -12t19 -6.5q5 19 9.5 24.5t9.5 10.5q6 5 11 10.5t8 17.5q2 5 2 11q0 11 -4 20.5t-9 17.5v-1l-3 6q15 4 15 17q0 8 -20 14.5t-41 6.5q-12 0 -32 -5q-2 -8 -4 -23t-6 -29q-5 -15 -8.5 -28t-3.5 -18v-3zM23 357q1 -6 9.5 -13t20 -13
t22 -10.5t16.5 -5.5q4 17 7.5 21.5t7.5 6.5h-1q5 4 10 9t9 15v-2q1 4 1 11q0 9 -3.5 17.5t-6.5 13.5v-1h-1q0 1 -1 1q11 5 11 14q0 7 -16.5 13.5t-34.5 6.5q-10 0 -17.5 -1t-13.5 -2q-2 -14 -6.5 -32.5t-7.5 -30.5q-2 -5 -2.5 -8t-1.5 -5z" />
    <glyph glyph-name="FL003Bh" unicode=";" horiz-adv-x="140" 
d="M19 4q1 -8 12 -16.5t25 -16t28 -13t22 -6.5q-8 18 -10.5 29.5t-2.5 19.5q0 67 3.5 96t7.5 37t8 3.5t4 -3.5l19 -10q2 5 2 7v5q0 11 -4 21t-8 18v-1q-2 2 -2.5 3t-1.5 2q15 4 15 18q0 4 -5.5 7.5t-14.5 6.5t-19.5 5t-20.5 2q-8 0 -16 -1t-17 -4q-2 -8 -4 -23t-6 -29
q-3 -8 -5.5 -32t-4.5 -50.5t-3 -48.5t-1 -24v-2zM23 362q1 -6 9.5 -13t20 -13t22 -10.5t16.5 -5.5q4 17 7.5 21.5t7.5 7.5h-1q5 3 10.5 8t8.5 15v-2q2 4 2 12q0 9 -3.5 17.5t-7.5 13.5v-1h-1q0 1 -1 1q11 4 11 14q0 8 -16 14t-35 6q-10 0 -17.5 -1t-13.5 -2
q-2 -14 -6.5 -32.5t-7.5 -30.5t-4 -13z" />
    <glyph glyph-name="FL003Ch" unicode="&#x3c;" horiz-adv-x="270" 
d="M235 126q6 0 6 5q0 6 -6 6q-8 0 -8 -6q0 -5 8 -5zM205 278q6 0 6 6t-6 6q-8 0 -8 -6t8 -6zM240 104q8 0 8 6t-8 6q-7 0 -7 -6t7 -6zM84 477l49 87v87q0 24 7.5 34.5t20.5 21.5q8 5 17 14.5t19 23.5q1 1 2 3t3 4l-2 -1q5 7 13.5 14.5t30.5 7.5q0 -31 -4 -50t-9 -36
q12 -4 16.5 -10.5t9.5 -17.5q0 -1 0.5 -3t0.5 -3v-19v-11v-7q0 -26 -19 -62.5t-41 -73.5q-10 -15 -17 -27t-12 -22q0 -2 1 -2l-1 1q2 -2 3 -4t3 -4q7 -40 20 -77.5t28 -73.5q9 -23 18 -45.5t17 -48.5v1l13 -38v-6q0 -4 -1.5 -18t-4 -30t-4.5 -30t-3 -18q0 -17 -22 -17
l-5.5 7.5t-7.5 10.5l-5 10q-2 2 -2.5 3.5t-1.5 3.5q-14 2 -14 19v6q-12 10 -23 23.5t-22 28.5q-11 16 -22 30.5t-25 22.5h2q-4 1 -10 15.5t-11 32t-9 32.5t-4 18v10q0 8 5 13q-7 8 -22.5 22.5t-26.5 25.5l-17 18z" />
    <glyph glyph-name="FL003Dh" unicode="=" horiz-adv-x="323" 
d="M45 352l133 -38l8 13h27q12 0 27 3.5t34 18.5q-31 10 -31 14h65l22 28q-44 17 -86 22t-78 7q-9 4 -17.5 5t-20.5 1q-14 0 -30 -1t-39 -4h2q-3 0 -6 -0.5t-6 -0.5q-11 0 -20 -6.5t-9 -16.5q0 -6 6 -12q-2 0 -3 0.5t-3 0.5q7 -7 13 -12t6 -4q0 -1 -0.5 -1.5t-0.5 -2.5
q0 -1 -0.5 -2t-0.5 -2zM56 238l120 -23l8 8h8h18q24 0 42 6l-3 15q8 -7 19 -15t16 -8q4 0 5.5 1t7.5 7v12q0 5 1 5l27 26q-39 9 -74.5 12t-68.5 5q-4 0 -7.5 0.5t-7.5 0.5q-14 5 -35 5q-19 0 -53 -3q-5 -1 -11 -1q-5 0 -11 -1h1q-11 0 -19 -6.5t-8 -11.5q0 -2 2 -8
q5 -5 9 -8t5 -3v-1q0 -1 -0.5 -1.5t-0.5 -1.5zM29 269q-2 0 2.5 -4.5t14.5 -11.5q-9 5 -13 11q-1 2 -2 2.5t-2 2.5z" />
    <glyph glyph-name="FL003Eh" unicode="&#x3e;" horiz-adv-x="270" 
d="M83 516q-6 0 -6 -6q0 -5 6 -5q9 0 9 5q0 6 -9 6zM54 669q-7 0 -7 -6t7 -6q8 0 8 6t-8 6zM48 690q-8 0 -8 -6q0 -5 8 -5q7 0 7 5q0 6 -7 6zM204 317v1l-49 -89v-86q0 -23 -7.5 -34t-20.5 -21q-8 -6 -17 -15t-18 -24q-1 -1 -2.5 -3t-3.5 -3h2q-4 -6 -13 -14t-31 -8
q0 29 3.5 49t8.5 37q-11 3 -15.5 10.5t-8.5 17.5q0 1 -0.5 3t-0.5 3v8q0 3 -0.5 5.5t-0.5 4.5v20q0 25 19.5 61.5t41.5 73.5q8 14 15.5 26t13.5 23q-1 1 -1 2l1 -1q-2 2 -3.5 4t-3.5 4q-7 40 -20 78t-28 74q-9 22 -17.5 45t-16.5 49v-1l-14 37v6q0 4 1.5 18t4 30.5t4.5 30.5
t3 18v-3q0 19 23 19l4.5 -6.5t6.5 -11.5q2 -3 4 -5.5t3 -4.5q2 -3 2 -7q15 0 15 -19q0 -5 -1 -7q12 -8 23.5 -22.5t22.5 -28.5q11 -15 22 -29.5t25 -22.5h-1q3 -1 8.5 -16t11 -32.5t9.5 -33t4 -17.5v-9q0 -8 -4 -14q6 -9 21.5 -23.5t26.5 -24.5q3 -4 9.5 -10t8.5 -8z" />
    <glyph glyph-name="FL003Fh" unicode="?" horiz-adv-x="211" 
d="M89 805v-15q-9 9 -17 9q-12 0 -22 -21.5t-16.5 -49.5t-10 -54.5t-3.5 -36.5q0 -8 1 -14.5t3 -11.5q2 -4 3 -8t1 -9v-2l-10 -19q-4 -4 -4 -12q0 -16 5.5 -18.5t12.5 -4.5v-1q-2 -9 -3 -20t-1 -16v-10q0 -28 23 -28q7 0 12.5 5t9 13t6.5 17t5 18l-1 -1q1 4 2 8.5t2 7.5
l-1 -1q2 5 4 15q1 10 3.5 23t4.5 25t4 21.5t3 12.5q5 8 14.5 15t18.5 9q-1 -32 -8.5 -66t-19 -67.5t-25.5 -65l-26 -58.5l1 1q-2 -4 -4.5 -7.5t-4.5 -7.5q-7 -11 -12.5 -22t-5.5 -27q0 -8 1 -12t3 -7q0 -1 0.5 -1.5t0.5 0.5v-7q13 -26 23.5 -36t18.5 -10q10 0 15.5 6
t11.5 14l10 10t13 5q16 29 31.5 69.5t27.5 84.5t19.5 88t7.5 80q0 23 -4 43.5t-9 40.5q-4 19 -7 36.5t-4 36.5q-21 35 -45 35q-16 0 -22 -6v4h-36zM21 87q1 -8 11.5 -16t23.5 -15t26.5 -12.5t20.5 -6.5q6 20 11 25.5t10 10.5q7 5 12 10.5t9 18.5q1 5 1 11q0 12 -4 22t-9 18
v-1q-3 3 -3 6q16 4 16 17q0 4 -6 8t-15.5 7t-21.5 5t-23 2q-8 0 -16.5 -1.5t-18.5 -3.5q-2 -8 -4.5 -24t-6.5 -30q-5 -16 -8.5 -29t-4.5 -18v-4zM113 727q0 8 1.5 9t3.5 1h-1q3 -1 4.5 -3t1.5 -9l-3 -4q0 -1 -2 -1t-4 4zM112 756h-4q3 1 -1 8q3 0 6 3v-6l6 -5h-7z" />
    <glyph glyph-name="FL0040h" unicode="@" horiz-adv-x="475" 
d="M281 471l1 -1zM296 454v-1h1v1h-1zM135 401v5v3v3q-1 -2 -1 -6q0 -3 -1 -5h2zM344 410h-1q0 1 -1 1l8 8l-1 1l-11 -9zM259 246l8 -5l-2 11zM172 53q7 0 7 3q0 6 -7 6t-7 -6q0 -3 7 -3zM332 774q-8 0 -8 -3q0 -5 8 -5q6 0 6 5q0 3 -6 3zM329 272l2 3l-4 10l-8 4
q-2 0 -2 -5zM359 381q0 9 -8 11l-7 -3v-16q2 -2 6 -2q9 0 9 10zM342 437q9 0 9 9t-9 9q-8 0 -8 -9t8 -9zM232 400q0 -26 7 -51t13 -48q1 -3 2 -5.5t2 -5.5q1 -2 1 -4v-1q2 0 7 7t9 13q1 2 2 3.5t3 3.5q7 33 10 71.5t3 73.5q-9 5 -10 15q-2 6 -3 11q-2 5 -3.5 12.5t-6.5 9.5
h-9t-7 1v-1l4 -12q-2 -14 -5 -26.5t-7 -23.5t-8 -21.5t-4 -21.5zM211 559q11 13 25.5 23t40.5 10q1 0 13.5 -9t26.5 -20.5t25.5 -22.5t11.5 -14q-1 -3 -3 -7l3 -10q0 -12 -6 -16q7 -3 16 -12q6 -11 7 -22v1q0 22 -1 56.5t-5 68t-13.5 60.5t-25.5 34q-1 1 -8 1h-18
q-4 0 -8.5 -0.5t-9.5 -0.5q-11 -23 -25 -30t-27 -9q-5 -1 -11.5 -3t-15.5 -12q-5 3 -7.5 5l-2.5 2v-8q0 -11 -7 -21v1q-2 -3 -5.5 -8t-7.5 -10t-8 -9.5t-6 -6.5q-2 -3 -4 -13.5t-4.5 -26.5t-5.5 -35.5t-5 -38.5q2 11 4 20t5 19q4 11 10.5 16.5t14.5 8.5q0 17 6.5 30t27.5 13
zM154 271q0 6 2 12.5t12 8.5q-2 3 -3 5.5t-3 5.5q-10 14 -13 28v17l-3 3q-7 7 -9 11q-1 0 -1 -1v0v3q-1 2 -1 8v3q-1 1 -2 1l-1 1v-3q0 -21 1 -56t5 -70t13 -63.5t26 -37.5q7 0 33.5 7.5t55 16.5t51.5 17.5t25 12.5l39 -139q1 -5 -17 -15.5t-41 -21t-43.5 -18t-23.5 -7.5h-7
l-34 7h-5q-8 0 -13 4.5t-11 8.5l-5.5 5.5t-3.5 2.5q-26 0 -47.5 16.5t-38.5 43.5t-29.5 60.5t-21 67.5t-13 64.5t-4.5 52.5q0 28 2.5 57t4.5 58q2 18 3 36.5t2 33.5q14 14 16.5 33.5t2.5 41.5q1 17 1.5 33.5t8.5 32.5l20 25q2 6 3.5 22.5t1.5 24.5h28l1 1q0 1 1 2h-1
q9 19 21 39t20 24h10t8 -1t6 -1v0q0 1 2 3v-1q8 17 14.5 23t14.5 11q3 2 9 6.5t19 19.5q21 -14 24 -32l11 -2q4 10 7.5 15.5t10.5 5.5q10 0 11.5 -3.5t1.5 -11.5v-4q-1 -3 -1 -8v-1q6 -4 11 -9l4.5 -4.5t4.5 -2.5q25 0 46.5 -16.5t38.5 -43.5t29.5 -60.5t21.5 -67.5t13 -65
t4 -52q0 -28 -2 -57.5t-4 -58.5q-2 -17 -3 -38t-2 -36q-23 -8 -24.5 -8.5t-0.5 0.5l-0.5 -0.5t-1.5 -0.5q-2 -14 -9 -31t-23 -38v57q-34 -10 -54 -10q-2 -2 -2 -3v-15l-13.5 -13.5l-9 -9t-6.5 -7t-7 -7.5q-5 -5 -9.5 -5.5t-7.5 -0.5h-20v1q-21 -8 -34 -8q-10 0 -17.5 2
t-7.5 14q-6 2 -8 3q3 -5 7 -11.5t5 -7.5h-23q-13 0 -22 7.5t-15 18t-9 21t-3 15.5v3z" />
    <glyph glyph-name="FL0041h" unicode="A" horiz-adv-x="335" 
d="M85 147q0 -1 -5.5 -1.5t-13.5 -1.5v-1l7 -8zM169 315q6 -2 11 -2.5t10 -1.5l4 -1q-5 13 -9 18q0 8 -1 22t-3 30q-1 2 -1 5q0 4 -1 7q0 -2 -0.5 -2.5t-0.5 -2.5q-3 -16 -8.5 -33t-12.5 -35q5 -1 15 -5zM251 732q-1 -2 -1.5 -5.5t-2.5 -7.5q-1 -8 -5 -21q-3 -8 -5 -16.5
t-3 -13.5v-1v-2q0 -6 2 -13t4 -12v1q1 -2 1.5 -3.5t1.5 -3.5q0 -5 0.5 -9t1.5 -9q2 -23 5.5 -57t3.5 -61q0 -8 -0.5 -14t-1.5 -11q17 -31 25.5 -60t17.5 -59q8 -28 16.5 -58.5t25.5 -65.5l-3 -8l1 1q-3 -11 -10 -17t-15 -9q-5 -29 -13.5 -56.5t-23.5 -56.5q-2 -2 -3 -1.5
l-1 0.5q-2 -2 -7 -4t-8 -2l-4 1q-15 4 -20.5 13.5t-5.5 22.5q0 4 0.5 8.5t1.5 9.5h-5q-1 0 -3.5 0.5t-4.5 0.5q-20 5 -20 21q0 5 3 13q2 8 5.5 12t8.5 8q6 4 6 6v5q0 4 -0.5 9.5t-1.5 12.5h-11h-15h-3l-8 -14l-48 18q-2 -6 -2.5 -12.5t-1.5 -12.5q-2 -11 -4 -23.5t-7 -31.5
l-7 -26q-8 0 -10.5 -0.5t-5.5 -1.5h1q-3 -2 -7.5 -3t-7.5 -1q-5 0 -8 3q-2 1 -3 2t-3 2q-1 1 -3 3.5t-3 3.5v9l3 9q-10 -2 -17.5 -2.5t-7.5 0.5l7 -12q-8 3 -14 8.5t-6 14.5v4l22 84l-14 -6q6 44 10.5 69.5t11.5 49.5l10 34l-1 -1l8 32v-1l2 13l8 2l2 9v3t5 15l-1 -1
q2 6 3.5 13t3.5 14l-1 -1l6 25l9 30q-2 -3 -1 0t2.5 9t3.5 13t3 11q0 2 1 4.5t2 4.5v-1l4 12l-1 -1q1 4 4 13t6.5 19t7.5 19t7 13l-1 -1q6 10 17 10h1t1 1q1 3 1 8q0 8 -1 13q0 4 -0.5 8.5t-0.5 8.5q0 10 4 22l-1 -1q2 12 7 14.5t10 4.5q1 0 2 2t4 13q6 0 16 -0.5t20 -2.5
t18 -6t10 -11z" />
    <glyph glyph-name="FL0042h" unicode="B" horiz-adv-x="284" 
d="M102 750q-17 0 -33 -13q-14 -2 -26.5 -14t-12.5 -25q0 -2 2.5 -9t6.5 -15q-3 -23 -3 -41v-37q0 -14 3 -24q-1 -6 -1.5 -15.5l-1 -19t-0.5 -18.5v-15v-16q0 -9 -0.5 -21t-0.5 -26v-88q0 -14 0.5 -25.5t0.5 -19.5l-9 3q-5 -11 -5.5 -13.5t-0.5 -7.5q0 -7 2.5 -12.5
t5.5 -11.5q3 -5 5.5 -10t2.5 -13q0 -9 -3.5 -19t-7.5 -19q-5 -11 -8 -22t-3 -25q0 -2 5.5 -12t13 -21.5t15.5 -20.5t12 -9h55q1 0 6.5 4t12.5 10q8 7 19 16t22.5 17.5t21 15t15.5 8.5q17 5 23.5 10.5t12.5 10.5l20 16v11q-2 10 -2 15v19q0 13 8 31q1 2 3 7t6 11v-1q3 6 7 13
t6 9v6q0 2 0.5 3t0.5 3t-0.5 3.5t-0.5 3.5v5q-3 6 -6.5 9t-8.5 5l1 -1q-1 0 -1.5 0.5t-1.5 0.5v4q0 9 -2.5 20.5t-13.5 16.5v5q0 10 -2 14l-4 8q-3 4 -3 7q0 1 0.5 3l2.5 10l-49 38l6 7q11 11 21 24.5t10 27.5v21q-5 16 -14.5 37t-22.5 42.5t-28 42.5t-31 39l2 -1
q-3 4 -6.5 7.5t-21.5 18.5h-22v2zM178 324l14 -6v-2q0 -5 -3 -12.5t-8 -15.5h1q-5 -10 -9 -19.5t-4 -20.5v-7l-19 -18q-2 2 -5 2q-2 0 -4 1v157l17 27q6 -9 10 -21.5t6.5 -25t3 -23.5t0.5 -16zM151 580q1 -6 1.5 -11.5t4.5 -13.5q-2 -6 -5.5 -11.5t-7.5 -11.5l-3 3l1 -1
q-5 3 -7.5 5.5l-2.5 2.5v24q0 -1 1 0.5t2 5.5l11 22l1 -2q2 -3 2.5 -6t1.5 -6zM190 440q0 8 2.5 9t7.5 1t6.5 -3.5t1.5 -6.5q0 -2 -3 -6t-5 -4q-5 0 -6.5 1t-2.5 3zM56 151q0 10 9 10q5 0 6.5 -3.5t1.5 -7.5q0 -9 -8 -9q-5 0 -6 1t-2 3zM81 317q0 -3 -1 -5q-3 1 -3 4
q0 -1 0 1t1 5q3 -3 3 -5z" />
    <glyph glyph-name="FL0043h" unicode="C" horiz-adv-x="302" 
d="M166 827q-6 0 -6 -3q0 -6 6 -6q8 0 8 6q0 3 -8 3zM182 727q-1 2 -4.5 3t-6.5 1q1 0 2 1q-10 -5 -16.5 -17t-10 -29t-4.5 -37.5t-1 -41.5q0 -16 0.5 -31t1.5 -29v-38q0 -7 0.5 -23t1 -37.5t1.5 -44.5t2 -42.5t2.5 -33.5t2.5 -16l-1 1q1 -1 4.5 -5.5t8 -10.5t9 -11.5
t6.5 -8.5q6 -11 6 -20v-8l2.5 1.5t7.5 5.5q10 -11 15.5 -13t11.5 -3q11 -2 22.5 -6.5t21.5 -22.5t18 -54.5t13 -101.5v-18q-5 0 -16.5 19.5t-20.5 38.5q-1 -3 -1 -7v-6q-1 -15 -3 -29.5t-22 -28.5q-14 16 -18.5 19.5t-9.5 5.5q-8 5 -14 11t-14 24v-1l-2 2v1q-2 0 -6 -1
q-3 -1 -7 -1h-9q-11 2 -22 24t-20 42h-27q0 8 -1.5 24t-3.5 22l-19 26q-7 16 -7.5 32t-1.5 33q-1 22 -3.5 42t-15.5 34q-1 15 -2 33.5t-3 35.5q-2 29 -4 58.5t-2 57.5q0 21 4 52t12.5 64.5t20.5 67t28.5 60.5t37 43.5t45.5 16.5q8 0 12 -4l8 -8q0 -2 0.5 -2.5l0.5 -0.5h5
l33 6h7q4 0 10.5 -7.5t13 -17.5t11.5 -20t5 -15v-151q3 -8 3 -15q0 -6 -1.5 -10.5t-11.5 -4.5q-5 0 -14.5 10.5t-27.5 39.5v-17l-10 10l-7 -4q1 5 2 14t3 18q-14 22 -30 54h-1z" />
    <glyph glyph-name="FL0044h" unicode="D" horiz-adv-x="313" 
d="M151 47v-2q3 -5 7 -9.5t14 -4.5q23 0 43 16.5t36 43.5t28 60.5t20 67t12 64.5t4 52q0 27 -2 51t-4 47q-2 16 -4 33t-3 39q-12 11 -14.5 31.5t-3.5 42.5q-1 18 -2 34.5t-7 30.5l-19 23q-2 7 -3 23.5t-1 24.5h-28q0 1 -0.5 1.5t-0.5 1.5h1q-9 20 -20 40t-20 22h-14
q-2 0 -4 -0.5t-4 -0.5v0q0 1 -1 3v-2q-7 19 -13.5 25t-14.5 11h1q-2 1 -3.5 2t-4 3.5l-7 7l-12.5 12.5q-14 -9 -19 -19t-6 -21q-4 9 -10 15t-15 6q-7 0 -12.5 -15.5t-9 -39t-6.5 -52.5t-4.5 -55.5t-2 -47t-0.5 -28.5v-30q0 -4 0.5 -7.5t0.5 -7.5v-6v-40t0.5 -34t1.5 -36
t2.5 -46t4 -64t5.5 -89l31 -29v-94q0 -6 4.5 -16t11 -20t13 -17.5t10.5 -7.5h8l31 7h5zM153 272q-2 22 -2.5 40t-1.5 26v5q0 5 -0.5 9t-0.5 8v32q0 32 0.5 58.5t1.5 52.5t2 53t2 60q2 -6 4 -9q1 -1 5 -6.5t9 -11.5t9 -11t5 -6q2 -2 5.5 -15.5t7 -33t7.5 -42.5t7 -44t5 -37.5
t2 -22.5q0 -21 -1.5 -56t-7 -70t-15 -63t-25.5 -36h2h-1q-8 0 -11 3q-2 15 -4 49.5t-4 67.5zM175 56q-7 0 -7 4q0 5 7 5q8 0 8 -5q0 -4 -8 -4zM113 235h6v-10q-2 5 -4 7.5zM222 650l-3 -3l-1 3l1 2zM164 109h-1h1z" />
    <glyph glyph-name="FL0045h" unicode="E" horiz-adv-x="261" 
d="M56 146v-28q0 -17 3.5 -32t17.5 -23q4 -2 13.5 -10.5t17.5 -16.5h-1q7 -7 14 -11l7 -4q2 0 3 0.5l1 0.5h19q-8 26 -8 28q0 7 4.5 12t12 8.5t16.5 6t18 4.5q20 5 35 11.5t15 24.5v25h-22q8 7 21 12.5t20 7.5q-4 -2 6 -2v14q0 2 0.5 4t0.5 4q0 8 -2 14t-13 14h-20
q-3 0 -5 0.5t-4 0.5h-29q-14 0 -26 -1t-28 -5q6 13 11.5 28t5.5 21v143l1 4h2h15q10 0 22 5.5t24 19.5q-21 13 -21 24q0 2 6.5 3t14.5 1q5 0 9.5 -0.5t6.5 -0.5h12l14 33q-29 23 -58 29.5t-56 9.5h-5q-2 8 -2 16v27v29q0 22 0.5 45t1 40.5t1.5 17.5h65q5 11 6.5 13.5
t5.5 7.5v8q0 11 -4 15.5t-9 7.5h40q0 5 -2 15t-5.5 20.5t-8.5 18.5t-10 8h-57q-9 10 -21 20t-14 10q-11 0 -17 -2t-7 -16q-13 -2 -27.5 -4.5t-18.5 -4.5q-2 -2 -10 -7.5t-16 -12t-14.5 -13.5t-6.5 -10t2.5 -16.5t6 -30t7.5 -32t6 -22.5l-1 3l6 -154q-12 -9 -12 -25l3 9
l0.5 -12.5t5.5 -22.5l3 -8v-14q0 -11 1 -36.5t2 -55t2.5 -55.5t2.5 -38q14 -11 16.5 -16.5t2.5 -14.5q0 -11 -3 -22.5t-5 -22.5l1 1q-8 -24 -8 -43z" />
    <glyph glyph-name="FL0046h" unicode="F" horiz-adv-x="305" 
d="M171 740v2v-2zM109 499l-5 -5l12 -10l0.5 1.5t0.5 5.5zM83 746q2 -6 5 -12l11.5 11.5t9.5 11.5h166q7 0 18 -8t16 -17q-2 -2 -10 -9.5t-14 -12.5q-7 -5 -12 -13t-5 -11h-47q-3 -7 -7 -14t-6 -9h-24q-1 0 -11 0.5t-20 2.5q-5 0 -10 1t-7 1q2 -3 2.5 -5.5t1.5 -4.5
q1 -7 1 -9v-8q0 -37 -0.5 -72.5t-1.5 -70.5q1 -1 2 -1t2 -1q29 -2 60.5 -7t66.5 -22l-18 -30h-11q-2 0 -6 0.5t-8 0.5h-15t-7 1q0 -4 23 -14q-17 -18 -27.5 -21t-21.5 -3h-18l-8 -12l-17 6q-2 -38 -2 -75v-73q0 -34 1 -70.5t3 -71.5l-10 -10q-8 -3 -9.5 -3.5t-2.5 -0.5
q-13 0 -18 7.5t-5 18.5q-8 -8 -18 -14.5t-25 -6.5q-4 0 -8 2l-3 3q-5 3 -10 12q-2 21 -2 42t-1 40q-2 41 -4 80.5t-7 90.5l14 10q1 0 4 0.5t4 0.5l0.5 -0.5t-0.5 -0.5q4 8 5 18t1 21v11q0 7 -0.5 13t-1.5 12v1l-3 6q-2 3 -4 8l-2 5v1q0 9 6 15q-3 22 -3 46q0 3 -1.5 7
t-3.5 9v-1q-5 10 -5 23q0 8 2.5 13t10.5 8v69q2 4 6 11t6 11v21q0 5 3 8.5t7 6.5q-3 4 -3 9q0 2 9 10t17 8z" />
    <glyph glyph-name="FL0047h" unicode="G" horiz-adv-x="337" 
d="M101 212l3 -3l1 1l-2 3zM197 813q-5 0 -5 -2q0 -5 7 -5t7 2v3q0 2 -9 2zM209 626q0 21 -0.5 44t-2.5 40q-6 6 -11 6q-1 0 -1.5 -0.5t-1.5 -0.5h3q-18 -5 -30.5 -33t-21 -63t-13.5 -70.5t-6 -55.5v-8q0 -17 3 -49t7 -64.5t8 -58.5t6 -29l2 -3t5 -8q5 -7 10 -17t7 -12l-1 6
q4 -11 4 -25l-1 -7q6 0 10 -1q10 -4 19 -4q7 23 12.5 40.5t9.5 30.5q5 17 8 26t3 14l-8 8q-5 3 -11.5 9.5t-16.5 18.5v-1l-49 57h1q0 1 1.5 5.5t9.5 10.5t24 7q14 0 32.5 1t39.5 3.5t42 6t39 8.5q0 -22 -1 -54t-2 -56q-1 -32 -2 -62t-3 -52l-1 -5q-1 -5 -1 -9v-7v-9t-1 -10
v1l-1 -14q-1 -12 -8 -39.5t-17.5 -55.5t-21.5 -49.5t-20 -21.5h-3q-9 1 -14.5 8t-9.5 17q-3 -24 -28 -35q-9 11 -15 16.5t-10 8.5q-8 6 -15 13t-12 27l1 -1q-1 4 -7 4h-2h-9t-7 1q-4 1 -8.5 8t-10 17t-10 22t-8.5 23l-27 7v19q0 6 -1 14.5t-2 14.5l-15 26q-4 10 -5 18.5
t-1 18.5q0 8 0.5 15.5t0.5 15.5q1 8 1 14v15q0 14 -3 26t-11 21v28v25t-1 25t-1 26v26v24t2 24v-1q2 21 8.5 50.5t17 62t25 64.5t32.5 57.5t39 41.5t45 16h9q9 -1 12 -5.5t5 -9.5q1 -2 2 -3l1 -1h5l36 3l5 -1h-2q4 -1 10.5 -9.5t12.5 -19.5t10 -21.5t4 -15.5l-10 -117
q3 -8 3 -16q0 -14 -12 -24.5t-41 -10.5q-6 0 -14 0.5t-24 3.5v35z" />
    <glyph glyph-name="FL0068h" unicode="H" horiz-adv-x="314" 
d="M66 506l2 2l-6 3zM81 252l2 -2l8 8v1zM243 576l-3 -2l10 -8q1 0 1 3zM117 103q0 -17 -10.5 -20t-18.5 -3h-14v14q0 8 2.5 18t16.5 12q-2 2 -2 4q1 0 -1 2q-6 -6 -13 -9l1 1q-8 -3 -12 -7q-5 -10 -5 -14q-1 -4 -2.5 -7t-5 -6t-11 -6.5t-21.5 -8.5v112l11 17q-1 0 -3 4
t-2 9v12l12 11q1 4 1.5 11.5t1.5 16t1.5 15.5t0.5 10q0 2 -1 9t-2 16q-2 9 -2.5 17.5t-0.5 11.5v16v28v30v9q-7 7 -7 15v21v6l-4 10t-2 10v-1q0 7 4.5 14.5t11.5 10.5q2 7 4 24l19 15q-8 8 -8.5 18.5t0.5 21.5q1 7 1 14q0 8 1 13v15q-14 14 -14 32q0 8 2 17t6 23l-1 -1
q2 5 4 11.5t4 14.5q6 20 26.5 29.5t46.5 9.5q-2 -13 -2.5 -15.5t-0.5 -5.5q0 -4 -2 -11t-4 -12l25 -73q-1 -4 -1 -7q0 -2 -1 -8q-2 -9 -3 -21t-2 -20v-7q0 -3 -0.5 -6.5t-0.5 -5.5v-10q0 -7 2.5 -13.5t10.5 -11.5v-30q1 0 2 -0.5t3 -0.5h-1q11 -2 22.5 -3t22.5 -4v9t1 6
q1 6 1.5 10.5t0.5 6.5q0 3 -0.5 9t-1 13.5t-1 14.5t-0.5 11l-14 12v11q0 2 1.5 5.5t2.5 5.5q2 2 2 0q0 1 -4.5 7.5t-6.5 9.5v105q27 -9 32 -14t7 -14q0 -2 0.5 -4.5t3.5 -5.5l-1 2q4 -5 12 -9h-1q3 -2 6.5 -4.5t6.5 -5.5l1 1q0 1 1 2v-1q0 2 1 4q-13 2 -15 11t-2 18v14
q6 0 13 -0.5t13.5 -2.5t11 -6.5t4.5 -13.5q0 -5 -0.5 -6t-2.5 -4q11 -2 13 -8.5t2 -13.5v-3q5 -20 6 -24.5t1 -8.5v-12v-27v-26v-4q11 -5 14 -12t3 -15v-10q0 -15 -0.5 -20t-1 -5.5t-1 0t-0.5 -2.5q-2 -7 -2 -13v-10v-39t1 -39t2 -40.5t1 -43.5v-23q-8 -5 -10 -11.5
t-2 -11.5v-11q0 -2 0.5 -4.5t0.5 -5.5v-5q-1 10 -3 24.5t-4 25t-3.5 14.5t-3 -5.5t-2.5 -36t-1 -76.5l23 -5l-23 -64q2 -6 3.5 -11.5t1.5 -9.5q0 -1 0.5 -3.5t3.5 -16.5q-27 0 -47 10.5t-28 32.5q-2 7 -2.5 9t-2.5 7q-3 12 -5 21t-2 20q0 17 12 28v13v12q0 8 -1 15
q-1 14 -1.5 26.5t4.5 12.5l-14 10l-2.5 12.5t-4.5 20.5q-2 11 -4 21t-2 25v10q0 10 7 16v1q-14 -7 -27 -7h-14h-3l-7 -16h-1v-14v-31q0 -5 1 -11.5t2 -13.5q3 -14 3 -30v-10q0 -9 -3.5 -17t-14.5 -13v-2q0 -6 0.5 -14t0.5 -16t-0.5 -15t-0.5 -13v-14q0 -3 -1 -7.5t-6 -26.5
v-5q0 -10 -2 -15.5t-15 -6.5l3 -2q2 -5 2 -6v-4z" />
    <glyph glyph-name="FL0049h" unicode="I" horiz-adv-x="148" 
d="M60 50q0 -17 8 -21t16 -4h15v15q0 8 -2.5 20t-16.5 13q2 2 2 4q0 3 2 5v-1q0 1 0.5 2t0.5 2q3 -4 6.5 -6t7.5 -5q5 -2 7 -9l-1 2q2 -6 4 -16t7 -16.5t30 -16.5v128q-2 4 -6 13t-4 10l4 5q0 2 0.5 5l0.5 3v13l-12 13q-1 4 -1.5 13.5t-1 20t-0.5 19.5v12q0 2 0.5 11.5
t1.5 20.5t2 20t1 11v19v35v34v12q6 7 6 18v13q0 31 -6 55q-2 9 -3 19t-2 24l-14 12q5 0 4.5 15.5t-1.5 32.5q-1 11 -1 20t-1 16v21q13 14 13 34q0 10 -2 19.5t-4 23.5q-2 8 -3.5 16t-3.5 18q-5 23 -24 34.5t-43 11.5l3 -23q0 -5 1.5 -12.5t3.5 -14.5l-21 -85q1 -6 1 -9
t1 -11q1 -11 2 -24.5t2 -23.5v-7q0 -4 0.5 -8t0.5 -7v-12q0 -9 -2 -17.5t-10 -13.5v-29q0 -56 3 -107q0 -25 1 -49.5t1 -49.5q0 -7 -1 -14.5t-2 -15.5q-3 -15 -3 -34v-12q0 -11 3 -19t14 -15v-4q0 -8 -0.5 -16.5t-0.5 -18.5q0 -11 0.5 -19t0.5 -15v-15l1 -10t3 -18
q0 -5 0.5 -8t0.5 -4v-7q0 -11 2 -17.5t16 -6.5l-4 -5q-2 -7 -2.5 -8.5t-0.5 -3.5zM86 231l5 -4l-1 -1z" />
    <glyph glyph-name="FL004Ah" unicode="J" horiz-adv-x="340" 
d="M190 239q0 1 1 2zM279 525v1h-1zM160 171l-3 -8l8 3zM310 411q-9 14 -9 19q-3 -1 -7 -1h-1l17 -19v1zM209 423q0 23 4 42t9 37t9 35t4 32q0 3 -0.5 6.5t-0.5 6.5q0 2 1 6.5t3 9.5q2 8 2 7l-3 71q0 2 -0.5 5t-0.5 5q-1 6 -1 12v12q0 19 5 30.5t24 11.5q21 0 64 -26
q7 -12 7 -26q0 -18 -3 -39q-3 -24 -3 -47q0 -8 0.5 -16t4.5 -19q4 -15 4 -46q0 -12 -1 -24t-2 -23q-1 -13 -2 -24t-1 -23q0 -2 -0.5 -4t-0.5 -5v-9q9 -1 9 -15q0 -13 -9 -16v-4q1 -2 1 -9q0 -11 -4.5 -17t-10.5 -12q-3 -3 -5 -7v-32q-1 -11 -6.5 -22.5t-10.5 -23.5
q-4 -7 -7 -14.5t-6 -12.5h1q16 0 19.5 -9.5t3.5 -19.5v-8q0 -6 -3.5 -21.5t-11 -31.5t-19.5 -28.5t-28 -12.5h-2q-4 0 -6 1.5t-10 9.5q3 9 5 11q-1 2 -1 4t-1 4q-3 -3 -10 -3h-5v-5q0 -15 -10 -18.5t-19 -3.5q-20 0 -49 18v-7h-25q-9 0 -18 13v-1q-6 6 -14 16.5t-15.5 20
t-13 17t-5.5 8.5v16q-6 9 -6 15q0 -2 1 9t1 19q2 10 2 15q-11 -2 -13 2t-5 25l3 -4q-2 3 -3.5 10.5t-3 15.5t-2.5 14.5t-1 8.5v19l21 4l2 2q-5 2 -9 3t-8 3v28q0 12 13 19t24 7q6 0 11 -1t6 -9q35 -23 37 -37l14 3q0 -5 0.5 -16.5t0.5 -16.5q1 -21 3 -34.5t8 -40.5l-3 6
l1.5 -3t3.5 -6q3 -5 7 -12.5t8 -14t8 -11.5t6 -5q4 0 10 6t8 10v-2q11 47 15 93t4 93z" />
    <glyph glyph-name="FL004Bh" unicode="K" horiz-adv-x="326" 
d="M44 781v-6q0 -1 2 -7l3 -2q-13 -2 -15 -8t-2 -16v-5q-2 -12 -3.5 -19t-2 -10.5t-0.5 -5.5v-4v-16q0 -7 -0.5 -14.5t-0.5 -15.5q0 -13 4.5 -23t9.5 -18v-1q-8 -7 -10 -13.5t-2 -14.5v-13q0 -14 0.5 -18.5t1.5 -12.5q3 -15 3 -31q0 -24 -0.5 -47t-1.5 -47q-1 -25 -1.5 -50
t-0.5 -52v-26q8 -5 9.5 -13t1.5 -16v-13v-12v-7q-1 -8 -1.5 -13t-1 -11.5t-1.5 -16t-3 -26.5l26 -80q-2 -7 -4.5 -14t-2.5 -12v-5q0 -2 -2 -17q28 0 48 11t26 32l4 16t4 15q3 13 5 22.5t2 18.5q0 22 -14 35v20q1 12 3 37q1 16 -2 29.5l-3 13.5l17 12q2 26 3 34.5l1 8.5
q1 0 1 -3t1 1q2 12 4 24.5t2 28.5v2h9l8 -18l3 1q5 -11 17 -19l8 -8t4 -7q0 -8 -1 -16t-3 -16t-3 -16.5t-1 -17.5v-14q0 -11 3 -19t17 -16v-3q0 -8 -0.5 -17t-0.5 -20q0 -10 0.5 -18.5t0.5 -16.5v-15q0 -5 1.5 -14.5t2.5 -17.5l2 -10v-5q0 -11 2.5 -18t18.5 -7l-7 -8
q-2 -3 -2 -8q0 -10 3.5 -15.5t8.5 -8t10.5 -3t9.5 -0.5h13v15q0 11 -3 22.5t-20 12.5q5 5 6 10l-1 -1q0 2 1 4q3 -5 6.5 -7.5t8.5 -4.5q2 -2 5.5 -4t5.5 -6v2q2 -5 3 -9l2 -8q1 -5 2.5 -8t5 -7t11.5 -8.5t23 -10.5v133q-2 2 -6.5 10.5t-5.5 10.5q0 -1 1.5 2l2.5 5t1.5 4.5
l0.5 2.5v15l-15 12q0 5 -1 15t-1.5 20.5t-1 20t-0.5 12.5q0 2 0.5 8t1.5 16q2 12 2.5 24.5t0.5 16.5q0 8 -4 11.5t-9 3.5q-2 0 -3.5 -0.5t-3.5 -0.5l-55 124l46 84q8 27 12 41.5t6 24.5t2.5 18t0.5 20v26q10 11 10 28q0 13 -9 39q-3 10 -6.5 21t-7.5 25q-6 22 -27 34.5
t-48 12.5q2 -15 2.5 -18t0.5 -7t2 -12t4 -14l-24 -88q1 -18 2 -28t1.5 -17t1 -12t1.5 -13l-2 -3.5t-5 -8.5v1q-6 -10 -12 -21.5t-6 -16.5v-13q0 -10 -11 -26t-19 -22l-8 -2q-1 5 -1.5 10.5t-0.5 10.5q-1 8 -1.5 13t-0.5 7q0 5 -1.5 11.5t-3.5 14.5l-9 36l11 13v12q0 4 -2 8
l-2 4t-1 1q0 2 1.5 12.5t3.5 14.5v124q-23 -8 -30 -16t-7 -17v-12q0 -2 -2 -8q-2 -2 -4.5 -3t-4.5 -3q-5 -3 -9 -5.5t-7 -6.5q0 1 -0.5 1.5t-0.5 2.5v-1q-2 4 -4 7q16 1 18.5 12.5t2.5 19.5v15q-5 0 -12.5 -0.5t-14.5 -2.5t-12 -7t-5 -14zM144 414v5q4 -4 9 -5l-5 -8l-2 4z
M91 605l7 8l2 -2l-7 -7q-2 0 -2 1zM261 226l5 -4l-1 -1z" />
    <glyph glyph-name="FL004Ch" unicode="L" horiz-adv-x="304" 
d="M135 81h140q8 0 17.5 7.5t14.5 19.5q-2 2 -10 9.5t-14 12.5q-5 4 -7 9t7 14h-61q-2 8 -6 14.5t-6 8.5q-8 2 -10 2h-4t-4 -0.5t-4 -0.5h-4q-2 0 -6.5 -1t-11.5 -3l2 1q-3 -1 -6 -1q3 4 3 9v18q0 61 -4 120.5t-10 119.5q-5 61 -9.5 121.5t-4.5 121.5v35t1 35q-4 8 -14 15
h-8q-11 0 -16.5 -7.5t-5.5 -18.5q-8 8 -17.5 14t-23.5 6q-4 0 -8 -2q-2 -2 -4.5 -3.5t-2.5 -2.5l-6 -5q-2 -22 -2 -45q0 -22 -1 -42q-2 -42 -3.5 -82.5t-8.5 -91.5l15 -14q1 0 2.5 -0.5t3.5 -0.5h-1h1h1v0q1 0 0 2q5 -8 6 -18.5t1 -21.5v-12q0 -14 -1.5 -27.5t-3.5 -27.5
q-3 -26 -3 -55v-4q0 -18 3 -33.5t22 -24.5v-74q2 -3 6 -9.5t7 -11.5v-21q0 -10 3 -11.5t6 -3.5q-3 -5 -3 -8q0 -20 29 -20q2 8 3 11l11.5 -11.5t9.5 -10.5zM178 92q-8 0 -8 6q0 8 8 8q6 0 6 -8q0 -6 -6 -6zM159 99q-7 0 -7 6t7 6t7 -6t-7 -6zM117 188l-2 -1z" />
    <glyph glyph-name="FL004Dh" unicode="M" horiz-adv-x="398" 
d="M35 95q0 -9 4 -20t21 -11l8 3l1 0.5t2 1.5l-1 -1q9 6 9 15q0 5 -2 12t-4 13l3 16q2 -13 3.5 -25.5t1.5 -18.5l39 -15v14q0 11 1 15q1 5 2.5 11.5t2.5 9.5q0 1 4 3q5 5 10.5 9.5t5.5 15.5q0 19 -2 36.5t-5 35.5q-3 17 -5 34.5t-2 34.5v5q14 -34 22 -72.5t14 -76.5
q2 -7 2.5 -13t2.5 -13q2 -14 9.5 -19.5t17.5 -9.5q6 -3 12 -7t8 -20h30q0 17 -3 26.5t-7 15.5q-2 4 -3.5 8.5t-1.5 9.5q0 7 3 10t17 10v116q3 5 5 12t2 9q0 4 -1.5 7.5t-3.5 7.5q-1 2 -1.5 2.5l-0.5 0.5v10q0 2 -0.5 4t-0.5 4v8q0 11 5.5 21t12.5 21q2 3 4.5 6.5t4.5 6.5
q3 -24 3 -47v-20t-1 -19q-1 -11 -1 -22v-21v-17q0 -3 0.5 -7t0.5 -6q2 -41 5.5 -82t13.5 -79q7 -7 8.5 -8t5.5 -1h3l8 3l6 6q2 2 4.5 5t2.5 6v72q15 0 20 2.5t9 7.5q1 2 5 3.5t18 6.5v15q0 4 -0.5 9.5t-0.5 12.5q0 5 0.5 9.5t0.5 9.5v8q2 5 4 12l2 7v3q0 38 -2.5 76.5
t-4.5 76.5t-4 77t-2 78v40l-6 6v52q0 6 -4 23.5t-10 36t-13.5 33t-14.5 14.5h-4v35q-17 0 -32 -1.5t-31 -10.5v-18q0 -32 -6 -62.5t-14 -61.5q-5 -17 -9 -34t-7 -36q-3 2 -7 2q-5 0 -6.5 -0.5t-5.5 -4.5q-5 -4 -7 -11t-3 -12t-3 -15.5t-4.5 -24t-5 -29t-5.5 -29.5q-1 2 -1 5
v7q0 13 -2 21v-1q-3 14 -12.5 37.5t-17.5 42.5q-3 8 -6 15.5t-3 5.5v1q0 -1 2 1q2 3 3.5 4.5t1.5 9.5q-2 3 -5.5 8t-8.5 9v82q-3 4 -5.5 7.5t-5.5 6.5q4 -1 13 -1v25q0 18 -17 21q-5 0 -11 -2q-1 5 -1 9v8t0.5 13.5t0.5 12.5h-65q5 -12 7 -15.5l2 -3.5q-1 -2 -5.5 -3t-10 -2
t-10.5 -1h-8q0 -14 1 -29t8 -27v-79l-8 -6q0 -4 0.5 -9.5t0.5 -8.5q0 -8 -1.5 -19.5t-3.5 -22.5q-3 -21 -3 -45v-18q0 -14 7 -22v-275h5q4 0 6 -1q-2 -11 -6.5 -27t-4.5 -19v-4q0 -10 6 -19.5t16 -18.5q-7 -3 -8.5 -8.5t-1.5 -12.5zM354 158h-4q-5 2 -5 9q0 3 2.5 6t6.5 3
q2 0 5.5 -2t3.5 -7t-3 -7t-6 -2zM120 579q-8 0 -8 7q0 6 8 6t8 -6q0 -7 -8 -7zM197 275q-6 0 -6 6q0 7 6 7q9 0 9 -7q0 -6 -9 -6zM288 533h-1q0 1 -1 1l8 4q8 0 9 -1t1 -2q0 -4 -9 -4z" />
    <glyph glyph-name="FL004Eh" unicode="N" horiz-adv-x="347" 
d="M241 131q3 -5 13.5 -10t22.5 -8.5t23 -5.5t17 -2q0 16 2.5 20t5.5 8q4 4 7.5 9.5t3.5 16.5t-5 19.5t-10 16.5q-3 5 -6 9t-5 8q5 1 9.5 3t8.5 10q1 4 2.5 13t2.5 19.5t1.5 19.5t0.5 13v31q0 6 0.5 12t0.5 13v50q0 8 -0.5 14.5t-0.5 12.5v22l7 5v76q0 23 -2 47.5t-9 66.5
l-13 -10v84q0 5 -4.5 10.5t-10.5 8.5q-1 7 -6 7t-19 -7v1l-8 8t-9 5h-4q-7 0 -19 -7q0 -1 1.5 -1.5t1 -1t-4.5 -0.5h-13v-29q0 -15 1 -28l2 -26q2 -14 3 -26.5t1 -25.5q0 -17 -1 -33t-3 -32q-1 -16 -2 -32.5t-1 -33.5v-9q-7 18 -14.5 38t-9.5 28q-7 3 -18 20t-21.5 37
t-18.5 38t-8 25l0.5 1t2.5 3q3 5 6.5 10t3.5 13v3q0 11 -3 17.5t-22 6.5q-7 0 -15 -4q0 9 -1.5 17.5t-5.5 15.5t-11.5 11.5t-19.5 4.5h-4q-7 -2 -10 -5l-8 -8q-5 -18 -6.5 -36t-1.5 -37v-18q0 -9 1 -18q-8 -6 -13 -12.5t-5 -17.5v-3q8 -22 20 -40q5 -8 8.5 -14t3.5 -7
q0 -32 -1 -62t-3 -61q-2 -30 -3 -61t-1 -63v-10q0 -3 0.5 -6t0.5 -6v-20l28 -12v-60q0 -2 4.5 -12.5t7.5 -15.5l-1 3q2 -7 9 -9.5t9 -2.5h5q4 0 7 1q4 -2 8.5 -3.5t6.5 -3.5l-3 1q3 -2 4 -2h6h15v28h13v197v4q0 3 1 6l1 -1l6 3q3 -15 10 -35t15 -39.5t15.5 -35.5t10.5 -23
q2 -4 2 -5q5 -7 9.5 -14.5t5.5 -13.5v-6q0 -5 0.5 -11t0.5 -14q0 -7 -0.5 -13t-0.5 -11v-11zM261 728h4q-1 -1 -2 -1v0l-0.5 0.5t-1.5 0.5zM229 446v-1q-1 2 -1 3t-1 3q0 -1 2 -5z" />
    <glyph glyph-name="FL004Fh" unicode="O" 
d="M117 692q-26 0 -33 -18t-7 -41h8t8 1l-1 -1l2 1q-3 -4 -10 -6q-11 -4 -22 -11.5t-18 -30.5q-8 -34 -14 -69t-6 -72v-10q0 -7 1 -9q-9 -2 -9 -14q0 -8 3.5 -11.5t8.5 -4.5l-1 -1q-2 -7 -2.5 -8.5t-0.5 -4.5q0 -14 14 -28q2 -3 6 -7v-30q1 -11 6 -23t11 -23q7 -15 12 -27
q-16 0 -19.5 -9t-3.5 -20v-6q0 -7 3.5 -22.5t11 -31.5t19 -28t28.5 -12h2q1 0 11.5 0.5t11.5 0.5q-8 14 -16 29t-12 26q1 -2 2 -2.5t2 -2.5q5 -8 11 -15t19 -9q-1 -2 -1 -6q0 -14 9.5 -17.5t19.5 -3.5q20 0 49 18v-7h25q10 0 19 12q4 5 7.5 8.5t8 9t12 14.5t19.5 25v19
q6 9 8 15q0 -1 -1 11.5t-2 20.5q-3 18 -3 24l-7 -7l-4 5q1 0 6 2t11 8t11 16.5t7 27.5l-3 -5q1 3 3 10.5t3.5 15.5t2.5 15t1 9v47q0 33 -5 69.5t-16 62.5q-5 7 -9.5 9.5t-8.5 4.5q-8 2 -8 8q0 2 3 4q5 3 8.5 8.5t3.5 16.5q0 6 -1.5 9l-3.5 7t-2 5q2 4 3 5l3 3q0 5 -15 21
t-33 33.5t-34 31.5t-18 14q-33 0 -53.5 -16.5t-34.5 -38.5zM147 428q0 22 5 41t11 39q5 18 10 36.5t7 39.5l-3 8q-2 3 -2.5 6.5t-0.5 5.5v2q0 2 9.5 4.5t14.5 2.5h1q9 -2 13 -16.5t6 -27.5q0 -5 0.5 -9.5t2.5 -8.5q1 -10 6.5 -13.5t11.5 -8.5q4 -4 4 -6v-9q0 4 -8 4
q0 -58 -4 -122t-16 -119l3 5l-1.5 -3t-3.5 -5q-3 -5 -7 -12.5t-8 -14.5t-8 -11.5t-6 -4.5l-5 15l-2 2l2 -2q-2 5 -2.5 9.5t-2.5 9.5l1 -1q-11 42 -19.5 83t-8.5 81zM301 398l1 6q2 4 7 4q3 0 6 -3t3 -6q0 -10 -9 -10q-8 0 -8 9zM299 499q-6 0 -6 8q0 7 6 7q7 0 7 -7
q0 -8 -7 -8zM49 425v1q1 0 1 1l-2 -6q2 3 4 7.5t3 6.5q2 -1 4 -1h2h2l-18 -19q-2 6 -9 10h13zM195 179l3 -7l-6 3z" />
    <glyph glyph-name="FL0050h" unicode="P" horiz-adv-x="283" 
d="M88 81v-9q8 4 15 8t8 4q6 2 13 4.5t15 11.5q1 8 2.5 31t3.5 46q2 24 4 46t3 31v30q0 10 0.5 19t2.5 11q-1 -1 1.5 0t4.5 3t5 3t6 5l79 71q-2 9 -2.5 11t-0.5 3q0 5 3 11q2 4 3.5 8t1.5 14v6q10 5 13 18t3 24v6q4 3 8 5.5t7 8.5v7q0 2 0.5 3.5t0.5 3.5t-0.5 3.5t-0.5 2.5
v8q-1 1 -4 7.5t-6.5 13.5l-6.5 13l-4 8q-2 6 -4 15t-2 20v33q0 3 0.5 9t0.5 9q-10 7 -14 10.5t-6 6.5q-5 6 -11.5 12t-20.5 11q-5 2 -14.5 9.5t-20 17.5l-21 20t-18.5 18v-1q-7 7 -12 11.5t-9 4.5h-51q-4 0 -11.5 -10t-15 -23t-13.5 -24t-6 -12q0 -14 3.5 -27t8.5 -25
q4 -11 7 -21.5t3 -22.5q0 -10 -2 -16.5t-5 -11.5q-8 -14 -8 -25q0 -5 0.5 -7.5t5.5 -12.5l8 3v-1q0 -11 -0.5 -23.5t-0.5 -28.5v-100q0 -16 0.5 -28t0.5 -23v-19q0 -9 1.5 -24t3 -30.5t3 -27t2.5 -12.5l-1 1l17 -21v-80q0 -10 6 -13v-43q2 0 7.5 0.5t10.5 1.5zM147 647
l18 -21v-9q0 -12 3.5 -22.5t8.5 -20.5q4 -9 7.5 -18t3.5 -17v-3l-15 -6q0 -8 -1 -25t-4.5 -35t-10.5 -33t-18 -18v223q2 1 8 5zM186 400l4 9q2 2 5 2t5.5 -3t2.5 -6q0 -10 -8 -10q-5 0 -7 1t-2 7zM57 726l1 4q2 5 9 5q2 0 5 -3t3 -6q0 -2 -1.5 -5.5t-6.5 -3.5q-10 0 -10 9z
M274 503q0 -4 -2 -6q1 2 1 3t1 3z" />
    <glyph glyph-name="FL0051h" unicode="Q" horiz-adv-x="359" 
d="M123 713v1v-1zM131 692l-2 -2zM240 654q5 0 6 2q-2 0 -6 -2zM271 275l-14 6v-1q0 -6 2 -7t10 -1zM318 144q4 2 4 6v3h-6q-6 0 -8 -4l1 -2l1.5 -3t3.5 -1zM87 131q8 0 8 5q0 6 -8 6q-7 0 -7 -6q0 -5 7 -5zM319 126q1 -5 8 -5q5 0 7 6l-1 4q0 1 -6 1q-8 0 -8 -4v-2z
M206 116q9 0 9 7q0 5 -4 7t-6 2q-3 0 -5.5 -3t-2.5 -6q0 -4 4 -6zM246 646q7 0 7 4q0 6 -7 6q2 2 2 7t-3.5 7t-5.5 2q-4 0 -6.5 -3t-2.5 -6q0 -6 4 -8l6 -1q-1 -1 -1 -4q0 -4 7 -4zM169 308v4q0 8 4 13q-2 5 -2.5 12t-0.5 10l-0.5 0.5t-0.5 2.5v-1v1q-2 11 -5 20t-10 16h-4
h-1q-5 -11 -7 -20t-2 -17q0 -20 9 -35t21 -30q2 -2 4.5 -5t3.5 -5q1 -8 1.5 -13.5t0.5 -16.5q0 -5 -0.5 -9t-0.5 -8v-11q0 -6 1.5 -12.5t6.5 -16.5q3 1 7 2.5t8 3.5l-8 10v8q0 3 -0.5 8.5t-0.5 9.5v8v8q-8 17 -14.5 32t-7.5 20zM144 514v-22q0 -10 1 -21q5 2 11.5 3t12.5 1
q14 0 32 -8v1q0 10 -2 37.5t-5.5 59t-9.5 61.5t-13 47q-11 -38 -19 -77t-8 -82zM293 78q0 2 -0.5 3.5t-0.5 2.5q-14 6 -22 20q-8 -19 -17.5 -37.5t-21 -33t-23.5 -23.5t-24 -9q0 17 -4 32t-14 23l-5.5 1t-12 1.5t-12 1t-6.5 0.5q-15 4 -20.5 12t-9.5 19q-6 -8 -20 -8
q-16 0 -18.5 4t-7.5 18q-2 6 -4 11v-1q-2 3 -2 8q0 11 5.5 16t13.5 10q2 1 5 3t3 5v2q-1 -1 -3 1t-3 4q-2 2 -3.5 5l-2.5 5l2 -7q-13 17 -16.5 35.5t-5.5 38.5q-2 14 -4 27.5t-9 27.5l-1 0.5t-2 1.5q-5 3 -7.5 8t-3.5 8q-1 2 -1 3v6q0 14 2.5 19.5t11.5 7.5q-1 11 -0.5 21.5
t-0.5 21.5q-2 34 -3 68t-1 69q0 75 8 149t33 143q4 4 10.5 9.5t11.5 5.5l6.5 -4t11.5 -8l5 -5q11 -7 29 -7q5 0 15 -2l-6 16v17l10 12q8 3 9.5 3.5t2.5 0.5t2.5 -0.5t9.5 -3.5l12 -14q9 -14 19.5 -28t19.5 -27q17 -22 32 -44t26 -47.5t17.5 -56.5t6.5 -73q-23 0 -33.5 7.5
t-17.5 17.5q-2 -1 -3 -2t-3 -2v-1q20 -5 33 -27.5t20.5 -50t10 -54.5t2.5 -42q0 -19 -0.5 -30t-2.5 -17t-6 -8.5t-10 -5.5h1l-13 -6l1 2q-3 -3 -6 -17.5t-5 -31.5q11 -24 21.5 -46.5t24.5 -47.5v1l23 -38l1 -5q1 -4 2.5 -19.5t2.5 -34t2 -34.5t1 -22v-2q0 -12 -19 -19
q-9 5 -16 14q-2 3 -6 7q-5 4 -8 10h-3q-12 0 -16 16z" />
    <glyph glyph-name="FL0052h" unicode="R" horiz-adv-x="311" 
d="M190 197l15 -11q6 3 11 10q2 -14 6 -27t18 -22v-3q0 -8 3 -12.5t12 -4.5h1q4 -8 12 -16l10 -10q22 0 22 15q1 6 3.5 17t4.5 22t3.5 20.5t1.5 12.5v6l-14 29l1 -1q-18 44 -32 85.5t-25 86.5q17 17 21.5 41.5t4.5 47.5v26q0 57 -20.5 110t-67.5 97v-1q-3 4 -5.5 6t-6 5
t-9.5 7t-17 12h-28q0 -7 -0.5 -14t-2.5 -13v29q-19 0 -34 -15h-3q-18 0 -34.5 -14.5t-16.5 -30.5q0 -5 4 -16t9 -19q-5 -26 -5.5 -48t-0.5 -46v-6l-14 -6v-34q18 0 26 6h1q2 -2 3.5 -5t3.5 -6q4 -6 5.5 -15t1.5 -18q0 -5 -0.5 -9t-0.5 -7v-9q0 -22 -3.5 -45t-6.5 -46
q-5 -23 -7.5 -47t-2.5 -50v-14q0 -2 0.5 -4.5t0.5 -4.5v-9q0 -2 3 -5q6 -10 11.5 -14.5t25.5 -5.5v-7q-1 -17 -2 -40.5t-1 -40.5q20 0 29.5 6t14.5 11l7 6q0 20 3.5 32.5t8.5 24.5q4 11 8.5 24t5.5 27v113l15 7q5 -5 6 -10.5t1 -12.5v-12v-2q-9 -5 -9 -15v-6q0 -2 4 -13.5
t10 -25t12 -25.5t10 -13h-1q6 -3 9 -7q-13 -3 -20 -10zM151 500q0 21 1 36t4 35q0 2 0.5 4.5t0.5 4.5h1q-1 -1 2.5 -4.5t8.5 -7.5l8 -6t7 -5q2 -4 2.5 -9.5t2.5 -11.5q1 -8 2 -15t6 -14q-8 -16 -18.5 -31t-25.5 -26q-2 10 -2 16v15v19zM282 162q-7 0 -7 8t7 8t7 -8t-7 -8z
M159 601q-7 0 -7 8q0 7 7 7t7 -7q0 -8 -7 -8zM243 293q-7 0 -7 8t7 8t7 -8t-7 -8zM276 180q-8 0 -8 6q0 7 8 7q6 0 6 -7q0 -6 -6 -6zM246 286q5 0 7 -0.5t2 -5.5l-11 6h2zM109 711q-2 1 -2 2t-1 2h4q0 -1 -0.5 -2t-0.5 -2z" />
    <glyph glyph-name="FL0053h" unicode="S" horiz-adv-x="225" 
d="M127 35v4q4 -6 22 -6q24 0 44 35q1 19 4.5 37t7.5 36q5 21 8.5 41t3.5 43q0 36 -7 80t-19 88t-27 84t-31 69q-14 2 -20.5 20t-6.5 34v7q8 5 13 13l-3 18q-3 7 -3 10v3v6t1 7l4 -5q13 0 22 7q0 2 -1 2h3q3 0 6 -11.5t3 -16.5v-76l21 -29l16 40l2 -2l7 -7t12 -10q6 11 9 17
t4.5 10t1.5 6v7v4q0 4 -6 22.5t-15 43t-20.5 52.5t-23 52t-21 41t-15.5 19q-5 2 -12 2q-24 0 -41 -26.5t-28 -62t-16 -71t-5 -52.5q0 -2 0.5 -3.5t0.5 -3.5v-10q1 -2 3.5 -12l5.5 -22t5.5 -22.5t2.5 -11.5v-6q-2 -4 -3.5 -8t-1.5 -12q0 -16 5.5 -27t12.5 -22q2 -4 4.5 -7.5
t4.5 -6.5h-1q13 -27 26.5 -58.5t25 -65.5t19 -68t8.5 -65q-9 2 -19 9.5t-15 16.5l1 -2q-1 3 -3 12.5t-4 21.5t-4.5 25t-3.5 23q-2 10 -4 15l1 -1q-1 3 -1.5 7.5t-2.5 8.5l1 -1q-2 9 -5 18t-6.5 17t-9 13t-12.5 5q-23 0 -23 -28v-10q0 -5 1 -16.5t3 -20.5q-7 -2 -13 -4.5
t-6 -18.5q0 -6 0.5 -7.5t4.5 -5.5l10 -19v-1q0 -7 -1 -11t-3 -7q-4 -12 -4 -26q0 -9 3.5 -35.5t10 -54.5t16.5 -49.5t22 -21.5q8 0 17 7v-13h37zM114 112l1 4q2 4 4 4q1 0 1.5 -0.5l0.5 -0.5l3 -5q0 -11 -5 -11h-2h2h-2q-3 0 -3 9zM108 76q5 5 2 7h3q4 0 7 -1l-6 -4v-5z
M38 528l1 1q0 1 -0.5 0.5t-0.5 -1.5z" />
    <glyph glyph-name="t" unicode="T" horiz-adv-x="419" 
d="M192 30q0 -17 10.5 -21t20.5 -4h17v14q0 10 -3 22.5t-21 12.5h-1q2 2 2.5 4.5t2.5 4.5v-1q1 2 3 8q3 -4 6.5 -6.5t8.5 -5.5q4 -3 12 -11v2q2 -3 3 -9t2 -10q1 -5 2.5 -9.5t5.5 -8t12.5 -8t23.5 -9.5v140q-2 3 -7.5 12t-5.5 11l0.5 1.5t2.5 3.5q1 2 2.5 5.5t1.5 5.5v12
l-15 13q-1 6 -2 16.5t-1.5 21.5t-1 21t-0.5 13q0 2 0.5 12t2.5 21q1 12 2 22t1 15v17q0 8 0.5 18t0.5 20q0 11 -0.5 21.5t-0.5 18.5v13q8 10 8 17v15q0 17 -2.5 30.5t-5.5 27.5q-2 10 -3.5 20.5t-2.5 26.5l-14 12q3 1 2.5 18.5t-1.5 37.5q-1 11 -1 20v18v16q27 5 59 9.5
t66 4.5q0 11 1.5 14.5t3.5 5.5q5 5 8.5 9.5t3.5 12.5v5h42v57h-106q-4 9 -12 14.5t-17 7.5t-18 2.5t-16 0.5h-7q-5 0 -7.5 -1.5t-7.5 -3.5q-2 -2 -4.5 -2.5l-2.5 -0.5q-4 0 -7.5 4.5t-8.5 10.5q-7 8 -17 16.5t-33 8.5v-16q0 -2 0.5 -4t0.5 -4q0 -3 0.5 -7t1.5 -9h-160
q-2 0 -9.5 -5t-9.5 -10v1q-2 -6 -4.5 -14.5t-2.5 -11.5q0 -4 3.5 -8.5t8.5 -9.5q14 -11 31.5 -13.5t32.5 -2.5q-2 -4 -2 -11q0 -1 0.5 -2.5t2.5 -10.5q2 -7 10.5 -14t13.5 -7h63q1 -14 2 -22.5t1.5 -14.5t1 -11.5t1.5 -12.5v-7q0 -4 0.5 -8.5t0.5 -7.5v-13q0 -10 -2.5 -19.5
t-11.5 -14.5v-32q0 -29 1 -57.5t2 -56.5q3 -54 3 -107q0 -8 -1 -16.5t-2 -17.5q-2 -9 -3 -17.5t-1 -19.5v-14q0 -10 3.5 -18.5t17.5 -15.5v-5q0 -8 -0.5 -18t-0.5 -21t0.5 -19.5t0.5 -16.5v-17q0 -10 3 -26q2 -7 3 -12t1 -4v-8q0 -11 2.5 -18.5t19.5 -7.5l-7 -7
q-2 -7 -2.5 -8t-0.5 -3zM369 769q-7 0 -7 6t7 6t7 -6t-7 -6zM279 789l-1 -2l-5 13q4 -1 5 -2.5t1 -8.5zM229 222l2 -1h-1z" />
    <glyph glyph-name="FL0055h" unicode="U" horiz-adv-x="310" 
d="M46 32l85 -4h-1l28 -8l71 47l60 137h5q5 0 9.5 3t4.5 13q0 1 -0.5 18.5t-2 44t-3 60t-2.5 67.5q-2 32 -3.5 62t-2.5 54t-2 39t-1 16q0 3 0.5 11.5t1 19t1.5 20t2 15.5l14 14v15q0 3 -4 9h-1q0 1 -1 1v1l1 -2q-1 1 -1 5q0 1 4.5 10t6.5 12v136q-28 -12 -34 -19t-7 -17
q-2 -10 -5 -16v2q-6 -8 -11 -12q-3 -3 -7 -5t-7 -6q0 2 -0.5 2.5t-0.5 2.5q-1 3 -2.5 7t-6.5 9h-8q-16 0 -18.5 -7.5t-2.5 -18.5v-6q-3 -14 -4 -21.5t-2 -11.5t-1 -6v-3v-16v-35v-38v-4q-11 -7 -14.5 -15t-3.5 -19v-13q0 -4 0.5 -20.5t2 -40.5t2.5 -54t3 -61
q2 -32 3.5 -63.5t3 -57t2.5 -43t1 -22.5v-39v-15l-10 -24h-2h-15q-7 0 -13.5 -1t-13.5 -6v6q8 5 8 15v14q0 6 -1 25t-3 46.5t-4 60.5t-4 67q-2 32 -4 63.5t-3.5 57.5t-2.5 44t-1 23l-22 18q8 8 9 19t0 22t-1 20q0 10 -1 16v20q14 13 14 35q0 10 -2 20t-6 24q-2 7 -3.5 14.5
t-3.5 15.5q-6 22 -26.5 34t-47.5 12l3 -23q0 -5 2.5 -13t4.5 -15l-25 -82q1 -17 2 -27t1.5 -16.5t1 -11.5t1.5 -12v-8q0 -2 0.5 -5t0.5 -5v-14q0 -8 -2 -16.5t-10 -13.5l11 -321q0 -27 1 -52.5t2 -50.5q1 -24 1.5 -48t0.5 -48zM253 629l-3 -2l2 2h1z" />
    <glyph glyph-name="FL0056h" unicode="V" horiz-adv-x="320" 
d="M99 127q1 -6 9.5 -12t19 -12t20 -10t14.5 -5q5 16 8.5 20.5t7.5 7.5q5 3 9.5 8.5t6.5 14.5v-1q1 5 1 12q0 17 -5 27t-5 18v1t1 3q0 -2 1 -2h2q13 0 16 10l-1 -2q3 4 6.5 13t7 18.5t6.5 18.5t4 14l-1 -1l3 11q1 3 2.5 7t2.5 8l-1 -1q2 6 4.5 14t4.5 16l8 24l6 26l-1 -1
q4 12 6.5 23.5t2.5 19.5l1 7l11 3l1 11l-1 -1l6 21l4 11l-1 -1l9 32q6 24 11 50t9 67l-12 -5l21 80v3q0 11 -4 13.5t-8 4.5q0 6 -4 7t-18 -2v12q-5 0 -6 -0.5t-1 -1.5q-2 2 -2 3q0 2 -4 3q-2 2 -7 2h-2q-4 0 -10.5 -2.5t-12.5 -4.5q1 0 0.5 0.5t-4.5 0.5l-8 -27l1 1
q-5 -16 -7.5 -29t-4.5 -26q-2 -12 -4 -25t-6 -27l1 1q-4 -11 -7 -21t-7 -21q-7 -21 -14.5 -42.5t-14.5 -43.5v-4q0 2 -0.5 3.5t-0.5 3.5q-2 15 -3 29.5t-1 23.5q-5 5 -10.5 21t-10 35.5t-7.5 39t-3 31.5v5l1.5 1t3.5 3q5 3 9.5 8t7.5 15v1q2 5 2 6v4q0 16 -22 19
q-2 0 -3.5 0.5t-3.5 0.5q-4 0 -6 -1q3 7 3 19t-5 21.5t-19 13.5l-3 1q-1 0 -4.5 -0.5t-4.5 -0.5l-6 -3t-6 -4q-15 -27 -23 -53t-13 -54q-8 -4 -15 -10t-10 -16l1 1l-2 -9q17 -35 25.5 -64t15.5 -55q7 -29 16 -57.5t26 -59.5q-1 -4 -1 -11v-14q0 -17 1.5 -37t3 -38.5t3 -33.5
t2.5 -22l3 -6v1q2 -5 3.5 -12t1.5 -13q-1 -5 -3 -13.5t-5 -18.5q1 1 -2.5 -9t-4.5 -14l-1.5 -4.5t-0.5 -7.5v-3zM108 165q0 -1 -0.5 -1.5t-0.5 -2.5q0 1 0.5 1.5t0.5 2.5z" />
    <glyph glyph-name="FL0057h" unicode="W" horiz-adv-x="456" 
d="M202 96q1 0 2.5 0.5t9.5 3.5l10 8q0 3 0.5 10.5t1 16.5t1.5 17t2 12l6 9q2 5 5 10t3 6q0 -1 -1 4t-2 9q-2 5 -2 8v3q0 2 -0.5 5.5t-0.5 5.5q0 11 4 26t12 29q8 -11 15 -22.5t9 -21.5l-3 -2q-2 -6 -2 -8v-5v-4v-3q1 -3 4.5 -12.5t8 -20.5t8.5 -21t6 -14v1q6 -17 14 -29
t37 -15q16 1 21 13q4 -4 10 -6t13 -2.5t12 -0.5h9v233h6q2 0 5 6t6 15t5.5 19t2.5 18q1 15 1.5 29.5t2.5 29.5q5 48 8.5 96.5t3.5 97.5v11q0 2 -0.5 5.5t-0.5 7.5q0 6 -0.5 10t-0.5 5v8l-35 26q-3 -3 -6 -6.5t-6 -5.5v7l-3 -0.5t-2 -1.5q-1 1 -3 2t-4 3l-8 3q-1 0 -1.5 -0.5
t-1.5 -0.5h-7l-23 -24q-3 -3 -4.5 -5t-8.5 -10v-117q-1 -6 -2.5 -18.5t-3.5 -29t-4 -34t-3 -33.5v1q-2 -11 -2.5 -20t-1.5 -14v-22q-1 5 -1 11v13v14q0 7 -1 13t-2 18t-2 24.5t-1.5 23t-0.5 15.5v14q0 9 -0.5 20t-0.5 24q0 11 0.5 22t0.5 20v16q-2 4 -10 12t-14 10
q0 11 -4.5 18t-19.5 7h-8q-22 -14 -28.5 -22t-6.5 -24q0 -9 1 -14q-9 7 -21 11q-14 -5 -16.5 -10.5t-2.5 -13.5t1.5 -14t12.5 -8v-98q5 -8 6 -12t1 -10q0 -14 -4 -26.5t-12 -26.5q-8 20 -13.5 40.5t-5.5 40.5q0 8 2 14q2 5 3.5 10.5t1.5 12.5q0 23 -18 23h-6v130
q0 17 -8.5 20t-18.5 3h-2q-8 0 -16 -2t-8 -16v-15q-11 7 -18 7h-2q-5 0 -9 -2q-5 -3 -4 -3q-2 0 -11 4.5t-12 7.5q-17 -8 -23 -18t-6 -16v-97q0 -31 46 -33q4 -24 7 -49t5 -33q4 -4 5.5 -6.5t3.5 -8.5q2 -8 3 -20t1 -17l7 -87q2 -29 3.5 -55.5t3.5 -35.5q2 -8 7.5 -12
t11.5 -6q1 -16 3 -37t4 -27v1q1 -7 8.5 -19t24.5 -12q2 1 3 1h8v8q2 -10 9 -17t21 -7zM260 335q-5 2 -5 9q0 9 9 9q7 0 9 -8q5 -2 5 -8q0 -8 -6 -8q-7 0 -8 5zM278 622l-6 1q-3 3 -3 7t3 6l6 1q9 0 9 -7q0 -8 -9 -8zM173 172q-7 0 -7 9q0 7 7 7t7 -7q0 -9 -7 -9zM264 337
q0 8 8 8h1v-1q0 -10 -9 -10v3zM184 195v-1l-11 7l2 2zM305 243l-5 -3l2 7zM179 156v-1h-1zM229 164v-1v1z" />
    <glyph glyph-name="FL0058h" unicode="X" horiz-adv-x="295" 
d="M84 681q1 0 1 -1h1v1h-2zM158 473l1 13q-1 0 -1 -1v-1v-11zM90 535q0 9 -4 10l4 -12v2zM60 643q-6 0 -6 -8q0 -7 6 -7q8 0 8 7q0 8 -8 8zM91 524q-7 0 -7 -7t7 -7q8 0 8 7t-8 7zM235 292q6 0 6 7t-6 7q-8 0 -8 -7t8 -7zM265 173q7 0 7 8q0 6 -7 6q-8 0 -8 -6q0 -8 8 -8z
M54 659q-7 0 -7 -7q0 -8 7 -8q8 0 8 8q0 7 -8 7zM271 157q8 0 8 6q0 8 -8 8t-8 -8q0 -6 8 -6zM153 615q-14 -15 -30 -20q4 -4 10 -7h-1q3 -1 7 -8t8.5 -17t8 -21t6.5 -20v53q-1 5 -1 10v10q0 26 10.5 44t33.5 48l4 4q4 4 13.5 10.5t29.5 6.5q0 -19 -0.5 -43.5t-1.5 -42.5
q0 -2 -0.5 -2.5t-0.5 -2.5q20 -2 26 -8.5t13 -17.5v-20q0 -2 0.5 -4t0.5 -4v-6q0 -13 -5.5 -31t-14 -37.5t-19.5 -39t-22 -36.5l4 -5q11 -50 24.5 -96.5t31.5 -94.5l-1 1l16 -31v-5q0 -3 -1.5 -12.5t-4 -21.5t-5 -23.5t-3.5 -16.5q-1 -8 -6 -12t-17 -4q-4 5 -9 10.5t-6 7.5
q-2 3 -1 3q-2 2 -4 6q-16 0 -16 18v2q-13 10 -16.5 24t-4.5 28q-3 -3 -6 -5.5t-6 -4.5l-22 19q11 14 27 20q-5 7 -9 9q-3 1 -9 12.5t-11.5 25.5t-9.5 26t-4 14v8q0 11 7 14q-1 2 -1 5t-2 5l-8 -32v-60q0 -16 -4 -29t-8 -25q-5 -12 -8.5 -25.5t-3.5 -33.5q-1 -1 -4.5 -3.5
t-4.5 -4.5q-7 -5 -17 -12t-32 -7q0 19 0.5 43.5t2.5 42.5v6q-17 2 -24 8.5t-14 18.5q0 1 -0.5 2t-0.5 2v4v9v15q0 12 5.5 29.5t14 37t19 39.5t21.5 37q-4 5 -5 11q-10 48 -23 94t-32 92v-1l-13 29v7q0 3 1.5 12.5t3.5 21.5t4 23t4 17q0 16 24 16q2 -4 4.5 -7.5t3.5 -5.5
q2 -2 2.5 -3l0.5 -1q2 -2 3.5 -5t3.5 -5h1q16 0 16 -17v-4q12 -10 15.5 -23.5t5.5 -28.5v-1q2 3 4.5 6.5t6.5 6.5z" />
    <glyph glyph-name="FL0059h" unicode="Y" horiz-adv-x="277" 
d="M177 200q-15 13 -32 16q1 4 7 10q4 1 9 14t9.5 28t7 28t2.5 16l-1 8q-2 6 -8 11q2 11 5.5 24t8.5 18l91 246l10 34v3q0 3 -2.5 13.5t-6 22.5t-7 23.5t-5.5 16.5q-2 16 -23 16q-7 -7 -8.5 -10.5t-3.5 -5.5l1 1l-3 -6t-2 -3l2 2q-4 -4 -5 -8q-6 0 -10.5 -3.5t-4.5 -12.5v-2
v-5q-12 -10 -14.5 -23.5t-2.5 -27.5v-5q-3 4 -6 7l-6 6l-21 -22q10 -15 29 -20q-3 -6 -9 -9q-4 -3 -8.5 -15.5t-8 -26.5t-6 -26.5t-2.5 -15.5v-2l1 -7q0 -10 8 -14q0 -1 0.5 -1.5l0.5 -0.5q0 -3 2 -9q0 -2 0.5 -3t0.5 -3t0.5 -5t0.5 -5v-2q-2 -1 -4 -1l-23 54l-8 63
q-2 15 -8 28l-12 26q-5 12 -10 26.5t-9 40.5q-7 0 -7 -1q-5 5 -12.5 10.5t-18.5 5.5h-16q2 -19 5.5 -44.5t7.5 -44.5v-6q-19 -3 -25 -11.5t-11 -19.5v-10q1 -2 1 -8t1 -10v-6q1 -13 9 -31t19 -37.5t25 -39.5t27 -36l-3 -4q-5 -54 -14.5 -104t-23.5 -99v1l-11 -31v-6
q0 -2 2.5 -12t6 -22l7 -24t5.5 -19q0 -14 23 -14q2 2 6 7t6 8q3 6 4 7l2 4t1 4q6 0 11 3.5t5 12.5v2q0 3 -1 4q12 11 15 24t3 28v4q8 -8 13 -10zM254 682q7 0 7 -8q-1 -7 -7 -7q-7 0 -8 5v3q0 7 8 7zM79 145q-7 0 -7 8q0 7 8 7q4 0 6 -4l1 -4q0 -7 -8 -7zM77 169q0 5 4 7
l4 1q3 0 5 -4l1 -4q0 -6 -5 -6q-9 0 -9 6zM255 656q-1 -4 -3 -5l-4 -1q-3 0 -3.5 1l-1.5 3l-1 3q0 5 5 7q8 0 8 -8zM103 288q-3 0 -5 5v3q0 6 6 6q5 0 7 -6q0 -8 -8 -8zM230 538q4 0 5 -4v-3q0 -6 -6 -6q-5 0 -7 4v2v-2v2q0 7 8 7zM117 211h-1q1 1 1 0zM266 728
q0 1 -0.5 1.5t-0.5 1.5v1z" />
    <glyph glyph-name="FL005Ah" unicode="Z" horiz-adv-x="251" 
d="M116 154h1h-1zM114 153l-1 -1v0q0 1 1 1zM86 267v1l-1 1zM212 97v-1l1 -1q0 2 -1 2v0zM70 136q4 0 7 2zM135 778l8 -15h1q4 0 2 -2q2 0 3 4l-11 14h-2zM205 751q5 0 6 2l-8 9q-7 -1 -7 -6t9 -5zM218 734q-3 0 -6 -3l5 -16l7 16q-3 3 -6 3zM193 80q7 0 7 5q0 7 -7 7
t-8 -2.5t-1 -4.5q0 -5 9 -5zM216 710l1 3q-1 1 -4 1q-6 -1 -6 -5l1 -4q1 -5 6 -5l3 1q5 2 5 6q0 6 -4 6l2 -3h-4zM125 108l-2 -1l4 -15h4q3 0 3 -1v1l1 6q0 8 -1.5 9.5t-7.5 1.5zM61 142q0 -6 9 -6l-1 -1q9 0 9 6l-1 4q-3 5 -7 5l-6 -1q-3 -2 -3 -7zM140 702l5 -9v2v13h-52
q-6 0 -11.5 8.5t-7.5 17.5l1 -2l-2 6q0 3 0.5 5.5t1.5 5.5q-11 0 -22 3.5t-22 12.5l-2 3h1q-4 4 -5 4t-1 8q0 2 1 8.5t4 13.5q1 8 7.5 11t8.5 3q20 -1 34 -1h22h13q4 2 8 2v0q0 1 2 2q2 2 4 4.5t9 2.5h5q8 0 22 -2.5t22 -17.5l1 1q8 0 16 -4h54v-52h-28v-2v-1q5 -4 9 -7.5
t4 -10.5q0 -1 -1 -1v-1q2 -10 3 -13v-8v-6l-7 -36l-18 -77l1 -1q0 -1 -0.5 -1.5t-0.5 -1.5v-32l-3 4q-2 -7 -6 -10l-40 -168q-6 -6 -15 -18.5t-11 -20.5q6 -8 12 -15.5t8 -10.5l1 -11q0 -3 -2 -17.5t-5.5 -31t-7 -30.5t-6.5 -15l2 2q-10 -10 -17 -23q3 -2 6 -5t6 -5l-14 -21
h2q10 0 23.5 -3t20.5 -19h71v-54h-27v-4q0 -11 -9 -20q-1 -2 -1 -5v-13l-119 -1q-9 0 -10 4l-2 -2q-22 0 -22 17q0 1 -0.5 1.5t-0.5 2.5q-2 6 -2.5 10.5t-2.5 8.5q-13 4 -22 14q-3 4 -5.5 8.5t-2.5 6.5q0 3 1.5 9t4 12t6 11t8.5 6v2l7 34v-1l18 106q-9 1 -9 19t15 18h1
l27 163q6 6 9.5 7t5.5 1q7 0 15 -5v5v8q-2 6 -2 12v1v-1v1v3q-7 4 -7 15l-1 9q0 2 2.5 16t5.5 30.5t6.5 31t5.5 17.5q5 4 7 15q-16 7 -22 19z" />
    <glyph glyph-name="FL005Bh" unicode="[" horiz-adv-x="262" 
d="M45 401v2v-2zM56 746q0 17 3.5 32.5t17.5 23.5q4 2 13.5 10.5t17.5 16.5h-1q7 7 14 10.5l7 3.5q2 0 3 -0.5t2 -0.5h18q-7 -21 -7 -27q0 -5 13 -5q7 0 16 1t18 3t17 3t16 1q12 0 19.5 -5.5t7.5 -16.5v-25h-22q8 -7 21 -12.5t20 -7.5q-4 2 6 2v-14q0 -2 0.5 -4t0.5 -4
q0 -8 -2 -14t-13 -14h-10q-3 0 -5.5 -0.5t-4.5 -0.5h-38q-15 0 -28.5 1.5t-30.5 6.5q1 -11 3 -26t3 -29t2 -25t1 -14l-9 -319v-30t0.5 -44.5t1 -40t1.5 -17.5h66q5 -11 6.5 -14t4.5 -8v-7q0 -11 -3.5 -16.5t-8.5 -7.5h40q0 -5 -2 -15t-6 -20.5t-8.5 -18.5t-10.5 -8h-57
q-9 -10 -20.5 -20t-13.5 -10q-12 0 -18 2t-7 16q-12 2 -28 4.5t-20 5.5h1q-2 1 -9.5 6.5t-15.5 12.5t-14.5 13.5t-6.5 10.5q0 3 2.5 16.5t6 29.5t7.5 31.5t6 23.5l-1 -3l6 153q-12 9 -12 25l3 -8l0.5 12.5t5.5 21.5l4 6v17q0 10 0.5 36t1.5 55.5t2.5 55.5t2.5 38
q14 9 16.5 14.5t2.5 16.5t-3 22.5t-5 22.5l1 -1q-8 24 -8 42v28z" />
    <glyph glyph-name="FL005Ch" unicode="\" horiz-adv-x="323" 
d="M236 264l3 9l-5 -8zM320 156q8 -10 9 -12t1 -6q0 -11 -6.5 -17t-12.5 -8l2 1q-4 -2 -10 -2.5t-11 -0.5l-0.5 3.5t-0.5 6.5q-4 7 -4 17q0 11 9 17l-5 6q-2 -5 -5 -9t-5 -9q-3 -2 -5 -9v-10q2 -4 2 -11q0 -5 -5 -13t-20 -24l-47 102q2 6 2 11v10q-1 0 -3 1l-6 6l-1 6v-2
l-4 7l7 16q-3 9 -8.5 24.5t-7.5 24.5l-6 9t-8 14q-5 8 -9 12.5t-6 13.5v-2q-2 3 -4 7.5t-4 9.5h1q-7 11 -8 14.5t-3 9.5v-1q-4 7 -7 14.5l-5 12.5v-1q-1 2 -2 5t-2 5q-9 3 -13 10l-5 11v-1q-5 11 -8 22.5t-5 23.5q-2 8 -3 17.5t-5 17.5l6 15q-2 -2 -5.5 6t-7.5 20
q-9 19 -14 39v-2l-6 12l-3 4q-19 5 -23.5 18.5t-9.5 42.5l-2 12t-2 13q0 2 -0.5 5t-0.5 5q0 17 13.5 33t36.5 28l8 -23l-1 3q5 -8 5 -24v-1l50 -53q6 -16 9.5 -25t5.5 -14.5t2.5 -9t1.5 -7.5q4 -4 4 -10q0 -2 1 -2l5 -14h1h-1l8 -10t14 -5l11 -25v1q11 -23 20.5 -46.5
t18.5 -45.5q7 -17 13.5 -33.5t14.5 -33.5q3 -8 6 -12.5t7 -9.5q4 -7 9 -13.5t6 -10.5l3 -6q2 -5 3.5 -10t1.5 -8q0 -12 -8 -21q3 -6 7 -13.5t7 -14.5q4 -10 7.5 -18.5t7.5 -18.5q2 -3 3.5 -8t4.5 -25l3 -5l1 -1q1 -2 2 -4.5t1 -7.5t-1.5 -8.5t-6.5 -7.5z" />
    <glyph glyph-name="FL005Dh" unicode="]" horiz-adv-x="262" 
d="M238 119q0 -17 -4 -33.5t-20 -26.5q-2 -1 -9.5 -8t-15.5 -15v1q-7 -8 -14 -13t-9 -5q-1 0 -2 0.5t-2 0.5h-18q3 12 5 18.5t2 8.5q0 3 -3.5 4t-8.5 1t-15 -1.5t-19 -3.5q-8 -1 -16.5 -2t-16.5 -1q-28 0 -28 23v25h21q-8 7 -21 12t-19 7q3 -1 -7 -1v14q0 2 -0.5 4t-0.5 4
q0 8 2 14t14 14h19q2 0 4.5 0.5t5.5 0.5h29q14 0 27 -1.5t30 -6.5q-1 10 -2.5 24.5t-2.5 29t-1.5 26t-0.5 14.5l8 319v29q0 22 -0.5 45t-1 40.5t-1.5 17.5h-66q-6 14 -7.5 16.5t-3.5 4.5v8q0 11 4 15.5t9 7.5h-40q0 5 2 15t5.5 20.5t8.5 18.5t10 8h57q9 10 20.5 20t14.5 10
q11 0 17 -2t8 -16q11 -2 26 -4.5t20 -4.5q2 -2 9.5 -7.5t15.5 -12t14.5 -13.5t6.5 -10t-2.5 -17t-6 -30.5t-7.5 -32t-6 -22.5l1 4l-6 -154q5 -5 9 -11.5t4 -13.5l-4 9l-0.5 -12.5t-4.5 -22.5l-4 -8v-14q0 -11 -1 -36.5t-2 -55t-2 -55.5t-2 -38q-14 -9 -16.5 -15.5
t-2.5 -15.5q0 -11 2.5 -22.5t5.5 -22.5l-1 1q3 -11 5 -21.5t2 -21.5v-25z" />
    <glyph glyph-name="FL005Eh" unicode="^" horiz-adv-x="322" 
d="M245 846q-2 6 -10 12t-18.5 11.5t-20.5 9.5t-14 6q-4 -16 -8 -20.5t-7 -7.5q-5 -4 -10 -9t-7 -14l1 1q-2 -5 -2 -8v-5q0 -13 1 -16.5t3 -8.5q5 -11 5 -21v-4v3h-2q-11 0 -17 -9l1 1q-3 -5 -7 -14t-7 -18.5t-5.5 -18t-3.5 -12.5l1 1l-5 -13q-1 -3 -3 -13l1 1
q-2 -7 -5 -14.5t-6 -15.5l-13 -50l1 1q-4 -12 -6 -24t-3 -20v1l-2 -7l-9 -3l-2 -12l1 1l-6 -21l-3 -10l1 1l-10 -32q-3 -11 -5.5 -22t-5 -24.5t-4.5 -31t-5 -40.5l12 6l-20 -80v-4q0 -7 3.5 -10.5t7.5 -6.5q0 -7 4 -8t18 3v-12q8 0 7 1q2 -2 2 -4q0 -1 4 -1q2 -2 8 -2h1
q9 0 23 6h5l7 27v-1q5 16 7.5 28.5t4.5 25.5q3 27 10 53l-1 -1q3 11 6.5 21t7.5 21l14 42t13 43q0 2 0.5 3.5t1.5 3.5q0 -6 1 -9q2 -15 3 -30t1 -23q5 -6 10.5 -22t10 -35.5t7 -38.5t2.5 -31v-7q1 2 -5 -2q-4 -4 -8.5 -9t-7.5 -14q0 -2 -0.5 -2.5t-0.5 -1.5l1 3q-2 -5 -2 -7
v-4q0 -15 21 -18q2 0 4 -0.5t4 -0.5h4q-1 -5 -1.5 -9t-0.5 -9q0 -13 5 -22.5t19 -12.5l4 -1q1 0 4 0.5t4 0.5l6 3t6 4q15 26 22.5 52.5t12.5 53.5q8 4 16 10t10 17l-1 -1l3 8q-17 35 -25.5 64t-15.5 56q-8 28 -17 56.5t-26 58.5q2 5 2 11v15q0 17 -1.5 37.5t-3 39t-3 33.5
t-2.5 21l-3 6v-1q-5 13 -5 25q0 5 2.5 15.5t6.5 21.5q1 9 2 12.5l1 3.5q0 1 0.5 0.5t0.5 1.5q1 5 2 8t1 5v3z" />
    <glyph glyph-name="FL005Fh" unicode="_" horiz-adv-x="419" 
d="M335 84l-265 1q0 -8 -1 -10t-3 -3q-5 -3 -8.5 -6.5t-3.5 -10.5v-1h-38v-41h97q10 -12 27.5 -14.5t31.5 -2.5h6q2 0 7.5 1.5t11.5 3.5q1 0 1.5 0.5t-0.5 0.5q7 0 14 -9q8 -6 16.5 -11.5t33.5 -5.5q-2 11 -2.5 13t-0.5 5q0 2 -0.5 3.5l-1.5 4.5h145q10 0 19 11l2 4
q2 3 3.5 6t1.5 7l-2.5 4t-5.5 6l-4 4q-14 6 -28.5 8t-28.5 2q0 2 0.5 3.5t0.5 3.5l-3 7q-3 4 -10 10t-12 6zM84 54q9 0 9 -6t-9 -6q-6 0 -6 6t6 6z" />
    <glyph glyph-name="FL0060h" unicode="`" horiz-adv-x="203" 
d="M209 574v-3q0 -6 -6 -17t-14 -22.5t-16.5 -22t-14.5 -16.5q-6 50 -20 76t-28.5 37.5t-26 12.5t-12.5 2l-14 -19q-11 9 -12.5 21t-1.5 22v1h-8q-10 0 -11.5 1.5t-1.5 10.5q0 4 7.5 12t18.5 17t23.5 16.5t21.5 10.5q4 -5 14 -15.5t22 -19.5q3 -2 9.5 -10t14.5 -18.5
t17 -22.5t17 -22q15 -21 18 -24z" />
    <glyph glyph-name="FL0061h" unicode="a" horiz-adv-x="347" 
d="M199 282q2 -1 5 -1q-3 20 -11 26q0 7 -1 25l-2 36q-1 4 -1 8t-1 8q0 -2 -0.5 -3t-0.5 -3q-5 -22 -11 -43t-12 -43q4 -2 8 -3.5t7 -3.5q6 -2 10 -2q5 0 10 -1zM262 806q0 -4 -1.5 -9t-3.5 -11l-4 -24q-5 -14 -6.5 -25t-2.5 -16v-1q0 -9 2 -17.5t4 -16.5v2q1 -2 1.5 -4
t1.5 -4q0 -8 0.5 -11.5t0.5 -9.5q1 -13 3 -31t4 -37.5t3 -39t1 -35.5q0 -23 -3 -36q20 -38 28 -73.5t16 -70.5t18 -72t27 -81l-3 -7h1q-3 -12 -10 -19t-16 -12q-5 -34 -13.5 -67.5t-23.5 -66.5q-10 -8 -17 -12l-8 2q-15 4 -20.5 15.5t-5.5 26.5q0 6 1 12.5t3 14.5
q-3 -1 -8 -1q-6 0 -10 1q-18 3 -18 19q0 5 0.5 9t0.5 8q2 8 6 13t9 10l4 4t1 -2q2 5 2 8v6q0 6 -0.5 14t-1.5 17h-12h-15h-3l-7 -17l-50 21q-2 -6 -2.5 -12t-1.5 -13q-3 -18 -5 -36.5t-7 -37.5l-6 -30q-8 0 -10.5 -1t-4.5 -2q-10 -4 -17 -4h-1q-4 0 -5 0.5t-6 4.5l1 -1
l-4.5 4.5t-5.5 7.5v6q-14 -4 -18 -3.5t-5 6.5q-13 8 -13 22v4l23 107l-14 -8q5 56 10.5 86t10.5 56l10 41l2 14l6 26v-1l2 13l9 4l2 10q1 4 2 9t2 11q1 8 2.5 17t3.5 17l7 31l7 32q1 5 2.5 12t3 13t2.5 9.5t1 2.5q1 4 2 7.5t2 8.5l4 16q1 5 3.5 16t6.5 23t8 22.5t7 16.5
l-1 -1q3 8 9 9.5t11 1.5v2q1 4 1 11v8q0 4 -1 9q0 4 -0.5 9t-0.5 10q0 14 3 26v-1q2 14 7 17.5t10 5.5l5 22q6 -2 12.5 -4t9.5 -2q14 -1 27.5 -4t16.5 -17v-3z" />
    <glyph glyph-name="FL0062h" unicode="b" horiz-adv-x="283" 
d="M101 852q-20 0 -32 -18q-14 -2 -25.5 -16.5t-11.5 -29.5q0 -2 3 -13t6 -20q-3 -29 -3.5 -51.5t-0.5 -48.5q0 -12 1 -18.5t3 -11.5q-1 -8 -1.5 -20t-1 -25t-1 -25.5t-0.5 -19.5v-23v-59v-115v-60v-3l-10 5q-3 -14 -3.5 -17t-0.5 -8q0 -13 8 -27h-1q3 -7 5.5 -15t2.5 -19
q0 -14 -3 -27t-7 -24q-5 -16 -8.5 -30t-3.5 -30q0 -2 6 -14.5t13.5 -26.5t15 -25.5t11.5 -11.5h53l7 5t14 12q7 9 18 21t22 23t20.5 20t14.5 11q17 8 23 14t11 12l8 10t13 13q-2 9 -2.5 18t-0.5 12v25q0 11 2 22t5 21q1 2 4 9t7 15q2 7 5.5 15t4.5 10v7q0 2 0.5 4t0.5 4
q0 1 -0.5 3t-0.5 4v8q0 1 -4.5 5.5l-6.5 6.5t-2 0q-2 8 -2 11q0 14 -3 28t-14 19v9q0 7 -1.5 13t-3.5 11q-3 6 -3 14q0 1 0.5 3t2.5 11l-49 51q1 4 3.5 7.5t5.5 7.5q10 14 19 30.5t9 31.5v30q-5 21 -13.5 46.5t-20.5 52.5t-26 54t-30 50q-4 8 -8 12.5t-21 22.5h-22v2z
M175 303l16 -8q-1 -2 -1 -5q0 -10 -3.5 -20.5t-7.5 -21.5q-5 -12 -8.5 -24t-3.5 -24q0 -9 1 -12l-19 -24q-3 2 -5.5 3t-4.5 2h1v252l14 -4q7 -12 11 -28.5t6 -33t3 -31t1 -21.5zM150 635q1 -8 1.5 -16.5t4.5 -16.5q-2 -8 -5.5 -16.5t-7.5 -16.5q-1 0 -1 1q-11 7 -11 14v32
l1 3.5t3 8.5t4.5 12t4.5 15q1 0 1 -1h1q2 -5 2.5 -9.5t1.5 -9.5zM188 451q0 6 2 7.5t7 1.5t7 -4t2 -6q0 -4 -3 -6.5t-6 -2.5q-5 0 -6 1t-2 3zM57 74q0 8 9 8q8 0 8 -9q0 -2 -3 -5t-5 -3q-7 0 -8 5zM81 291q0 -3 -2 -9q0 2 -0.5 4t-0.5 5v9q1 -2 2 -4.5t1 -4.5zM140 168v1v-1
z" />
    <glyph glyph-name="FL2020h" unicode="c" horiz-adv-x="302" 
d="M182 664h-1h1zM164 753q-6 0 -6 -5t6 -5q8 0 8 5t-8 5zM181 664q-2 1 -5.5 2t-6.5 1q1 0 2 1q-12 -4 -19 -16.5t-10.5 -30t-5 -38t-1.5 -40.5q0 -11 0.5 -22t0.5 -20v-25q0 -8 1 -33t3 -52.5t4.5 -50t5.5 -25.5l28 -30q7 -11 7 -19v-5q3 0 6 1q1 0 4 0.5t4 0.5
q6 -5 12 -6.5t12 -3.5h-1q11 -2 22.5 -6t21.5 -19.5t17.5 -46.5t12.5 -86v-18q-4 0 -16 17t-21 34v-11q-1 -14 -3.5 -27t-22.5 -23q-11 10 -17 14t-10 6q-9 5 -15 9.5t-14 21.5q-1 2 -2 2v0q-2 0 -3 -0.5t-3 -0.5h1q-4 -1 -16 -1q-10 3 -21.5 21t-21.5 35h-27q0 6 -1 19
t-3 20l-20 21q-5 13 -6.5 27t-2.5 28q-1 18 -3 35.5t-16 28.5q-1 14 -2 31t-3 32l-4 48t-2 49q0 27 9 71.5t27.5 86.5t46.5 72.5t65 30.5q14 0 20 -11q1 -1 1 -2v0h6l32 7h7q4 0 10.5 -7t13 -16t11.5 -18t5 -13v-130q3 -6 3 -12t-1.5 -10.5t-11.5 -4.5q-5 0 -14.5 9
t-27.5 34v-12l-9 10l-8 -7q2 10 2.5 16t1.5 10q-6 11 -13.5 22t-15.5 25z" />
    <glyph glyph-name="d" unicode="d" horiz-adv-x="318" 
d="M156 103q8 -11 21 -11q37 0 64.5 30.5t46.5 72.5t28.5 86t9.5 72q0 23 -2.5 43t-4.5 40q-2 14 -4 28.5t-3 34.5q-14 11 -16 28t-3 35q-1 14 -2.5 28.5t-6.5 27.5l-21 21q-2 6 -2.5 19.5t-0.5 19.5h-28q-10 17 -21 35t-22 21q-12 0 -16 -1q-2 -1 -5 -1q-2 0 -2 1
q-8 17 -14.5 22t-15.5 10q-4 2 -10 5.5t-17 14.5q-14 -7 -18.5 -16.5t-5.5 -18.5q-5 8 -11 14t-16 6q-8 0 -13.5 -13t-9.5 -33.5t-6.5 -45.5t-4 -47.5t-2 -40.5t-0.5 -25v-25q0 -3 0.5 -6.5t0.5 -7.5v-6q0 -29 6 -72.5t13 -84.5t13 -70l6 -29l-20 -10l29 -24v-78q0 -5 5 -14
t11.5 -18t13 -15.5t10.5 -6.5h7l33 7h5q0 -1 0.5 -1.5zM157 301q-1 18 -2 32.5t-2 21.5v4q0 4 -0.5 7.5t-0.5 7.5v28q0 46 1.5 82t3.5 80q0 6 0.5 13.5t1.5 15.5q1 -4 5 -10q2 -3 10 -12.5t14 -14.5v1l4 -4q3 -3 9 -26t12 -51t10.5 -53.5t4.5 -34.5q0 -18 -1.5 -47t-7 -58.5
t-16 -53.5t-28.5 -31l1 1h-5t-5 1q-2 14 -4.5 43t-4.5 58zM181 113q-7 0 -7 5t7 5t7 -5t-7 -5zM229 621l-2 -2l-2 2l2 3z" />
    <glyph glyph-name="e" unicode="e" horiz-adv-x="261" 
d="M56 188v-23q0 -15 4 -29t19 -19h-2q6 -4 13 -9.5t14 -11.5q8 -6 16 -11l8 -5q2 0 3 0.5l1 0.5h20q-9 21 -9 25q0 11 16.5 16t33.5 9q20 5 35.5 11t15.5 21v23h-17q5 3 12.5 5.5t12.5 4.5q5 1 8.5 2.5t9.5 7.5v7q0 2 0.5 3t0.5 3q0 9 -2 15t-15 11h-18q-3 0 -5.5 0.5
t-4.5 0.5h-28q-14 0 -26.5 -1t-26.5 -4q5 11 10 23t5 17v121l1 4h3h15q10 0 22 5.5t26 19.5q-23 11 -23 18q0 1 7 1h15q5 0 9 -0.5t6 -0.5h12l15 31q-32 21 -63.5 26.5t-57.5 8.5q-2 3 -2 12v23v25t0.5 37t1 34t1.5 15h66l6 12t5 6v9q0 11 -7 18h35q0 5 -2 14.5t-5.5 18.5
t-8.5 16t-11 7h-57q-10 9 -21.5 17.5t-13.5 8.5q-11 0 -16.5 -2.5t-7.5 -13.5q-12 -1 -26.5 -3.5t-20.5 -4.5q1 1 -1.5 0t-4.5 -3q-10 -6 -25 -16.5t-15 -18.5q0 -2 2.5 -13t6 -25.5t7.5 -28t6 -20.5l-1 2l6 -130q-12 -8 -12 -22l1 2q-1 -5 1.5 -11t6.5 -12h-1l4 -10v-10
q0 -9 1 -31.5t2 -48t2.5 -49t2.5 -33.5q15 -8 17.5 -12t2.5 -12q0 -10 -2.5 -19t-5.5 -17q-3 -11 -5.5 -20t-2.5 -18zM197 713h-1v1z" />
    <glyph glyph-name="FL0066h" unicode="f" horiz-adv-x="305" 
d="M51 747v1q1 0 1 1zM90 802q1 -1 2 -1zM110 522l-4 -5l11 -9q1 0 1 5zM180 834q5 0 6 -1l93 1q8 0 18 -9t15 -20l-11 -12q-8 -8 -19 -17.5t-11 -22.5h-47q-2 -8 -6 -16.5t-6 -10.5q-8 -2 -10 -2h-4q-1 0 -3.5 0.5t-4.5 0.5h-4q-1 0 -11 0.5t-20 2.5q-5 0 -10 1t-7 1
q-1 0 -1 -1h-1v-1h1h-1q3 -4 4 -7t1 -5v-3q0 -4 0.5 -9t0.5 -9q0 -44 -0.5 -87t-1.5 -87q2 -1 3.5 -1.5t3.5 -2.5q28 -3 59.5 -8.5t64.5 -26.5l-15 -31h-12q-2 0 -6 0.5t-9 0.5h-15t-7 -2q0 -6 23 -17q-14 -14 -26 -19.5t-23 -5.5h-15h-3l-7 -17l-19 8q-1 -45 -1.5 -89.5
t-0.5 -89.5q0 -41 1 -84t3 -86q-5 -8 -12 -13q-7 -2 -8 -2.5t-2 -0.5q-14 0 -18.5 9t-4.5 23q-8 -10 -18 -17.5t-26 -7.5q-4 0 -8 2l-3 3q-5 1 -10 11q-2 26 -2 51q0 26 -1 49q-1 24 -1.5 46.5t-1.5 46.5t-3 50.5t-5 57.5l11 12q4 5 7 5h1h2h-2q2 0 3 0.5l1 0.5q3 8 4 21
t1 25v14q0 8 -0.5 16t-1.5 17l-3 5q-6 7 -6 16v1q0 9 6 17q-2 14 -2.5 27t-0.5 30q0 4 -1.5 9.5t-3.5 10.5q-2 8 -3.5 13.5t-1.5 11.5q0 8 2.5 14t10.5 9v87q2 4 6.5 12t6.5 14v26l3.5 6t6.5 9q-3 7 -3 12q0 6 9 13t17 7q0 -3 4 -13q5 5 12 13.5t10 13.5h65q2 1 5 1z" />
    <glyph glyph-name="FL0067h" unicode="g" horiz-adv-x="336" 
d="M135 122h2h-2zM100 247l3 -4l2 2l-3 3zM195 776q-5 0 -5 -3q0 -7 7 -7q6 0 7 4v3q0 3 -9 3zM207 610q0 18 -0.5 38t-2.5 34q-2 2 -5.5 4t-5.5 2q-1 0 -1.5 -0.5t-1.5 -0.5h3q-17 -5 -29.5 -29.5t-21 -55t-13 -61t-6.5 -48.5v-6q0 -14 3 -42t6.5 -57t7.5 -52t7 -26
q0 -3 7 -10v1q8 -10 15 -20q5 -12 5 -22l-1 -6q2 -1 7 -1q5 -1 11 -1.5t11 -0.5q5 14 8.5 25t7.5 21q8 22 12 32.5t4 15.5l-8 6q-5 2 -10.5 7t-16.5 17l-48 50q0 1 1.5 5.5t9 10.5t23.5 7q13 0 31.5 1t39 3t41.5 5t40 9q0 -20 -1 -48.5t-2 -48.5q-1 -29 -2 -56t-3 -47l-1 -5
q-1 -5 -1 -8v-5v-8q0 -3 -1 -8v1l-1 -12q-1 -11 -8 -36t-16.5 -50t-21 -44t-20.5 -19h-3q-9 1 -14.5 7.5t-9.5 16.5q-3 -23 -28 -33q-12 14 -17 17.5t-7 5.5q-8 5 -14 12t-12 24v-1q-1 3 -6 3h-3q-10 0 -10 -1q-14 5 -24.5 26t-17.5 38v-1h-1v1l-26 4v19q0 6 -0.5 13.5
t-2.5 11.5l-16 23q-3 7 -4 16t-1 19q0 5 0.5 11.5t0.5 12.5q1 7 1 13v13q0 12 -3 23.5t-11 19.5v24v22t-1 22t-1 23v23v21t2 21v-1q2 19 8.5 45.5t17 55t25 57t32 50.5t38.5 36t45 14h8q8 -2 11 -5.5t6 -8.5q1 -3 3 -3h5l36 3l5 -1h-2q4 -1 10 -9t12 -17.5t10 -19t4 -14.5
l-9 -101q1 -3 1.5 -6.5t0.5 -8.5q0 -13 -11.5 -23t-42.5 -10q-15 0 -36 3v33z" />
    <glyph glyph-name="FL0048h" unicode="h" horiz-adv-x="312" 
d="M66 529l1 -1l1 1h-2zM83 228l6 5l-7 -4zM243 607l-3 -2l10 -7v0q1 0 1 1zM117 55q0 -17 -8 -21t-17 -4h-17v15q0 9 2 20t16 13q-1 2 -1.5 5t-1.5 5q-6 -6 -13 -10q-7 -3 -11 -8l2 2q-3 -7 -4 -11t-2 -7q-1 -9 -7 -15.5t-33 -18.5v130l5 12q2 5 4 7.5l2 2.5l-4 6
q-1 2 -1.5 5l-0.5 3v12l12 12q1 6 2 15.5t2 19.5t1.5 18.5t0.5 11.5t-1 11t-2 18q-2 11 -2.5 20.5t-0.5 13.5v18q0 7 -0.5 15.5t-0.5 17.5q0 11 0.5 19.5t0.5 15.5v12q-7 8 -7 17v24q0 2 -0.5 4t0.5 5q-3 6 -4 12.5t-1 11.5l-1 -4q0 19 15 26q2 11 4 28l15 15
q-5 0 -4.5 16.5t1.5 33.5q1 9 1 17q0 9 1 16v19q-14 15 -14 37q0 10 2 19t4 21q2 7 4 15.5t4 19.5q6 22 26.5 33.5t46.5 11.5q-2 -15 -2.5 -18t-0.5 -5q0 -5 -2 -13t-4 -14l25 -85q-2 -17 -3 -26t-1.5 -15.5t-1 -12t-1.5 -13.5v-6q0 -4 -0.5 -8t-0.5 -7v-12q0 -8 2.5 -16
t10.5 -13v-37q12 -2 23.5 -3.5t24.5 -5.5q0 5 0.5 9.5t1.5 9.5q1 7 1.5 13t0.5 8t-0.5 9.5t-1 16t-1 17.5t-0.5 14l-14 14v11q0 5 2 9q3 5 4 4q-1 3 -5 10.5t-6 10.5v119q14 -5 21.5 -8t11 -6.5t5 -7t2.5 -8.5q1 -2 1.5 -5.5t2.5 -8.5l-1 2q3 -6 11 -9h-1q3 -2 6.5 -4.5
t6.5 -5.5q0 2 1 3v-1q0 1 2 7q-14 1 -16 11.5t-2 19.5v14q6 0 13 -0.5t13.5 -2.5t11 -7.5t4.5 -14.5q0 -5 -0.5 -6l-2.5 -5l-1 -1q12 -2 14 -9t2 -15v-5q1 -4 2 -9q2 -8 3 -16t1 -13v-13q0 -6 0.5 -14.5t0.5 -17.5q0 -8 -0.5 -16.5t-0.5 -15.5v-5q11 -5 14.5 -13t3.5 -16
v-12q0 -15 -0.5 -20.5t-1 -7t-1.5 -1.5v-4q-3 -15 -3 -27q0 -23 0.5 -45t1.5 -45q1 -24 2 -49t1 -51v-25q-8 -5 -10 -12.5t-2 -15.5v-13q0 -2 0.5 -5t0.5 -6v-6q1 -8 1.5 -13t1 -11t1 -15t2.5 -24l-24 -80l4 -14t2 -11q0 -2 0.5 -4.5t2.5 -17.5q-27 0 -46.5 12t-27.5 35
q-1 8 -2 13.5t-3 10.5q-3 14 -5 22.5t-2 19.5q0 9 2.5 17t10.5 16v17q-1 6 -1 15q0 10 -1 19q0 17 -0.5 31t4.5 14l-15 10q0 9 -2 20t-4 21q-2 12 -4 23.5t-2 27.5v12q0 8 7 15v6q-7 -5 -13.5 -6t-13.5 -1h-14h-3l-7 -18h-1v-19v-37q0 -15 3 -31q3 -17 3 -33v-12
q0 -11 -3.5 -19.5t-14.5 -14.5v-3q0 -7 0.5 -16.5t0.5 -18.5q0 -11 -0.5 -18.5t-0.5 -14.5v-16q0 -1 -1 -9.5t-3 -16.5q-1 -5 -1 -7q0 -1 -2 -6v-7q0 -10 -2 -16.5t-16 -7.5l4 -5q2 -5 2 -6v-5z" />
    <glyph glyph-name="FL0069h" unicode="i" horiz-adv-x="148" 
d="M60 103q0 -17 9 -20t17 -3h13v14q0 8 -2 18t-15 12q1 1 1 2t1 3v-1v2q4 -6 12 -9l-1 1q6 -3 10 -7q2 -4 2.5 -6.5t1.5 -4.5q1 -5 2.5 -8.5t5 -7t10.5 -7t19 -8.5v112q-2 2 -5.5 8.5t-4.5 8.5l0.5 1t2.5 3q2 4 2 9v12l-12 11q-1 4 -1.5 11.5t-1 16t-0.5 15.5v10q0 2 0.5 9
t1.5 16t2 20t1 9v16v28v30v9q6 6 6 15v12q0 26 -6 47q-5 19 -6 36l-17 15q7 8 7.5 18.5t-0.5 21.5q-1 7 -1 14q0 8 -1 13v15q13 14 13 32q0 8 -2 17t-6 23l1 -1q-1 5 -2.5 11.5t-3.5 14.5q-6 20 -25 29.5t-42 9.5q2 -14 2.5 -18l0.5 -4q0 -5 1.5 -11t3.5 -11l-21 -73
q1 -4 1 -7q0 -2 1 -8q1 -9 2 -21.5t2 -20.5v-6q0 -3 0.5 -6.5t0.5 -5.5v-10q0 -7 -2 -13.5t-10 -11.5v-25q0 -48 3 -91q0 -21 1 -41.5t1 -41.5q0 -5 -1 -11.5t-2 -13.5q-3 -14 -3 -30v-10q0 -9 3 -17t14 -13v-2q0 -6 -0.5 -14t-0.5 -16t0.5 -15t0.5 -13v-14q0 -3 0.5 -7.5
t4.5 -26.5v-5q0 -10 2 -15.5t13 -6.5l-1 -2q-2 -5 -2.5 -6t-0.5 -4zM84 259l8 -7l-2 -2l-6 8v1z" />
    <glyph glyph-name="FL006Ah" unicode="j" 
d="M318 323v2v-2zM287 545h1h-1zM165 105l-2 -5l5 2zM318 409q0 2 0.5 3t0.5 2q-12 19 -12 26q-1 -1 -5 -1h-4v-4zM215 428q0 27 4 50.5t9 46.5t9 45.5t4 43.5q0 5 -0.5 8.5t-0.5 8.5q0 4 3 15q1 3 1.5 6.5t1.5 5.5l-3 93q0 3 -0.5 7t-0.5 8q-1 7 -1 14v15q0 22 6 35.5
t24 13.5q11 0 27 -8t40 -27q2 -5 3.5 -11.5t1.5 -16.5q0 -22 -3 -47q-3 -32 -3 -62q0 -11 0.5 -20.5t2.5 -17.5q3 -16 4 -32t1 -33q0 -14 -0.5 -30t-1.5 -31l-2 -30t-1 -29v-11v-15q8 -2 8 -16q0 -13 -9 -15v-8q-4 4 -6 7h-1l7 -10q1 -3 1 -5v-7q0 -11 -4.5 -18t-9.5 -15
q-2 -3 -4.5 -5.5t-2.5 -4.5v-42q-1 -11 -6.5 -25.5t-10.5 -29.5q-10 -26 -15 -43h3q16 0 19.5 -11t3.5 -23v-8q0 -9 -3.5 -28t-11.5 -39t-20 -35t-28 -15h-2q-5 0 -6.5 1t-9.5 9q2 6 3 10t2 6q-2 4 -2 11q-2 -1 -4 -1.5t-6 -0.5h-9l2 -2q1 -4 1 -9q0 -17 -10 -20.5t-19 -3.5
q-11 0 -23.5 6t-26.5 17v-9h-17q-10 0 -15 1.5t-12 12.5q-6 8 -14.5 21t-16 25t-12.5 21t-5 10v20q-7 11 -7 20q0 4 0.5 14.5t1.5 21.5q1 6 1.5 11.5t0.5 10.5q-11 -2 -13.5 2.5t-4.5 28.5v-1q-1 4 -2 12.5t-2 17.5t-2 17t-1 11v21l20 5q1 7 7 10l-10 4l-10 4v33q0 16 13 23
t24 7q14 0 18 -10q20 -16 28.5 -28t8.5 -21v-4l14 4q0 -6 0.5 -19.5t0.5 -18.5q1 -14 1.5 -24.5t1.5 -21t3 -23t5 -28.5q0 -1 0.5 -1.5l0.5 -0.5q3 -6 7 -16t8.5 -19t9 -16t6.5 -7q4 0 10 9t8 13l-1 -1q12 58 16.5 117t4.5 119z" />
    <glyph glyph-name="FL006Bh" unicode="k" horiz-adv-x="325" 
d="M44 721q0 -1 0.5 -2.5l2.5 -7.5q-11 -2 -13 -8t-2 -15v-4q-1 -4 -2 -9q-2 -7 -3 -16l-1 -9v-14q0 -5 -0.5 -12.5t-0.5 -15.5q0 -10 4.5 -18.5t9.5 -15.5q-8 -5 -10 -12t-2 -13v-11l0.5 -12t1.5 -19q3 -14 3 -23q0 -21 -0.5 -41.5t-1.5 -40.5q-1 -21 -2 -43t-1 -46v-25
q8 -4 10 -10.5t2 -12.5v-12v-10v-5q-1 -7 -1.5 -11.5t-1 -10t-1.5 -14t-3 -22.5l25 -72q-2 -6 -4.5 -11t-2.5 -10v-6q0 -2 -2 -15q27 0 47 9.5t26 28.5q2 8 4.5 16t4.5 14q2 11 4 19t2 17q0 18 -14 30v14q1 5 1 12q0 8 1 16q1 14 1 27q0 14 -5 14l16 11q0 5 2.5 16t3.5 19
q2 11 4.5 22t2.5 26v4h14h2l7 -14h3q2 -5 5 -9t7 -8q2 -4 5 -7.5t3 -8.5q0 -7 -1 -13.5t-3 -14.5q-3 -14 -3 -30v-11q0 -12 3.5 -19.5t15.5 -11.5v-2q0 -7 -0.5 -15t-0.5 -17t0.5 -16.5t0.5 -13.5v-14q0 -3 1.5 -13t2.5 -17q0 -2 2 -4v-7q0 -9 2 -15.5t16 -7.5l-4 -3
q-2 -3 -2 -4v-6q0 -18 12 -21t20 -3h12v15q0 8 -2.5 18.5t-16.5 12.5q1 1 1 2t1 3v-1q0 1 0.5 2t0.5 2q5 -5 15 -10h-1q8 -4 12 -8h-1q2 -5 4 -13q1 -4 2.5 -7.5t5.5 -7t12 -7t22 -8.5v117q-2 2 -6 9t-5 9l1 1.5t2 3.5t1.5 5l0.5 3v13l-15 12q-1 4 -1.5 12.5l-1 17
t-0.5 15.5v11q0 2 1 9t2 16q1 11 1.5 19.5t0.5 12.5q0 8 -4 12t-9 4q-3 0 -7 -2l-56 109l26 76q2 2 3 5q4 6 11.5 15.5t14.5 20.5t12 22.5t5 20.5v20q9 12 9 24q0 8 -3 16t-6 17q-4 11 -9 24.5t-7 21.5q-6 22 -27 31.5t-48 9.5q2 -15 2.5 -19l0.5 -4q0 -3 2 -10t4 -12
l-23 -74q-9 -27 -13.5 -41.5t-6.5 -23.5t-2.5 -14.5t-0.5 -13.5v-10q0 -3 0.5 -6.5t0.5 -5.5v-11q0 -8 -9.5 -18t-16.5 -15l2 1l-9 -2q-1 5 -1.5 10.5t-0.5 10.5q-1 5 -1.5 9.5t-0.5 5.5q-1 4 -3 10.5t-4 15.5q-7 17 -8 26l12 10v11q0 2 -1 4.5t-2 4.5l-2 4q0 3 1.5 11.5
t3.5 11.5v111q-23 -8 -30 -14.5t-7 -17.5v-10q0 -1 -0.5 -2t-0.5 -3q-3 -2 -11 -6h1q-4 -3 -8 -5.5t-6 -6.5q-1 1 -1 4v-1l-2 4q14 2 16 12t2 18v14q-5 0 -12.5 -0.5t-14.5 -2.5t-11.5 -6.5t-4.5 -13.5zM89 569l7 7l3 -1l-8 -8q-2 0 -2 2zM253 243l9 -6l-2 -2zM276 345
q1 0 1.5 0.5t1.5 0.5h1q-1 -1 -4 -1zM288 343l-1 1z" />
    <glyph glyph-name="l" unicode="l" horiz-adv-x="321" 
d="M135 34l158 -4q8 0 18 9t15 20l-11 12q-8 8 -19 18t-11 21l-60 4q-2 8 -6 16.5t-6 10.5q-8 2 -10 2h-4t-4 -0.5t-4 -0.5h-4q-2 0 -8 -1.5t-11 -2.5l-6 -2h-1q0 1 -1 1v1q6 6 6 13v3q0 4 0.5 9t0.5 8q0 72 -5 142t-10 141l-10 142t-5 142q0 19 0.5 39.5t1.5 40.5
q-6 10 -12 13q-6 2 -7 2.5t-3 0.5q-14 0 -18.5 -9.5t-4.5 -22.5q-8 9 -18 17t-25 8q-5 0 -9 -2l-2 -3q-7 -3 -11 -11q-1 -26 -1.5 -51.5t-1.5 -48.5q-2 -47 -3.5 -93.5t-7.5 -107.5l11 -12q4 -5 7 -5h1h2h-2q2 -1 3 -1h1q3 -8 4 -21t1 -25v-14q0 -16 -1.5 -32.5t-2.5 -32.5
q-2 -16 -3 -31.5t-1 -32.5v-5q0 -19 4 -37t24 -28v-86q2 -5 6 -13t6 -13v-26l3.5 -6t7.5 -10v-1q-2 -2 -3 -5t-1 -5q0 -6 9.5 -13.5t17.5 -7.5q1 2 1.5 5.5t2.5 7.5q5 -5 12 -13t10 -13zM181 47q-8 0 -8 6t8 6q6 0 6 -6t-6 -6zM160 55q-6 0 -6 5q0 6 6 6q8 0 8 -6
q0 -5 -8 -5z" />
    <glyph glyph-name="m" unicode="m" horiz-adv-x="405" 
d="M36 32q0 -10 4 -22t21 -12l8 3l2 2q4 2 7 4.5t3 10.5q0 5 -2 16t-6 19l6 23q2 -17 3.5 -34t1.5 -25l39 -18q0 6 0.5 17.5t1.5 18.5q2 7 2.5 12.5t1.5 10.5l6 6q5 5 10 10.5t5 15.5q0 23 -2.5 44.5t-5.5 42.5q-2 20 -4.5 41t-2.5 41v9q17 -44 25 -91.5t15 -93.5
q1 -6 2 -12.5t2 -11.5v-1v1v-1q1 -17 9.5 -23t19.5 -11q6 -3 11 -8t8 -25h32q0 21 -3.5 29.5t-6.5 16.5q-2 6 -4 11.5t-2 12.5q0 8 3.5 13t17.5 13v138q3 6 5 14t2 10t-1.5 6t-3.5 9q-1 3 -1.5 4t-0.5 2v12q0 2 -0.5 5t-0.5 5v8q0 16 6 28.5t13 25.5q2 4 4.5 7t4.5 8
q3 -30 3 -58q0 -13 -0.5 -25t-0.5 -24q-1 -8 -1 -18v-18v-18q0 -8 1 -16q0 -3 0.5 -6.5t0.5 -6.5q2 -48 5.5 -97t15.5 -98q6 -5 7.5 -6t5.5 -1h3l8 3l5 4q3 3 5.5 8l2.5 5v89q17 1 21.5 3.5t8.5 7.5q1 1 5.5 3t18.5 8v19q0 5 -0.5 11t-0.5 14q0 6 0.5 12t0.5 11v12l0.5 1
l1.5 3v-1q2 4 3.5 8.5t1.5 8.5v3q0 46 -2 92.5t-5 92.5q-2 48 -4.5 94.5t-2.5 94.5v41l-6 7v65q0 7 -4 27t-10.5 42t-14.5 39t-15 17h-4v43q-17 0 -33.5 -2.5t-31.5 -12.5v-19q0 -39 -6.5 -75t-14.5 -74q-10 -39 -16 -85q-3 1 -8 1t-6.5 -0.5t-5.5 -3.5q-4 -4 -6.5 -13
t-3.5 -16q-2 -6 -4 -19t-5 -30t-5.5 -36t-5.5 -36q-1 6 -1 11v10q0 8 -0.5 13.5t-1.5 10.5q-2 16 -12.5 43t-18.5 50q-4 12 -7 19t-3 8v3q0 -1 1 0q2 3 4 10.5l2 7.5q-1 2 -5 7t-9 10v95l-8 12t-7 13q4 -1 8 -1h9v19q0 8 -3 16t-16 13q-4 0 -10 -2q-1 6 -1 11v12q0 4 0.5 14
t0.5 15h-63q5 -14 5.5 -16.5t0.5 -3.5q0 -3 -4.5 -5t-10.5 -2.5l-12 -1t-9 -0.5q0 -16 1 -34t8 -32v-95l-8 -6q0 -3 0.5 -10.5t0.5 -11.5q0 -11 -1.5 -24.5t-3.5 -25.5q-1 -13 -2 -25.5t-1 -28.5v-21q0 -15 7 -25v-330q7 0 13 -2q-2 -6 -4 -14.5l-4 -17t-3.5 -15t-1.5 -8.5
v-5q0 -12 7 -24t18 -23q-8 -3 -10 -10t-2 -15zM367 111l-4 1q-5 2 -5 8q0 2 2.5 5t6.5 3q2 0 5.5 -1.5t3.5 -6.5q0 -4 -3 -6.5t-6 -2.5zM124 614q-8 0 -8 6t8 6q7 0 7 -6t-7 -6zM204 251q-6 0 -6 5t6 5q8 0 8 -5t-8 -5zM305 562q8 0 9 -0.5l1 -0.5q0 -2 -9 -2l-4 1z" />
    <glyph glyph-name="n" unicode="n" horiz-adv-x="348" 
d="M142 69q-6 1 -11 6v-6h5h6zM251 46v33v34v9q-2 8 -5 15l-6 14q-4 8 -8 18q0 1 -2 5q-5 15 -12.5 38.5t-15.5 49.5t-14.5 51t-9.5 43l-6 -3l-2 3q-1 -7 -1.5 -13.5t-0.5 -8.5v-269h-13v-39h-11t-9 1q-2 0 -5 2h1q-3 1 -8.5 3.5t-8.5 5.5q-6 -3 -12 -3q-2 0 -9 5.5t-9 10.5
v-1q-1 3 -2.5 8t-3.5 10.5t-3.5 9.5t-1.5 5v87l-30 16v26v15v14q0 86 3 172q2 42 3 84.5t1 86.5q0 2 -4.5 12t-9.5 23v-1q-5 12 -11 25.5t-8 23.5v6q0 14 5.5 22.5t13.5 15.5q-1 14 -1 27v26q0 25 1.5 50t6.5 49q10 12 15 15h8q13 0 21 -6.5t12 -16t5.5 -21.5t1.5 -23
q5 5 16 5q20 0 23 -8t3 -21v-3q0 -8 -2.5 -15t-6.5 -12h1q-2 -3 -4 -7.5l-2 -4.5q1 -10 9.5 -36t19.5 -54.5t23.5 -52t20.5 -29.5q3 -15 7.5 -31.5t9.5 -32.5q4 -16 8 -31t6 -23v6q0 5 -0.5 8.5t-1.5 7.5q-5 12 -5 23q0 23 1 46t3 46q3 45 3 90q0 35 -3 73q-2 18 -3 37
t-1 39v30q9 3 11.5 4t3 1.5t-0.5 0.5t0 1q5 4 10.5 7.5t10.5 3.5t9 -2h-2q6 -2 16 -14v-4q2 2 4.5 3t6.5 3q9 0 20 -8.5t11 -18.5v-121l14 12q7 -51 9 -85t2 -68v-102l-8 -7v-34q0 -8 0.5 -17t0.5 -19v-70q0 -9 -0.5 -18t-0.5 -17v-41q0 -6 -1 -18t-2 -25.5t-2 -26.5t-2 -20
q-4 -7 -9 -9l-10 -4q1 -11 4.5 -19t7.5 -14q6 -11 10.5 -22.5t4.5 -24.5q0 -14 -3 -20.5t-7 -12.5v1q-3 -5 -6 -11.5t-3 -27.5q-6 0 -18 3t-25 8t-23.5 11t-12.5 13v14z" />
    <glyph glyph-name="o" unicode="o" 
d="M119 766q-14 0 -22 -6t-12.5 -15.5t-6 -22.5t-1.5 -27q9 0 19 2q-3 -6 -4 -9q-2 -1 -4.5 -2t-4.5 -2q-11 -5 -22 -15t-17 -39q-8 -45 -14.5 -90t-6.5 -92v-10v-16q-8 -1 -8 -15q0 -12 9 -16v-7q4 2 5 6h2l-7 -9q-1 -3 -1 -5v-7q0 -11 4 -18t10 -15q3 -4 7 -12v-40
q1 -11 6 -25.5t11 -29.5l7.5 -22.5t6.5 -20.5h-2q-16 0 -19.5 -11t-3.5 -23v-8q0 -9 3.5 -28t11 -39t19.5 -35t29 -15h2q1 0 10 0.5t10 0.5q-8 18 -15.5 36.5t-11.5 35.5l1 -1q7 -14 15 -25t23 -12l-2 -2q-1 -4 -1 -9q0 -17 10 -20.5t19 -3.5q10 0 23 6t27 17v-9h17
q10 0 15 1.5t12 12.5q6 8 14 21t15.5 25t13 21t5.5 10v20q7 14 8 19q0 5 -1 15.5t-2 21.5q-1 6 -1.5 12t-1.5 11h10q4 21 6.5 32.5t4 19t2.5 13.5t2 16q1 4 2 12.5t2 17.5t2 16t1 10v61q0 43 -4.5 88.5t-15.5 77.5q-5 10 -10.5 13.5t-9.5 6.5q-3 2 -5.5 4t-2.5 9q0 4 5 9
q4 5 7 10.5t3 15.5q0 6 -1.5 11t-2.5 10q-3 6 -3 9v0q1 0 1 1q2 3 3.5 7.5t1.5 8.5q0 5 -15 24t-33.5 40t-35 37.5t-18.5 16.5q-33 0 -53.5 -20.5t-35.5 -48.5zM148 428q0 26 5.5 52t11.5 52q5 21 10 44t7 50q0 5 -4 16q-2 4 -2.5 7.5t-0.5 5.5v3q0 3 10 7t15 4h1
q5 -1 8.5 -7t5.5 -14.5t3.5 -18t2.5 -17.5t1 -15q0 -6 2 -11q2 -8 6.5 -12.5t8.5 -9.5q3 -3 5 -6t2 -8v-12q0 3 -8 1q0 -73 -4 -154.5t-16 -153.5q-1 -1 -1 -2v0q-3 -6 -7 -16t-8.5 -19.5t-9 -16.5t-6.5 -7q1 0 -0.5 5t-2.5 9q-2 4 -3 9t1 0l1 -3q-12 58 -23 118.5
t-11 119.5zM305 389l1 4q2 5 7 5q3 0 6 -3t3 -5q0 -9 -9 -9q-8 0 -8 8zM55 440q2 -1 6 -1h4v-4l-20 -26q0 3 -2 5q12 19 12 26zM303 523q-6 0 -6 6t6 6q8 0 8 -6t-8 -6zM198 105l2 -5l-4 2zM45 323h-1h1z" />
    <glyph glyph-name="p" unicode="p" horiz-adv-x="283" 
d="M90 20v-9l22 11l-1 -1q8 2 15.5 6t14.5 15q1 9 2.5 35t3.5 55q2 28 4 52t3 34v34q0 11 0.5 22t3.5 15h-1l6 4q3 3 9 7t4 2l79 83l-2.5 10t-0.5 3q0 5 0.5 8t2.5 7q2 5 3.5 10.5t1.5 13.5v8q11 6 14 19.5t3 27.5q0 4 2 12q0 -2 2 0l11 13v6q0 2 0.5 4t0.5 4t-0.5 4t-0.5 4
v7q-1 2 -4.5 9.5t-6.5 15.5q-4 8 -7 16t-3 7q-3 11 -5 21t-2 23v25q0 3 0.5 11t2.5 19q-11 9 -14.5 12.5t-6.5 8.5q-6 7 -12 13.5t-22 13.5q-5 2 -14.5 11t-20.5 20.5t-22 23.5t-18 20t-14 12.5l-7 4.5h-53q-4 0 -11.5 -11.5t-15 -25.5t-13.5 -26.5t-6 -14.5q0 -15 3.5 -30
t8.5 -29q4 -14 7 -26t3 -26q0 -11 -2.5 -19t-5.5 -14h1q-8 -14 -8 -28q0 -4 0.5 -7t3.5 -18l10 5v-3q0 -11 -0.5 -26.5t-0.5 -32.5v-115q0 -18 0.5 -33t0.5 -26v-23q0 -10 1.5 -27.5t3 -34.5t3 -30t2.5 -14l-1 1l18 -25v-94q0 -10 6 -14v-49q2 0 8 0.5t11 2.5zM150 675
l19 -25q-1 -4 -1 -11q0 -14 3.5 -25.5t8.5 -23.5q4 -11 7.5 -21t3.5 -20q0 -4 1 -5l-16 -9q0 -9 -1 -28.5t-5 -40.5t-10.5 -38t-18.5 -21v262l1 1h-1v-1v1h-1q6 2 10 5zM189 388l1 5q1 2 2 3t6 1q3 0 5.5 -3t2.5 -5t-1.5 -6t-6.5 -4t-7 1t-2 8zM58 765v4q3 4 9 4q2 0 5 -2.5
t3 -4.5q0 -10 -8 -10q-5 0 -7 1t-2 8z" />
    <glyph glyph-name="q" unicode="q" horiz-adv-x="359" 
d="M243 632q6 0 7 4h-1q-5 0 -7 -4h1zM262 573q4 -2 7.5 -3t5.5 -3q-2 2 -3.5 4.5t-3.5 4.5zM274 293l-13 8l-1 -3q0 -6 2 -7t10 -1zM323 176q4 2 4 7q0 3 -1 4q0 1 -4 1q-8 0 -9 -6l1 -3l1.5 -3t3.5 -1zM324 163q0 -7 8 -7q5 0 7 6l-1 4q0 1 -6 1q-8 0 -8 -4zM88 164
q8 0 8 6t-8 6q-7 0 -7 -6t7 -6zM209 151q9 0 9 9q0 5 -4 6.5t-6 1.5q-3 0 -5.5 -3t-2.5 -5q0 -6 4 -8zM249 624q7 0 7 6q0 4 -6 6q1 0 1 4q0 5 -3.5 7t-5.5 2q-4 0 -6.5 -3t-2.5 -6q0 -5 4 -7l5 -1v-2q0 -6 7 -6zM171 322v5q0 9 4 13q-2 5 -2.5 10.5t-0.5 7.5q0 1 -0.5 1.5
t-0.5 2.5v-1q-2 8 -4.5 16.5t-10.5 14.5h-4h-2q-8 -16 -8 -31q0 -16 8.5 -29t19.5 -26l-1 1q2 -2 5.5 -7t5.5 -7q1 -7 1.5 -11.5t0.5 -14.5q0 -5 -0.5 -9t-0.5 -7v-9q0 -5 1.5 -10.5t6.5 -13.5q5 0 13 4l-5 5v10q0 4 -0.5 8.5t-0.5 6.5v8q0 2 -0.5 2.5t0.5 2.5
q-8 14 -15 28.5t-8 19.5v-1zM146 508v-20t1 -18q5 2 11 3t13 1q16 0 33 -9v1q0 9 -2 33t-6 52t-10 54.5t-14 41.5q-11 -33 -18.5 -67.5t-7.5 -71.5zM314 103q-13 0 -17 15v5q-15 6 -23 18q-8 -17 -18 -33.5t-21.5 -30t-23.5 -21.5t-24 -8q0 37 -18 49l-5.5 1t-12 2
t-12.5 1.5t-7 0.5q-14 3 -20 11t-10 18q-6 -9 -21 -9t-19 4.5t-8 16.5q0 -1 -1 1t-3 7q-2 4 -2 9q0 11 6.5 15.5t14.5 8.5h-1q2 2 5 3t3 2v3l-2 -0.5t-3 0.5l-5 5q-14 17 -17.5 33.5t-5.5 33.5q-2 13 -4.5 25.5t-8.5 24.5q0 -4 -3 -1q-9 6 -11 16v-1q-1 3 -1 4v6
q0 11 2.5 17t11.5 8q-1 9 -1 18v18q-2 30 -3 61t-1 61q0 67 8 133t33 129q4 3 11.5 8t11.5 5t8.5 -3.5t9.5 -7.5q2 -1 3.5 -2t0.5 -1q15 -6 31 -6q6 0 14 -2l-5 12v16l12 12q6 2 7 2.5t3 0.5t3 -0.5t7 -2.5l16 -16q6 -8 16 -20t21 -24q18 -20 33 -39.5t26.5 -42.5t18 -52
t6.5 -68q-13 0 -21 2t-14 6q13 -12 22 -32t14 -41t7 -40.5t2 -30.5q0 -18 -0.5 -28t-2.5 -15t-6.5 -7.5t-11.5 -5.5q-5 -1 -13 -5l3 1q-4 -3 -7 -15t-5 -27q11 -19 21.5 -36.5t21.5 -36.5q2 -2 2.5 -4.5t2.5 -4.5v1l22 -33l2 -7q1 -3 2 -17t2.5 -30.5t2.5 -31t1 -18.5v-2
q0 -13 -19 -20q-9 5 -16 14l-8 9q-4 4 -5 6h-3h-1z" />
    <glyph glyph-name="r" unicode="r" horiz-adv-x="312" 
d="M192 130l15 -15q4 2 7 5.5t6 7.5v-2q2 -20 5.5 -37.5t18.5 -28.5v-6q0 -19 17 -19q0 -5 3 -9l-1 2q1 -2 2.5 -4.5t3.5 -5.5q2 -2 8 -10l6 -8q21 0 23 17q1 4 3 18t4 30t4 30.5t2 18.5v6l-14 37v-1q-18 56 -32.5 114.5t-25.5 121.5q17 20 22 52t5 65v36q0 72 -21.5 143.5
t-68.5 128.5q-4 6 -6.5 9t-6 7t-9 9.5t-15.5 14.5h-31q0 -11 -1 -24t-6 -21q-4 7 -11 13h15v34q-22 0 -39 -22q-9 0 -18 -5.5t-16.5 -13.5t-12 -17.5t-4.5 -19.5q0 -4 4 -18t9 -25q-5 -38 -5.5 -66.5t-0.5 -62.5v-10l-14 -6v-41q21 0 27 7q2 -4 4 -6.5t4 -7.5q4 -11 5 -27.5
t1 -31.5v-22q0 -31 -3.5 -62.5t-7.5 -62.5q-5 -32 -7.5 -63.5t-2.5 -63.5v-20q0 -3 0.5 -5.5t0.5 -4.5v-11q6 -15 13.5 -23.5t28.5 -9.5q0 -3 -0.5 -6t-0.5 -6q-2 -23 -2.5 -53.5t-0.5 -53.5q20 0 31 8t15 15l-1 -1q1 2 3.5 5t3.5 4q0 25 4 42.5t9 33.5q4 16 8.5 32t5.5 36
v153l16 8q5 -7 6 -15t1 -18v-16v-5q-9 -5 -9 -17v-9q0 -3 4 -18t10 -32.5t12 -32.5t10 -16h-2q10 -6 13 -17q-8 -1 -13.5 -4t-10.5 -8zM153 532q0 29 1.5 49t3.5 48v-1v6q0 4 1 9h1q-2 -1 3 -6.5t10 -11.5l13 -14l-2 1q5 -5 6 -14l2 -18q1 -10 2.5 -20t6.5 -18
q-8 -22 -18.5 -43.5t-26.5 -37.5q-2 14 -2.5 24.5t-0.5 21.5v25zM287 83q-7 0 -7 6t7 6q8 0 8 -6t-8 -6zM281 105q-8 0 -8 6q0 5 8 5q6 0 6 -5q0 -6 -6 -6zM161 671q-6 0 -6 6q0 5 6 5q7 0 7 -5q0 -6 -7 -6zM248 258q-8 0 -8 6t8 6q6 0 6 -6t-6 -6zM257 240l-2 1
q1 0 1.5 -0.5zM258 239l-1 1q1 0 1 -1z" />
    <glyph glyph-name="s" unicode="s" horiz-adv-x="227" 
d="M132 89v4q4 -5 22 -5q27 0 46 31q1 19 4.5 33.5t8.5 28.5q5 18 9 36t4 35q0 31 -7.5 69t-20 76t-28.5 73t-33 59q-14 2 -21 17t-7 27v4q10 4 14 13q0 5 -1 9.5t-3 9.5q-1 3 -1.5 4t-0.5 2v3q0 5 1 10q2 -2 4 -2q1 -3 4 -3q14 0 15 2t4 4v1h2q5 0 8 -9t3 -13v-67l22 -24
l15 33l5 -3q7 -6 19 -9q10 15 11.5 19.5t1.5 12.5v3q0 28 -9.5 63.5t-23.5 67t-31 52.5t-33 21q-7 0 -12 -4q-3 1 -7 1q-24 0 -42 -23t-29.5 -53.5t-17 -61t-5.5 -45.5q0 -2 0.5 -4t0.5 -4v-7q1 -4 3 -9.5t4 -10.5q3 -11 6.5 -23t5.5 -17q-2 -3 -4.5 -7.5t-2.5 -12.5
q0 -16 6.5 -26t14.5 -19v1q3 -6 8 -11v1q12 -23 26 -50t26 -55t20 -57t9 -56q-10 2 -20.5 7.5t-16.5 13.5q-1 3 -3 14.5t-5 25t-5.5 25.5t-3.5 18q-3 7 -4.5 9.5l-1.5 2.5q0 1 0.5 0t0.5 0q-4 15 -10.5 30t-20.5 15q-25 0 -25 -27v-7q0 -5 1 -14t3 -17q-8 -2 -13.5 -4.5
t-5.5 -16.5q0 -5 1 -7l14 -21q0 -5 -1 -8l-2 -6q-2 -5 -3.5 -10.5t-1.5 -13.5t3 -30.5t10 -46.5t17 -43t24 -19q10 0 18 8v-13h38zM124 166h1l4 -8q0 -12 -6 -12h1q-10 0 -9 6t8 14l-1 -2q1 2 2 2zM114 127q1 1 0 3h4h1v-6zM110 583q0 -2 -0.5 -3.5l-0.5 -1.5q0 2 0.5 2.5
t0.5 2.5zM120 161q0 1 2 3zM43 512l-1 2q1 -1 1 -2zM128 164l-2 2zM107 248l1 -2l-0.5 0.5t-0.5 1.5zM108 245h1l-1 1v-1z" />
    <glyph glyph-name="FL0054h" unicode="t" horiz-adv-x="377" 
d="M172 103q0 -17 11 -20t19 -3h14v15q0 8 -2.5 17.5t-16.5 11.5q1 1 1 2t1 3v-1v2q6 -7 14 -8h-1q6 -3 12 -7q2 -5 4 -11q2 -9 8 -15t35 -16v112q-2 2 -6.5 9t-5.5 9l3 3q1 2 2 4.5t1 4.5v12l-14 11q-1 4 -2 12t-1.5 16t-0.5 15v10q0 2 0.5 9t2.5 16q1 9 2 20t1 9v17
q0 5 0.5 12.5t0.5 15.5v48q7 7 7 15v12q0 13 -2 24.5t-4 22.5q-7 22 -8 36l-20 15q8 8 9 18.5t0 21.5q-1 7 -1 14q0 8 -1 13v10q26 5 55.5 8t60.5 3q0 9 0.5 11.5t2.5 3.5q5 4 9 8.5t4 12.5v1h38v49h-99q-9 14 -26.5 17t-30.5 3h-7q-3 0 -7.5 -1.5t-8.5 -3.5h1l-4 -2
q-8 0 -15 11q-8 8 -16.5 14t-33.5 6q2 -14 3 -18l1 -4q0 -6 1 -9h-144q-2 0 -9 -3.5t-9 -9.5v2q-1 -2 -1.5 -3.5t-1.5 -3.5q-5 -8 -5 -15l2.5 -5t5.5 -8l3 -4q14 -8 29 -10t29 -2q-1 -3 -1 -8l3 -9q2 -5 9.5 -12t12.5 -7h59v-3q1 -10 2 -22t2 -20v-6q0 -3 0.5 -6.5t0.5 -5.5
v-10q0 -7 -2.5 -13.5t-10.5 -11.5v-26q0 -23 1 -47t2 -47t1.5 -45t0.5 -44q0 -5 -1 -11.5t-3 -13.5q-3 -14 -3 -30v-10q0 -9 3.5 -17t15.5 -13v-2q0 -6 -0.5 -13.5t-0.5 -16.5q0 -8 0.5 -15t0.5 -13v-14q0 -3 1 -7.5t6 -26.5v-5q0 -10 2 -15.5t14 -6.5l-1 -2q-2 -5 -2.5 -6
t-0.5 -4zM335 688q-8 0 -8 6q0 8 8 8q7 0 7 -8q0 -6 -7 -6zM254 705l-2 -4l-5 16q5 -1 6 -2.5t1 -9.5zM199 259l9 -7l-1 -2l-8 8v1z" />
    <glyph glyph-name="FL0075h" unicode="u" horiz-adv-x="322" 
d="M55 87l86 -3h-3l27 -7l73 43l58 116h6q5 0 9.5 4t4.5 12q0 1 -0.5 15t-2 36t-3 49.5t-2.5 56.5q-2 28 -3.5 55.5t-2.5 49.5t-1.5 35.5t-0.5 14.5v10q0 8 0.5 17t1 17t1.5 12l15 14v12l-0.5 3t-1.5 5q-4 6 -4 5q0 1 4.5 8.5t6.5 10.5v119q-14 -5 -22 -8.5t-12 -7t-5 -7.5
t-2 -9q-2 -9 -4 -12q-2 -2 -5.5 -4t-6.5 -4h1q-4 -3 -7.5 -5t-6.5 -6q0 2 -0.5 2.5t-0.5 2.5v-1q-1 3 -2.5 6t-6.5 9h-9q-16 0 -18.5 -7t-2.5 -17v-4q-1 -4 -2 -9q-2 -8 -3 -16t-1 -13v-13q0 -7 -0.5 -14.5t-0.5 -16.5q0 -10 0.5 -18t0.5 -14v-4q-12 -5 -15.5 -12t-3.5 -18
v-12q0 -3 0.5 -17.5t2 -36t3 -47.5t3.5 -53q1 -28 3 -55t3 -48.5t2 -36.5t1 -19v-34v-16l-1 1l-7 -17h-3h-16q-13 0 -27 -7v2q8 6 8 16v11q0 6 -1 22.5t-3 40.5t-4 53l-4 58q-2 28 -4 55.5t-3.5 50t-2.5 38t-1 20.5l-21 16q8 8 8.5 18.5t-0.5 20.5q-1 8 -1 15t-1 12v16
q14 13 14 31q0 13 -8 40l1 -1l-4 12t-4 14q-6 20 -26 30t-48 10q2 -14 2.5 -18.5l0.5 -4.5q0 -4 2.5 -10.5t4.5 -11.5v3v-1q1 0 1 -1l-1 -1q1 -1 1 -2v0l-1 2l-25 -72q1 -5 1 -8q0 -2 1 -8q2 -9 3 -20.5t1 -20.5v-8q0 -3 0.5 -5t0.5 -4v-12q0 -7 -2 -13.5t-10 -11.5l11 -280
q0 -24 1 -46t2 -43t1.5 -41.5t0.5 -42.5zM260 607l2 -1l-9 -7zM299 241q0 -1 -1 -1z" />
    <glyph glyph-name="FL0076h" unicode="v" horiz-adv-x="340" 
d="M107 45q1 -6 10 -14t20 -14.5t21.5 -12t16.5 -6.5q4 20 8 25t7 8q5 5 9.5 11.5t6.5 17.5l-1 -2q2 5 2 8v6q0 8 -2 16.5t-4 17.5q-5 12 -5 24q0 2 0.5 3.5t0.5 3.5q5 0 10.5 1.5t9.5 9.5l-1 -1q3 5 7 16t8 23t6.5 22.5t3.5 15.5l4 16l2 8t2 9q0 -3 1 0.5t2 9.5t2.5 13.5
t3.5 13.5l8 31l6 31q2 9 3.5 18t3.5 17q0 6 1 10.5t2 8.5l2 10l9 5l2 13v-1l6 26l3 13l9 41q3 13 5.5 26.5t5 30t5 37.5t5.5 49l-15 -8l24 107v4q0 13 -13 21q-1 6 -5 7t-18 -4v7q-5 8 -10 10h1q-5 5 -6 5.5t-5 0.5h-1q-5 0 -9 -1.5t-8 -3.5q-2 -1 -4.5 -1.5t-10.5 -0.5
l-6 -31q-5 -17 -7 -34l-4 -34q-2 -16 -5 -32.5t-6 -33.5q-5 -18 -9 -34t-9 -33q-7 -23 -13.5 -47t-12.5 -48q-1 -2 -1 -4q0 -1 -1 -3q0 4 -0.5 7.5t-0.5 7.5q-1 19 -2 37t-1 25q-6 6 -12 27.5t-10.5 47t-7.5 50.5t-3 39v5q0 3 2 8q-1 -4 1 -2l4 4q4 5 8.5 10t6.5 13
q1 5 1 16q0 17 -21 20h-4q-6 0 -12 -2q5 17 5 29q0 15 -5 26.5t-21 15.5l-8 2q-3 -2 -7 -4.5t-10 -7.5q-15 -34 -23 -67.5t-14 -67.5q-22 -8 -26 -31l1 1l-3 -7q17 -45 27 -81.5t18 -71.5t16 -71t27 -74q-2 -7 -2 -16v-19q0 -17 1 -36.5t3 -39.5t3.5 -38t3.5 -31q1 -6 1 -10
v-9q1 -2 1.5 -4t1.5 -4v2q2 -8 4 -16.5t2 -17.5v-2q-1 -5 -2.5 -15.5t-6.5 -25.5l-4 -24q-5 -15 -5 -19v-3z" />
    <glyph glyph-name="w" unicode="w" horiz-adv-x="463" 
d="M313 201l-1 -4l4 2zM274 328q5 0 8 5q-8 0 -8 -5zM179 105q7 0 7 6q0 5 -7 5t-7 -5q0 -6 7 -6zM288 727q9 0 9 6q0 3 -9 5l-6 -1q-3 -2 -3 -4t3 -5zM282 321q6 0 6 6t-6 6q0 1 0.5 2t0.5 3q0 5 -3.5 7t-5.5 2q-4 0 -6.5 -3t-2.5 -6q0 -7 5 -9l4 -1v-1q0 -6 8 -6zM210 -1
q-17 0 -23.5 12t-8.5 29q-1 -6 -1 -11v-8h-8t-3 -1q-9 0 -15 4.5t-10 11t-6 13t-2 10.5q-1 5 -2 16t-2 24.5t-2 27.5t-2 24q-14 2 -19 23q-2 13 -4 48t-4 75q-2 38 -4 72.5t-3 47.5q0 4 -0.5 13l-1 18t-1.5 17t-2 11l-3 6t-4 7q-2 10 -5 35.5t-6 52.5q-2 7 -2.5 14t-1.5 15
q-47 3 -47 42v133q0 8 6.5 21t22.5 24q2 -3 9 -9t12 -8q4 0 4 1v-1q6 6 13 6h3q9 0 19 -10v25q0 15 8.5 17.5t17.5 2.5q10 0 19 -3.5t9 -23.5v-185h3q11 0 16.5 -5t5.5 -22q0 -10 -1 -16.5t-3 -12.5q-2 -5 -3 -10.5t-1 -10.5q0 -29 6 -59t15 -57q8 20 12.5 38t4.5 39
q0 11 -1 17t-6 17v137q-11 2 -13 9t-2 15q0 9 2.5 16.5t18.5 12.5q9 -3 13 -6.5t9 -8.5q0 -1 1 -1q-3 12 -3 25q0 19 6.5 30.5t29.5 29.5h8q16 0 20 -9t4 -23v-3h2q5 -2 13.5 -10.5t10.5 -13.5v-25q0 -12 -0.5 -27t-0.5 -31q0 -17 0.5 -31.5t0.5 -26.5v-22q0 -6 0.5 -21
t1.5 -32.5t2 -34t2 -24.5t1 -17v-19v-27q0 -12 2 -26v48q1 6 1.5 17t2.5 25q2 21 4 45.5t4 47.5t3.5 41.5t2.5 27.5v163q5 7 6 9t6 8q1 1 1.5 2.5t1.5 3.5l-1 -1q2 4 9 12l14 16h7q1 0 1.5 0.5t1.5 0.5l8 -3l12 -13v-2q8 8 14 17l35 -36v-7q0 -2 0.5 -7t0.5 -13
q0 -5 0.5 -10t0.5 -9v-14q0 -68 -3.5 -137t-8.5 -138q-2 -20 -2.5 -38.5t-1.5 -37.5q0 -9 -2.5 -21.5t-5.5 -24.5t-6 -20t-5 -8h-11l3 -6v-317q-3 0 -9 0.5t-12.5 1.5t-13 3t-10.5 6q-5 -13 -21 -17q-30 3 -39.5 18.5t-13.5 35.5q0 1 -0.5 2.5t-0.5 3.5q-3 8 -7.5 21.5
t-8.5 27t-7.5 25t-4.5 15.5v5v5v4q0 2 1 10l5 3q1 0 1 -2q0 14 -8.5 34t-18.5 37q-8 -20 -12.5 -42t-4.5 -39q0 -4 0.5 -8.5t0.5 -7.5v-3q0 -2 2 -12q2 -6 3 -10.5t1 -5.5q0 -3 -3 -9.5t-6 -12.5h1q-2 -4 -3.5 -5.5l-1.5 -1.5q-1 -4 -2.5 -15.5t-2.5 -24.5t-1.5 -24.5
t-0.5 -15.5l-12 -13q-6 -2 -7 -2.5t-3 -0.5z" />
    <glyph glyph-name="FL00B1h" unicode="x" horiz-adv-x="295" 
d="M85 589q0 1 -2 3zM152 519v9v-1v-4v-4zM86 571q-8 0 -8 -6t8 -6q7 0 7 6t-7 6zM56 724q-8 0 -8 -6t8 -6q7 0 7 6t-7 6zM257 126q6 0 6 6t-6 6q-9 0 -9 -6t9 -6zM226 279q7 0 7 6t-7 6q-8 0 -8 -6t8 -6zM262 105q8 0 8 5q0 6 -8 6q-7 0 -7 -6q0 -5 7 -5zM49 745
q-7 0 -7 -6t7 -6q8 0 8 6t-8 6zM168 159q8 15 27 20q-2 12 -9 18q-4 1 -10 16t-11 32.5t-9 32.5t-4 17v10q0 10 7 16q0 4 -1 7.5t-3 8.5l-6 -40v-78q-1 -20 -4.5 -36.5t-8.5 -31.5q-5 -16 -8.5 -33.5t-3.5 -46.5q-3 -2 -5.5 -3.5t-4.5 -3.5q-5 -7 -15.5 -15t-30.5 -8v53
t2 53q0 3 0.5 6t0.5 6q-19 2 -25.5 9t-11.5 21q0 1 -0.5 3t-0.5 3v7q0 3 -0.5 5.5t-0.5 5.5v20q0 15 5.5 37.5t14 48t19.5 51.5t22 49l-3 5v-2l-2 4q-11 66 -24 126t-31 120v-1l-14 38v6q0 4 1.5 18t4 30t4.5 30t3 19q1 16 22 16l12 -18q2 -3 3.5 -5.5t2.5 -4.5l-2 1
q3 -4 5 -8q15 -2 15 -19q0 -4 -1 -6q21 -10 28 -25.5t9 -32.5l18 -19q-6 -10 -19 -17v-7q0 -13 4 -16l-2 1q3 -3 6.5 -11.5t7.5 -20t7 -23.5t6 -22v66q-1 6 -1 12v13q0 16 2.5 29t7.5 26t13.5 27.5t19.5 32.5q1 1 2.5 3t3.5 4l-2 -1q4 6 13 14t29 8q7 -38 7 -75
q0 -11 -0.5 -22t-1.5 -22q15 -3 20.5 -10.5t11.5 -18.5v-6v-19q0 -3 0.5 -5.5t0.5 -5.5v-8q0 -16 -5.5 -38.5t-14.5 -48t-20 -51.5t-22 -48v-1h1l-1 1q4 -6 7 -8q10 -66 23 -125.5t31 -120.5v1l14 -38v-5q0 -4 -1.5 -18.5t-4 -30.5t-4.5 -30t-3 -18q-1 -17 -22 -17l-5.5 7.5
t-7.5 10.5t-3.5 5.5t-2.5 4.5q-2 2 -2 3q0 2 -1 4q-14 2 -14 20v5q-14 12 -17 29.5t-5 36.5q-3 -4 -5.5 -7t-5.5 -6z" />
    <glyph glyph-name="FL0079h" unicode="y" horiz-adv-x="287" 
d="M175 158q-15 15 -33 18q3 13 12 19l-2 -1q4 1 9 16.5t9 34t6.5 34t2.5 18.5l-1 9q-2 10 -7 14q1 7 2 15.5t3 16.5t4 14.5t4 9.5l93 308l11 38v5q0 4 -2.5 15.5t-6 25.5t-7 27.5t-5.5 21.5q-1 1 -1 2v1q0 19 -24 19q-9 -10 -12 -20l-1.5 -3.5t-2.5 -5.5v1q0 -2 -1 -4.5
t-2 -5.5q-6 -1 -10.5 -5.5t-4.5 -12.5v-2q0 -5 1 -7q-14 -14 -16 -29.5t-2 -32.5v-7v-1q-6 8 -14 14l-20 -27q12 -14 31 -18q-4 -14 -11 -18q-4 -3 -8.5 -17.5t-8 -32t-6 -32.5t-2.5 -18v-1l1 -10q0 -10 9 -16q0 -3 1 -4v-7q0 -3 1 -5q0 -2 0.5 -4t0.5 -4q0 -3 0.5 -6.5
t0.5 -5.5q0 -4 -1 -6q-1 -1 -2 -1v0l-25 70l-7 77q-3 21 -8.5 36.5t-11.5 30.5q-5 15 -11 32t-8 42l-7 7q-5 6 -12.5 13t-18.5 7h-17q3 -24 7 -55t7 -54q0 -7 1 -10q-20 -3 -26.5 -13t-11.5 -24v-12q1 -4 1 -9v-13v-6q1 -17 9 -39.5t20 -46.5t26 -48.5t28 -44.5l1 1l-1 -1
v-1q-1 -2 -6 -7q-5 -66 -14.5 -128t-23.5 -123l1 1l-11 -39v-5q0 -3 2.5 -15.5t6 -27.5t7 -29.5t6.5 -21.5q0 -17 23 -17q8 8 12 19v-1q2 2 2.5 5t1.5 5l-1 -1q2 2 2.5 5t1.5 5q5 0 10 5t5 13v2q0 5 -1 7q13 11 16 27.5t3 35.5v6v1q2 -4 6 -7t8 -5zM78 95q-8 0 -8 5q0 7 8 7
q6 0 7 -4v-3q0 -5 -7 -5zM230 578q4 0 6 -3v-3q0 -6 -7 -6q-6 0 -7 4v2v-2v2q0 6 8 6zM254 755q5 0 7 -5q-2 -6 -7 -6q-7 0 -7 3v3q0 2 3 4zM82 116q-6 0 -6 7v-1q0 2 3 5l4 1q6 0 6 -3v-3q0 -6 -7 -6zM249 734q7 -1 7 -7q-1 -2 -2 -2.5t-2 -1.5l-4 -1q-5 0 -6 3v3q0 6 7 6z
M101 272q-4 0 -5 4v3q0 5 6 5t8 -5q-1 -4 -4 -5.5t-5 -1.5zM98 425q-1 -1 -1 -2l1 1v1z" />
    <glyph glyph-name="FL007Ah" unicode="z" horiz-adv-x="257" 
d="M86 286h1h1h-2zM86 284v1l-1 -1h1zM223 653v-1l1 1h-1zM217 654q-2 0 -3 -1l-2 -2l6 3h-1zM221 646l2 6l2 -6h-4zM143 703l5 -13l2 2zM210 680q5 0 7 4l-9 9q-7 -1 -7 -6q0 -7 9 -7zM127 157l2 -19h4h2l1 1l2 7q0 8 -1.5 10t-7.5 2zM62 182q0 -8 9 -8q6 0 6 8l-1 4
q-1 2 -2 2l-1 1l-1 -1v1l-0.5 0.5t-1.5 0.5l-6 -1q-2 -1 -2 -2v-5zM197 129q8 0 8 7q0 8 -8 8q-9 0 -9 -8q0 -7 9 -7zM212 647l1 -4q3 -4 6 -4l4 1q4 1 4 6q0 6 -3 7l5 14q-3 3 -5 3q-4 0 -7 -3l6 -14q-2 1 -5 1l2 1q-4 0 -6 -2l-2 -2v-4zM142 642l3.5 -3.5t2.5 -3.5v1v8
h-54q-5 0 -10 4.5t-7 10.5l-2 4t1 0l-3 8q0 5 1 8q-11 0 -22 2t-19 9l-11 11q0 7 1.5 12t3.5 11q2 8 8 11t8 3q20 -1 33 -1h22q-2 -2 7 -12q9 10 12 12t7 2v0q0 1 2 2q2 2 5.5 3.5t7.5 1.5h5q9 0 22.5 -2.5t22.5 -14.5l2 2q11 0 16 -5h57v-46h-28q5 -5 8.5 -9.5l3.5 -4.5
q0 -1 -1 -1v-1q2 -8 4 -13q0 -2 0.5 -3t0.5 -2v-3l-9 -32l-18 -61v-10v-26l-6 4q-2 -5 -6 -7l-42 -140q-4 -4 -12.5 -12t-10.5 -14q6 -5 12 -10.5t7 -12.5v1l1 -8q0 -2 -1.5 -13.5t-4.5 -25t-6.5 -26t-7.5 -15.5q-5 -3 -8 -7t-7 -9q4 -3 10 -9l-11 -14q11 0 24 -2.5
t21 -16.5h75v-48h-30q0 -8 -3 -12.5t-6 -7.5q-1 -1 -1.5 -3t-0.5 -12l-122 -1q-6 0 -11 5l-3 -3q-22 0 -22 17v2q-2 3 -2.5 6.5t-2.5 8.5q-13 2 -24 10q-3 4 -5.5 7.5t-2.5 8.5q0 1 1.5 6.5t4 11t6 10t8.5 5.5l7 28l19 84q-9 3 -9 16q0 18 16 18l31 139h11q3 0 8 -1.5
t10 -3.5v4v8q0 2 -0.5 3.5t-0.5 3.5q0 1 -1 1v1q-7 3 -7 14v7q0 2 2.5 14.5t5.5 26.5t6 25.5t5 13.5q4 3 7 10q-16 5 -23 18z" />
    <glyph glyph-name="FL007Bh" unicode="{" horiz-adv-x="394" 
d="M260 53q7 0 7 3q0 6 -7 6t-7 -6q0 -3 7 -3zM32 386v18l-5 9h1q-9 14 -9 24l-1 -2q0 8 7.5 16.5t16.5 10.5q19 3 26.5 5.5t9.5 4.5q3 2 7 3l4 1q5 0 7 -2t6 -5h6q4 0 9 -1q1 -1 3 -1q2 12 2.5 25t1.5 26q14 14 16.5 33.5t3.5 41.5q1 17 1.5 33.5t7.5 32.5l20 25
q2 6 3 22.5t1 24.5h29q0 2 1 3h-1q10 19 21.5 39t19.5 24h10t7 -1q4 -1 7 -1v0q0 1 2 3v-1q8 17 14.5 23t14.5 11q4 2 10 7t18 19q20 -14 22.5 -28.5t3.5 -29.5q0 -10 1 -14q4 9 10 19.5t11.5 19.5t10 14.5t6.5 5.5v-19q-3 -65 -11 -101t-18.5 -54t-23 -23t-24.5 -7
q-7 -2 -12.5 -3.5t-14.5 -11.5q-5 3 -8 5l-3 2v-8q0 -11 -6 -20l1 1q-1 -2 -5 -7t-8.5 -10.5t-8.5 -10.5t-6 -7q-3 -4 -7 -31.5t-8.5 -60.5t-7.5 -63.5t-3 -40.5v-7q0 -22 0.5 -56t4.5 -67.5t13 -60.5t25 -34l-1 1q2 -1 14 -1.5t25 -0.5t26 3.5t21 11.5l36 -129v-3
q0 -7 -5 -12.5t-11.5 -9.5t-14 -6.5t-11.5 -2.5h-6l-34 7h-6q-7 0 -12.5 4.5t-10.5 8.5l-5.5 5.5t-4.5 2.5q-25 0 -46 16.5t-38 43.5t-29.5 60.5t-21 67.5t-12.5 64.5t-4 52.5v14l-3 -5z" />
    <glyph glyph-name="FL007Ch" unicode="|" horiz-adv-x="148" 
d="M57 -128q0 -18 8 -21.5t16 -3.5h14v14q0 10 -2.5 21t-16.5 12q2 3 2.5 5.5t2.5 4.5v-1v5l7 -7t7 -6q4 -1 8 -8l-1 2q2 -6 4 -16q1 -5 2 -9.5t4.5 -8t10.5 -7.5t20 -8v129q-2 4 -6 12.5t-4 9.5l3 6q1 2 1.5 5l0.5 3v13l-12 13q-1 4 -1.5 13.5t-1 20t-1 19.5t-0.5 13
q0 2 0.5 11.5t2.5 20.5q1 11 1.5 20t0.5 11q0 5 0.5 31t1.5 61q0 22 0.5 45.5t1 43t0.5 33.5v19v21v75q0 23 -0.5 44t-0.5 33v4q6 7 6 18v13q0 16 -1.5 29.5t-3.5 26.5q-2 9 -3.5 18.5t-2.5 24.5l-14 12q5 0 4.5 15.5t-1.5 33.5q-1 10 -1 19v17v21q12 13 12 34q0 10 -2 20
t-4 23q-1 8 -2.5 16.5t-3.5 18.5q-6 23 -25 35t-43 12l4 -24q0 -5 1 -12.5t3 -14.5l-21 -86q1 -6 1 -9t1 -11q1 -11 2 -24.5t2 -24.5v-7q0 -3 0.5 -7t0.5 -7v-13q0 -9 -2 -17.5t-10 -13.5v-88q0 -39 0.5 -92t1.5 -110q1 -56 1 -109v-90v-57q0 -7 -1 -14.5t-3 -15.5
q-1 -8 -1.5 -16.5t-0.5 -17.5v-13q0 -11 2.5 -19t13.5 -15v-4v-35v-34v-16l1.5 -10t2.5 -18q0 -9 2 -11v-8q0 -11 2 -17.5t16 -6.5l-5 -5q-2 -7 -2 -8v-4zM83 54l5 -4l-1 -1z" />
    <glyph glyph-name="FL007Dh" unicode="}" horiz-adv-x="394" 
d="M153 799q-7 0 -7 -3q0 -6 7 -6t7 6q0 3 -7 3zM381 466v-18l5 -9h-1q3 -6 6 -13t3 -12l1 3q0 -9 -8 -17.5t-16 -9.5q-18 -3 -26 -6t-11 -5q-2 -2 -6 -2h-4q-8 0 -14 5q-6 0 -14 2q-2 0 -2.5 0.5t-1.5 0.5q-2 -12 -2 -25t-1 -26q-14 -14 -16.5 -34t-3.5 -42
q-1 -17 -1.5 -33t-7.5 -32l-21 -26q-2 -6 -3 -22t-1 -24h-28l-21 -42t-22 -24h-9t-7 1t-6 1q-1 0 -2 -3v1q-8 -18 -14.5 -24t-14.5 -11q-5 -2 -9.5 -5.5t-18.5 -19.5q-20 14 -22.5 28.5t-3.5 29.5q-1 3 -1 6v7q-5 -9 -11 -19.5t-11 -19t-9.5 -14t-6.5 -5.5v18q5 65 13 101.5
t18.5 54.5t22 23t23.5 7q5 1 10.5 2.5t16.5 12.5q10 -7 11 -7v8q0 12 6 21l-1 -1q2 3 6.5 8.5t9.5 11.5t9 10.5t5 5.5l-2 -2q3 4 7 31.5t8.5 60.5t7.5 63.5t3 40.5v6v34q0 21 -1.5 44t-4 46t-7.5 42.5t-12.5 33.5t-18.5 19l2 -1q-2 1 -14 1.5t-26 0.5q-11 0 -23.5 -7
t-17.5 -25l-41 146v3q0 7 5 12.5t11.5 9.5t13.5 6.5t12 2.5h6l34 -7h6q7 0 12.5 -4.5t10.5 -8.5l5.5 -5.5t3.5 -2.5q25 0 46.5 -16.5t38.5 -43.5t29.5 -60.5t21 -67.5t12.5 -65t4 -52v-14l3 5z" />
    <glyph glyph-name="FL007Eh" unicode="~" horiz-adv-x="242" 
d="M159 384q13 6 26.5 17.5t18.5 39.5q3 -3 10 -11.5t13.5 -18.5t11.5 -19.5t5 -13.5l-3 -7q0 -1 -5 -6t-12 -12.5t-15 -16t-14 -16.5q58 -28 85.5 -41.5t32 -17t-9 0.5t-36.5 12.5t-51.5 18t-53.5 16.5q-6 2 -8 2q-9 -12 -23 -12q-10 0 -16 5.5t-6 19.5v6l-1 1q-1 -1 -3 -1
q-13 -6 -28 -17t-17 -42q-4 4 -11 12.5t-14 18.5t-12 19t-5 14l3 7l4 5q5 5 19.5 17t22.5 24l3 5h-23l18 17q9 20 16 23t19 3h3l12 17l4 -30q14 -8 27 -19.5t13 -16.5v-3z" />
    <glyph glyph-name="FL007Fh" horiz-adv-x="153" 
 />
    <glyph glyph-name="FL20ACh" unicode="&#x20ac;" horiz-adv-x="377" 
d="M28 377q1 -2 1.5 -2.5t1.5 -2.5q2 -4 6 -6.5t7 -5.5q-10 7 -14 12t-2 5zM236 753q-6 0 -6 -5t6 -5q8 0 8 5t-8 5zM272 576v59q-3 4 -4.5 6.5t-2.5 4.5q-3 4 -6 8.5t-6 9.5q-2 1 -5 2t-7 1q1 0 2 1q-12 -5 -19.5 -18t-11 -31.5t-4.5 -39.5t-1 -41q29 -2 60.5 -8.5
t63.5 -20.5l-21 -30h-66q0 -3 31 -15q-20 -16 -34.5 -20t-27.5 -4h-5q1 -10 1 -21q0 -10 2 -22q26 -2 52.5 -5t62.5 -13l-26 -27q-1 0 -1 -5v-13q-7 -7 -8.5 -8t-5.5 -1q-5 0 -16 8.5t-19 16.5l3 -16l-16 -4t-17 -3q0 -6 0.5 -9l0.5 -3l29 -30q7 -11 7 -19v-5q4 0 6 1
q1 0 4.5 0.5t4.5 0.5q6 -5 12 -6.5t12 -3.5h-1q12 -2 23.5 -6t21.5 -19.5t17.5 -46.5t12.5 -86v-18q-4 0 -16 17t-21 34q-1 -4 -1 -11q-1 -14 -3.5 -27t-22.5 -23q-11 10 -17 14t-11 6q-9 5 -15 9.5t-14 21.5q-1 2 -2 2q-2 0 -3 -0.5t-3 -0.5h1q-4 -1 -16 -1q-11 3 -22.5 21
t-21.5 35h-28q0 6 -0.5 19t-2.5 20l-20 20q-8 14 -8.5 28t-1.5 28q-1 11 -2 21.5t-3 19.5l-72 15q0 1 0.5 7t0.5 7v1q-1 0 -4.5 3.5t-9.5 8.5q-1 3 -1 8q0 6 8 13t19 7q23 2 38 3h2q-1 5 -1.5 11t-0.5 11l-3 26l-57 19q0 1 0.5 6t0.5 6q0 2 0.5 2.5t0.5 2.5q0 -1 -5.5 4.5
t-13.5 12.5q2 0 6 -2q-2 4 -4 7.5t-2 6.5q0 10 8.5 17t19.5 8q15 2 26 3t20 2q4 32 15.5 71.5t30.5 74.5t45 58.5t58 23.5q14 0 20 -11q0 -1 0.5 -1.5l0.5 -0.5h6l34 7h6q4 0 10.5 -7t13.5 -16t12 -18t5 -13v-132l-1 3q1 -3 2 -6.5t1 -6.5q0 -8 -1.5 -12t-11.5 -4
q-5 0 -13 7.5t-23 26.5q0 -9 -1 -14h-29z" />
    <glyph glyph-name="FL201Ah" unicode="&#x201a;" horiz-adv-x="140" 
d="M19 4q1 -7 12 -15t25 -15.5t28 -13t22 -6.5q-8 17 -10.5 28t-2.5 19q0 64 3.5 91.5t7.5 35t8 3.5t4 -3l19 -9q2 5 2 11q0 11 -4 20t-8 17v-1q-3 3 -4 5q15 4 15 16q0 4 -5.5 7.5t-14.5 6.5t-19.5 5t-20.5 2q-8 0 -16 -1t-17 -4q-2 -8 -4 -22.5t-6 -27.5v1q-3 -8 -5.5 -31
t-4.5 -48.5t-3 -46t-1 -23.5v-1z" />
    <glyph glyph-name="FL201Eh" unicode="&#x201e;" horiz-adv-x="241" 
d="M107 7q1 -7 13.5 -15t28 -15t30.5 -12.5t23 -7.5q-14 34 -14 48q0 64 4 91.5t8.5 35t8.5 3.5l4 -4l21 -9q2 5 2 7v4q0 11 -4 20t-9 17v-1q-2 2 -4 6q16 4 16 16q0 4 -6 7.5t-15.5 6.5t-21 5t-23.5 2q-8 0 -16.5 -1.5t-19.5 -3.5q-1 -8 -3.5 -22.5t-6.5 -27.5v1
q-3 -8 -6 -31t-5 -48.5t-3.5 -46.5t-1.5 -23v-2zM16 39q0 -6 8 -13.5t18.5 -14t21 -11t15.5 -5.5q7 15 11.5 40.5t6.5 51t3 44t0 18.5l12 -12v4q0 9 -3 17t-6 15q-2 4 -3 5q12 4 12 14q0 8 -15 14t-32 6q-8 0 -16 -2l-16 -4q0 -8 -1.5 -19.5t-4.5 -22.5q-2 -6 -3.5 -25.5
t-3.5 -41t-3 -39t-1 -19.5z" />
    <glyph glyph-name="FL2026h" unicode="&#x2026;" horiz-adv-x="407" 
d="M273 98q1 -7 12 -14t25.5 -13.5t28 -11t21.5 -5.5q6 17 11.5 22t10.5 9q8 5 13 9.5t9 15.5q2 5 2 10q0 11 -4.5 19.5t-9.5 15.5v-1q-3 3 -4 5q17 4 17 15q0 3 -6.5 6.5t-16.5 6.5t-22.5 5t-24.5 2q-16 0 -37 -6q-2 -7 -4.5 -20.5t-6.5 -25.5q-6 -14 -9.5 -25.5
t-4.5 -15.5v-3zM30 98q1 -6 11.5 -12.5t24.5 -12.5t28 -10.5t22 -5.5q4 16 9 21l10 10q8 4 13 8.5t9 14.5q2 5 2 10q0 9 -4 17t-9 15v-1q-2 2 -2.5 3t-1.5 2q15 3 15 14q0 3 -6 6.5t-16 6.5t-21.5 5t-23.5 2q-13 0 -36 -5q-1 -7 -3.5 -20.5t-6.5 -24.5q-6 -13 -9.5 -23.5
t-4.5 -14.5v-5zM160 110q1 -6 10.5 -11.5t22.5 -11t25.5 -9.5t18.5 -5q5 15 9 19t8 6h-1q7 4 12.5 8.5t9.5 12.5v-1q2 3 2 10q0 8 -4 15.5t-9 12.5v-1h-1v1q12 3 12 12q0 7 -18.5 12.5t-39.5 5.5q-11 0 -19.5 -1t-16.5 -2q-2 -12 -7 -28.5t-9 -27.5l-4 -12z" />
    <glyph glyph-name="FL2022h" unicode="&#x2020;" horiz-adv-x="323" 
d="M174 224l1 1l-6 4zM140 48q0 2 0.5 3.5t2.5 8.5l5 5q-15 0 -17.5 6.5t-2.5 17.5v7q-2 2 -2 12q-2 8 -3.5 18l-1.5 10v15v34v35v4q-11 7 -14.5 15t-3.5 19v12q0 19 3 34q3 16 3 30q0 32 -1 62.5t-3 62.5l-72 24q0 1 0.5 6t0.5 6q0 2 0.5 2.5t0.5 2.5q0 -1 -5.5 4.5
l-13.5 13.5q4 0 6 -2q-6 8 -6 13q0 11 9 18t20 7q10 1 18.5 2t16.5 2q7 0 13 0.5t11 0.5v10q8 5 10.5 13.5t2.5 17.5v13q0 2 -0.5 6t-0.5 8v7q-1 10 -2 23.5t-3 24.5q-1 8 -1 11t-1 9l24 85q-2 7 -3.5 14.5t-1.5 12.5l-4 23q27 0 48 -11.5t28 -34.5q2 -10 3.5 -18t3.5 -16
q3 -14 5 -23.5t2 -19.5q0 -20 -14 -34v-21q1 -7 1 -16t1 -20q0 -17 0.5 -32.5t-4.5 -15.5l16 -13q0 -4 -0.5 -7t0.5 -5q26 -2 53.5 -8.5t58.5 -19.5l-21 -30h-66q0 -3 31 -15q-14 -13 -24.5 -17.5t-19.5 -6.5v-1q0 -11 -7 -18v-11q0 -8 0.5 -16.5t0.5 -18.5t-0.5 -19
t-0.5 -16v-19q0 -2 -1 -11t-2 -20q-2 -11 -2 -21v-11v-12t0.5 -19.5t1 -20t1.5 -13.5l14 -13v-13l-0.5 -3t-1.5 -4l-3 -6q0 -1 4.5 -10l6.5 -13v-128q-14 5 -22 9t-12 7.5t-5.5 7.5t-2.5 9t-2 8.5t-2 7.5v-2q-2 7 -8 9q-4 3 -8 5.5t-8 5.5v-4v1q-2 -2 -2.5 -4.5t-2.5 -4.5
q16 -1 18.5 -13t2.5 -20v-15h-16q-9 0 -18 4t-9 21z" />
    <glyph glyph-name="FL2021h" unicode="&#x2021;" horiz-adv-x="323" 
d="M174 224l1 1l-6 4zM29 293q1 -2 2 -2.5t2 -2.5q2 -4 5.5 -7t7.5 -6q-10 8 -14.5 13t-2.5 5zM140 48q0 2 0.5 3.5t2.5 8.5l5 5q-15 0 -17.5 6.5t-2.5 17.5v7q-2 2 -2 12q-2 8 -3.5 18l-1.5 10v15v34v35v4q-9 5 -12.5 11t-5.5 14l-57 12q0 1 0.5 6.5t0.5 6.5v1q-1 0 -5 4
l-9 9q-2 6 -2 8q0 5 7.5 12t18.5 8q16 2 28.5 2.5t23.5 1.5v14q0 32 -1 62.5t-3 62.5l-72 24q0 1 0.5 6t0.5 6q0 2 0.5 2.5t0.5 2.5q0 -1 -5.5 4.5l-13.5 13.5q4 0 6 -2q-6 8 -6 13q0 10 8.5 17t19.5 8t19.5 2t16.5 2q7 0 13 0.5t11 0.5v10q8 5 10.5 13.5t2.5 17.5v13
q0 2 -0.5 6t-0.5 8v6q-1 10 -2 24t-3 25q-1 8 -1 11t-1 9l24 85q-2 7 -3.5 14.5t-1.5 12.5l-4 23q27 0 48 -11.5t28 -34.5q2 -10 3.5 -18t3.5 -16q3 -14 5 -23.5t2 -19.5q0 -20 -14 -34v-21q1 -7 1 -16t1 -20q0 -17 0.5 -32.5t-4.5 -15.5l16 -13q0 -4 -0.5 -7t0.5 -5
q26 -2 53.5 -8.5t58.5 -19.5l-21 -30h-66q0 -3 31 -15q-14 -13 -24.5 -17.5t-19.5 -6.5v-1q0 -11 -7 -18v-11q0 -8 0.5 -16.5t0.5 -18.5t-0.5 -19t-0.5 -16v-19v-5t-1 -7v1q-1 -3 -1 -10q23 -2 48 -6t59 -12l-26 -28q-1 0 -1 -4v-14q-6 -7 -7.5 -8t-5.5 -1q-5 0 -16 9
t-19 17l3 -17q-8 -3 -17.5 -5t-20.5 -2q1 -4 1 -7t1 -7l2 -22l13 -13v-13l-0.5 -3t-1.5 -4l-3 -6q0 -1 4.5 -10l6.5 -13v-128q-14 5 -22 9t-12 7.5t-5.5 7.5t-2.5 9q-1 4 -2 7t-2 7q-2 7 -8 9q-4 3 -8 5.5t-8 5.5v-4v1q-2 -2 -2.5 -4.5t-2.5 -4.5q16 -1 18.5 -13t2.5 -20
v-15h-16q-9 0 -18 4t-9 21z" />
    <glyph glyph-name="FL02C6h" unicode="&#x2c6;" horiz-adv-x="218" 
d="M214 633q3 -4 3.5 -6.5t0.5 -4.5q0 -5 -5.5 -13.5t-13 -18t-15 -17.5t-11.5 -11q-4 26 -17.5 40t-28.5 23q-3 -2 -11 -4q-17 -5 -34 -16t-22 -39q-4 3 -11.5 11t-15 17.5t-13.5 18.5t-6 14q0 2 0.5 4.5t4.5 5.5q2 1 3.5 3t5.5 4h-1q8 5 19 13l22 16h-9v15q11 17 27 28
t27 11q2 0 6 -1t10 -7v-1v-1q9 -3 18.5 -8.5t17.5 -11.5t13.5 -11.5t5.5 -7.5q0 -9 -1 -10q9 -12 19 -22v1z" />
    <glyph glyph-name="FL2030h" unicode="&#x2030;" horiz-adv-x="584" 
d="M83 670q-17 0 -22.5 -10t-6.5 -24q-5 -2 -9 -6t-7 -13v2q-1 -2 -1 -4t-1 -4q-5 -15 -7.5 -30t-2.5 -31v-2v-1q-5 -2 -5 -12q0 -5 0.5 -8t4.5 -5q0 -5 1 -7v-12q1 2 4 5q1 -3 4 -4q0 -2 2 -4v-8q0 -10 3 -13.5t5 -8.5q1 -2 1.5 -3.5t2.5 -3.5q-7 -3 -8 -9t-1 -10v-1
q0 -4 2 -12.5t7 -16.5t12 -14.5t18 -6.5h27h5q8 0 20 5h20q2 0 5.5 1t7.5 5v-1q4 3 6 5.5t5 5t6.5 6.5l10.5 12q-6 -14 -11.5 -26.5t-11.5 -26.5q-5 -8 -15 -22q-3 -5 -7 -10.5t-8 -13.5l-3 -6q-5 -12 -5 -18q0 -12 8 -21q-4 -6 -7 -13.5t-7 -14.5q-5 -10 -8.5 -18.5
t-7.5 -18.5q-2 -3 -3 -8.5t-6 -24.5l-2 -5l-1 -1q-3 -5 -3 -12q0 -5 1.5 -8.5t6.5 -7.5q-9 -9 -9 -12q-1 -2 -1 -6q0 -11 7 -17t12 -8l-2 1q4 -2 10 -2.5t12 -0.5v4t1 7q2 4 3 7.5t1 8.5q0 10 -10 17l6 6q2 -5 5 -9t6 -9q1 -1 5 -9v-10q-2 -4 -2 -11q0 -5 5 -13t21 -24
l48 102q-2 6 -2 11v10v0q1 0 3 1l6 6l2 6v-2l4 7l-8 16q4 9 9.5 26.5t8.5 25.5v-2q2 4 5.5 9.5t8.5 12.5q5 8 9.5 16t6.5 10q2 3 3.5 8t4.5 10q2 5 4.5 9.5t5.5 11.5v-1q4 7 7 14.5l5 12.5v-1q2 2 2 5t2 5q8 2 14 10l5 11v-1q5 11 8 22.5t5 23.5q2 8 3.5 17t5.5 18l-7 15
q2 -2 5.5 6t8.5 20q4 9 8 19t7 20v-2l5 12l2 4q20 5 25.5 18.5t10.5 42.5q1 6 1.5 12t2.5 13q0 2 0.5 5t0.5 5q0 17 -14.5 33t-37.5 28l-8 -23l1 3q-3 -5 -4 -11.5t-1 -12.5v-1l-52 -53q-6 -16 -10 -25t-6 -14.5t-3 -9t-1 -7.5q-4 -4 -4 -10q-1 -1 -1 -2v0l-6 -14
q-4 -5 -8.5 -10t-13.5 -5l-11 -25v1q-11 -23 -21 -46.5t-20 -45.5q-1 -7 -5 -14v11q2 2 2.5 4t1.5 3q0 7 -0.5 9l-1.5 6h2q6 21 7 25.5t2 9.5l-1 -2q1 2 3 12t2 12v21q0 16 -2.5 33t-9.5 31q-3 4 -9 7q4 6 4 13q0 2 -1 3.5t-2 3.5q2 2 3 4q0 3 -9 11.5t-20 18t-20.5 17
t-10.5 7.5q-18 0 -29 -7t-19 -16zM452 195q0 -3 2 -11t6 -15.5t10 -13.5t15 -6h20h5q6 0 16 5h15q6 0 12 6q7 6 9.5 9.5t12.5 18.5v5q2 2 2.5 4t1.5 4q0 5 -0.5 8t-0.5 6h1q5 20 6 24.5t1 9.5l-1 -2q2 5 3 12t1 9v19q0 30 -9 59q-6 3 -8 5q3 4 3 12q0 1 -2 7l2 2
q0 2 -7 10.5t-16 17.5t-17 16t-9 7q-15 0 -24 -6t-15 -14q-13 -1 -17.5 -10t-6.5 -20q-4 -2 -8 -6t-6 -14v-1q-4 4 -10 7q4 6 4 13q0 1 -1 3l-2 4q2 2 3 4q0 3 -9 11.5t-19.5 18t-20 17t-10.5 7.5q-18 0 -29.5 -7t-19.5 -16l-1 1q-17 0 -22.5 -10t-6.5 -24q-5 -2 -9 -6.5
t-7 -12.5v2q-1 -2 -1 -4t-1 -4q-4 -15 -6.5 -30t-2.5 -31v-2v-1q-5 -2 -5 -12q0 -11 5 -13q0 -5 1 -7v-12q1 2 4 5q0 -3 3 -4q0 -2 2 -4v-8q0 -10 3 -13.5t6 -8.5q1 -2 1.5 -3.5t2.5 -3.5q-8 -3 -9 -9.5t-1 -9.5v-1q0 -4 2.5 -12.5t7 -16.5t12 -14.5t17.5 -6.5h27h6
q5 0 9.5 1t10.5 3h19q7 0 13 7v-1q4 3 6 5.5t5 5t6.5 6.5l10.5 12v11q2 3 4 7q0 7 -0.5 9l-1.5 6h3q2 6 3 10l2 8l2 -4q1 -2 2 -4.5t2 -4.5q-7 -4 -7 -15v-5zM104 543q0 8 2 16.5t5 17.5q3 7 6 16t4 21l-3 9q3 -3 7 -3q3 -1 4 -5.5t1 -8.5q0 -7 4 -13l-3 5q1 -8 8 -13
q-1 -28 -3 -56.5t-7 -52.5l-2 -2q-3 -6 -7 -12v1l-1 1q-2 4 -2 7h1q-5 18 -9.5 36.5t-4.5 35.5zM355 288q0 15 8 33q3 8 5.5 17t3.5 21l-2 9q0 -1 2 -2t4 -1q3 -1 4 -5.5t1 -8.5q1 -3 2 -7t3 -6l-3 5q1 -8 8 -13q-1 -28 -3.5 -56.5t-7.5 -52.5q-1 -1 -1 -2l-1 -1
q-2 -2 -3.5 -5.5t-3.5 -5.5v1l-1 1q0 2 -0.5 3.5t-0.5 3.5h1q-5 18 -10 36.5t-5 35.5zM507 287q0 8 2 16l4 16q2 6 4 13t4 16q0 -4 1 -5q0 -2 0.5 -3t0.5 -3q0 -5 2 -7.5t4 -4.5q0 -25 -2 -52t-6 -48l3 6q1 1 -1 -3t-4 -7l-1 -1q-5 17 -8 34.5t-3 32.5zM563 308
q-10 0 -10 11q0 9 10 9q3 0 6.5 -2t3.5 -7t-3.5 -8t-6.5 -3zM567 285q4 0 7.5 -3.5t3.5 -7.5q0 -8 -3.5 -9.5t-7.5 -1.5q-3 0 -6 3v16zM431 313q-10 0 -10 10t10 10q9 0 9 -10t-9 -10zM179 568q-9 0 -9 10t9 10q10 0 10 -10t-10 -10zM185 540q5 0 7.5 -3.5t2.5 -7.5
q0 -8 -2.5 -9.5t-7.5 -1.5q-4 0 -7 3v16zM409 200q0 7 5 7l8 -4l4 -8l-1 -2q-2 -1 -4 -1q-1 0 -3 -2zM157 455q0 2 0.5 4.5t5.5 2.5l8 -4l3 -8v-1q-4 -2 -7 -4zM436 285h1v-6q0 -10 4 -12v-4h-5q-3 0 -6 3v16zM544 207q0 8 6 8l8 -4l1 -4l-8 -8zM124 435l4 -16l-13 7z
M375 180l4 -16l-12 7zM520 190l3 -17l-12 8zM521 397q2 -3 2 -7l-2 -7l-3 -1l-1 2v14zM556 293l14 10l2 -2l-13 -9q-1 0 -1.5 0.5t-1.5 0.5zM425 295l13 10q0 -1 2 -1l-13 -9h-2zM174 551l13 9q0 -1 2 -1l-14 -9q-1 0 -1 1zM372 408h1q3 -3 3 -7l-3 -5v1zM121 663h1
q3 -3 3 -7l-3 -5v1zM191 265l-2 -1l-4 9zM533 381l4 4l-4 -9v5zM519 357q0 -1 1 -1.5l1 -0.5h-1l-1 1v1zM568 354l1 -1q-1 0 -1 1z" />
    <glyph glyph-name="FL0160h" unicode="&#x160;" horiz-adv-x="232" 
d="M108 189h-1v1zM106 192q0 -1 0.5 -1.5l0.5 -0.5zM127 108l-2 2zM42 458q0 1 -1 2zM121 108q-2 -2 -2 -3zM109 530q0 -2 -0.5 -2.5t-0.5 -2.5l0.5 1.5t0.5 3.5zM106 833q-5 -3 -3.5 -2.5t5.5 2.5h-2zM118 68v6h-1h-4q1 -2 0 -3zM123 110q-1 0 -2 -2l1 2q-6 -7 -8 -13t6 -7
q4 0 6 2t2 10l-4 8h-1zM93 32v14q-8 -8 -18 -8q-14 0 -24 19t-16.5 43t-10 47t-3.5 31q0 7 1.5 13t3.5 11l2 6t1 7l-14 22q-1 2 -1 7q0 14 5.5 16.5t13.5 4.5q-2 8 -3 17t-1 14v8q0 27 25 27q14 0 20.5 -15t10.5 -31q0 -1 -0.5 0t-0.5 0l1.5 -2.5t4.5 -9.5q1 -6 3.5 -18.5
t5.5 -26t5.5 -25t3.5 -14.5q6 -7 16.5 -13t19.5 -8q-1 28 -9 57t-20 57.5t-26 55t-26 50.5v-1q-5 5 -8 11v-1q-8 9 -14.5 19t-6.5 27q0 7 2.5 11.5t4.5 7.5q-2 5 -5.5 17t-6.5 24q-2 5 -4 10.5t-3 9.5v7q0 2 -0.5 4t-0.5 4q0 15 5.5 46t17 61.5t29.5 53.5t42 23h2l-4 5l-2 2
q-8 3 -18 9.5t-18.5 13.5t-14 13.5t-5.5 9.5q0 7 1 9q-6 9 -12.5 17.5t-11.5 13.5q-3 4 -6 7.5t-2 2.5q-2 4 -2.5 6.5t-0.5 5.5q0 6 5.5 15.5t12.5 20t14.5 19.5t10.5 13q5 -30 19 -45.5t30 -24.5l6 3q17 6 36.5 19.5t24.5 45.5q3 -4 11 -13t15.5 -19.5t13.5 -20.5t6 -16
q0 -3 -0.5 -5.5t-3.5 -6.5l-4 -4t-5 -4h1q-8 -5 -20 -14.5t-22 -19.5h10v-17q-12 -19 -27 -31.5t-26 -12.5q6 -4 16 -19t21.5 -36t23 -44.5t21 -44t15.5 -36t6 -19.5v-3q0 -8 -2 -12.5t-12 -20.5q-10 3 -19 10l-5 3l-15 -33l-22 23v68q0 4 -3 13.5t-8 9.5h-2v-1
q-3 -2 -4 -4.5t-15 -2.5l-4 4q-2 0 -4 2q-1 -4 -1 -7v-4v-3q0 -1 0.5 -2t1.5 -4q2 -5 3.5 -9.5t1.5 -9.5q-5 -9 -15 -13v-4q0 -12 7 -27t21 -17q17 -25 33 -60t28.5 -73t20 -76.5t7.5 -69.5q0 -17 -4 -35.5t-9 -36.5q-5 -14 -8.5 -29t-4.5 -34q-20 -31 -46 -31q-18 0 -22 5
v-4h-38z" />
    <glyph glyph-name="FL2039h" unicode="&#x2039;" horiz-adv-x="166" 
d="M109 269q3 -4 5.5 -4.5t4.5 -0.5q5 0 14 6t18.5 13.5t17.5 15t11 11.5q-26 3 -40.5 16.5t-22.5 28.5q1 2 1.5 5.5t1.5 5.5q6 17 16.5 34.5t39.5 22.5q-4 4 -12 11.5t-17 15t-18 13t-14 5.5q-2 0 -4.5 -0.5t-5.5 -3.5t-7 -10q-5 -8 -13 -19l-16 -22v11h-15
q-17 -11 -28 -27t-11 -27q0 -4 0.5 -6.5t3.5 -6.5l4 -3v-1h1q3 -8 8.5 -18t11.5 -18t11.5 -13.5t8.5 -5.5q7 0 9 2q6 -5 11.5 -10t10.5 -9q5 -5 9 -8t5 -4z" />
    <glyph glyph-name="FL0152h" unicode="&#x152;" horiz-adv-x="461" 
d="M393 714v-1h1zM167 757q-7 0 -7 -4q0 -6 7 -6q8 0 8 6q0 4 -8 4zM210 594q1 11 1.5 15.5t1.5 10.5q-5 11 -10.5 19.5t-6.5 10.5q-2 4 -5.5 9t-6.5 10q-2 1 -5.5 2t-6.5 1q1 0 2 1q-12 -5 -19.5 -17.5t-11.5 -30t-5 -38t-1 -40.5q0 -11 0.5 -22t0.5 -20v-24q0 -8 1 -33.5
t3 -53t4.5 -50t5.5 -25.5l29 -30q7 -11 7 -19v-5q4 0 6 1q1 0 4.5 0.5t4.5 0.5q5 -5 11 -6t13 -3q8 -2 16.5 -4.5t17.5 -10.5q2 5 2 9v10q0 8 -2.5 12.5t-17.5 12.5q-1 10 -2.5 33t-2.5 48.5t-2 48t-1 31.5v10l-5 10h1l-6 12t-2 11l-1 -2q0 6 3.5 12.5t8.5 9.5l-4 90
q-2 2 -2 4v-13l-10 10zM290 81q-7 0 -13 10.5t-12 26.5h-1v1q-1 -14 -4.5 -26t-22.5 -23q-11 11 -17.5 15t-9.5 6q-10 4 -16 9t-14 22q-1 2 -3 2q-1 0 -2 -0.5t-3 -0.5h1q-3 -1 -7 -1h-9q-11 3 -23 21t-22 35h-28q0 6 -1 19t-3 20l-21 21q-5 13 -6.5 27t-2.5 28
q-1 18 -3.5 36t-16.5 28q-1 14 -2 31t-3 32q-2 25 -4 48.5t-2 48.5q0 18 4.5 45t12.5 56t21 58t30 51.5t38.5 37t46.5 14.5q8 0 12.5 -3.5t8.5 -8.5l-1 1q3 -3 1 -3h6l34 7h7q6 0 14 -8q2 0 3 1q5 2 20 4t26 3q2 11 8 13.5t18 2.5q2 0 13.5 -8.5t22.5 -17.5h59q6 0 11.5 -7
t9.5 -16t6 -18.5t2 -14.5h-37q7 -7 7 -18v-9l-4.5 -6t-6.5 -12h-69q-1 0 -1.5 -15t-1 -34t-0.5 -37v-25v-23q0 -9 2 -12q28 -3 60 -8t66 -26l-15 -31h-13q-2 0 -6.5 0.5t-9.5 0.5h-15t-7 -2q0 -7 23 -18q-14 -14 -26.5 -19.5t-23.5 -5.5h-15h-3l-2 -4v-121q0 -5 -5 -17
t-10 -23q15 3 27.5 4t27.5 1h29q2 0 5 -0.5t6 -0.5h19q14 -5 16 -10.5t2 -15.5q0 -2 -0.5 -3t-0.5 -3v-7q-7 -6 -11 -7.5t-8 -2.5q-14 -4 -27 -10h18v-23q0 -15 -15.5 -21t-37.5 -11q-18 -4 -35 -9t-17 -16q0 -4 9 -25h-20q-1 0 -2 -0.5t-3 -0.5l-6 3.5t-13 8.5q-1 -7 -3 -9
t-10 -2z" />
    <glyph glyph-name="FL017Dh" unicode="&#x17d;" horiz-adv-x="257" 
d="M87 264v1l-1 -1h1zM224 636v-1l1 1h-1zM134 847q-5 -3 -4 -2.5t6 2.5h-2zM218 637q-3 0 -3 -1l-2 -2l6 3h-1zM222 629l2 6l2 -6h-4zM144 687l4 -14h1l1 1q0 1 1 2zM211 663q5 0 7 4l-9 10q-7 -1 -7 -7q0 -7 9 -7zM128 136l2 -19h4h2l1 1l2 7q0 8 -1.5 10t-8.5 2zM70 153
q8 0 8 8l-1 4q-1 2 -3 4l-1 -1v1h-1q0 1 -1 1l-6 -1q-2 -1 -2.5 -2t-0.5 -6q0 -8 8 -8zM198 108q8 0 8 6q0 9 -8 9q-9 0 -9 -9q0 -6 9 -6zM213 630l1 -4q1 -4 6 -4l4 1q2 2 3 2.5t1 3.5q0 6 -3 7l5 15q-2 2 -3.5 2.5l-1.5 0.5q-4 0 -7 -3l6 -15q-2 1 -5 1l2 1q-6 0 -6 -2
l-2 -2v-4zM59 829q-4 4 -6.5 7.5t-1.5 2.5q-3 4 -3.5 6.5t-0.5 4.5q0 6 5.5 16t13 20.5t15 19t10.5 12.5q5 -29 19.5 -44.5t29.5 -24.5q2 1 3 1q2 0 4 1q9 3 18.5 8t18.5 12.5t15.5 18t8.5 26.5q3 -3 11 -12t16 -19.5t14 -20.5t6 -16q0 -3 -0.5 -5.5t-3.5 -6.5l-4 -4t-5 -4
h1l-20 -15t-23 -19h10v-17q-11 -19 -27 -31.5t-27 -12.5q-4 0 -7 1t-9 7q-1 0 -1 2q-9 3 -19 9.5t-18.5 13.5t-14 13t-5.5 9q0 8 1 10q-7 9 -13 17t-11 14zM143 625l3.5 -3.5t2.5 -3.5v1q0 2 -0.5 4t0.5 4h-54q-5 0 -10 4.5t-7 10.5l-2 4t1 0l-3 9q0 4 1 7q-11 0 -22 2
t-19 9l-11 12q0 10 5 23q2 8 8 11t8 3q20 -1 33 -1h22q-2 -2 7 -12q9 10 12 11.5t8 1.5q-3 0 1 2q6 6 13 6h5q9 0 22.5 -2.5t22.5 -14.5l2 2q11 0 16 -5h57v-47h-28q5 -4 8.5 -9l3.5 -5q0 -1 -1 -1v-1q2 -8 4 -13q0 -2 0.5 -3t0.5 -2v-3l-9 -33l-18 -61q0 -8 -1 -10v-26
l-5 4q-2 -5 -6 -7l-42 -141q-4 -4 -12.5 -12t-11.5 -14q7 -5 13 -11t7 -12v1l1 -8q0 -2 -2 -14t-5 -25.5t-6.5 -26t-7.5 -16.5q-4 -3 -7 -6.5t-7 -8.5q6 -4 10 -10l-11 -13q11 0 24 -3t20 -17h76v-48h-30q0 -8 -3 -12.5t-6 -8.5q-1 -1 -1.5 -3t-0.5 -11l-122 -1q-6 0 -11 5
l-3 -3q-22 0 -22 16l-0.5 0.5t-0.5 2.5q-1 3 -1.5 6.5t-2.5 8.5q-13 2 -24 10q-3 4 -5.5 7.5t-2.5 8.5q0 1 1.5 6.5t4 11t6 10.5t8.5 6l7 28l18 84q-8 3 -8 17q0 17 16 17l31 141h11q3 0 8 -1.5t10 -3.5v4v8q-1 3 -1 6q0 1 -1 1v1q-7 5 -7 15l-1 7q0 2 2.5 14.5t5.5 26.5
t6 26t5 14q5 2 8 10q-16 5 -23 18z" />
    <glyph glyph-name="FL2018h" unicode="&#x2018;" horiz-adv-x="140" 
d="M137 722q-1 7 -12 15t-25 15t-28.5 12.5t-21.5 7.5q8 -18 10.5 -28.5t2.5 -18.5q0 -43 -1.5 -69t-4 -40t-5.5 -18.5t-5.5 -4t-4.5 2.5l-2 2l-19 9q-2 -5 -2 -7v-4q0 -11 4 -20t8 -17v1q1 -2 2 -3.5t2 -3.5q-8 -1 -11.5 -6t-3.5 -9t5.5 -8t14.5 -7t19.5 -4.5t20.5 -1.5
q15 0 33 6q2 8 4 22t6 27q3 6 5.5 29.5t4.5 49.5t3 46.5t1 22.5v2z" />
    <glyph glyph-name="FL2019h" unicode="&#x2019;" horiz-adv-x="140" 
d="M19 562q1 -7 12 -15t25 -15t28 -12.5t22 -6.5q-8 17 -10.5 28t-2.5 19q0 64 3.5 91.5t7.5 35t8 3.5t4 -3l19 -9q2 5 2 10q0 11 -4 20.5t-8 17.5v-1q-2 1 -4 5q15 4 15 16q0 4 -5.5 7.5t-14.5 6.5t-19.5 5t-20.5 2q-13 0 -33 -5q-2 -8 -4 -22.5t-6 -27.5v1q-3 -8 -5.5 -31
t-4.5 -48.5t-3 -46t-1 -23.5v-2z" />
    <glyph glyph-name="FL201Ch" unicode="&#x201c;" horiz-adv-x="241" 
d="M148 722q-2 7 -14 15t-27.5 15t-30.5 12.5t-23 7.5q8 -18 11 -28.5t3 -18.5q0 -43 -2 -69t-4.5 -40t-5.5 -18.5t-6 -4t-5 2.5l-2 2l-21 9q-2 -5 -2 -7v-4q0 -11 4 -20t9 -17v1q1 -2 2 -3.5t2 -3.5q-9 -1 -12.5 -6t-3.5 -9t6 -8t15.5 -7t21.5 -4.5t23 -1.5q15 0 36 6
q2 8 4 22t7 27q3 6 5.5 29.5t4.5 49.5t3.5 46.5t1.5 22.5v2zM239 690q0 6 -8 13.5t-18.5 14t-20.5 11t-15 5.5q-7 -15 -11.5 -41t-7 -50.5t-3.5 -43t0 -18.5l-12 11v-4q0 -11 3.5 -18.5t5.5 -14.5l2 -4q-6 -2 -8.5 -6.5t-2.5 -7.5q0 -8 15.5 -14t32.5 -6q7 0 15 2t16 5
q0 8 2 19.5t4 21.5q2 6 4 25.5t3.5 41t2.5 39t1 19.5z" />
    <glyph glyph-name="FL201Dh" unicode="&#x201d;" horiz-adv-x="241" 
d="M110 562q1 -7 13 -15t27.5 -15t31 -12.5t23.5 -6.5q-8 17 -11 28t-3 19q0 43 2 69t4.5 39.5t5.5 18t6 4.5t5 -2.5t2 -1.5l21 -9q2 5 2 10q0 11 -4 20.5t-9 17.5v-1q-2 1 -4 5q16 4 16 16q0 4 -6 7.5t-15.5 6.5t-21.5 5t-23 2q-8 0 -16.5 -1.5t-19.5 -3.5q-2 -8 -4 -22.5
t-7 -27.5v1q-3 -8 -5.5 -31t-5 -48.5t-3.5 -46t-1 -23.5v-2zM19 594q0 -6 8 -13.5t18.5 -13.5t21 -10.5t15.5 -5.5q6 15 10.5 40.5t7 50.5t3.5 43.5t0 18.5l12 -12v5q0 8 -3.5 16t-5.5 15q-2 4 -3 5q6 2 9 6.5t3 7.5q0 8 -15.5 14t-32.5 6q-8 0 -15.5 -2t-15.5 -4
q0 -8 -2 -19.5t-4 -22.5q-2 -6 -4 -25t-3.5 -40.5t-2.5 -39.5t-1 -20z" />
    <glyph glyph-name="FL2023h" unicode="&#x2022;" horiz-adv-x="230" 
d="M22 422q0 23 11 43.5t25 40.5h-1q11 17 20.5 32.5t11.5 32.5l-1 3q-2 5 -3 11t-1 8v2q0 6 5.5 11.5t13 10t15 7t12.5 2.5h4q11 -2 17.5 -9t10.5 -16t6 -19t4 -19q1 -5 1 -8t2 -6q1 -5 8 -14.5t15 -20.5q12 -16 22 -31t10 -24v-10q0 -10 -8 -15q-1 -29 -8.5 -50.5
t-17.5 -42.5q-8 -17 -15.5 -35.5t-12.5 -42.5l-1 -2.5t-3 -4.5v1q-3 -6 -8.5 -15.5t-11.5 -18t-13 -14.5t-14 -6q-14 0 -18.5 8.5t-6.5 16.5v-1l-3 6q-5 19 -13 36.5t-16 35.5q-14 29 -26 58.5t-12 58.5z" />
    <glyph glyph-name="FL2013h" unicode="&#x2013;" horiz-adv-x="246" 
d="M34 291l109 -41l7 14h3h14q11 0 22.5 4.5t25.5 16.5q-23 9 -23 14q0 2 7 2h15q5 0 9 -0.5t6 -0.5h12l14 26q-32 17 -63 22t-57 7q-14 8 -30 8q-8 0 -16.5 -1t-20.5 -3q-5 -1 -10.5 -1.5t-12.5 -1.5q-10 -1 -16.5 -8t-6.5 -15l1 2q-1 -5 1.5 -10t6.5 -10h-1l4 -8v-16z" />
    <glyph glyph-name="FL2014h" unicode="&#x2014;" horiz-adv-x="323" 
d="M45 313l133 -33l8 11h27q12 0 27 3t34 16q-31 10 -31 13h65l22 25q-44 14 -86 19t-78 7q-9 3 -17.5 4t-20.5 1q-14 0 -30 -1t-39 -3h2q-3 0 -6 -0.5t-6 -0.5q-11 0 -20 -6.5t-9 -14.5q0 -5 6 -11q-4 2 -6 2q7 -6 13 -10.5l6 -4.5q0 -1 -0.5 -1.5t-0.5 -1.5t-0.5 -2
t-0.5 -2z" />
    <glyph glyph-name="FL02DCh" unicode="&#x2dc;" horiz-adv-x="330" 
d="M213 721q13 5 26.5 16.5t18.5 40.5q3 -3 9.5 -12t13.5 -18.5t12 -19t5 -13.5l-3 -8l-6 -6t-11.5 -12.5t-14.5 -16t-14 -15.5q58 -28 85.5 -41.5t32 -17.5t-9 0.5t-37 12.5t-52 18t-53.5 17q-2 0 -3.5 0.5t-3.5 0.5q-9 -12 -23 -12q-11 0 -17 5.5t-6 19.5v7v1q-2 -2 -3 -2
q-6 -3 -13.5 -6.5t-14 -10t-11.5 -16.5t-6 -26q-4 4 -11 12.5t-14 18.5t-12 19t-5 14l3 8l4 4q5 5 19.5 17.5t22.5 23.5l3 5h-23l18 17q9 20 16 23.5t18 3.5h4l12 17l4 -31q14 -8 27 -19.5t13 -16.5v-2z" />
    <glyph glyph-name="FL2122h" unicode="&#x2122;" horiz-adv-x="880" 
d="M546 425l-53 -14l-15 -155v146l-51 16l-4 -88l-85 97l1 -44q-20 30 -62 30h-9v-21l-8 17q3 3 -1 3q-63 -40 -63 -143q13 -35 62 -35h14h1v1q7 0 11 1q38 0 56 66l2 -72l48 8v46q43 -48 75 -48l12 10l-1 -11l60 17v-4h50q18 35 28 35t24 -32l42 -14h1l45 6v46
q42 -49 74 -49l13 12v157l-49 17l-5 -91l-83 99l3 -140l-3 74q-12 56 -49 56q-18 0 -30 -10q-46 -62 -58 -140zM93 418l-51 -12l-16 -179l59 20l1 34q18 -59 65 -59q7 0 18 4l-1 -1q3 1 12.5 2.5t13.5 2.5l-4 55q-24 -12 -39 -12q-18 0 -18 18q0 30 20 54l-2 -1q18 18 30 18
q4 0 7 -1.5t18 -9.5l8 69q-101 -17 -124 -67zM889 408l-61 17l-8 -140l47 -9zM883 248l-45 19l-35 -28l34 -36zM296 331q0 -13 -8 -37q-27 -9 -29 -9q-10 0 -10 24v9q13 37 29 37q11 0 17 -14q1 -1 1 -10zM622 338h-7l4 8z" />
    <glyph glyph-name="FL0161h" unicode="&#x161;" horiz-adv-x="232" 
d="M108 189h-1v1zM106 192q0 -1 0.5 -1.5l0.5 -0.5zM127 108l-2 2zM42 458q0 1 -1 2zM121 108q-2 -2 -2 -3zM109 530q0 -2 -0.5 -2.5t-0.5 -2.5l0.5 1.5t0.5 3.5zM106 833q-5 -3 -3.5 -2.5t5.5 2.5h-2zM118 68v6h-1h-4q1 -2 0 -3zM123 110q-1 0 -2 -2l1 2q-6 -7 -8 -13t6 -7
q4 0 6 2t2 10l-4 8h-1zM93 32v14q-8 -8 -18 -8q-14 0 -24 19t-16.5 43t-10 47t-3.5 31q0 7 1.5 13t3.5 11l2 6t1 7l-14 22q-1 2 -1 7q0 14 5.5 16.5t13.5 4.5q-2 8 -3 17t-1 14v8q0 27 25 27q14 0 20.5 -15t10.5 -31q0 -1 -0.5 0t-0.5 0l1.5 -2.5t4.5 -9.5q1 -6 3.5 -18.5
t5.5 -26t5.5 -25t3.5 -14.5q6 -7 16.5 -13t19.5 -8q-1 28 -9 57t-20 57.5t-26 55t-26 50.5v-1q-5 5 -8 11v-1q-8 9 -14.5 19t-6.5 27q0 7 2.5 11.5t4.5 7.5q-2 5 -5.5 17t-6.5 24q-2 5 -4 10.5t-3 9.5v7q0 2 -0.5 4t-0.5 4q0 15 5.5 46t17 61.5t29.5 53.5t42 23h2l-4 5l-2 2
q-8 3 -18 9.5t-18.5 13.5t-14 13.5t-5.5 9.5q0 7 1 9q-6 9 -12.5 17.5t-11.5 13.5q-3 4 -6 7.5t-2 2.5q-2 4 -2.5 6.5t-0.5 5.5q0 6 5.5 15.5t12.5 20t14.5 19.5t10.5 13q5 -30 19 -45.5t30 -24.5l6 3q17 6 36.5 19.5t24.5 45.5q3 -4 11 -13t15.5 -19.5t13.5 -20.5t6 -16
q0 -3 -0.5 -5.5t-3.5 -6.5l-4 -4t-5 -4h1q-8 -5 -20 -14.5t-22 -19.5h10v-17q-12 -19 -27 -31.5t-26 -12.5q6 -4 16 -19t21.5 -36t23 -44.5t21 -44t15.5 -36t6 -19.5v-3q0 -8 -2 -12.5t-12 -20.5q-10 3 -19 10l-5 3l-15 -33l-22 23v68q0 4 -3 13.5t-8 9.5h-2v-1
q-3 -2 -4 -4.5t-15 -2.5l-4 4q-2 0 -4 2q-1 -4 -1 -7v-4v-3q0 -1 0.5 -2t1.5 -4q2 -5 3.5 -9.5t1.5 -9.5q-5 -9 -15 -13v-4q0 -12 7 -27t21 -17q17 -25 33 -60t28.5 -73t20 -76.5t7.5 -69.5q0 -17 -4 -35.5t-9 -36.5q-5 -14 -8.5 -29t-4.5 -34q-20 -31 -46 -31q-18 0 -22 5
v-4h-38z" />
    <glyph glyph-name="FL203Ah" unicode="&#x203a;" horiz-adv-x="166" 
d="M75 269q-3 -4 -5.5 -4.5t-4.5 -0.5q-5 0 -14 6t-18.5 13.5t-17.5 15t-11 11.5q26 3 40 16.5t23 28.5q-1 2 -1.5 5.5t-1.5 5.5q-6 17 -16.5 34.5t-39.5 22.5q4 4 12 11.5t17 15t18 13t14 5.5q2 0 4.5 -0.5t5.5 -3.5q2 -2 3.5 -4t3.5 -5v1q5 -8 13 -19.5t16 -22.5v10h16
q17 -11 27.5 -27t10.5 -27q0 -4 -1 -7t-7 -9h-1v-1q-3 -8 -8.5 -18t-11.5 -18t-11.5 -13.5t-8.5 -5.5q-5 0 -9 2q-6 -5 -11.5 -10t-10.5 -9q-5 -5 -9 -8t-5 -4z" />
    <glyph glyph-name="FL0153h" unicode="&#x153;" horiz-adv-x="461" 
d="M393 714v-1h1zM167 757q-7 0 -7 -4q0 -6 7 -6q8 0 8 6q0 4 -8 4zM210 594q1 11 1.5 15.5t1.5 10.5q-5 11 -10.5 19.5t-6.5 10.5q-2 4 -5.5 9t-6.5 10q-2 1 -5.5 2t-6.5 1q1 0 2 1q-12 -5 -19.5 -17.5t-11.5 -30t-5 -38t-1 -40.5q0 -11 0.5 -22t0.5 -20v-24q0 -8 1 -33.5
t3 -53t4.5 -50t5.5 -25.5l29 -30q7 -11 7 -19v-5q4 0 6 1q1 0 4.5 0.5t4.5 0.5q5 -5 11 -6t13 -3q8 -2 16.5 -4.5t17.5 -10.5q2 5 2 9v10q0 8 -2.5 12.5t-17.5 12.5q-1 10 -2.5 33t-2.5 48.5t-2 48t-1 31.5v10l-5 10h1l-6 12t-2 11l-1 -2q0 6 3.5 12.5t8.5 9.5l-4 90
q-2 2 -2 4v-13l-10 10zM290 81q-7 0 -13 10.5t-12 26.5h-1v1q-1 -14 -4.5 -26t-22.5 -23q-11 11 -17.5 15t-9.5 6q-10 4 -16 9t-14 22q-1 2 -3 2q-1 0 -2 -0.5t-3 -0.5h1q-3 -1 -7 -1h-9q-11 3 -23 21t-22 35h-28q0 6 -1 19t-3 20l-21 21q-5 13 -6.5 27t-2.5 28
q-1 18 -3.5 36t-16.5 28q-1 14 -2 31t-3 32q-2 25 -4 48.5t-2 48.5q0 18 4.5 45t12.5 56t21 58t30 51.5t38.5 37t46.5 14.5q8 0 12.5 -3.5t8.5 -8.5l-1 1q3 -3 1 -3h6l34 7h7q6 0 14 -8q2 0 3 1q5 2 20 4t26 3q2 11 8 13.5t18 2.5q2 0 13.5 -8.5t22.5 -17.5h59q6 0 11.5 -7
t9.5 -16t6 -18.5t2 -14.5h-37q7 -7 7 -18v-9l-4.5 -6t-6.5 -12h-69q-1 0 -1.5 -15t-1 -34t-0.5 -37v-25v-23q0 -9 2 -12q28 -3 60 -8t66 -26l-15 -31h-13q-2 0 -6.5 0.5t-9.5 0.5h-15t-7 -2q0 -7 23 -18q-14 -14 -26.5 -19.5t-23.5 -5.5h-15h-3l-2 -4v-121q0 -5 -5 -17
t-10 -23q15 3 27.5 4t27.5 1h29q2 0 5 -0.5t6 -0.5h19q14 -5 16 -10.5t2 -15.5q0 -2 -0.5 -3t-0.5 -3v-7q-7 -6 -11 -7.5t-8 -2.5q-14 -4 -27 -10h18v-23q0 -15 -15.5 -21t-37.5 -11q-18 -4 -35 -9t-17 -16q0 -4 9 -25h-20q-1 0 -2 -0.5t-3 -0.5l-6 3.5t-13 8.5q-1 -7 -3 -9
t-10 -2z" />
    <glyph glyph-name="FL017Eh" unicode="&#x17e;" horiz-adv-x="257" 
d="M87 264v1l-1 -1h1zM224 636v-1l1 1h-1zM134 847q-5 -3 -4 -2.5t6 2.5h-2zM218 637q-3 0 -3 -1l-2 -2l6 3h-1zM222 629l2 6l2 -6h-4zM144 687l4 -14h1l1 1q0 1 1 2zM211 663q5 0 7 4l-9 10q-7 -1 -7 -7q0 -7 9 -7zM128 136l2 -19h4h2l1 1l2 7q0 8 -1.5 10t-8.5 2zM70 153
q8 0 8 8l-1 4q-1 2 -3 4l-1 -1v1h-1q0 1 -1 1l-6 -1q-2 -1 -2.5 -2t-0.5 -6q0 -8 8 -8zM198 108q8 0 8 6q0 9 -8 9q-9 0 -9 -9q0 -6 9 -6zM213 630l1 -4q1 -4 6 -4l4 1q2 2 3 2.5t1 3.5q0 6 -3 7l5 15q-2 2 -3.5 2.5l-1.5 0.5q-4 0 -7 -3l6 -15q-2 1 -5 1l2 1q-6 0 -6 -2
l-2 -2v-4zM59 829q-4 4 -6.5 7.5t-1.5 2.5q-3 4 -3.5 6.5t-0.5 4.5q0 6 5.5 16t13 20.5t15 19t10.5 12.5q5 -29 19.5 -44.5t29.5 -24.5q2 1 3 1q2 0 4 1q9 3 18.5 8t18.5 12.5t15.5 18t8.5 26.5q3 -3 11 -12t16 -19.5t14 -20.5t6 -16q0 -3 -0.5 -5.5t-3.5 -6.5l-4 -4t-5 -4
h1l-20 -15t-23 -19h10v-17q-11 -19 -27 -31.5t-27 -12.5q-4 0 -7 1t-9 7q-1 0 -1 2q-9 3 -19 9.5t-18.5 13.5t-14 13t-5.5 9q0 8 1 10q-7 9 -13 17t-11 14zM143 625l3.5 -3.5t2.5 -3.5v1q0 2 -0.5 4t0.5 4h-54q-5 0 -10 4.5t-7 10.5l-2 4t1 0l-3 9q0 4 1 7q-11 0 -22 2
t-19 9l-11 12q0 10 5 23q2 8 8 11t8 3q20 -1 33 -1h22q-2 -2 7 -12q9 10 12 11.5t8 1.5q-3 0 1 2q6 6 13 6h5q9 0 22.5 -2.5t22.5 -14.5l2 2q11 0 16 -5h57v-47h-28q5 -4 8.5 -9l3.5 -5q0 -1 -1 -1v-1q2 -8 4 -13q0 -2 0.5 -3t0.5 -2v-3l-9 -33l-18 -61q0 -8 -1 -10v-26
l-5 4q-2 -5 -6 -7l-42 -141q-4 -4 -12.5 -12t-11.5 -14q7 -5 13 -11t7 -12v1l1 -8q0 -2 -2 -14t-5 -25.5t-6.5 -26t-7.5 -16.5q-4 -3 -7 -6.5t-7 -8.5q6 -4 10 -10l-11 -13q11 0 24 -3t20 -17h76v-48h-30q0 -8 -3 -12.5t-6 -8.5q-1 -1 -1.5 -3t-0.5 -11l-122 -1q-6 0 -11 5
l-3 -3q-22 0 -22 16l-0.5 0.5t-0.5 2.5q-1 3 -1.5 6.5t-2.5 8.5q-13 2 -24 10q-3 4 -5.5 7.5t-2.5 8.5q0 1 1.5 6.5t4 11t6 10.5t8.5 6l7 28l18 84q-8 3 -8 17q0 17 16 17l31 141h11q3 0 8 -1.5t10 -3.5v4v8q-1 3 -1 6q0 1 -1 1v1q-7 5 -7 15l-1 7q0 2 2.5 14.5t5.5 26.5
t6 26t5 14q5 2 8 10q-16 5 -23 18z" />
    <glyph glyph-name="FL0178h" unicode="&#x178;" horiz-adv-x="277" 
d="M265 736q0 -1 0.5 -1.5t0.5 -1.5zM117 212q0 1 -1 0h1zM230 542q-8 0 -8 -9q2 -5 7 -5q6 0 6 7v3q-1 4 -5 4zM103 290q6 0 8 7q0 7 -7 7q-6 0 -6 -6v-3q2 -5 5 -5zM249 669q-7 0 -7 -7l1 -4l1.5 -3t3.5 -1l4 1q3 1 3 7q-1 5 -6 7zM84 164q7 0 7 7l-1 3q-2 4 -5 4l-4 -1
q-4 -2 -4 -6q0 -7 7 -7zM79 146q8 0 8 7l-1 4q-2 4 -6 4q-8 0 -8 -7q0 -8 7 -8zM254 686q-8 0 -8 -7v-3q1 -4 8 -4q6 0 7 6v2q-2 6 -7 6zM149 806q1 2 1.5 5.5t2.5 8.5q4 12 9 31t7 34q7 1 15 2t19 1q21 0 39 -6.5t18 -14.5q0 -10 -12 -14q1 0 1 -1h1v1q4 -6 8 -14.5
t4 -17.5q0 -8 -2 -12v2q-4 -10 -9.5 -15t-11.5 -9h1q-5 -3 -8.5 -7.5t-8.5 -21.5q-6 1 -18 5.5t-24.5 10.5t-22 13t-10.5 13zM21 792q1 5 4.5 17t9.5 27q4 13 6.5 28.5t3.5 23.5q10 3 18.5 4t16.5 1q11 0 22.5 -2t21 -5.5t15.5 -7.5t6 -8q0 -12 -15 -15q2 -4 4 -6v1
q5 -8 9 -17t4 -20v-5t-2 -7q-4 -11 -9 -16.5t-12 -10.5q-5 -5 -10 -10.5t-9 -24.5q-8 1 -21.5 6t-27 12t-24 14.5t-11.5 15.5v5zM155 178q-5 2 -13 10v-4q0 -15 -3 -28t-15 -24q1 -1 1 -4v-2q0 -10 -5 -13t-11 -3q0 -2 -1 -4l-2 -4q-1 -1 -4 -7q-2 -3 -6 -8.5t-6 -7.5
q-23 0 -23 15q-2 6 -5.5 18t-7 24.5t-6 22.5t-2.5 13v5l11 31v-1q14 50 23.5 100.5t14.5 104.5l3 4q-13 16 -27 36t-25 39.5t-19 38t-9 31.5v6q-1 4 -1 10q0 5 -1 8v10q5 11 11 19.5t25 11.5v6q-4 19 -7.5 45t-5.5 45h16q11 0 18.5 -6t12.5 -11q0 1 7 1q4 -26 9 -40.5
t10 -25.5q6 -14 12 -27t8 -28l8 -64l23 -54q2 0 4 1v2q0 2 -0.5 5t-0.5 6q0 2 -0.5 3t-0.5 2q-2 6 -2 9l-0.5 0.5t-0.5 1.5q-8 4 -8 15l-1 6q0 3 2.5 15.5t6 27.5t8 28t8.5 16q6 3 9 9q-19 5 -29 20l21 22l6 -6t6 -7v5q0 15 2.5 28.5t14.5 23.5v4v2q0 10 4.5 13.5t10.5 3.5
q1 4 5 8l-2 -2q1 1 2 3t3 5l-1 -1q2 3 3.5 6.5t8.5 10.5q21 0 23 -17q2 -5 5.5 -16t7 -23t6 -22.5t2.5 -13.5v-4l-10 -34l-91 -247q-5 -5 -8.5 -18.5t-5.5 -24.5q8 -6 8 -13v2l1 -8q0 -3 -2.5 -16t-7 -28t-9.5 -28t-9 -14q-6 -6 -7 -11q9 -2 17 -6t15 -9z" />
    <glyph glyph-name="FL00A1h" unicode="&#xa1;" horiz-adv-x="139" 
d="M101 551q0 18 -9 21t-14 3h-12v-17q0 -9 2 -13l-6 3q-2 7 -3 9q-2 7 -6 12t-27 12v-88q2 -2 4 -6l3 -6q-3 0 -3 -3v-16l11 -11q1 -5 1.5 -17.5t0.5 -15.5q0 2 -0.5 -5t-1.5 -13q-2 -6 -2 -13v-9v-10q0 -5 -0.5 -10t-0.5 -12q0 -6 0.5 -11.5t0.5 -10.5v-5q-6 -8 -6 -12v-9
q0 -12 2 -20l4 -16q1 -6 3 -16.5l2 -10.5l5 -4q1 -14 2 -21.5t1.5 -12.5t0.5 -9v-9v-11q-10 -10 -10 -24q0 -5 2 -14.5t7 -24.5q-1 0 -0.5 -4t2.5 -6q5 -16 22 -23.5t39 -7.5l-4 19q0 2 -1 7t-3 9l19 52q-1 4 -1.5 6.5t-0.5 7.5q-1 8 -2 17t-2 14v-2q0 1 -0.5 2.5t-0.5 3.5
v15q0 4 1.5 8t8.5 8v21q0 17 -0.5 33t-1.5 32t-1.5 31t-0.5 30q0 12 3 21q0 5 1 12.5l1 7.5v7q0 8 -2.5 15t-11.5 10q0 4 0.5 9t0.5 11t-0.5 11t-0.5 10v10q0 2 -1 8t-3 13l1 -1q-2 4 -2 5v6q0 7 -1.5 11t-8.5 6v1zM137 723q-2 8 -11.5 16.5t-21.5 15.5t-24.5 12t-18.5 7
q-6 -20 -10.5 -25.5t-9.5 -10.5q-6 -5 -11 -11t-8 -18q-1 -5 -1 -7v-5q0 -11 3.5 -21t8.5 -18v1q1 -3 3 -7q-8 -2 -11.5 -7t-3.5 -9q0 -9 20 -16t41 -7q13 0 33 6q1 8 3 23.5t6 29.5q5 17 8.5 30t4.5 18v3zM82 442v-3l-11 8l4 3z" />
    <glyph glyph-name="FL00A2h" unicode="&#xa2;" horiz-adv-x="304" 
d="M168 711q-2 0 -4 -2l-2 -4l2 -4q2 -2 4 -2q7 0 7 7q0 5 -7 5zM163 630q-17 -13 -21.5 -42.5t-4.5 -59.5q0 -9 0.5 -18.5t0.5 -17.5v-20q0 -7 1.5 -28.5t3.5 -45t4.5 -43t4.5 -21.5q0 -2 9 -6v14v50q0 25 -1 50q-1 26 -1.5 52t-0.5 54v27q4 5 4.5 12t0.5 16v27zM219 555
v-1q2 -20 3.5 -39.5t1.5 -41.5v-14q0 -9 -3 -15v-102v-11q0 -8 -1 -19q-1 -9 -1.5 -16.5t-0.5 -12.5q2 -1 4 -1h5q13 -2 25.5 -6t23 -17.5t18.5 -40.5t12 -75v-17q-4 0 -16 16t-22 31q-1 -2 -1 -6v-6q0 -14 -4.5 -25t-22.5 -19q-4 3 -7 5.5t-5 4.5v-113q-9 7 -14 12t-9 10
v-5h-13q-7 0 -13 4t-6 21v2q0 1 2 6l3 8l1 1q-10 1 -10 16v16v3t-1 7q-1 8 -1.5 17t-0.5 11v10q0 2 -0.5 4t-0.5 4h-9q-4 1 -9.5 6t-11.5 12t-12 15t-11 15h-28q0 8 -1 18.5t-3 15.5l-20 19q-8 12 -9.5 24.5t-1.5 25.5q-1 14 -3.5 28.5t-16.5 23.5q-1 11 -1.5 24.5
t-2.5 24.5q-3 22 -5.5 44.5t-2.5 45.5t9.5 59.5t27.5 72t45 63t63 31.5l9 66q-2 7 -2 14v13l-4 23q20 0 32.5 -12t15.5 -36q1 -17 3 -27q1 -16 1.5 -27t0.5 -21v-2l18 4h6q4 0 11.5 -6t14 -14t11.5 -16t5 -12v-111q3 -6 3 -12q0 -5 -4.5 -9.5t-9.5 -4.5q-4 0 -12.5 6.5
t-24.5 24.5q-1 -3 -1.5 -6.5t-2.5 -8.5h-13z" />
    <glyph glyph-name="FL00A3h" unicode="&#xa3;" horiz-adv-x="390" 
d="M168 506l7 5l-1 1zM353 182q-1 6 -3 7.5t-6 1.5q-5 0 -7 -4t-2 -6q0 -8 9 -8q2 0 4.5 0.5t3.5 2.5zM245 714q14 0 29 -12q6 0 12.5 -3t12.5 -8.5t10 -12t4 -12.5q0 -2 -3 -10t-7 -15q1 -6 4 -10q1 -2 1.5 -3.5t2 -6.5t4 -15.5t5.5 -28.5q-39 0 -54 7.5t-24 13.5
q-8 6 -10 6t-8.5 -7t-19.5 -25v1q-2 -2 -2 -6q0 -3 -1 -7q-1 -6 -2 -11t-5 -10h1h-1v-1q3 -5 6 -11t7 -12q2 -1 5.5 -1.5t5.5 -1.5l146 12v-26q0 -6 0.5 -13t0.5 -13v-36q0 -10 -4.5 -14.5t-16.5 -4.5q-8 0 -12.5 0.5t-12.5 1.5q-7 1 -16.5 1.5t-21.5 2.5q-16 -11 -28 -13.5
t-23 -2.5h-27l-10 -13l-6 1q-8 -17 -10 -38t-2 -30l-14 -3v-1q0 -7 2.5 -13t6.5 -13q5 -9 8.5 -18.5t3.5 -18.5v-4l18 -16q4 2 10 4q-3 0 -3 1q9 4 23 8.5t31.5 8.5t36 7.5t35.5 6.5q6 1 14.5 2.5l17 3t15.5 3t11 2.5q-6 -30 -12.5 -57.5t-13 -49t-12 -35.5t-7.5 -15
l-103 -6h-1q-8 -2 -14.5 -2.5t-14.5 -0.5h-27l-9 -14l-143 44l0.5 5.5t0.5 6.5q0 2 0.5 2.5t0.5 2.5q0 -1 -5.5 4t-13.5 13q4 0 6 -2q-2 4 -4 7.5t-2 6.5q0 10 9 17t20 7q9 1 16.5 2t14.5 2q3 0 5.5 0.5t5.5 0.5v10q1 5 1 8v19q0 6 -1 13t-5 14q-2 3 -6 10t-7 12q-5 7 -7 10
t-2 4v6v4q0 1 0.5 2t0.5 3v2l5 7t10 11l-1.5 -1.5t-0.5 -5.5q2 6 2 8q0 10 2.5 20t13.5 15v3q0 9 2 12.5t4 7.5v0q0 1 1 2l-49 15q0 1 0.5 6.5t0.5 6.5q0 2 0.5 2.5t0.5 1.5l-5.5 5t-13.5 13q2 0 6 -2q-6 7 -6 13q0 10 8.5 17t19.5 8q27 2 44.5 4t31.5 3v25q0 40 14 80
t47 71v-1q1 2 2.5 3t4 3.5t7 6t12.5 9.5h20v2z" />
    <glyph glyph-name="FL00A4h" unicode="&#xa4;" horiz-adv-x="348" 
d="M55 258q0 -8 4 -24t15 -32v-7q0 -1 0.5 -3t0.5 -3q5 -14 11.5 -21t26.5 -9v-9q-2 -24 -3 -54.5t-1 -54.5q21 0 31.5 8t16.5 15q1 1 10 7q0 28 3 45.5t8 32.5q3 10 4.5 17t3.5 12q9 2 20 5t22 8v-4h9q1 -2 1.5 -3.5t1.5 -3.5q-14 -3 -23 -13l1 -16l15 -17q3 4 6 7t6 7v-1
q2 -19 4.5 -36.5t16.5 -29.5v-5q0 -18 14 -20q1 -2 1.5 -3.5t2.5 -3.5l5 -10q2 -3 7.5 -10.5l5.5 -7.5q23 0 23 17q1 4 3 18t4.5 30t4 30.5t1.5 18.5v5l-13 38v-1q-6 14 -9 29q-2 5 -3.5 12.5t-3.5 14.5l11 11v16q3 3 4.5 7t3.5 8q0 7 -1 12.5t-2 12.5q-1 2 -1 3q0 2 -1 4h8
q5 17 8 26t4.5 14.5t2 8t1.5 6.5l-3 -4q1 3 3 9.5t3 13t2 11.5t1 7v39q0 29 -4.5 58.5t-16.5 52.5q-5 5 -9 7.5t-9 3.5q6 17 8.5 31.5t2.5 25.5v8v11v19q0 1 -0.5 3t-0.5 3q-6 11 -11.5 18.5t-20.5 10.5q1 10 1.5 20.5t0.5 21.5q0 18 -1.5 36.5t-6.5 40.5q-20 0 -29 -8
t-13 -14l2 1q-2 -2 -3.5 -4t-2.5 -3q-18 -28 -27.5 -47t-14.5 -40q-9 -2 -18 -5v9l-13 13q-1 17 -8 32t-27 25v6q0 17 -15 19q-2 4 -5 8l2 -1q-1 2 -3 4.5t-4 5.5q-2 5 -7 11.5l-5 6.5q-22 0 -22 -19v3q-1 -5 -3 -19t-4.5 -30t-4 -30t-1.5 -18v-6l14 -38l-1 2q2 -5 3.5 -11
t3.5 -11q2 -10 4 -16q-3 -11 -3 -32h6q-11 -5 -21.5 -12.5t-15.5 -22.5l-4 -10q-7 -26 -12.5 -52.5t-5.5 -55.5v-7v-6q-9 -3 -9 -13q0 -12 10 -15v-1q-1 -3 -1 -9q0 -8 4.5 -13.5t10.5 -10.5l6 -6v-25q2 -7 6.5 -16.5t11.5 -20.5q2 -5 5 -9t5 -9q-16 -1 -19 -9.5t-3 -16.5
v-5zM153 437q0 17 4.5 32.5t11.5 30.5q5 14 10 30t7 36q-2 5 -2.5 6.5t-0.5 4.5l-1.5 3l-0.5 1v2q0 1 9 2t15 1h4q8 -2 11 -13t5 -20q0 -7 4 -15q2 -8 7 -12.5t10 -7.5q2 -2 3.5 -3t1.5 0v-7q0 6 -8 4q0 -47 -4.5 -98.5t-15.5 -96.5l-2 -4l1 1q-3 -4 -7 -10t-8.5 -12
t-8.5 -10t-7 -4l-1.5 3.5t-2.5 5.5q-2 2 -3 4q-1 4 -2 8.5t-3 9.5q-10 32 -18 64t-8 64zM311 413l3 8q2 2 5 2t5.5 -3.5t2.5 -5.5q0 -11 -8 -11t-8 10zM308 493q-7 0 -7 9q0 8 7 8t7 -8q0 -9 -7 -9zM91 745q8 0 8 -6t-8 -6t-8 6t8 6zM307 105q-8 0 -8 5q0 6 8 6t8 -6
q0 -5 -8 -5zM301 126q-8 0 -8 6t8 6q7 0 7 -6t-7 -6zM97 724q8 0 8 -6t-8 -6q-7 0 -7 6t7 6zM278 281q0 1 2 3l13 -2v-11l-3 -3zM173 222l10 -6h-12zM202 233l2 -7l-6 3zM60 440h3l-11 -10q2 3 4 5.5t4 4.5zM320 460q-1 0 -1 -1v0z" />
    <glyph glyph-name="FL00A5h" unicode="&#xa5;" horiz-adv-x="336" 
d="M145 425v-1h-1zM142 257l-1 -4l4 1zM32 236q1 -2 2 -2.5t2 -2.5q2 -4 5.5 -7t7.5 -6q-10 8 -14.5 13t-2.5 5zM149 272q2 0 4.5 1.5t3.5 5.5q-2 5 -8 5t-6 -5v-3q1 -4 6 -4zM298 734q-7 0 -7 -6v-3q1 -3 6 -3l4 1q4 2 4 6q-1 4 -7 5zM123 121q0 -5 8 -5q6 0 6 6v3
q-2 3 -7 3l-4 -1l-2 -2t-1 -4zM299 754q-4 -2 -4 -4v-3q1 -3 7 -3t8 6q-2 5 -7 5zM125 95q7 0 7 5v3q-1 4 -7 4q-8 0 -8 -7q0 -5 8 -5zM225 718q8 -6 14 -14v1v7q0 17 2.5 32.5t16.5 29.5q-1 2 -1 7v2q0 16 14 18q1 3 2 5.5t2 4.5l-1 -1q2 2 3.5 5.5l1.5 3.5q2 5 4 9.5
t8 10.5q24 0 24 -19v-1t1 -2q2 -8 5.5 -21.5t7 -27.5t6 -25.5t2.5 -15.5v-5l-11 -38l-25 -83q1 -2 1 -3v-1q0 -1 -1 -1v-1v-32l-7 6q0 -12 -7 -15h-1l-48 -160q23 -3 47 -9t48 -17l-21 -30h-66q0 -3 32 -15q-15 -13 -27.5 -17.5t-23.5 -6.5v-2q0 -3 -1.5 -15t-3.5 -26
q22 -2 47 -6t59 -12l-26 -28q-1 0 -1 -4v-14q-6 -7 -7.5 -8t-6.5 -1t-15.5 9t-18.5 16l3 -16q-9 -3 -19.5 -5t-23.5 -2h-20l-3 -9q18 -3 33 -18l-20 -24q-9 4 -15 12v-3v-4q0 -19 -3 -35.5t-15 -27.5q1 -2 1 -7v-2q0 -8 -5.5 -13t-10.5 -5q-1 -2 -1.5 -5t-2.5 -5l1 1
q-1 -2 -1.5 -5t-1.5 -5v1q-2 -5 -6 -10.5t-7 -8.5q-23 0 -23 17q-3 7 -6.5 21.5t-7.5 29.5t-6.5 27.5t-2.5 15.5v5l11 39v-2q0 5 4 21l-1 -2q0 4 1 7l-56 13q0 1 0.5 6.5t0.5 6.5v1q-1 0 -5 4l-9 9q-2 6 -2 8q0 5 7.5 12t18.5 8q20 2 34.5 2.5t25.5 1.5q2 9 3.5 18.5
t2.5 20.5l-86 27v12q0 2 0.5 2.5t0.5 2.5q0 -1 -5.5 4.5t-12.5 13.5q3 0 5 -2q-5 7 -5 13q0 10 8 17t19 8q29 4 47.5 6t32.5 2h8q0 3 3 11q1 1 3 5v0q1 0 1 1q-14 20 -28 44.5t-26 48.5t-20 46.5t-9 39.5v6q-1 3 -1 7v6q0 5 -1 9v12q4 14 11.5 24t27.5 13q-1 3 -1 10
q-4 23 -7.5 54t-6.5 55h17q10 0 18 -7t13 -13l7 -7q2 -25 8 -42t12 -32q5 -15 10.5 -30.5t8.5 -36.5l7 -77l25 -70q2 0 3 1q1 2 1 6q0 2 -0.5 5.5t-0.5 6.5q0 2 -0.5 4t-0.5 4q-2 6 -2 12q-1 1 -1 4q-8 6 -8 16l-1 10q0 3 2.5 18t6 32.5t8 32.5t8.5 18q7 4 11 18
q-19 4 -31 18z" />
    <glyph glyph-name="FL00A6h" unicode="&#xa6;" horiz-adv-x="148" 
d="M57 -128q0 -18 8 -21.5t16 -3.5h14v14q0 10 -2.5 21t-16.5 12q2 3 2.5 5.5t2.5 4.5v-1v5l7 -7t7 -6q4 -1 8 -8l-1 2q2 -6 4 -16q1 -5 2 -9.5t4.5 -8t10.5 -7.5t20 -8v129q-2 4 -6 12.5t-4 9.5l3 6q1 2 1.5 5l0.5 3v13l-12 13q-1 4 -1.5 13.5t-1 20t-1 19.5t-0.5 13
q0 2 0.5 11.5t2.5 20.5q1 11 1.5 20t0.5 11q0 5 0.5 31t1.5 61q0 22 0.5 45.5t1 43t0.5 33.5v19v21v75q0 23 -0.5 44t-0.5 33v4q6 7 6 18v13q0 16 -1.5 29.5t-3.5 26.5q-2 9 -3.5 18.5t-2.5 24.5l-14 12q5 0 4.5 15.5t-1.5 33.5q-1 10 -1 19v17v21q12 13 12 34q0 10 -2 20
t-4 23q-1 8 -2.5 16.5t-3.5 18.5q-6 23 -25 35t-43 12l4 -24q0 -5 1 -12.5t3 -14.5l-21 -86q1 -6 1 -9t1 -11q1 -11 2 -24.5t2 -24.5v-7q0 -3 0.5 -7t0.5 -7v-13q0 -9 -2 -17.5t-10 -13.5v-88q0 -39 0.5 -92t1.5 -110q1 -56 1 -109v-90v-57q0 -7 -1 -14.5t-3 -15.5
q-1 -8 -1.5 -16.5t-0.5 -17.5v-13q0 -11 2.5 -19t13.5 -15v-4v-35v-34v-16l1.5 -10t2.5 -18q0 -9 2 -11v-8q0 -11 2 -17.5t16 -6.5l-5 -5q-2 -7 -2 -8v-4zM83 54l5 -4l-1 -1z" />
    <glyph glyph-name="FL00A7h" unicode="&#xa7;" horiz-adv-x="348" 
d="M54 459l-1 1zM292 275q0 3 -1 4v-1q0 -1 0.5 -1.5t0.5 -1.5zM309 440l12 -11q-3 3 -5.5 6t-3.5 5h-3zM94 281q0 1 -0.5 1.5t-0.5 1.5l-13 -2v-11l2 -3zM275 724q-7 0 -7 -6t7 -6q8 0 8 6t-8 6zM71 126q9 0 9 6t-9 6q-6 0 -6 -6t6 -6zM66 105q7 0 7 5q0 6 -7 6q-9 0 -9 -6
q0 -5 9 -5zM282 745q-9 0 -9 -6t9 -6q7 0 7 6t-7 6zM65 493q6 0 6 9q0 8 -6 8q-8 0 -8 -8q0 -9 8 -9zM58 421q-2 2 -4 2q-4 0 -6.5 -3.5t-2.5 -5.5q0 -11 9 -11q8 0 8 10zM220 437q0 17 -5.5 32.5t-10.5 30.5q-6 14 -11 30t-7 36q2 6 2 7q0 2 2 5l-1 -3q1 3 2 5.5t1 0.5v2
q0 1 -9.5 2t-14.5 1h-3q-9 -1 -12.5 -12t-5.5 -21q-2 -6 -2.5 -11t-4.5 -9l4 7q-2 -9 -7 -14t-10 -8q-6 -4 -6 -3v-6q0 4 9 3q0 -47 4 -99t15 -97l3 -3l-1 1q3 -4 6.5 -10t8 -12t9 -10t7.5 -4q-1 0 0 3.5t3 5.5l2 4t3.5 8.5t3.5 9.5q10 32 18 64t8 64zM140 134l-7 7t-5 7v-1
q-2 -19 -5 -36.5t-17 -29.5v-5q0 -18 -14 -20q0 -4 -3 -7q-1 -2 -3 -4.5t-4 -5.5q-2 -4 -3 -7t-9 -11q-22 0 -23 17q-1 4 -3 18t-4.5 30t-4 30.5t-1.5 18.5v5l14 38v-1q2 8 4.5 15t3.5 14q2 5 3.5 12.5t3.5 14.5l-10 11v16q-5 5 -9 15q0 4 0.5 11t2.5 14q0 2 0.5 3.5
t0.5 3.5h-6q-5 17 -8 26t-4.5 14.5t-2 8t-1.5 6.5l2 -4q-1 3 -2.5 9.5l-3 13t-2.5 11.5t-1 7v39q0 29 5 58.5t17 52.5q6 7 16 11q-5 17 -7.5 33.5t-2.5 30.5l33 23l-1 -1l8 7q9 23 29 40.5t45 17.5q15 0 34 -11l10 11q2 17 8.5 32t26.5 25v6q0 17 16 19q2 6 4 8l-1 -1l5 10
q2 4 7.5 11l5.5 7q22 0 22 -16q1 -5 3 -19t4.5 -30t4 -30t1.5 -18v-6l-13 -38v2q-1 -5 -3 -11t-4 -11t-2.5 -9t-2.5 -7q4 -11 4 -32h-5q10 -3 20 -10t17 -25l2 -10q8 -28 14 -55t6 -53q0 -1 -0.5 -3t-0.5 -4v-5q9 -5 9 -14q0 -12 -9 -15v-1h-1q1 -2 1.5 -3.5t0.5 -5.5
q0 -8 -4.5 -13.5t-11.5 -10.5l1 1q-5 -5 -6 -7v-25q-2 -7 -7 -16.5t-11 -20.5q-3 -5 -5.5 -9t-4.5 -9q15 -1 18.5 -9.5t3.5 -16.5v-5q0 -3 -1.5 -9.5t-6 -12.5t-13.5 -10.5t-23 -4.5h-10q-1 -28 -10.5 -38.5t-24.5 -10.5q-10 0 -20.5 3.5t-21.5 8.5t-22 9t-19 4h-1v-10h-10
l-2 -4t-1 -4q19 -4 29 -20z" />
    <glyph glyph-name="FL00A8h" unicode="&#xa8;" horiz-adv-x="251" 
d="M145 675q1 2 2 4.5l3 7.5q3 11 8 27t7 29q7 0 15 1t19 1q20 0 38 -5.5t18 -11.5q0 -9 -11 -13v-1h1v1q5 -5 8.5 -12t3.5 -15q0 -7 -2 -10v1q-3 -8 -8.5 -12.5t-11.5 -8.5q-4 -2 -7.5 -6.5t-8.5 -18.5q-6 1 -18 5t-24.5 9.5t-22 11t-10.5 11.5zM19 663q1 4 4.5 14t9.5 24
q4 11 6.5 24t2.5 20q23 5 36 5q22 0 43 -6.5t21 -13.5q0 -11 -15 -13q2 -4 4 -5v1q5 -8 8.5 -15.5t3.5 -16.5q0 -5 -1 -10q-4 -10 -9 -14.5t-12 -9.5q-5 -4 -10 -9t-9 -21q-8 1 -21.5 5.5t-26.5 10.5t-23.5 12.5t-11.5 12.5v5z" />
    <glyph glyph-name="FL00B6h" unicode="&#xa9;" horiz-adv-x="1273" 
d="M1275 383q0 27 -83 67q33 16 33 55v19l-145 44q14 17 14 53l-24 28h-185l6 53l-71 11l-157 -35l10 27l-45 39l-149 -85l-72 56q-27 -14 -51.5 -40t-52.5 -70l-82 35h-7q-49 0 -50 -128l-96 11l-9 -75l38 -53l-79 -15l11 -64l80 -42l-42 -40q0 -50 35 -52l108 -22l-14 -16
v-52l210 -20l-8 -40l37 -24l193 34v-49l40 -14l150 88l48 -54l53 13l75 95q24 -16 42 -24t39 -8q30 0 44 30l8 95l68 -14q40 12 40 52v7q0 5 -1.5 10t-3.5 8l1 -1l-37 53h58l22 45q0 2 0.5 4.5t0.5 3.5v1zM1185 253l-108 22v-2l-36 16l-36 -30l35 -39l36 38l-7 -112l-96 38
l-81 -110l-70 52l-145 -81l4 15l-34 48l-188 -43l22 58l-212 9l59 49l-187 46l81 41l-126 73l87 9l-66 96l-4 19l102 -9l12 119q46 -29 76 -29q5 3 7.5 4t13.5 3l83 101l62 -52l148 84l4 -2l9 -62l206 34l-15 -60h202l-59 -50l204 -48l-101 -33l145 -85l-105 -9
q35 -46 54.5 -75t23.5 -43zM746 460l-53 -14l-16 -168v158l-51 17l-4 -95l-86 105l1 -48q-20 33 -63 33h-8v-24l-8 20q3 3 -1 3q-64 -43 -64 -156q14 -38 62 -38h14h1v1q7 0 11 1q39 1 57 73l2 -79l48 9v49q44 -52 76 -52l12 12l-1 -13l61 20v-5h50q20 38 28 38q11 0 25 -35
l42 -15h1l46 6v50q41 -53 74 -53l13 13v170l-49 19l-5 -98l-84 107l3 -153l-3 81q-12 60 -49 60q-18 0 -30 -10q-47 -67 -59 -152zM288 454l-51 -14l-16 -193l59 21l1 37q19 -64 66 -64q8 0 19 4l-1 -1q3 1 12 3t14 2l-5 59q-23 -12 -39 -12q-18 0 -18 19q0 33 20 59l-2 -1
q20 20 30 20q4 0 7 -1.5t19 -10.5l8 74q-102 -18 -126 -72zM1093 442l-62 18l-8 -152l47 -9zM494 359q0 -16 -9 -40q-27 -11 -28 -11q-11 0 -11 27v9q14 41 29 41q11 0 18 -16q1 -1 1 -10zM822 366h-7l4 9z" />
    <glyph glyph-name="FL00ABh" unicode="&#xab;" horiz-adv-x="291" 
d="M230 276q4 -3 6.5 -3.5t4.5 -0.5q6 0 15.5 5.5t19 13t18 15t12.5 11.5q-28 3 -43 17t-24 28l3 12q7 17 18.5 34.5t41.5 22.5q-4 4 -12.5 11.5t-18.5 15t-19.5 13t-14.5 5.5q-3 0 -5.5 -0.5t-5.5 -3.5q-2 -2 -3.5 -4t-3.5 -6q-5 -8 -14 -19.5t-18 -21.5v11h-8
q-6 5 -14 11.5t-16 12.5t-15.5 10t-11.5 4q-3 0 -5.5 -0.5t-5.5 -3.5q-2 -2 -8 -10q-5 -8 -13.5 -19.5t-17.5 -21.5v11h-16q-18 -12 -29.5 -28t-11.5 -27q0 -3 0.5 -6t3.5 -6l4 -4v-1h1q3 -8 9 -18t12.5 -18t12.5 -13.5t9 -5.5q6 0 10 2q6 -5 12 -9.5t12 -9.5h-1q6 -5 10 -8
t5 -4q4 -4 6.5 -4.5t4.5 -0.5q5 0 13 4.5t16.5 10.5t16.5 13t14 12q2 0 6 2q6 -5 12.5 -9.5t11.5 -9.5h-1q6 -5 10.5 -8t4.5 -4zM123 356q2 8 4 12q1 1 3 7q0 -5 4 -10l4 -4h1q4 -11 12.5 -23.5t16.5 -21.5q-17 7 -27 18t-18 22z" />
    <glyph glyph-name="FL00ACh" unicode="&#xac;" horiz-adv-x="252" 
d="M174 305q-5 0 -5 -7l8 -9l6 6zM187 216q-8 0 -22.5 2t-17.5 14q-7 1 -8.5 4t-1.5 9q-2 2 -2.5 3t-0.5 4q-2 3 -2 6v5v5q0 3 -0.5 6t-0.5 7v7q-10 3 -12 7t-2 12v4q0 7 2 13q0 4 1 7l-84 25q0 1 0.5 5.5t0.5 5.5q0 2 0.5 2.5t0.5 2.5q0 -1 -5.5 4t-12.5 12q3 0 5 -2
q-5 8 -5 13q0 8 8 15t18 8l6 2t7 1q12 4 25.5 6.5t30.5 2.5q23 0 50.5 -6.5t65.5 -25.5q0 -3 3 -10t8.5 -15.5t12 -16t13.5 -10.5q-17 -13 -29.5 -17t-23.5 -5q-2 -8 -2 -9v1q-1 -4 -1.5 -6.5l-0.5 -2.5v-16l14 -6v-10v-5q2 -2 2.5 -3t2.5 -2v-55q-24 4 -29 7t-7 8v-1
q-1 1 -1.5 2.5l-0.5 1.5h-5v-3v-13z" />
    <glyph glyph-name="FL00ADh" unicode="&#xad;" horiz-adv-x="246" 
d="M34 291l109 -41l7 14h3h14q11 0 22.5 4.5t25.5 16.5q-23 9 -23 14q0 2 7 2h15q5 0 9 -0.5t6 -0.5h12l14 26q-32 17 -63 22t-57 7q-14 8 -30 8q-8 0 -16.5 -1t-20.5 -3q-5 -1 -10.5 -1.5t-12.5 -1.5q-10 -1 -16.5 -8t-6.5 -15l1 2q-1 -5 1.5 -10t6.5 -10h-1l4 -8v-16z" />
    <glyph glyph-name="FL00AEh" unicode="&#xae;" horiz-adv-x="1223" 
d="M323 270q-12 0 -19 3q8 -8 19 -8q3 0 5.5 0.5t5.5 1.5l6 2v1h-17zM794 432q-29 -43 -44 -87l46 88q-1 0 -1.5 -0.5zM225 283l6 1l6 134zM1030 426l-4 -89l13 86zM1183 223q-3 -26 -6.5 -33.5t-6.5 -3.5t-5 16t-3 25zM433 283q-35 0 -36 45q-2 -9 -2 -18v-18q8 -14 36 -14
h7q2 1 8 1q2 0 5 1q16 0 26 17q-35 -14 -44 -14zM802 433l26 -82l-1 43v-3q-9 42 -23 42h-2zM680 288l8 3l6 135l-2 -1zM301 384q31 33 53 33h3l1 5q-79 -18 -79 -78v-15q0 -4 1 -6q1 34 21 61zM879 392q57 -86 86 -104v136l-6 -129l-80 99v-2zM492 380q4 -10 4 -20q1 4 1 9
v10q-9 42 -47 42h-5q-1 -1 -4 -1q-26 -17 -37 -56q19 45 47 45q26 0 41 -29zM539 383q59 -84 89 -100v135h-2l-4 -129l-83 101v-7zM790 331q24 0 40 -33l-1 42h-80q-4 -11 -6 -23l-4 -24h6q21 38 45 38zM1232 358l-101 -9q27 -38 41.5 -62.5t14.5 -38.5h-26v-11q0 -5 1 -10
l-86 16l-8 -133l-111 42l-84 -112l-77 56l-181 -100l14 58l-18 25l-217 -50l26 70l-243 12l72 56l-205 52l100 50l-152 90l122 11l-45 66l-13 57l112 -11l16 138q59 -47 87 -50q3 2 5.5 2.5t10.5 2.5l93 113l68 -58l145 82l29 -15l6 -48l219 37l-17 -67h237l-72 -61l168 -39
l20 -45h-28l-52 -16l109 -64z" />
    <glyph glyph-name="FL00B2h" unicode="&#xaf;" horiz-adv-x="454" 
d="M128 538l264 -1q0 8 1 10t3 3q4 3 8 6.5t4 10.5v1h38v41h-98q-10 12 -27.5 14.5t-30.5 2.5h-6q-4 0 -8.5 -1.5l-7.5 -2.5h1q-2 -1 -3.5 -1.5l-1.5 -0.5q-5 0 -8 2.5t-7 6.5q-7 6 -16 11.5t-34 5.5q2 -11 3 -15l1 -4q0 -1 2 -7h-145q-2 0 -9 -3t-9 -8v1q-1 -1 -1.5 -2.5
t-1.5 -2.5q-5 -7 -5 -13l2.5 -4t5.5 -7l4 -3q14 -7 28.5 -8.5t28.5 -1.5q-1 -3 -1 -7l3 -7q3 -5 10.5 -10.5t12.5 -5.5zM378 568q-9 0 -9 5q0 7 9 7q6 0 6 -7q0 -5 -6 -5zM296 582l-2 -3l-5 13q5 -1 6 -2.5t1 -7.5z" />
    <glyph glyph-name="FL00B0h" unicode="&#xb0;" horiz-adv-x="116" 
d="M22 648l4 12q3 10 7 25.5t6 27.5q6 1 13.5 2t17.5 1q17 0 33 -5.5t16 -11.5q0 -9 -11 -12q1 0 1 -1h1v1q4 -5 7 -12t3 -15q0 -6 -1 -9v1q-3 -8 -8 -12.5t-11 -7.5h1q-3 -2 -6.5 -6t-7.5 -18q-5 1 -16 5t-21.5 9t-19 10.5t-9.5 11.5z" />
    <glyph glyph-name="FL00B3h" unicode="&#xb1;" horiz-adv-x="323" 
d="M191 228v13v4q2 -1 3 -1h2l0.5 -1.5t1.5 -1.5q2 -4 7.5 -7.5t29.5 -8.5v59q-2 1 -2.5 2t-2.5 3v5v11l-14 6v17v2q0 3 1 8v-1q0 1 2 9q11 1 24.5 5.5t31.5 18.5q-32 10 -32 15h66l21 29q-32 14 -60 19.5t-54 7.5v1l-9 2q-2 15 -2.5 19t-0.5 9v3q12 5 12 17q0 6 -2 10.5
t-5 9.5q1 -1 -1.5 4.5t-3.5 8.5q-5 12 -29 16.5t-53 4.5q11 -11 14 -14.5t4 -2.5q0 -3 3 -9l-20 -30q5 -15 5.5 -18.5l1.5 -10.5q0 -2 0.5 -3t0.5 -3v-2h-4q-10 0 -20.5 -1t-24.5 -3l-16 -2t-17 -2q-11 0 -20 -7t-9 -17q0 -7 6 -13q-2 0 -3 0.5t-3 0.5q7 -7 13 -12.5t6 -4.5
q0 -1 -0.5 -1.5t-0.5 -2.5q0 -1 -0.5 -6.5t-0.5 -6.5l85 -26v-7q-2 -6 -2 -14v-4q0 -8 2 -12.5t12 -7.5v-8v-13v-6q0 -2 0.5 -5t2.5 -6q0 -4 3 -8q0 -6 1.5 -9t8.5 -5q1 -6 6.5 -9.5t12 -5t12.5 -1.5h10zM42 151l133 -40l8 14h27q13 0 27.5 3.5t34.5 19.5q-32 12 -32 15h66
l21 29q-44 18 -86 24t-78 8q-9 3 -17.5 4.5t-20.5 1.5q-13 0 -29.5 -1.5t-39.5 -3.5q-3 0 -5 -0.5t-5 -0.5q-11 0 -20 -7.5t-9 -17.5q0 -3 2 -6t4 -7q-2 2 -6 2q8 -8 13.5 -13t5.5 -4q0 -2 -0.5 -2.5t-0.5 -2.5q0 -1 -0.5 -2t-0.5 -2zM178 322l9 -11l-6 -6l-9 9q0 8 6 8z
" />
    <glyph glyph-name="FL00B4h" unicode="&#xb4;" horiz-adv-x="203" 
d="M22 574l-0.5 -1t-0.5 -2q0 -6 6 -17t14 -22.5t16.5 -22t14.5 -16.5q7 50 21 76t28.5 37.5t26 12.5t12.5 2l13 -19q11 9 13 21t2 22q0 1 -1 1h8q8 0 11 1.5t3 10.5q0 4 -7.5 12t-19 17t-24 17t-21.5 10q-3 -5 -13 -15.5t-23 -19.5q-2 -2 -8.5 -10t-15 -18.5t-17.5 -22.5
t-17 -22q-6 -10 -10.5 -16t-6.5 -8z" />
    <glyph glyph-name="FL00B7h" unicode="&#xb7;" horiz-adv-x="119" 
d="M17 305q1 -5 9.5 -11t19.5 -11t21.5 -8.5t15.5 -4.5q4 14 7.5 18t6.5 6q5 3 10 7.5t8 12.5v-1q1 3 1 9q0 8 -3 15t-7 12v-1h-1q0 1 -1 1q11 3 11 12q0 6 -16 11.5t-33 5.5q-10 0 -17.5 -1t-13.5 -2q-2 -12 -6 -27.5t-7 -26.5q-2 -5 -4 -11z" />
    <glyph glyph-name="FL00B8h" unicode="&#xb8;" horiz-adv-x="198" 
d="M139 103q0 3 -1 4zM143 113q-2 0 -3 -1q3 0 3 1zM138 94l-2 2l-6 -3q7 0 8 1zM118 72q0 -7 5 -7l9 8l-6 7zM119 128l2 2l1 -3h1t3 -1h-2l83 -48h-39l-9 -5v-12l4 -19q11 -1 23.5 -5.5t28.5 -16.5q-7 -3 -13.5 -10.5t-11.5 -16t-8 -15.5t-3 -10q-35 -18 -56 -24t-35 -6
q-12 0 -20.5 2.5t-18.5 6.5h1q-5 2 -9 2.5t-9 2.5q-10 2 -17.5 8.5t-7.5 14.5q0 3 2 6t4 7q-2 -2 -6 -2q11 11 14 13.5l3 2.5l-2 15l48 21q0 2 -0.5 3.5t-0.5 3.5q-1 3 -1.5 5.5t-0.5 7.5v5q0 7 2 11t12 6v8q0 4 0.5 7t0.5 6v7l5 13v2q0 7 3.5 9.5t10.5 6.5z" />
    <glyph glyph-name="FL00BBh" unicode="&#xbb;" horiz-adv-x="291" 
d="M169 361q-4 -11 -12 -23.5t-16 -21.5q17 7 27 18t18 22q-2 4 -4 12q-1 1 -3 7l-2 -6t-6 -8h-1h-1zM194 270q-4 -4 -6.5 -4.5t-4.5 -0.5q-5 0 -13 4.5t-16.5 10.5t-16.5 13t-14 12q-4 0 -6 2q-6 -5 -12.5 -9.5t-11.5 -9.5h1q-6 -5 -10 -8t-5 -4q-4 -3 -6.5 -3.5t-4.5 -0.5
q-6 0 -15.5 5.5t-19 13t-18 15t-12.5 11.5q27 3 42.5 17t24.5 28l-3 12q-7 17 -18 34.5t-42 22.5q4 4 12.5 11.5t18.5 15t19.5 13t14.5 5.5q2 0 5 -0.5t6 -3.5q2 -2 3.5 -4t3.5 -5v1q6 -8 14.5 -19.5t17.5 -22.5v10h8q6 5 13.5 11.5t16 12.5t15.5 10t12 4q2 0 5 -0.5t6 -3.5
l4 -4t4 -5v1q5 -8 13.5 -19.5t17.5 -22.5v10h16q18 -12 29.5 -28t11.5 -27q0 -3 -1 -6.5t-7 -9.5h-1l-1 -1q-3 -8 -9 -18t-12 -18t-12 -13.5t-9 -5.5q-6 0 -10 2q-6 -5 -12 -9.5t-11 -9.5q-6 -5 -10 -8t-5 -4z" />
    <glyph glyph-name="FL00BFh" unicode="&#xbf;" horiz-adv-x="211" 
d="M140 41v13q8 -8 17 -8q12 0 22 22t16.5 50t10 54.5t3.5 35.5q0 7 -1.5 12.5t-3.5 12.5q-3 6 -3 18v1l10 20q4 4 4.5 5.5t0.5 6.5q0 17 -6 19.5t-13 4.5h-1q2 8 3.5 19.5t1.5 16.5v10q0 28 -23 28q-15 0 -21.5 -17.5t-10.5 -34.5v1q-1 -5 -2 -9.5t-2 -7.5l1 1
q-2 -6 -4 -14q-2 -10 -4 -23t-4 -25.5t-4 -22t-3 -11.5q-5 -8 -14.5 -15.5t-17.5 -9.5q0 32 7.5 66t19 67.5t25 65.5t26.5 59l-1 -1q2 4 4.5 7t4.5 7q7 11 12.5 22t5.5 28q0 8 -1.5 11.5t-3.5 7.5l1 -1h-1v1v8q-14 26 -24.5 35.5t-18.5 9.5q-9 0 -15 -6.5t-11 -13.5
q-5 -6 -8.5 -10.5t-6.5 -4.5h-8q-17 -29 -32 -69.5t-27 -84.5t-19 -88t-7 -80q0 -23 3.5 -43t8.5 -40q4 -18 7.5 -36t3.5 -37q20 -35 45 -35q17 0 22 5v-3h36zM208 758q-1 8 -11.5 16.5t-23.5 15.5t-26.5 12t-20.5 7q-6 -20 -11 -25.5t-10 -10.5q-7 -5 -12 -11t-9 -18
q-1 -5 -1 -7v-5q0 -11 4 -21t9 -18v1q1 -2 2 -3.5t1 -3.5q-8 -2 -11.5 -7t-3.5 -10q0 -4 6 -8t15.5 -7t21 -5t22.5 -2q15 0 36 6q1 8 3.5 23.5t6.5 29.5q5 16 9 29.5t4 17.5v4zM116 118q0 -7 -3 -10q-7 3 -7 10l1 4q0 4 4 4t4 -4zM116 84l-7 4q4 1 8 1h3q-2 -1 2 -8l-6 -3v6
z" />
    <glyph glyph-name="FL00C0h" unicode="&#xc0;" horiz-adv-x="335" 
d="M125 845q-4 -2 -5 -2h1h1t3 2zM80 115q0 -1 -5.5 -1.5t-12.5 -1.5v-1v-1l6 -8zM164 283q7 -2 12 -2.5t10 -0.5l3 -1q-5 14 -9 18q0 8 -1 22t-3 29q-1 3 -1 6q0 4 -1 7v-5q-4 -16 -9.5 -33t-12.5 -36q5 -1 8 -2t7 -3zM246 704q0 -5 -3 -14q-2 -5 -3 -10t-3 -10
q-2 -8 -4 -17t-3 -14v-3q0 -6 1.5 -13t3.5 -13v1q1 -1 1.5 -2.5t1.5 -3.5q0 -5 0.5 -9.5t1.5 -9.5q3 -23 6 -57t3 -61q0 -8 -0.5 -14t-1.5 -11q17 -32 26 -61t17 -60v1q8 -29 16.5 -59.5t25.5 -65.5l-2 -9l1 1q-3 -10 -10 -16t-15 -10q-6 -29 -14.5 -56.5t-22.5 -57.5
q-3 -1 -4 -1h-1q-2 -2 -6.5 -3.5t-8.5 -1.5l-3 1q-16 3 -21 13t-5 23q0 4 0.5 8.5t1.5 9.5h-6q-1 0 -3.5 0.5t-3.5 0.5q-21 6 -21 21q0 5 3 13q2 8 6 12t9 8q5 3 5 6v6q0 4 -0.5 9.5t-0.5 11.5h-12h-14h-4l-7 -13l-48 18q-2 -7 -2.5 -13t-1.5 -12q-2 -12 -4 -24.5t-7 -31.5
l-8 -26q-8 0 -10.5 -1t-4.5 -2h1q-8 -3 -15 -3q-6 0 -8 3q-3 0 -7 4q-1 1 -3 3.5t-3 3.5v9l3 9q-10 -2 -17.5 -2.5t-7.5 0.5l8 -12q-8 3 -14.5 8.5t-6.5 14.5v4l23 85l-14 -6q5 44 10 69.5t11 49.5l10 35l-1 -1l9 32v-1l1 13l9 3l2 9v2q0 2 4 16l-1 -1q2 6 4 12.5t4 14.5
l-1 -1l5 24l9 32q-2 -4 -1 -0.5t3 9.5t4 13t3 11q0 1 1 3.5t2 4.5v-1l3 13l-1 -1q1 4 4 13t7 19t7.5 19t6.5 13l-1 -1q6 10 17 10q3 0 3 1q1 4 1 8q0 8 -1 13q0 4 -0.5 9t-0.5 9q0 7 3 22v-1q2 11 6.5 13.5t9.5 4.5q1 0 2 2.5t5 13.5h13t16 -2q-8 38 -19.5 58t-23 29.5
t-20 11t-9.5 1.5l-13 -21q-9 7 -11.5 16t-2.5 17h-3q-8 0 -11.5 1.5t-3.5 12.5q0 3 7 10.5t17 15t21.5 14t19.5 8.5l10 -10t16 -14q5 -4 18 -19t26 -31q10 -12 17 -20.5t8 -9.5l2 -3q4 -4 4.5 -7t0.5 -5q0 -5 -4 -12t-9.5 -15.5t-12 -16.5t-12.5 -14q8 -2 14.5 -6t7.5 -10z
" />
    <glyph glyph-name="FL00C1h" unicode="&#xc1;" horiz-adv-x="335" 
d="M257 845q2 -2 3 -2h1h1q-3 0 -5 2zM80 115q0 -1 -5.5 -1.5t-12.5 -1.5v-1v-1l6 -8zM164 283q7 -2 12 -2.5t10 -0.5l3 -1q-5 14 -9 18q0 8 -1 22t-3 29q-1 3 -1 6q0 4 -1 7v-5q-4 -16 -9.5 -33t-12.5 -36q5 -1 8 -2t7 -3zM119 784q0 7 4 11q0 1 2.5 4t5.5 7q6 8 15.5 19.5
t18.5 22.5t17 19.5t12 10.5q8 6 16 14l11 11q9 -2 20 -8.5t20.5 -14.5t16.5 -15t7 -10q0 -11 -1.5 -12.5t-12.5 -1.5h-3q0 -8 -3 -17.5t-12 -16.5l-16 18q-1 -1 -10 -5.5t-21 -16.5t-23.5 -33t-16.5 -55q-4 4 -11.5 13t-15.5 19.5t-14 20.5t-6 16zM246 704q0 -5 -3 -14
q-2 -5 -3 -10t-3 -10l-4 -18t-3 -14v-2q0 -6 1.5 -13t3.5 -13v1q1 -1 1.5 -2.5t1.5 -3.5q0 -5 0.5 -9.5t1.5 -9.5q3 -23 6 -57t3 -61q0 -8 -0.5 -14t-1.5 -11q17 -32 26 -61t17 -60v1q8 -29 16.5 -59.5t25.5 -65.5l-2 -9l1 1q-3 -10 -10 -16t-15 -10q-6 -29 -14.5 -56.5
t-22.5 -57.5q-3 -1 -4 -1h-1q-2 -2 -6.5 -3.5t-8.5 -1.5l-3 1q-16 3 -21 13t-5 23q0 4 0.5 8.5t1.5 9.5h-6q-1 0 -3.5 0.5t-3.5 0.5q-21 6 -21 21q0 5 3 13q2 8 6 12t9 8q5 3 5 6v6q0 4 -0.5 9.5t-0.5 11.5h-12h-14h-4l-7 -13l-48 18q-2 -7 -2.5 -13t-1.5 -12
q-2 -12 -4 -24.5t-7 -31.5l-8 -26q-8 0 -10.5 -1t-4.5 -2h1q-8 -3 -15 -3q-6 0 -8 3q-3 0 -7 4q-1 1 -3 3.5t-3 3.5v9l3 9q-10 -2 -17.5 -2.5t-7.5 0.5l8 -12q-8 3 -14.5 8.5t-6.5 14.5v4l23 85l-14 -6q5 44 10 69.5t11 49.5l10 35l-1 -1l9 32v-1l1 13l9 3l2 9v2q0 2 4 16
l-1 -1q2 6 4 12.5t4 14.5l-1 -1l5 24l9 32q-2 -4 -1 -0.5t3 9.5t4 13t3 11q0 1 1 3.5t2 4.5v-1l3 13l-1 -1q1 4 4 13t7 19t7.5 19t6.5 13l-1 -1q6 10 17 10q3 0 3 1q1 4 1 8q0 8 -1 13q0 4 -0.5 9t-0.5 9q0 7 3 22v-1q2 11 6.5 13.5t9.5 4.5q1 0 2 2.5t5 13.5q5 0 15 -0.5
t20.5 -3t18.5 -6.5t9 -11z" />
    <glyph glyph-name="FL00C2h" unicode="&#xc2;" horiz-adv-x="335" 
d="M80 114l-18 -2v-1v-1l6 -8zM164 283q7 -2 12 -2.5t10 -1.5l3 -1q-5 15 -9 19q0 8 -1 22t-3 29q-1 3 -1 6q0 4 -1 7v-5q-4 -16 -9.5 -33.5t-12.5 -35.5q5 -1 8 -2t7 -3zM296 784q4 -4 4.5 -7t0.5 -5q0 -6 -6 -16t-14 -20.5t-15.5 -19.5t-11.5 -13q-5 29 -18.5 45.5
t-29.5 26.5q-3 -2 -6 -2.5t-5 -1.5q-9 -3 -18.5 -7t-17.5 -11t-14.5 -18t-8.5 -27q-4 4 -12 13t-15.5 19.5t-13.5 20.5t-6 16q0 2 0.5 5t3.5 7q5 5 9 8h-1q8 5 20 14t23 19h-9v17q11 19 27.5 31.5t28.5 12.5q3 0 6.5 -1t10.5 -8v-1v-1q9 -4 19 -10.5t18.5 -13t14 -12.5
t5.5 -9q0 -9 -1 -11q5 -7 10 -13.5t9 -11.5v1q6 -6 9 -10.5t4 -5.5zM246 703q0 -4 -3 -13q-2 -5 -3 -10.5t-3 -10.5q-2 -8 -4 -17t-3 -15v-2q0 -5 1.5 -12t3.5 -13v1q1 -2 1.5 -3.5t1.5 -3.5q0 -5 0.5 -9t1.5 -9q3 -23 6 -57t3 -61q0 -8 -0.5 -14.5t-1.5 -11.5
q17 -31 26 -60t17 -60v1q8 -29 16.5 -59.5t25.5 -65.5l-2 -9l1 1q-3 -10 -10 -16t-15 -10q-6 -29 -14.5 -56.5t-22.5 -57.5q-3 -1 -4 -1h-1q-2 -2 -6.5 -3.5t-8.5 -1.5l-3 1q-16 3 -21 13t-5 23q0 4 0.5 8.5t1.5 9.5h-6q-1 0 -3.5 0.5t-3.5 0.5q-21 6 -21 21q0 5 3 13
q2 8 6 12t9 8q5 3 5 6v6q0 4 -0.5 9.5t-0.5 11.5h-12h-14h-4l-7 -13l-48 18q-2 -7 -2.5 -13t-1.5 -12q-2 -12 -4 -24.5t-7 -31.5l-8 -26q-8 0 -10.5 -1t-4.5 -2h1q-8 -3 -15 -3q-6 0 -8 2q-3 1 -7 5q-1 1 -3 3.5t-3 3.5v9l3 9q-10 -2 -17.5 -2.5t-7.5 0.5l8 -12
q-8 3 -14.5 8.5t-6.5 14.5v4l23 85l-14 -6q5 44 10 69.5t11 49.5l10 35l-1 -1l9 32v-1l1 13l9 3l2 8v3t4 16l-1 -1q2 6 4 12.5t4 14.5l-1 -1l5 24l9 31q-2 -3 -1 0l3 9t4 13t3 11q0 2 1 4.5t2 4.5v-1l3 13l-1 -1q1 4 4 13t7 19t7.5 19t6.5 13l-1 -1q5 9 17 9q3 0 3 1
q1 4 1 9q0 8 -1 13q0 4 -0.5 8.5t-0.5 8.5q0 8 3 23v-1q2 11 6.5 13.5t9.5 4.5q1 0 2 2.5t5 13.5q5 0 15 -0.5t20.5 -3t18.5 -6.5t9 -11z" />
    <glyph glyph-name="FL00C3h" unicode="&#xc3;" horiz-adv-x="335" 
d="M80 114l-18 -2v-1v-1l6 -8zM164 283q7 -2 12 -2.5t10 -1.5l3 -1q-5 15 -9 19q0 8 -1 22t-3 29q-1 3 -1 6q0 4 -1 7v-5q-4 -16 -9.5 -33.5t-12.5 -35.5q5 -1 8 -2t7 -3zM222 834q14 7 28 20t19 45q3 -3 10 -13t14 -21t12 -21.5t5 -15.5l-3 -9q0 -1 -5 -6.5t-12.5 -14
t-15.5 -18t-15 -18.5q60 -32 88.5 -47.5t33 -19.5t-9.5 1t-37.5 14t-53 20t-55.5 19q-6 2 -7 2q-5 -6 -11.5 -10t-12.5 -4q-11 0 -17 6t-6 23v7l-1 1q-2 -2 -3 -2q-7 -3 -14.5 -7t-14 -11t-11.5 -19t-6 -30q-4 4 -11.5 14t-14.5 21.5t-12.5 22t-5.5 15.5l3 9l6 6
q6 6 20 19.5t22 25.5l3 6h-24l18 20q10 22 17.5 26t18.5 4h4l12 19l5 -35q14 -9 27 -22t13 -19v-3zM246 703q0 -4 -3 -13q-2 -5 -3 -10t-3 -10l-4 -18t-3 -15v-1q0 -6 1.5 -13t3.5 -13v1q1 -2 1.5 -3.5t1.5 -2.5q0 -5 0.5 -9.5t1.5 -9.5q3 -23 6 -57t3 -61q0 -8 -0.5 -14.5
t-1.5 -11.5q17 -31 26 -60t17 -60v1q8 -29 16.5 -59.5t25.5 -65.5l-2 -9l1 1q-3 -10 -10 -16t-15 -10q-6 -29 -14.5 -56.5t-22.5 -57.5q-3 -1 -4 -1h-1q-2 -2 -6.5 -3.5t-8.5 -1.5l-3 1q-16 3 -21 13t-5 23q0 4 0.5 8.5t1.5 9.5h-6q-1 0 -3.5 0.5t-3.5 0.5q-21 6 -21 21
q0 5 3 13q2 8 6 12t9 8q5 3 5 6v6q0 4 -0.5 9.5t-0.5 11.5h-12h-14h-4l-7 -13l-48 18q-2 -7 -2.5 -13t-1.5 -12q-2 -12 -4 -24.5t-7 -31.5l-8 -26q-8 0 -10.5 -1t-4.5 -2h1q-8 -3 -15 -3q-6 0 -8 3q-3 0 -7 4q-1 1 -3 3.5t-3 3.5v9l3 9q-10 -2 -17.5 -2.5t-7.5 0.5l8 -12
q-8 3 -14.5 8.5t-6.5 14.5v4l23 85l-14 -6q5 44 10 69.5t11 49.5l10 35l-1 -1l9 32v-1l1 13l9 3l2 8v3t4 16l-1 -1q2 6 4 12.5t4 14.5l-1 -1l5 24l9 31q-2 -3 -1 0l3 9t4 13t3 11q0 2 1 4.5t2 4.5v-1l3 13l-1 -1q1 4 4 13t7 19t7.5 19t6.5 13l-1 -1q6 10 17 10q3 0 3 1
q1 3 1 8q0 8 -1 13q0 4 -0.5 8.5t-0.5 8.5q0 8 3 23v-1q2 11 6.5 13.5t9.5 4.5q1 0 2 2.5t5 13.5q5 0 15 -0.5t20.5 -3t18.5 -6.5t9 -11z" />
    <glyph glyph-name="FL00C4h" unicode="&#xc4;" horiz-adv-x="335" 
d="M80 114q0 -1 -5.5 -1.5t-12.5 -0.5v-1v-1l6 -8zM164 283q7 -2 12 -2.5t10 -1.5l3 -1q-5 15 -9 19q0 8 -1 22t-3 29q-1 3 -1 6q0 4 -1 7v-5q-4 -16 -9.5 -33.5t-12.5 -35.5q5 -1 8 -2t7 -3zM196 790q1 2 1.5 5.5t2.5 8.5q4 12 9 31.5t7 33.5q7 1 15.5 2t19.5 1
q21 0 39 -6.5t18 -14.5q0 -10 -11 -14v-1h1v1q5 -6 8.5 -14t3.5 -18q0 -8 -2 -12v2q-3 -10 -9 -15t-12 -9h1q-4 -3 -8 -7.5t-9 -21.5q-6 1 -18 5.5t-24.5 10.5t-22.5 13t-11 14zM66 776q1 5 5 17l9 27q5 13 7 28.5t3 23.5q21 6 36 6q12 0 23.5 -2t21 -5.5t15.5 -8t6 -8.5
q0 -12 -15 -15q2 -4 4 -6v1q5 -8 9 -17t4 -20q0 -6 -2 -11q-4 -11 -9 -17t-12 -11q-5 -4 -10 -10t-10 -25q-8 1 -21.5 6.5t-27 12t-24.5 14.5t-12 15v5zM246 703q0 -6 -3 -13q-2 -5 -3 -10.5t-3 -10.5q-2 -8 -4 -17t-3 -15v-2q0 -6 1.5 -12.5t3.5 -12.5v1q1 -2 1.5 -3.5
t1.5 -3.5q0 -5 0.5 -9t1.5 -9q3 -23 6 -57.5t3 -61.5q0 -7 -0.5 -13.5t-1.5 -11.5q17 -31 26 -60t17 -60v1q8 -29 16.5 -59.5t25.5 -65.5l-2 -9l1 1q-3 -11 -10 -16.5t-15 -9.5q-6 -29 -14.5 -56.5t-22.5 -57.5q-3 -2 -4 -1.5l-1 0.5q-2 -2 -6.5 -3.5t-8.5 -1.5l-3 1
q-16 3 -21 13t-5 22q0 5 0.5 9.5t1.5 9.5h-6q-1 0 -3.5 0.5t-3.5 0.5q-21 6 -21 21q0 5 3 13q2 8 6 12t9 8q5 3 5 6v6q0 4 -0.5 9t-0.5 12h-12h-14h-4l-7 -13l-48 18q-2 -7 -2.5 -13t-1.5 -12q-2 -12 -4 -24.5t-7 -31.5l-8 -26q-8 0 -10.5 -1t-4.5 -2h1q-8 -3 -15 -3
q-6 0 -8 2q-3 1 -7 5q-1 1 -3 3.5t-3 3.5v9l3 9q-10 -2 -17.5 -2.5t-7.5 0.5l8 -12q-8 3 -14.5 8.5t-6.5 14.5v4l23 84l-14 -5q5 44 10 69.5t11 49.5l10 35l-1 -1l9 32v-1l1 13l9 2l2 9v3t4 16l-1 -1q2 5 4 12t4 15l-1 -1l5 24l9 31q-2 -4 -1 -0.5t3 9.5t4 13t3 11
q0 2 1 4.5t2 4.5v-1l3 12l-1 -1q1 4 4 13t7 19t7.5 19t6.5 13l-1 -1q6 10 17 10q3 0 3 1q1 4 1 9q0 8 -1 13q0 3 -0.5 8t-0.5 9q0 8 3 22v-1q2 12 6.5 14.5t9.5 4.5q1 0 2 2t5 13q5 0 15 -0.5t20.5 -2.5t18.5 -6t9 -11z" />
    <glyph glyph-name="FL00C5h" unicode="&#xc5;" horiz-adv-x="335" 
d="M80 114q0 -1 -5.5 -1.5t-12.5 -0.5v-1v-1l6 -8zM164 283q7 -2 12 -2.5t10 -1.5l3 -1q-5 15 -9 19q0 8 -1 22t-3 29q-1 3 -1 6q0 4 -1 7v-5q-4 -16 -9.5 -33.5t-12.5 -35.5q5 -1 8 -2t7 -3zM135 792q1 2 1.5 5.5t2.5 8.5q4 12 9 31t7 34q7 1 15.5 2t19.5 1q21 0 39 -6.5
t18 -14.5q0 -10 -12 -14q1 0 1 -1h1v1q5 -6 8.5 -14.5t3.5 -17.5q0 -8 -2 -12v2q-3 -11 -9 -15.5t-12 -8.5h1q-4 -3 -8 -7.5t-9 -21.5q-6 1 -18 5.5t-24.5 10.5t-22.5 13t-11 13zM246 703q0 -5 -3 -14q-2 -4 -3 -9.5t-3 -10.5q-2 -9 -4 -17.5t-3 -14.5v-2q0 -6 1.5 -12.5
t3.5 -12.5v1q1 -2 1.5 -3.5t1.5 -3.5q0 -5 0.5 -9t1.5 -9q3 -23 6 -57.5t3 -61.5q0 -7 -0.5 -13.5t-1.5 -11.5q17 -32 26 -60.5t17 -59.5v1q8 -29 16.5 -59.5t25.5 -65.5l-2 -9l1 1q-3 -11 -10 -16.5t-15 -9.5q-6 -29 -14.5 -56.5t-22.5 -57.5q-3 -2 -4 -1.5l-1 0.5
q-2 -2 -6.5 -3.5t-8.5 -1.5l-3 1q-16 3 -21 13t-5 22q0 5 0.5 9.5t1.5 9.5h-6q-1 0 -3.5 0.5t-3.5 0.5q-21 6 -21 21q0 5 3 13q2 8 6 12t9 8q5 3 5 6v6q0 4 -0.5 9t-0.5 12h-12h-14h-4l-7 -13l-48 18q-2 -7 -2.5 -13t-1.5 -12q-2 -12 -4 -24.5t-7 -31.5l-8 -26
q-8 0 -10.5 -1t-4.5 -2h1q-8 -3 -15 -3q-6 0 -8 2q-3 1 -7 5q-1 1 -3 3.5t-3 3.5v9l3 9q-10 -2 -17.5 -2.5t-7.5 0.5l8 -12q-8 3 -14.5 8.5t-6.5 14.5v4l23 84l-14 -5q5 44 10 69.5t11 49.5l10 35l-1 -1l9 32v-1l1 12l9 3l2 9v3t4 16l-1 -1q2 5 4 12t4 15l-1 -1l5 24l9 31
q-2 -4 -1 -0.5t3 9.5t4 13t3 11q0 2 1 4.5t2 4.5v-1l3 12l-1 -1q1 4 4 13t7 19t7.5 19t6.5 13l-1 -1q6 10 17 10q3 0 3 1q1 4 1 9q0 8 -1 12q0 4 -0.5 9t-0.5 9q0 7 3 22v-1q2 12 6.5 14.5t9.5 4.5q1 0 2 2t5 13q5 0 15 -0.5t20.5 -2.5t18.5 -6t9 -11z" />
    <glyph glyph-name="FL00C6h" unicode="&#xc6;" horiz-adv-x="448" 
d="M380 718v-1h1zM190 282q2 -1 6 -1q-2 9 -4.5 16t-6.5 10q0 7 -1 25t-3 36q-1 4 -1 8t-1 8q0 -2 -0.5 -3t-0.5 -3q-5 -22 -11 -43t-12 -43q4 -2 8 -3.5t8 -3.5q5 -2 10 -2t9 -1zM255 806q0 -4 -1.5 -9t-3.5 -11q-1 -2 -2 -5.5t-2 -11.5q7 2 20.5 4t24.5 3q2 11 7.5 13.5
t17.5 2.5q2 0 14 -8.5t22 -17.5h60q6 0 11.5 -7t9 -16.5t5.5 -19t2 -13.5h-37q8 -6 8 -19v-8q-2 -2 -3.5 -4.5t-7.5 -14.5l-107 -4q-1 0 -1.5 -15t-0.5 -34v-37v-25v-23q0 -9 2 -12q7 -1 15 -1t18 -1q31 -2 66 -7t63 -22l-15 -31h-12q-3 0 -7 0.5t-9 0.5h-16q-7 0 -7 -2
q0 -7 24 -18q-14 -14 -27 -19.5t-24 -5.5h-15h-3l-1 -4v-122q0 -7 -4.5 -18t-9.5 -21q14 2 26.5 3t26.5 1h30q2 0 4.5 -0.5t5.5 -0.5h19q14 -5 16 -10.5t2 -15.5q0 -2 -0.5 -3t-0.5 -3v-6q-7 -7 -10.5 -8.5t-8.5 -2.5l-13.5 -4.5t-12.5 -5.5h17v-23q0 -15 -15.5 -21
t-36.5 -11q-19 -4 -35.5 -9.5t-16.5 -15.5q0 -2 1.5 -8.5t6.5 -17.5h-20q-1 0 -2 -0.5t-2 -0.5q-3 0 -6 1q-9 -34 -25 -70q-10 -8 -17 -12l-8 2q-16 4 -21.5 15.5t-5.5 26.5q0 6 1 12.5t3 14.5q-3 -1 -7 -1q-7 0 -10 1q-20 3 -20 19q0 5 0.5 9t1.5 8q2 8 6 13t9 10l4 4t1 -2
q2 5 2 8v6q0 6 -0.5 14t-1.5 17h-12h-15h-3l-8 -17l-51 21q-2 -6 -2.5 -12t-1.5 -13q-2 -18 -4.5 -36.5t-7.5 -37.5l-7 -30q-7 0 -10 -1t-5 -2q-8 -4 -17 -4h-1q-4 0 -5 0.5t-6 4.5l1 -1q-2 2 -5 4.5t-5 7.5v6q-14 -4 -18.5 -3.5t-5.5 6.5q-13 8 -13 22v4l23 107l-14 -8
q6 56 11 86t11 56l9 41l3 14l6 26v-1l2 13l9 4l2 10q1 4 2 9t2 11q2 8 3.5 17t3.5 17l6 31l8 32q1 5 2.5 12t3 13t2.5 9.5t1 2.5q1 4 2 7.5t2 8.5l4 16q1 5 4 16t6.5 23t7.5 22.5t7 16.5l-1 -1q4 8 10 9.5t11 1.5v2q1 4 1 11v8q0 4 -1 9q0 4 -0.5 9t-0.5 10q0 14 3 26v-1
q2 14 7 17.5t10 5.5l6 22q6 -2 12.5 -4t9.5 -2q14 -1 28 -4t17 -17v-3z" />
    <glyph glyph-name="FL00C7h" unicode="&#xc7;" horiz-adv-x="302" 
d="M187 114q0 2 -1 3l1 -4v1zM192 124q-3 0 -4 -1q3 0 4 1zM186 103q-1 1 -1 2l-7 -3q7 0 8 1zM164 758q-6 0 -6 -5q0 -6 6 -6q8 0 8 6q0 5 -8 5zM165 79q0 -8 6 -8l9 10l-6 6zM199 579v59q-3 5 -4 7.5t-2 4.5q-3 4 -6 8.5t-6 9.5q-2 1 -5 2t-7 1q1 0 2 1q-12 -5 -19 -18.5
t-10.5 -31.5t-5 -39.5t-1.5 -41.5q0 -10 0.5 -19.5t0.5 -17.5v-25q0 -8 1 -33.5t3 -53t4.5 -50t5.5 -25.5l28 -30q7 -12 7 -19v-5q3 0 6 1q1 0 4 0.5t4 0.5q6 -6 12 -7.5t12 -3.5h-1q11 -2 22.5 -6t21.5 -19.5t17.5 -46.5t12.5 -86q0 -8 -1.5 -13t-11.5 -5q-3 0 -10 13.5
t-14 29.5v-4q-1 -14 -3.5 -27t-21.5 -23q-14 12 -21 16l-5 -2v-14l4 -21q11 -1 24 -5.5t30 -18.5q-7 -3 -13.5 -11t-12 -17.5t-9 -17.5t-3.5 -11q-35 -20 -57.5 -26.5t-36.5 -6.5q-12 0 -20.5 2.5t-19.5 7.5h1q-5 2 -9 3t-9 3q-11 2 -18.5 8.5t-7.5 16.5q0 7 6 13
q-4 -2 -6 -2q12 13 14.5 15.5l2.5 2.5l-1 16l49 24q0 2 -0.5 4t-0.5 3q-1 3 -1.5 6.5t-0.5 8.5v5q0 8 2 12t12 7v9q0 4 0.5 7.5t0.5 6.5v7l5 16v1v1q-6 8 -12 18.5t-11 20.5h-26q0 6 -1 19.5t-3 19.5l-20 22q-5 12 -6.5 26.5t-2.5 28.5q-1 18 -3 36t-16 28q-1 14 -2 31.5
t-3 31.5q-2 25 -4 49t-2 49q0 28 9 72.5t27.5 87t46.5 73t65 30.5q13 0 20 -12l1 -1h5l33 6h7q4 0 10.5 -6.5t13 -15.5t11.5 -18t5 -14v-129q3 -8 3 -14q0 -5 -1.5 -9.5t-11.5 -4.5q-5 0 -13 7t-23 27q-1 -4 -1 -8t-1 -8h-28z" />
    <glyph glyph-name="FL00C8h" unicode="&#xc8;" horiz-adv-x="261" 
d="M200 688v-1v1zM64 881l-6 -2h1h1t4 2zM60 158q0 9 2.5 18.5t5.5 19.5q3 9 5 18t2 19q0 8 -2.5 12t-17.5 12q-1 10 -2 33.5t-2 49t-2 48.5t-1 32v10l-4 10l-6 12t-2 11l-1 -2q0 14 12 23l-5 131l1 -3q-3 7 -6.5 21l-7 28t-6 25.5t-2.5 13.5q0 4 4.5 9t10.5 10t13 9t12 7
q6 4 5 3q6 2 21 4.5t26 3.5q2 11 7.5 14t17.5 3q1 0 5 -2.5t9 -6.5q-7 42 -19 64.5t-23.5 33t-20.5 12t-10 1.5l-13 -22q-9 8 -11 17t-2 17h-4q-8 0 -11.5 1.5t-3.5 12.5q0 3 7 10.5t17 15t21.5 14t19.5 8.5q2 -2 9.5 -10t15.5 -14q5 -5 18 -19.5t25 -30.5q10 -12 17 -20.5
t7 -9.5l3 -3q4 -4 4.5 -7t0.5 -5q0 -6 -5.5 -15.5t-13 -19.5t-15.5 -19t-12 -14q10 -8 19 -16h58q6 0 11 -7t8.5 -16t5.5 -18.5t2 -14.5h-36q8 -6 8 -18v-9q-4 -4 -5 -6t-6 -13h-66q-1 0 -1.5 -15t-1 -34t-0.5 -37v-25v-24q0 -8 2 -11q26 -3 57 -8.5t63 -26.5l-14 -31h-12
q-3 0 -6.5 0.5t-8.5 0.5h-15t-7 -2q0 -6 22 -18q-14 -14 -25.5 -19.5t-22.5 -5.5h-14h-3l-2 -4v-122q0 -5 -4.5 -17t-9.5 -23q14 3 26 4t26 1h29q2 0 4.5 -0.5t5.5 -0.5h18q13 -5 15 -11t2 -16q0 -1 -0.5 -2t-0.5 -3v-7q-6 -7 -10 -8.5t-8 -2.5q-5 -2 -12.5 -4.5t-13.5 -5.5
h18v-23q0 -15 -15.5 -21t-35.5 -11q-18 -4 -34 -9.5t-16 -15.5q0 -4 8 -25h-19q-1 0 -2 -0.5t-2 -0.5l-8 4.5t-16 11.5q-7 6 -14 11.5t-13 8.5h2q-15 6 -19 20t-4 29v23z" />
    <glyph glyph-name="FL00C9h" unicode="&#xc9;" horiz-adv-x="261" 
d="M200 688v-1v1zM194 865q3 -2 4 -2h1h1q-2 0 -6 2zM60 158q0 9 2.5 18.5t5.5 19.5q3 9 5 17.5t2 19.5q0 8 -2.5 12t-17.5 12q-1 10 -2 33.5t-2 49t-2 48t-1 31.5v11l-4 10l-6 12t-2 11l-1 -2q0 14 12 23l-5 131l1 -3q-3 7 -6.5 20.5t-7 28t-6 26t-2.5 13.5q0 8 15 18.5
t25 16.5q6 4 5 3q5 2 13 3t18 3q-5 6 -11.5 14.5t-12.5 17t-10 16t-4 12.5q0 7 4 11q0 1 2.5 4t5.5 6q6 8 15 19.5t18 22.5t16.5 19.5t11.5 11.5q8 6 16 14t11 10q8 -2 19 -8t20.5 -14t16.5 -15t7 -10q0 -11 -1.5 -12.5t-11.5 -1.5h-4q0 -8 -3 -17.5t-11 -17.5l-16 19
q-1 -1 -9.5 -5.5t-19.5 -15.5t-22 -30t-17 -49q2 1 6 1q2 11 7.5 13.5t17.5 2.5q2 0 13.5 -8.5t20.5 -17.5h58q6 0 11 -7t8.5 -16.5t5.5 -19t2 -13.5h-36q8 -6 8 -19v-8q-4 -4 -5 -6t-6 -13h-66q-1 0 -1.5 -15t-1 -34t-0.5 -38v-25v-23q0 -9 2 -12q26 -2 57 -7.5t63 -26.5
l-14 -32h-12q-3 0 -6.5 0.5t-8.5 0.5h-15t-7 -2q0 -5 22 -17q-14 -14 -25.5 -19.5t-22.5 -5.5h-14h-3l-2 -4v-122q0 -5 -4.5 -17t-9.5 -23q14 3 26 4t26 1h29q2 0 4.5 -0.5t5.5 -0.5h18q13 -5 15 -11t2 -16q0 -2 -0.5 -3t-0.5 -2v-7q-6 -7 -10 -8.5t-8 -2.5
q-5 -2 -12.5 -4.5t-13.5 -5.5h18v-23q0 -15 -15.5 -21t-35.5 -11q-18 -4 -34 -9.5t-16 -15.5q0 -4 8 -26h-19h-4l-8 4.5t-16 11.5q-7 6 -14 11.5t-13 8.5h2q-15 6 -19 20t-4 29v23z" />
    <glyph glyph-name="FL00CAh" unicode="&#xca;" horiz-adv-x="261" 
d="M200 688v-1v1zM60 158q0 9 2.5 18.5t5.5 19.5q3 9 5 17.5t2 19.5q0 8 -2.5 12t-17.5 12q-1 10 -2 33.5t-2 49t-2 48.5t-1 32v10l-4 10l-6 12t-2 11l-1 -2q0 14 12 23l-5 131l1 -3q-3 7 -6.5 20.5t-7 28t-6 26t-2.5 13.5q0 8 15 18.5t25 16.5q6 4 5 3q5 2 13 3
q-4 4 -11.5 13.5t-15 19.5t-13 20t-5.5 16q0 2 0.5 5t3.5 7q2 2 4 3.5t5 3.5h-1q8 6 19.5 15t22.5 18h-9v18q11 19 27.5 31.5t27.5 12.5q3 0 6.5 -1t10.5 -8v-1v-1q9 -4 18.5 -10.5t18 -13t14 -12.5t5.5 -9q0 -10 -1 -11q5 -7 10 -13.5t9 -11.5v1q10 -14 13 -16
q3 -4 3.5 -7.5t0.5 -6.5q0 -10 -11.5 -28t-22.5 -28q-5 25 -19 36t-28 19q-3 2 -6.5 2.5t-5.5 2.5l-11 -3q-9 -3 -18 -7.5t-17.5 -11.5t-14.5 -17.5t-8 -26.5q17 3 33 5q2 11 7.5 13.5t17.5 2.5q2 0 13.5 -8.5t20.5 -17.5h58q6 0 11 -7t8.5 -16.5t5.5 -19t2 -13.5h-36
q8 -6 8 -19v-8q-4 -4 -5 -6t-6 -13h-66q-1 0 -1.5 -15t-1 -34t-0.5 -38v-25v-23q0 -9 2 -12q26 -2 57 -7.5t63 -26.5l-14 -32h-12q-3 0 -6.5 0.5t-8.5 0.5h-15t-7 -2q0 -5 22 -17q-14 -14 -25.5 -19.5t-22.5 -5.5h-14h-3l-2 -4v-122q0 -5 -4.5 -17t-9.5 -23q14 3 26 4t26 1
h29q2 0 4.5 -0.5t5.5 -0.5h18q13 -5 15 -11t2 -16q0 -2 -0.5 -3t-0.5 -2v-7q-6 -7 -10 -8.5t-8 -2.5q-5 -2 -12.5 -4.5t-13.5 -5.5h18v-23q0 -15 -15.5 -21t-35.5 -11q-18 -4 -34 -9.5t-16 -15.5q0 -4 8 -26h-19h-4l-8 4.5t-16 11.5q-7 6 -14 11.5t-13 8.5h2q-15 6 -19 20
t-4 29v23z" />
    <glyph glyph-name="FL00CBh" unicode="&#xcb;" horiz-adv-x="262" 
d="M200 687v-1h1zM143 823q1 2 1.5 5.5t2.5 8.5q4 12 9 31t7 34q7 1 15 2t19 1q21 0 39 -6.5t18 -14.5q0 -10 -12 -14q1 0 1 -1h1v1q4 -6 7.5 -14.5t3.5 -17.5q0 -8 -1 -12v2q-4 -11 -9.5 -15.5t-11.5 -8.5h1q-5 -3 -8.5 -7.5t-8.5 -21.5q-6 1 -18 5.5t-24.5 10.5t-22 13
t-10.5 13zM15 809q1 4 5 16.5t9 27.5q5 13 7 28.5t3 23.5q21 6 36 6q11 0 22.5 -2t20.5 -5.5t15 -8t6 -8.5q0 -12 -14 -15q0 -3 3 -6v1q5 -8 9 -17t4 -20v-5t-2 -7q-3 -11 -8.5 -16.5t-12.5 -10.5q-5 -5 -9.5 -11t-9.5 -24q-8 1 -21.5 6t-27 12t-24 14.5t-11.5 15.5v5z
M60 158q0 9 2.5 18t5.5 20q3 9 5 17.5t2 19.5q0 8 -2.5 12t-17.5 12q-1 10 -2 33t-2 49t-2 48.5t-1 31.5v11l-4 10h1q-4 5 -7 11.5t-2 11.5l-1 -2q0 6 3.5 12.5t8.5 9.5l-5 131l1 -2q-3 7 -6.5 20.5t-7 28t-6 26t-2.5 13.5q0 8 15 18.5t25 16.5q6 4 5 3q7 2 21.5 4.5
t26.5 2.5q1 11 7 14t17 3q2 0 13.5 -9t21.5 -17h57q6 0 11 -7t8.5 -16.5t5.5 -19t2 -14.5h-35q7 -5 7 -18v-9l-4.5 -6t-6.5 -12h-66q-1 0 -1.5 -15t-1 -34t-0.5 -38v-25v-23q0 -9 2 -12q26 -3 57.5 -8.5t63.5 -26.5l-15 -31h-12q-2 0 -6 0.5t-9 0.5h-15t-7 -2q0 -6 23 -17
q-14 -15 -26 -20t-22 -5h-15h-3l-1 -4v-123q0 -4 -5 -16t-10 -23q14 2 26.5 3t26.5 1h28q2 0 4.5 -0.5t5.5 -0.5h18q13 -5 15 -10.5t2 -15.5v-6v-6q-7 -7 -10.5 -8.5t-8.5 -2.5q-5 -2 -12.5 -4.5t-12.5 -5.5h17v-23q0 -15 -15 -21t-36 -11q-17 -4 -33.5 -9.5t-16.5 -15.5
q0 -4 8 -26h-19h-4l-8 4.5t-16 11.5q-7 6 -14 11.5t-13 8.5h2q-15 6 -19 20t-4 29v23z" />
    <glyph glyph-name="FL00CCh" unicode="&#xcc;" horiz-adv-x="154" 
d="M20 863q-1 -1 -5 -1h1h1t3 1zM86 223l6 -8l2 2l-8 7v-1zM144 814q3 -4 3.5 -7t0.5 -5q0 -6 -5.5 -16t-13 -20.5t-14.5 -19.5t-11 -13q-6 43 -17.5 66.5t-22.5 34t-19.5 12t-9.5 1.5l-12 -21q-8 7 -10.5 16.5t-2.5 17.5h-3q-8 0 -11 1.5t-3 11.5q0 3 6.5 10.5t16 15t20 14
t18.5 8.5q2 -2 9 -10t15 -14q5 -4 17 -19t23 -31q9 -12 16 -20.5t7 -9.5zM61 67v4t2 6l2 2q-12 1 -14 6.5t-2 15.5v5q-5 22 -5.5 26.5t-0.5 8.5v13v29v30v2q-11 5 -14 13t-3 17v10q0 17 3 31q3 12 3 25q0 21 -0.5 41.5t-1.5 41.5q-3 43 -3 92v25q8 5 10 11.5t2 13.5v11
q0 2 -0.5 5.5t-0.5 5.5v7q-1 9 -1.5 20.5t-2.5 21.5q-1 6 -1 8q0 3 -1 8l23 72q-2 5 -4 11.5t-2 11.5l-0.5 4t-2.5 18q25 0 44.5 -10t25.5 -30q2 -7 3.5 -13.5t2.5 -12.5v1q7 -24 7 -40q0 -9 -2.5 -16.5t-10.5 -15.5v-15q1 -5 1 -13q0 -7 1 -15q1 -10 0.5 -20.5t-8.5 -18.5
l18 -16q1 -8 3 -17t4 -19q6 -21 6 -47v-12q0 -10 -6 -16v-8v-31v-28v-16q0 2 -1 -9.5t-2 -19.5q-2 -10 -2.5 -17t-0.5 -9v-10t0.5 -15t1.5 -16t2 -12l13 -12v-11q0 -2 -1 -4.5t-2 -4.5q-2 -2 -2 -3v-1q0 -2 4 -8.5t6 -8.5v-113q-26 10 -31.5 15.5t-7.5 15.5q-2 6 -4 11
q-2 2 -5 3.5t-5 3.5v-1q-8 3 -12 9v-2v1q-1 -2 -1 -3t-1 -2q13 -2 15 -12t2 -18v-14h-13q-8 0 -17.5 3t-9.5 20z" />
    <glyph glyph-name="FL00CDh" unicode="&#xcd;" horiz-adv-x="154" 
d="M125 853q2 -1 3 -1h1h1q-4 0 -5 1zM85 223l7 -8l2 2l-9 7v-1zM-3 792q0 7 4 11q0 1 2.5 4t4.5 7q6 8 14.5 19.5t17 22.5t16 19.5t11.5 10.5q8 6 15 14t9 11q8 -2 18.5 -8.5t19.5 -14.5t15.5 -15t6.5 -10q0 -10 -1.5 -11.5t-11.5 -1.5h-3q0 -8 -3 -18t-11 -17l-14 18
q-1 -1 -9.5 -5.5t-19.5 -16.5t-21.5 -33t-15.5 -55q-4 4 -11 13t-14.5 19.5t-13 20.5t-5.5 16zM61 67v4t2 6l2 2q-12 1 -14 6.5t-2 15.5v5q-5 22 -5.5 26.5t-0.5 8.5v13v29v30v2q-11 5 -14 13t-3 17v10q0 18 3 30q3 13 3 26q0 21 -0.5 41.5t-1.5 41.5q-3 43 -3 91v26
q8 5 10 11.5t2 13.5v11q0 2 -0.5 5t-0.5 6v7q-1 9 -1.5 20.5t-2.5 21.5q-1 6 -1 8q0 3 -1 7l23 73q-2 5 -4 11.5t-2 11.5l-0.5 4t-2.5 18q25 0 44.5 -10t24.5 -30l3.5 -14t3.5 -12l-1 1q4 -14 6 -23t2 -17q0 -10 -2.5 -17t-10.5 -15v-16q1 -5 1 -12t1 -15q1 -10 0.5 -21
t-8.5 -19l18 -15q1 -8 3 -17t4 -19q2 -11 4 -22.5t2 -25.5v-11q0 -9 -7 -16v-9q0 -6 0.5 -14t0.5 -16t-0.5 -15t-0.5 -13v-16q0 2 -1 -9.5t-1 -19.5q-2 -10 -2.5 -17t-0.5 -9v-10t0.5 -15l1 -16t1.5 -12l13 -12v-11q0 -5 -2 -9q-2 -2 -2.5 -3l-0.5 -1q1 -2 4.5 -8.5
t5.5 -8.5v-113q-26 10 -31.5 15.5t-6.5 15.5q-2 6 -4 11q-2 2 -5 3.5t-6 3.5l1 -1q-7 3 -13 9v-2v1q0 -4 -1 -5q13 -2 15 -12t2 -18v-14h-13q-8 0 -17.5 3t-9.5 20z" />
    <glyph glyph-name="FL00CEh" unicode="&#xce;" horiz-adv-x="158" 
d="M88 223l7 -8l2 2l-9 7v-1zM175 826q3 -4 3.5 -7t0.5 -5q0 -6 -5.5 -16t-13 -20.5t-15 -19.5t-11.5 -13q-4 29 -17.5 45.5t-28.5 26.5q-3 -2 -11 -4q-17 -6 -34 -18.5t-22 -44.5q-4 4 -11.5 13t-15 19.5t-13.5 20.5t-6 16q0 2 0.5 5t4.5 7q2 2 3.5 4t5.5 4h-1q8 5 19 14
t22 19h-9v17q11 19 27 31.5t27 12.5q2 0 6 -1t10 -8v-1v-1q9 -4 18.5 -10.5t17.5 -13t13.5 -12.5t5.5 -9q0 -9 -1 -11q8 -13 19 -25v1q5 -6 8 -10.5t4 -5.5zM62 67q0 3 0.5 4t2.5 6l2 2q-12 1 -14 6.5t-2 15.5v5q-5 22 -5.5 26.5t-0.5 8.5v13q0 6 -0.5 13.5t-0.5 15.5
t0.5 16t0.5 14v2q-11 6 -14.5 13.5t-3.5 16.5v11q0 16 3 30q1 6 2 13t1 12q0 21 -1 41.5t-2 42.5t-1.5 44.5t-0.5 46.5v25q8 5 10 12t2 13v11q0 2 -0.5 5.5t-0.5 6.5v7q-1 8 -1.5 20t-2.5 21q-1 6 -1 8q0 3 -1 8l23 73q-5 12 -5 22l-1 4t-3 18q26 0 46 -9.5t26 -29.5
q2 -8 3.5 -14.5t3.5 -12.5l-1 1q8 -23 8 -40q0 -9 -2.5 -16.5t-10.5 -15.5v-15q1 -5 1 -13q0 -7 1 -14q1 -11 0.5 -21.5t-8.5 -18.5l18 -16q1 -8 3 -17t4 -19q3 -11 5 -22.5t2 -24.5v-12q0 -10 -7 -15v-9v-30v-29v-16q0 2 -1 -9.5t-2 -19.5q-2 -10 -2.5 -17t-0.5 -8v-11
q0 -7 0.5 -15t1.5 -16t2 -12l13 -12v-11q0 -2 -1 -4.5t-2 -4.5l-2 -4q1 -2 4.5 -8.5t5.5 -8.5v-113q-27 10 -32.5 15.5t-6.5 15.5q-1 2 -2 4.5t-3 6.5q-2 2 -5 3.5t-6 3.5h1q-6 1 -13 8v-2v1q-1 -2 -1 -3t-1 -2q14 -2 16 -12t2 -18v-14h-13q-8 0 -18.5 3t-10.5 20z" />
    <glyph glyph-name="FL00CFh" unicode="&#xcf;" horiz-adv-x="161" 
d="M89 223l8 -8l1 2l-9 7v-1zM80 823q1 2 2 5.5t3 8.5q3 12 8 31.5t7 33.5q7 1 15 2t19 1q21 0 38.5 -6.5t17.5 -13.5q0 -11 -11 -15q1 0 1 -1v0v1q5 -6 8.5 -14t3.5 -18q0 -8 -2 -12v2q-3 -10 -8.5 -15t-11.5 -9h1q-5 -3 -8.5 -7.5t-8.5 -21.5q-6 1 -18 5.5t-24.5 10.5
t-22 13t-10.5 14zM-46 809q1 5 4.5 17t9.5 27q4 13 6.5 28.5t3.5 23.5q19 6 35 6q11 0 22.5 -2t20.5 -5.5t15 -8t6 -8.5q0 -12 -15 -15q2 -4 4 -6v1q5 -8 9 -17t4 -20q0 -6 -2 -11q-4 -11 -9 -17t-12 -11q-5 -4 -10 -10t-9 -25q-8 1 -21.5 6.5t-26.5 12t-23.5 14.5t-11.5 15
v5zM63 67q0 3 0.5 4t2.5 6l2 2q-13 1 -15 6.5t-2 15.5v5q-5 22 -5.5 26.5t-0.5 8.5v13q0 6 -0.5 13.5t-0.5 15.5t0.5 16t0.5 14v2q-11 5 -14.5 13t-3.5 17v10q0 18 3 30q3 13 3 26q0 21 -0.5 41.5t-1.5 41.5q-3 43 -3 91v26q8 5 10.5 11.5t2.5 13.5v11q0 2 -0.5 5t-0.5 6v7
q-1 9 -2 20.5t-3 21.5q-1 6 -1 8q0 3 -1 7l24 73q-2 5 -4 11.5t-2 11.5l-0.5 4t-2.5 18q26 0 46.5 -10t26.5 -30l3.5 -14t3.5 -12l-1 1q5 -14 6.5 -23t1.5 -17q0 -10 -2.5 -17t-10.5 -15v-16q1 -5 1 -12t1 -15q1 -10 0 -21t-8 -19l18 -15q1 -14 8 -36q2 -11 4 -22.5t2 -25.5
v-11q0 -9 -7 -16v-9q0 -6 0.5 -14t0.5 -16t-0.5 -15t-0.5 -13v-16q0 2 -1 -9.5t-2 -19.5q-2 -10 -2.5 -17t-0.5 -9v-10t0.5 -15t1.5 -16t2 -12l13 -12v-11q0 -5 -2 -9q-2 -2 -2.5 -3l-0.5 -1q1 -2 5 -8.5t6 -8.5v-113q-14 5 -21.5 8.5t-11.5 7t-5.5 7t-2.5 8.5
q-1 2 -1.5 4.5t-2.5 6.5q-2 2 -5 3.5t-6 3.5l1 -1q-8 2 -14 9v-2v1q-1 -2 -1 -5q14 -2 16 -12t2 -18v-14h-14q-8 0 -18.5 3t-10.5 20z" />
    <glyph glyph-name="FL00D0h" unicode="&#xd0;" horiz-adv-x="406" 
d="M313 624l-3 -3l3 -2l2 2zM266 113q7 0 7 5t-7 5t-7 -5t7 -5zM242 301l4 -58t4 -43q2 -1 5 -1h6l-1 -1q18 7 28.5 31t16 53.5t7.5 58.5t2 47q0 9 -4.5 34.5t-11 53.5t-12.5 51t-9 26l-4 4v-1q-6 5 -14.5 14.5t-10.5 12.5q-2 2 -2.5 5t-2.5 6v-7q-2 -33 -3.5 -59.5
t-2.5 -52.5q13 -4 28 -9.5t32 -13.5l-18 -32h-9q-6 0 -16 -0.5t-18 -2.5v-8l28 -6q-8 -7 -15.5 -12.5t-12.5 -7.5v-9q0 -4 0.5 -7.5t0.5 -7.5v-4q1 -7 2 -21.5t3 -32.5zM143 264l-4 9.5t-9.5 25.5t-11 37t-7.5 44l-77 28q0 1 0.5 5.5t0.5 6.5t1 4l-2.5 5t-2.5 6
q-6 8 -7 19.5l-1 11.5l-4 -8q0 9 8.5 18t19.5 9q8 1 15 2l14 2q8 1 15 1.5t14 1.5v9v25q0 4 -0.5 7.5t-0.5 6.5v25q0 7 0.5 25t2 40.5t4 47.5t6.5 45.5t9.5 33.5t13.5 13q11 0 17 -6t11 -14q1 9 5.5 18.5t19.5 16.5q11 -11 17 -14.5t10 -5.5q9 -5 15.5 -10t14.5 -22
q0 -1 3 -1t5 1q3 1 16 1q11 -3 22.5 -21t21.5 -35h28q0 -6 1 -19.5t3 -19.5l20 -21q6 -13 7.5 -27.5t2.5 -28.5q1 -18 3 -35t16 -28q1 -20 3 -34.5t4 -28.5q3 -20 5 -40t2 -43q0 -28 -9.5 -72t-28.5 -86t-47.5 -72.5t-66.5 -30.5q-14 0 -20 11q-2 0 -2 2h-5l-34 -7h-6
q-4 0 -11 6.5t-13.5 15.5t-11.5 18t-5 14v78l-29 24z" />
    <glyph glyph-name="FL00D1h" unicode="&#xd1;" horiz-adv-x="347" 
d="M224 366l-2 4q1 -1 1 -2t1 -3v1zM255 650q1 0 1.5 -0.5t1.5 -0.5v0q1 0 2 1h-5zM206 799q14 7 27.5 20t18.5 45q4 -4 11 -13.5t14 -21t12 -22t5 -15.5l-3 -8q-1 -1 -6 -6.5t-12 -14t-15 -18.5t-15 -19q60 -32 88 -47.5t33 -19.5t-9 1t-38 14.5t-53 20.5t-55 19q-6 2 -8 2
q-9 -14 -24 -14q-10 0 -16.5 6t-6.5 22v8l-1 1l-2 -2q-7 -3 -14.5 -7t-14.5 -11.5t-12 -19t-6 -29.5q-4 4 -11.5 14t-14.5 21.5t-12 21.5t-5 16l3 9l4 5q7 5 21.5 19t22.5 27l3 6h-25l19 19q10 22 17 26t19 4h4l12 20l4 -35q14 -9 27.5 -22t13.5 -19v-3zM236 59q0 5 0.5 11
t0.5 13q0 8 -0.5 14.5t-0.5 11.5v6q-2 6 -6.5 13.5t-8.5 14.5q-1 2 -2 2l-1 2q-3 7 -10 23.5t-15 36t-15.5 40t-10.5 35.5l-5 -3l-1 1q-1 -5 -1 -10v-199h-13v-28h-16q-5 0 -9 2l3 -1q-3 2 -7 3t-8 3q-5 -1 -13 -1q-2 0 -9 2.5t-9 10.5l1 -3q-2 5 -7 15.5t-5 12.5v60l-27 13
v20q0 3 -0.5 6t-0.5 6v11q0 63 3 125q2 31 3 61t1 62q0 2 -3.5 7.5t-8.5 13.5q-5 10 -10.5 20t-8.5 21v3q0 11 5 17.5t12 12.5q-1 10 -1 19v18q0 19 2 37t7 37q5 5 8 7.5t9 4.5h5q12 0 19.5 -4.5t11.5 -11.5t5.5 -15.5t1.5 -17.5q6 4 14 4q19 0 22 -7t3 -18v-3
q0 -7 -3 -12.5t-7 -10.5q-2 -2 -2.5 -3l-0.5 -1q0 -6 8 -24.5t18.5 -38.5t21.5 -37t18 -21l10.5 -28t13.5 -38v9q0 17 1 33.5t3 33.5q2 16 3 32t1 33q0 13 -1 26t-3 26q-2 14 -3 27t-1 28v30h17l-1 2q10 7 18 7h4q6 -2 9.5 -4.5t8.5 -7.5v-1q14 6 19 6t6 -6q5 -3 9.5 -9
t4.5 -11v-84l13 10q8 -43 10 -68t2 -48v-76l-8 -5v-23q0 -5 0.5 -12t0.5 -15v-50q0 -7 -0.5 -13.5t-0.5 -11.5v-31q0 -4 -0.5 -13.5t-1.5 -20t-2 -19.5t-2 -13q-5 -8 -9.5 -10t-9.5 -3q2 -5 5.5 -9t5.5 -8q6 -9 10.5 -17.5t4.5 -19.5t-3 -16.5t-8 -10.5q-3 -3 -5 -7t-2 -21
q-6 0 -17.5 2t-23.5 6t-22 9t-13 10v11z" />
    <glyph glyph-name="FL00D2h" unicode="&#xd2;" 
d="M123 831l-6 -2h1h1t4 2zM192 142l6 -3l-3 7zM36 395q7 -3 9 -10l18 19h-2h-2t-4 1q-1 -2 -3 -6.5t-4 -8.5l2 7q0 -1 -1 -1v-1h-13zM299 470q7 0 7 8q0 6 -7 6q-6 0 -6 -6q0 -8 6 -8zM301 368q0 -10 8 -10q9 0 9 11q0 3 -3 6t-6 3q-5 0 -7 -4zM147 398q0 -40 8.5 -82
t19.5 -84l-1 1q2 -5 2.5 -9.5t2.5 -9.5l-2 2l2 -2q2 -5 3.5 -9.5l1.5 -4.5q2 0 6 4.5t8 11.5l8 14t7 12q2 3 3.5 6l1.5 3l-3 -6q12 57 16 121t4 122q8 2 8 -4v10q0 2 -4 6q-6 5 -11.5 8.5t-6.5 13.5q-2 4 -2.5 9t-0.5 10q-2 12 -6 26.5t-13 16.5h-1q-5 0 -14.5 -2.5
t-9.5 -4.5v-2q0 -5 3 -11l3 -9q-2 -21 -7 -39.5t-10 -36.5q-6 -20 -11 -39.5t-5 -41.5zM123 658q14 23 34.5 39.5t53.5 16.5q-8 38 -19.5 58.5t-23 30t-20 11t-9.5 1.5l-13 -22q-9 8 -11.5 17t-2.5 17h-4q-8 0 -11.5 1.5t-3.5 12.5q0 3 7 10t17.5 14.5t22 14t19.5 8.5
q2 -2 10 -9.5t16 -13.5q5 -5 18 -19.5t26 -30.5q10 -12 17 -20.5t8 -9.5l2 -3q4 -4 4.5 -7t0.5 -5q0 -5 -4.5 -13t-11 -17t-13.5 -18t-13 -15q9 -8 24.5 -22t30.5 -28.5t26 -27t11 -16.5q-2 -2 -3 -4q-1 -1 -3 -5l2 -4l3.5 -7t1.5 -10q0 -10 -3.5 -15.5t-8.5 -9.5
q-3 -2 -3 -4q0 -6 8 -8q4 -2 8.5 -4t9.5 -10q11 -26 16 -62.5t5 -70.5v-47q0 -2 -1 -9t-2.5 -15.5t-3.5 -16t-3 -10.5l3 5q-2 -17 -7 -27.5t-11 -16.5t-11 -8t-6 -2l4 -5l7 7q0 -2 0.5 -9t2.5 -15q0 -5 0.5 -10.5t1 -10.5t1 -8.5t0.5 -2.5q-2 -6 -8 -16v-19
q-12 -16 -19.5 -25.5t-12 -15t-8 -9l-7.5 -7.5q-9 -13 -19 -13h-25v8q-29 -19 -49 -19q-10 0 -19.5 3.5t-9.5 18.5q0 4 1 5q-13 2 -19 9t-11 16q-1 2 -2 2.5t-2 2.5q4 -12 12 -26.5t16 -29.5q-1 0 -11.5 -0.5t-11.5 -0.5h-2q-17 0 -28.5 12t-19 28t-11 32t-3.5 23v6
q0 11 3.5 20t19.5 9q-2 6 -5 13t-7 14q-6 12 -11 24t-6 23v30q-2 2 -3 4t-3 4q-14 12 -14 28q0 3 0.5 4.5l2.5 7.5l1 1q-5 1 -8.5 5t-3.5 12q0 12 9 14q-1 2 -1 9v10q0 37 6 72t14 70q7 24 18 31.5t22 11.5q7 2 10 5l-2 -1l1 1q-4 -1 -8 -1h-8q0 24 7 42.5t33 18.5z" />
    <glyph glyph-name="FL00D3h" unicode="&#xd3;" 
d="M246 828q3 -2 4 -2h1h1q-2 0 -6 2zM192 142l6 -3l-3 7zM36 395q7 -3 9 -10l18 19h-2h-2t-4 1q-1 -2 -3 -6.5t-4 -8.5l2 7q0 -1 -1 -1v-1h-13zM299 470q7 0 7 8q0 6 -7 6q-6 0 -6 -6q0 -8 6 -8zM301 368q0 -10 8 -10q9 0 9 11q0 3 -3 6t-6 3q-5 0 -7 -4zM108 767q0 7 4 11
q0 1 3 4t5 6q6 8 15.5 19.5t18.5 22.5t17 19.5t12 11.5q8 6 16 13.5t11 10.5q9 -2 20 -8.5t21 -14t17 -14.5t7 -10q0 -11 -1.5 -12.5t-12.5 -1.5h-4q0 -8 -2.5 -17.5t-11.5 -17.5l-16 19q-1 -1 -10.5 -5.5t-21.5 -16.5t-23.5 -33.5t-16.5 -54.5q-4 4 -11.5 13t-15.5 19.5
t-14 20.5t-6 16zM147 398q0 -40 8.5 -82t19.5 -84l-1 1q2 -5 2.5 -9.5t2.5 -9.5l-2 2l2 -2q2 -5 3.5 -9.5l1.5 -4.5q2 0 6 4.5t8 11.5l8 14t7 12q2 3 3.5 6l1.5 3l-3 -6q12 57 16 121t4 122q6 2 8 -3v9q0 2 -4 6q-6 5 -11.5 8.5t-6.5 13.5q-2 4 -2.5 8.5t-0.5 9.5
q-2 12 -6 27t-12 17h-2q-5 0 -14.5 -2.5t-9.5 -4.5v-2q0 -5 3 -11l3 -9q-2 -21 -7 -39.5t-10 -37.5q-6 -20 -11 -39t-5 -41zM123 658q14 23 34.5 39.5t53.5 16.5q2 0 18 -14t34 -31.5t33 -34t15 -21.5q-2 -2 -3 -4q-1 -1 -3 -5q0 -2 2 -4l3.5 -7t1.5 -10q0 -10 -3.5 -15.5
t-8.5 -9.5q-3 -2 -3 -4q0 -6 8 -8q4 -2 8.5 -4.5t9.5 -9.5q11 -26 16 -62.5t5 -70.5v-47q0 -2 -1 -9t-2.5 -15.5t-3.5 -16t-3 -10.5l3 5q-2 -17 -7 -27.5t-11 -16.5t-11 -8t-6 -2l4 -5l7 7q0 -2 0.5 -9t2.5 -15q0 -5 0.5 -10.5t1 -10.5t1 -8.5t0.5 -2.5q-2 -6 -8 -16v-19
q-12 -16 -19.5 -25.5t-12 -15t-8 -9l-7.5 -7.5q-9 -13 -19 -13h-25v8q-29 -19 -49 -19q-10 0 -19.5 3.5t-9.5 18.5q0 4 1 5q-13 2 -19 9t-11 16q-1 2 -2 2.5t-2 2.5q4 -12 12 -26.5t16 -29.5q-1 0 -11.5 -0.5t-11.5 -0.5h-2q-17 0 -28.5 12t-19 28t-11 32t-3.5 23v6
q0 11 3.5 20t19.5 9q-2 6 -5 13t-7 14q-6 12 -11 24t-6 23v30q-2 2 -3 4t-3 4q-14 12 -14 28q0 2 0.5 3.5t2.5 8.5l1 1q-5 1 -8.5 5t-3.5 12q0 12 9 14q-1 2 -1 9v10q0 37 6 72t14 70q7 24 18 31.5t22 11.5q8 2 10 5l-2 -1l1 1q-4 -1 -8 -1h-8q0 24 7 42t33 18z" />
    <glyph glyph-name="FL00D4h" unicode="&#xd4;" 
d="M192 142l6 -3l-3 7zM36 395q7 -4 9 -11l18 20h-2h-2t-4 1q-1 -2 -3 -6.5t-4 -8.5l2 7q0 -1 -1 -1v-1h-13zM299 470q7 0 7 7t-7 7q-6 0 -6 -7t6 -7zM301 368q0 -10 8 -10q9 0 9 11q0 3 -3 6t-6 3q-5 0 -7 -4zM147 398q0 -40 8.5 -82t19.5 -84l-1 1q2 -5 2.5 -9.5t2.5 -9.5
l-2 2l2 -2l5 -15q2 0 6 5t8 11.5t8 14t7 12.5q2 3 3.5 6l1.5 3l-3 -6q12 57 16 121t4 122q8 2 8 -4v10q0 2 -4 6q-6 4 -11.5 7.5t-6.5 14.5q-2 4 -2.5 8.5t-0.5 9.5q-2 12 -6 27t-12 17h-2q-5 0 -14.5 -2.5t-9.5 -4.5v-2q0 -2 0.5 -5.5t2.5 -5.5l3 -9q-2 -21 -7 -39.5
t-10 -37.5q-6 -20 -11 -39t-5 -41zM123 657q14 23 34.5 40t53.5 17q2 0 10 -6.5t19 -17.5q-5 29 -18.5 45t-29.5 26q-4 -2 -12 -4q-9 -3 -18 -7.5t-17.5 -11.5t-14.5 -17.5t-9 -26.5q-4 4 -11.5 13t-15.5 19.5t-14 20.5t-6 16q0 2 0.5 5t4.5 7q1 2 9 7h-1l20 15t23 18h-10
v18q12 19 28.5 31t28.5 12q2 0 6 -1t10 -7v-1v-1q9 -4 19.5 -10.5t19 -13t14 -12.5t5.5 -9q0 -10 -1 -12q5 -6 10 -12.5t9 -11.5v1q6 -6 9 -10.5t4 -5.5q4 -4 4.5 -7t0.5 -5q0 -6 -6 -15.5t-13.5 -20t-15.5 -20t-12 -13.5q11 -10 23.5 -22t23 -23t17.5 -19.5t7 -11.5
q-2 -2 -3 -4q-1 -1 -3 -5q0 -1 2 -5q2 -3 3.5 -6t1.5 -10q0 -11 -3.5 -16t-8.5 -9q-3 -2 -3 -4q0 -6 8 -8q4 -2 8.5 -4.5t9.5 -9.5q11 -26 16 -63t5 -70v-48q0 -2 -1 -8.5t-2.5 -15t-3.5 -16t-3 -10.5l3 5q-2 -17 -7 -27.5t-11 -16.5t-11 -8t-6 -2l4 -5l7 7q0 -7 3 -25
q0 -4 0.5 -9.5t1 -10.5t1 -8.5t0.5 -2.5q-2 -6 -8 -16v-19q-12 -16 -19.5 -25.5t-12 -15t-8 -9l-7.5 -7.5q-9 -13 -19 -13h-25v8q-29 -19 -49 -19q-10 0 -19.5 3.5t-9.5 18.5q0 3 1 5q-13 2 -19 9t-11 16q-1 2 -2 2.5t-2 1.5q4 -11 12 -25.5t16 -29.5q-1 0 -11.5 -0.5
t-11.5 -0.5h-2q-17 0 -28.5 12t-19 28t-11 32t-3.5 23v6q0 11 3.5 20t19.5 9q-5 12 -12 27q-6 12 -11 24t-6 23v30q-2 3 -6 7q-14 14 -14 28q0 3 0.5 4.5t2.5 8.5l1 1q-5 1 -8.5 5t-3.5 12q0 12 9 14q-1 2 -1 9v9q0 38 6 73t14 70q7 24 18 31.5t22 10.5q7 2 10 6l-2 -1l1 1
q-4 -1 -8 -1h-8q0 24 7 42t33 18z" />
    <glyph glyph-name="FL00D5h" unicode="&#xd5;" 
d="M192 142l6 -3l-3 7zM40 393q3 -2 5 -9l18 20h-2h-6q-2 -5 -7 -14l1 4zM299 470q7 0 7 7t-7 7q-6 0 -6 -7t6 -7zM301 368q0 -10 8 -10q9 0 9 11q0 9 -9 9q-5 0 -7 -4zM147 398q0 -39 8 -79t18 -81l-1 1q1 -2 2 -6t2 -6q0 -4 1 -5q0 -2 1 -4l1 -2l-3 2q1 -1 1.5 -2t1.5 -2
l5 -15q2 0 6 5t8 11.5t8 14t7 12.5q2 3 3.5 6l1.5 3l-3 -6q12 57 16 121t4 122q6 2 8 -3v9q0 2 -4 6q-6 4 -11.5 7.5t-6.5 14.5q-2 4 -2.5 8.5t-0.5 9.5q-2 13 -6 27.5t-13 16.5h-1q-5 0 -14.5 -2.5t-9.5 -4.5v-2q0 -2 0.5 -5.5t2.5 -5.5l3 -9q-2 -21 -7 -39.5t-10 -37.5
q-6 -20 -11 -39t-5 -41zM219 817q14 7 28 20t19 45q3 -4 10 -13.5t14 -21t12 -22t5 -15.5l-2 -8q-1 -1 -6 -6.5t-12.5 -14t-15.5 -18t-15 -18.5q60 -32 88.5 -47.5t33 -19.5t-9.5 1t-37.5 14t-53 20t-55.5 19q-6 2 -7 2q-5 -6 -11.5 -10t-12.5 -4q-11 0 -17 6t-6 22v8l-1 1
q-2 -2 -3 -2q-7 -3 -14.5 -7t-14.5 -11t-12 -19t-6 -30q-4 4 -11.5 14t-14.5 21.5t-12 22t-5 15.5l3 9l5 6q7 5 21 19t22 26l3 6h-24l18 19q10 22 17 26t19 4h4l12 20l5 -35q14 -9 27 -22t13 -19v-3zM50 184q0 10 3.5 19t19.5 9q-5 12 -12 27q-6 12 -11 24t-6 23v30
q-2 3 -6 7q-14 14 -14 28q0 3 0.5 4.5t2.5 8.5l2 2q-13 0 -13 16q0 12 9 14l-1 17q0 38 6.5 73.5t14.5 70.5q7 23 17.5 31t21.5 11q7 2 9 5h-1l1 1q-4 -1 -8 -1h-8q0 24 7 42t33 18l6 -7q14 23 34.5 40t53.5 17q2 0 18 -14t34 -31.5t33 -34t15 -21.5q-2 -2 -3 -4
q-1 -1 -3 -5q0 -1 2 -5q2 -3 3.5 -6t1.5 -10q0 -11 -3.5 -16t-8.5 -9q-3 -2 -3 -4q0 -6 8 -8q4 -2 8.5 -4.5t9.5 -9.5q11 -26 16 -63t5 -70v-48q0 -2 -1 -8.5t-2.5 -15t-3.5 -16t-3 -10.5l3 5q-2 -17 -7 -27.5t-11 -16.5t-11 -8t-6 -2l4 -5l7 8l6 -57q-2 -6 -8 -15v-20
q-13 -17 -20 -26t-11.5 -14.5t-8 -9l-8.5 -8.5q-11 -12 -21 -12h-22v8q-14 -8 -26.5 -13.5t-22.5 -5.5t-19.5 3.5t-9.5 18.5q0 3 1 5q-13 2 -19 9t-11 16q-3 3 -4 5q3 -11 10 -24.5t15 -27.5l-19 -5q-17 0 -29.5 12t-20.5 28t-11.5 32t-3.5 23v7z" />
    <glyph glyph-name="FL00D6h" unicode="&#xd6;" 
d="M192 142l6 -3l-3 7zM36 395q7 -4 9 -11l18 20h-2h-2t-4 1q-1 -2 -3 -6.5t-4 -8.5l2 7q0 -1 -1 -1v-1h-13zM299 469q7 0 7 8q0 7 -7 7q-6 0 -6 -7q0 -8 6 -8zM301 368q0 -10 8 -10q9 0 9 11q0 3 -3 6t-6 3q-5 0 -7 -4zM182 782q1 2 2 5.5t3 8.5q4 12 9 31t7 34
q7 1 15.5 1.5t19.5 0.5q21 0 39 -6t18 -14q0 -10 -12 -14q1 0 1 -1h1v1q5 -6 8.5 -14.5t3.5 -17.5q0 -8 -2 -12v2q-3 -11 -9 -15.5t-12 -8.5h1q-5 -3 -8.5 -7.5t-8.5 -21.5q-6 1 -18.5 5.5t-25 10.5t-22.5 13t-11 13zM53 768q1 4 4.5 16.5t9.5 27.5q4 13 6.5 28t3.5 23
q21 6 36 6q11 0 23 -2t21.5 -5.5t15.5 -7.5t6 -8q0 -13 -15 -15q2 -4 4 -6v1q5 -8 8.5 -17.5t3.5 -19.5v-5t-1 -7q-4 -11 -9 -16.5t-13 -10.5q-5 -5 -10 -10.5t-9 -24.5q-8 1 -22 6t-27.5 12t-24 14.5t-11.5 15.5v5zM147 398q0 -40 8.5 -82t19.5 -84l-1 1q2 -5 2.5 -9.5
t2.5 -9.5l-2 2l2 -2l5 -15q2 0 6 4.5t8 11.5t8 14.5t7 12.5q2 3 3.5 6l1.5 3l-3 -6q12 56 16 120t4 123q8 2 8 -4v10q0 3 -4 5q-6 5 -11.5 8.5t-6.5 14.5q-2 4 -2.5 8.5t-0.5 9.5q-2 13 -6 27.5t-13 16.5h-1q-5 0 -14.5 -2.5t-9.5 -4.5v-2q0 -2 0.5 -5.5t2.5 -6.5l3 -8
q-2 -21 -7 -40t-10 -37q-6 -20 -11 -39t-5 -41zM123 657q14 23 34.5 39.5t53.5 16.5q2 0 18 -14t34 -31.5t33 -34t15 -20.5q-2 -2 -3 -4q-1 -1 -3 -5q0 -1 2 -5l3.5 -7t1.5 -9q0 -11 -3.5 -16.5t-8.5 -8.5q-3 -2 -3 -4q0 -6 8 -8q4 -2 8.5 -4.5t9.5 -10.5q11 -26 16 -62.5
t5 -69.5v-48q0 -2 -1 -8.5t-2.5 -15t-3.5 -16t-3 -10.5l3 5q-2 -17 -7 -27.5t-11 -16.5t-11 -8t-6 -2l4 -5l7 7q0 -7 3 -25q1 -8 2 -20.5t1 -11.5q-2 -6 -8 -15v-19q-12 -16 -19.5 -25.5t-12 -15t-8 -9l-7.5 -7.5q-9 -13 -19 -13h-25v8q-29 -19 -49 -19q-10 0 -19.5 3.5
t-9.5 18.5q0 3 1 5q-13 2 -19 9t-11 16q-1 2 -2 2t-2 2q4 -11 12 -25.5t16 -29.5q-1 0 -11.5 -0.5t-11.5 -0.5h-2q-17 0 -28.5 12t-19 28t-11 32t-3.5 23v6q0 11 3.5 20t19.5 9q-5 12 -12 27q-6 12 -11 24t-6 23v30q-4 4 -6 7q-14 14 -14 28q0 3 0.5 4.5t2.5 8.5l1 1
q-5 1 -8.5 4.5t-3.5 11.5q0 13 9 15q-1 2 -1 9v9q0 38 6 73t14 70q7 24 18 31t22 11q7 2 10 6l-2 -1l1 1q-4 -1 -8 -1h-8q0 24 7 42t33 18z" />
    <glyph glyph-name="FL00D7h" unicode="&#xd7;" horiz-adv-x="338" 
d="M260 235v-1h1h-1v1zM88 631q1 0 1.5 -0.5l0.5 -0.5v1h-2zM60 597l1 1q1 0 2 1q-1 0 -3 -2zM298 205q-2 0 -4 -2q2 0 4 2zM171 444q1 0 1 -1h1l3 24q-1 -1 -2 -1.5t-2 -1.5v-13q0 -2 -0.5 -3t-0.5 -3v-1zM99 500q-8 0 -8 -8t8 -8q6 0 6 8t-6 8zM260 302q6 0 6 9q0 7 -6 7
q-8 0 -8 -7q0 -9 8 -9zM63 599q1 1 1 6q0 7 -8 7q-6 0 -6 -7q0 -8 6 -8h4q-2 -1 -2 -6q0 -9 6 -9q7 0 7 9q0 8 -7 8h-1zM294 203q-2 -2 -2 -6q0 -7 8 -7q7 0 7 7q0 8 -7 8h-2q2 2 2 7q0 7 -7 7t-7 -7q0 -9 7 -9h1zM170 571q-8 -6 -16.5 -9.5t-17.5 -5.5q1 -1 7 -3l-1 1
q4 -2 9 -9.5t10.5 -17.5t10 -20t7.5 -16v50q-1 5 -1 16q0 23 12 40t41 43q4 0 3.5 0.5t1.5 1.5q5 3 14 7t29 4q0 -26 -1 -42t-3 -31q0 -1 -0.5 -1.5t-0.5 -1.5q20 -1 28 -5.5t16 -15.5v-19q0 -2 0.5 -3.5t0.5 -3.5v-5q0 -11 -6 -26t-15.5 -31t-21.5 -32t-24 -31q2 -2 3 -2
q13 -40 28 -79t35 -81l-2 2l19 -26v-5q0 -3 -2 -11t-4 -17t-5 -18t-4 -15l-1 -1q-2 -17 -23 -17q-8 7 -15 15h-1v1q-6 4 -7 7q-17 0 -17 17q-16 9 -19.5 20.5t-5.5 24.5v2q-2 -5 -5.5 -7.5t-7.5 -4.5l-27 16q15 15 29 19q-2 4 -6 5t-10.5 11t-12.5 22t-10.5 22t-4.5 12v6
q0 11 7 14q-1 2 -2 4.5t-3 5.5l-8 -28v-53q-2 -11 -6.5 -22.5t-9.5 -22.5h1q-5 -11 -9.5 -23t-4.5 -33h-8q-7 -5 -19.5 -11t-34.5 -6q0 26 1 42.5t3 31.5v2q-23 1 -29.5 7.5t-13.5 17.5v7q0 2 -0.5 4t-0.5 4v12q0 10 5.5 24.5t14.5 31t21 33.5t24 32l-2 2q-11 42 -26 81
t-36 78v-1l-16 25v7q0 3 1.5 12t4 20t5.5 21t5 14q3 10 20 10q5 -4 10.5 -9.5l7.5 -7.5l6 -6h2q8 0 12 -3t4 -13v-2q15 -8 18.5 -20t5.5 -23v-3q2 4 5.5 7.5l6.5 6.5z" />
    <glyph glyph-name="FL00D8h" unicode="&#xd8;" 
d="M245 522l-1 -1h1v1zM176 251q1 -1 1.5 -2t1.5 -2q0 1 -3 4zM94 108q-2 2 -2 4t-1 4q-1 -1 -2 -1l-1 -1q1 0 1 -1h1zM192 176l6 -3l-3 6zM36 427q7 -3 9 -10l18 19h-2h-2t-4 1q-1 -2 -3 -6.5t-4 -8.5l2 7q0 -1 -1 -1v-1h-13zM299 502q7 0 7 7t-7 7q-6 0 -6 -7t6 -7z
M301 400q0 -9 8 -9q9 0 9 10q0 3 -3 6t-6 3q-5 0 -7 -4zM180 247v-2q1 -5 2.5 -9l1.5 -4q2 0 6 4.5t8 11.5t8 14.5t7 12.5q2 3 3.5 6l1.5 3l-3 -6q5 24 8.5 48t5.5 50q0 -1 -1 -1v0q-2 -4 -3.5 -8t-3.5 -10q-5 -15 -10.5 -32.5t-8.5 -28.5l-4.5 -9l-7.5 -15t-7 -15t-3 -9v-1
zM163 510q-6 -17 -10.5 -34.5t-5.5 -36.5q5 18 10.5 35.5t12.5 36.5l10 27q8 0 11 5t5 10l-1 -3v1l3 12l2 7q2 8 5 12q1 2 1 5t1 8q1 2 1 5t1 6q-5 8 -9 9h-1h-1q-5 0 -14.5 -2t-9.5 -4v-2q0 -2 0.5 -5.5t2.5 -6.5l3 -9q-2 -21 -7 -39.5t-10 -36.5zM50 216q0 11 3.5 20
t19.5 9q-5 12 -12 27q-6 11 -11 23t-6 23v30q-2 2 -3 4t-3 4q-6 6 -10 12.5t-4 15.5q0 3 0.5 4.5l2.5 7.5l1 1q-5 1 -8.5 5t-3.5 12q0 12 9 14q-1 2 -1 9v10q0 37 6 72t14 69q7 24 18 31.5t22 11.5q7 2 10 6l-2 -1l1 1q-4 -1 -8 -1h-8q0 23 7 41t33 18l6 -6q14 23 34.5 39.5
t53.5 16.5q4 0 17.5 -11.5t30.5 -25.5q1 3 1 5q0 3 1 5q0 1 1 6.5t4 20.5q20 -14 33 -31.5t13 -35.5v-10l-2 -7q-1 -2 -1 -5l19 -19q-14 0 -16 0.5t-2 5.5l-1 -1.5t-2 -3.5v-1q-1 -2 -1 -5q2 -4 4 -8.5t2 -9.5q0 -10 -3.5 -15.5t-8.5 -9.5q-3 -2 -3 -4q0 -5 8 -7
q4 -2 8.5 -4.5t9.5 -10.5q11 -26 16 -62.5t5 -69.5v-47q0 -2 -1 -9t-2.5 -15t-3.5 -15.5t-3 -10.5l3 5q-2 -17 -7 -27.5t-11 -16.5t-11 -8t-6 -2l4 -5l7 6q0 -2 0.5 -8.5t2.5 -15.5q1 -8 2 -20.5t1 -11.5q-2 -6 -8 -15v-19q-12 -16 -19.5 -25.5t-12 -15t-8 -9l-7.5 -7.5
q-9 -13 -19 -13h-25v8q-27 -18 -49 -18h-8t-8 2l-31 -90q-14 17 -19 26.5t-5 14.5v4t2 7l-1 -1q2 8 2 14l1 -4q-1 5 -2.5 7.5t-3.5 5.5h-1q2 -6 2 -8q0 -10 -3 -17q0 -5 -0.5 -16t-0.5 -12l-23 23q-4 3 -8 7t-4 15q0 4 1 7v2v0q1 0 1 1q1 1 2 3t3 5l2 1q-7 6 -7 16q0 6 3 12
l1 5v4q-8 17 -12 34.5t-4 25.5v6z" />
    <glyph glyph-name="FL00D9h" unicode="&#xd9;" horiz-adv-x="325" 
d="M295 196q1 0 1 1zM93 881l-6 -2h1h1t4 2zM250 558l9 7l-2 1zM225 831q4 -4 4.5 -7t0.5 -5q0 -6 -6 -16t-14 -20.5t-15.5 -19.5t-11.5 -13q-7 43 -19.5 66.5t-24.5 34t-21 12t-10 1.5l-13 -21q-8 7 -10.5 16.5t-2.5 17.5h-4q-8 0 -11.5 1.5t-3.5 11.5q0 3 7 10.5t17.5 15
t22 14t19.5 8.5q2 -2 9.5 -10t15.5 -13q5 -5 18 -19.5t26 -31.5q9 -11 16 -20t8 -10zM135 39h3l-98 3q0 22 -0.5 49t-1.5 48q0 21 -1 43t-1 46l-11 282q8 5 10 12t2 14v11q0 2 -0.5 4.5t-0.5 5.5v8q-1 8 -2 20t-3 22q-1 5 -1 7q0 3 -1 8l25 73l1 -2v0q0 1 -1 2l1 1q0 1 -1 1
v1v-3q-2 5 -4 11.5t-2 10.5l-1 4.5t-3 18.5q28 0 48 -10t26 -30q2 -8 4 -14.5t4 -11.5l-1 1q8 -29 8 -40q0 -10 -3 -17.5t-11 -14.5v-16q1 -5 1 -12t1 -15q1 -11 0.5 -21.5t-8.5 -18.5l21 -16q0 -4 1 -20t2.5 -38.5t3.5 -50.5l4 -56q2 -29 4.5 -58t4 -53.5t2.5 -41.5t1 -22
v-11q0 -9 -7 -16v-3q12 8 26 8h16h3l7 16l1 -1v17v34q0 4 -1 19t-2 37t-3 49t-3 55q-2 27 -3.5 53.5t-2.5 48t-1.5 36t-0.5 18.5v12q0 10 3 17.5t15 12.5v4q0 6 -0.5 14t-0.5 18q0 9 0.5 16.5t0.5 14.5v13q0 5 1.5 13.5t3.5 16.5q0 4 1 8v5q0 10 2.5 17t19.5 7h8
q5 -6 6.5 -9t2.5 -6v1q0 -2 0.5 -2.5t0.5 -2.5q4 4 7 6t8 5h-1q8 6 12 8h-1q2 3 2.5 6t1.5 7q2 9 7.5 16t34.5 15v-119q-2 -3 -6.5 -11t-4.5 -9q0 1 1 -1l2 -4t1.5 -4.5l0.5 -2.5v-13l-15 -14q-1 -4 -1.5 -12t-1 -17t-0.5 -17v-10q0 -2 0.5 -15.5t1.5 -35.5t2.5 -49.5
t3.5 -56.5q1 -29 2.5 -56.5t3 -50t2 -36.5t0.5 -15q0 -8 -4 -12t-9 -4h-7l-58 -117l-72 -43z" />
    </font>
</defs>
</svg>
