<?xml version="1.0" standalone="no"?>
<!DOCTYPE svg PUBLIC "-//W3C//DTD SVG 20010904//EN"
 "http://www.w3.org/TR/2001/REC-SVG-20010904/DTD/svg10.dtd">
<svg version="1.0" xmlns="http://www.w3.org/2000/svg"
 width="1280.000000pt" height="797.000000pt" viewBox="0 0 1280.000000 797.000000"
 preserveAspectRatio="xMidYMid meet">
<metadata>
Created by potrace 1.15, written by Peter Selinger 2001-2017
</metadata>
<g transform="translate(0.000000,797.000000) scale(0.100000,-0.100000)"
fill="#000000" stroke="none">
<path d="M5583 6658 c-208 -333 -333 -626 -452 -1063 -75 -271 -150 -695 -176
-987 -6 -59 -11 -79 -24 -82 -69 -21 -687 -156 -697 -152 -19 7 -27 167 -15
280 38 334 146 637 504 1416 151 330 240 540 228 540 -17 0 -79 -78 -141 -178
-35 -57 -113 -162 -174 -235 -247 -298 -416 -554 -578 -881 -81 -164 -106
-236 -202 -578 -87 -312 -154 -432 -259 -463 -28 -8 -84 -15 -125 -15 l-74 0
6 38 c4 20 40 174 81 342 122 501 147 653 148 880 0 182 -16 270 -68 377 -44
88 -121 162 -203 194 -181 70 -445 8 -667 -158 -276 -206 -527 -488 -809 -913
-388 -581 -526 -880 -526 -1134 0 -56 4 -69 27 -97 33 -39 95 -68 144 -69 20
0 39 -6 41 -12 3 -7 -1 -85 -9 -173 -17 -190 -10 -315 16 -315 4 0 15 25 25
55 26 83 101 227 143 274 28 32 48 45 78 50 51 9 89 0 93 -22 2 -10 -15 -72
-37 -140 -46 -141 -56 -186 -47 -223 l7 -27 47 47 c85 85 240 172 265 147 6
-6 1 -35 -13 -83 -23 -72 -32 -169 -18 -184 4 -4 15 2 25 14 32 36 95 72 128
72 31 0 35 -5 73 -77 105 -204 110 -379 12 -452 -36 -26 -102 -51 -136 -51
-29 0 -32 -26 -8 -71 14 -28 14 -32 -1 -49 -9 -10 -32 -26 -50 -34 -37 -18
-120 -21 -130 -6 -3 6 -11 10 -16 10 -16 0 2 -53 27 -81 30 -31 23 -39 -33
-39 -41 0 -89 19 -140 56 -22 16 -22 16 -13 -18 17 -59 39 -80 128 -125 11 -5
-23 -45 -50 -59 -59 -30 -147 -4 -256 78 l-53 39 30 -58 c38 -75 101 -156 151
-192 l40 -29 -28 -5 c-40 -8 -120 10 -167 37 -44 26 -97 80 -190 194 -32 39
-63 72 -67 72 -4 0 -8 -24 -8 -53 0 -290 322 -514 875 -608 155 -27 515 -37
676 -19 146 16 299 51 394 91 180 75 370 233 433 360 69 142 65 231 -14 360
-214 346 -347 783 -304 1001 23 119 53 145 135 113 103 -39 189 -201 300 -564
164 -537 446 -982 875 -1380 95 -89 298 -267 374 -330 10 -9 -4 20 -32 64
-284 453 -509 819 -536 873 -127 254 -240 625 -300 987 -26 153 -56 396 -56
451 l0 31 314 52 c212 35 326 50 350 46 89 -17 111 -72 126 -315 9 -151 34
-324 75 -519 108 -513 371 -1112 655 -1492 88 -118 260 -313 290 -329 24 -13
39 -50 -170 405 -300 654 -379 889 -424 1260 -9 72 -27 220 -40 330 -24 193
-62 533 -68 605 -3 33 -1 36 37 48 165 54 638 54 691 0 7 -7 40 -181 73 -388
145 -888 204 -1071 455 -1404 84 -112 366 -413 428 -457 l27 -20 -21 48 c-11
26 -64 122 -116 213 -115 198 -166 311 -237 524 -86 260 -176 650 -270 1171
-20 115 -47 335 -41 342 2 3 839 83 842 81 1 -2 10 -55 19 -118 28 -197 124
-683 149 -756 105 -306 291 -615 492 -819 67 -68 174 -162 174 -152 0 2 -39
85 -86 183 -128 266 -245 532 -303 686 -106 283 -171 622 -171 890 0 72 2 78
23 82 42 9 637 59 642 54 3 -3 16 -106 29 -229 19 -181 30 -243 56 -324 73
-226 193 -430 330 -559 45 -42 86 -76 92 -76 16 0 2 34 -117 280 -151 315
-195 439 -211 594 -6 54 7 229 22 309 l6 27 331 0 332 0 26 -108 c52 -213 140
-392 241 -488 100 -95 99 -80 -3 138 -98 207 -110 246 -116 365 l-6 101 39 11
c22 6 64 11 94 10 60 0 247 -23 255 -31 3 -2 68 -144 145 -314 192 -423 254
-520 469 -734 240 -238 501 -387 805 -460 161 -39 438 -66 435 -42 0 4 -78 79
-172 167 -269 253 -403 428 -543 710 -130 261 -170 422 -161 655 6 158 27 256
87 400 60 145 191 341 330 495 171 189 427 447 471 476 27 17 49 37 49 44 0
20 -52 66 -98 86 -86 37 -195 52 -346 46 -160 -5 -198 -15 -361 -97 -324 -163
-637 -491 -899 -942 l-98 -168 -37 19 c-66 34 -153 52 -284 58 -70 3 -130 9
-132 13 -2 4 25 116 60 250 36 134 63 245 60 248 -3 3 -19 -8 -36 -24 -43 -40
-124 -212 -150 -317 -27 -106 -27 -106 -172 -83 -56 9 -210 28 -342 42 -132
14 -244 29 -249 34 -24 23 42 342 128 619 20 63 33 117 30 120 -13 13 -97 -99
-143 -189 -75 -146 -124 -308 -137 -451 l-7 -69 -364 0 -363 0 4 23 c3 12 8
65 11 117 12 174 54 554 69 625 8 39 58 205 110 369 53 165 94 301 92 303 -7
7 -94 -132 -139 -222 -24 -49 -69 -153 -100 -230 -128 -325 -215 -648 -252
-937 -3 -27 -7 -49 -8 -49 -5 -3 -942 -37 -945 -34 -2 2 84 436 191 966 107
530 194 965 193 967 -4 4 -251 -427 -294 -513 -65 -131 -100 -254 -162 -565
-32 -162 -79 -376 -104 -476 -25 -99 -52 -223 -60 -274 -9 -51 -17 -95 -19
-97 -2 -2 -130 -8 -283 -13 -153 -5 -339 -12 -411 -15 l-133 -6 0 83 c0 46 7
126 15 178 7 52 43 294 79 537 99 676 126 801 255 1198 73 224 99 315 87 315
-2 0 -53 -78 -113 -172z m-2823 -2408 c-35 -28 -82 -39 -122 -30 -32 8 -31 8
12 8 27 -1 61 7 85 20 50 26 57 27 25 2z m4577 -572 c-3 -8 -6 -5 -6 6 -1 11
2 17 5 13 3 -3 4 -12 1 -19z m28 -116 c-5 -5 -25 69 -24 88 0 8 7 -7 14 -35 8
-27 12 -51 10 -53z"/>
</g>
</svg>
