<?xml version="1.0" standalone="no"?>
<!DOCTYPE svg PUBLIC "-//W3C//DTD SVG 20010904//EN"
 "http://www.w3.org/TR/2001/REC-SVG-20010904/DTD/svg10.dtd">
<svg version="1.0" xmlns="http://www.w3.org/2000/svg"
 width="1280.000000pt" height="1003.000000pt" viewBox="0 0 1280.000000 1003.000000"
 preserveAspectRatio="xMidYMid meet">
<metadata>
Created by potrace 1.15, written by Peter Selinger 2001-2017
</metadata>
<g transform="translate(0.000000,1003.000000) scale(0.100000,-0.100000)"
fill="#000000" stroke="none">
<path d="M5248 8645 c-3 -3 -70 -8 -149 -10 -79 -3 -189 -10 -243 -16 -55 -6
-122 -9 -150 -6 -28 3 -91 -1 -141 -9 -49 -7 -113 -13 -140 -14 -43 0 -60 -7
-124 -50 -46 -31 -85 -50 -102 -50 -58 0 -232 31 -292 52 -34 12 -100 25 -147
29 -47 4 -122 13 -168 19 -61 9 -116 10 -210 3 -91 -7 -162 -6 -252 2 -82 8
-256 11 -505 9 -422 -5 -467 -10 -505 -64 -16 -22 -31 -29 -77 -36 -54 -8 -60
-12 -80 -49 -27 -48 -39 -74 -47 -97 -3 -10 -14 -18 -25 -18 -10 0 -21 -7 -25
-15 -3 -8 -10 -15 -16 -15 -6 0 -27 -16 -46 -37 -29 -30 -37 -50 -51 -120 -16
-81 -19 -87 -71 -136 -29 -29 -60 -56 -68 -60 -8 -4 -21 -22 -30 -40 -10 -18
-31 -50 -48 -72 -38 -48 -76 -127 -76 -158 0 -16 -11 -27 -39 -41 -22 -10 -51
-31 -66 -46 -30 -32 -65 -121 -65 -169 0 -26 -10 -45 -43 -81 -23 -26 -50 -60
-61 -75 -16 -24 -23 -26 -55 -21 -34 5 -39 2 -104 -65 -41 -44 -67 -80 -67
-94 0 -12 -17 -38 -37 -59 l-38 -38 3 -90 c2 -49 -1 -95 -6 -101 -32 -43 -48
-240 -22 -287 17 -31 14 -151 -4 -195 -10 -22 -11 -49 -4 -100 4 -39 10 -83
12 -99 2 -19 11 -32 25 -37 18 -7 21 -16 21 -72 0 -40 5 -69 13 -75 7 -6 39
-49 71 -97 52 -75 60 -92 63 -143 3 -31 11 -70 20 -87 13 -27 13 -37 -1 -98
-22 -93 -20 -124 7 -151 13 -13 29 -25 36 -27 7 -3 19 -29 27 -59 7 -29 23
-63 34 -75 11 -12 20 -33 20 -48 0 -21 11 -35 50 -63 27 -20 50 -37 50 -37 0
-1 9 -27 19 -57 15 -47 24 -58 57 -75 22 -11 53 -29 69 -40 23 -15 49 -19 115
-21 47 0 90 2 95 6 6 4 29 10 51 14 46 7 104 -12 140 -45 14 -13 41 -21 85
-25 35 -3 76 -6 92 -8 15 -2 38 -4 51 -5 28 -1 95 -52 110 -84 14 -27 76 -58
131 -65 22 -2 47 -11 55 -18 21 -17 128 -34 225 -34 44 0 111 -7 149 -15 39
-8 99 -14 135 -13 36 1 96 -4 133 -12 56 -11 72 -11 92 -1 26 15 101 11 191
-9 28 -6 91 -12 141 -12 76 -1 97 2 135 22 24 12 52 27 62 32 10 5 43 11 73
13 35 2 60 9 67 18 7 9 29 30 50 46 38 29 41 30 135 27 85 -3 101 -1 132 18
41 25 221 67 235 56 19 -16 146 -35 153 -23 12 18 270 -15 378 -48 21 -6 41
-6 58 1 15 5 43 10 62 10 19 0 49 8 67 17 18 9 55 20 83 24 28 4 70 19 93 33
31 20 55 27 89 26 129 -1 212 0 262 6 50 5 58 3 85 -20 46 -41 52 -45 80 -58
21 -10 28 -8 48 10 12 11 42 24 65 28 44 7 72 26 72 48 0 7 9 21 20 31 11 10
20 23 20 29 1 6 25 38 55 71 l53 60 36 -13 c33 -12 40 -11 109 23 41 20 93 54
116 76 34 31 50 39 79 39 39 0 98 30 120 61 7 11 21 19 31 19 10 0 36 13 57
28 21 16 46 31 54 35 51 23 96 61 148 128 33 42 63 87 67 100 4 13 16 30 26
37 11 7 19 21 19 30 0 9 17 36 39 60 29 31 46 42 68 42 17 0 38 9 48 20 10 11
26 20 35 20 10 0 20 7 24 15 3 10 20 15 48 15 49 1 98 35 98 69 0 10 5 21 11
23 7 2 7 17 0 48 -5 25 -11 70 -13 100 -3 54 -3 55 29 65 24 8 42 26 66 65 18
30 33 58 33 63 14 105 16 111 69 181 29 40 63 96 75 126 12 30 25 59 30 65 4
5 22 37 40 70 17 33 43 69 56 80 20 17 22 25 15 50 -4 17 -6 47 -3 68 2 20 0
43 -6 50 -28 34 -33 197 -8 267 10 29 16 79 16 138 0 109 -13 143 -84 212 -38
36 -46 50 -46 80 1 19 7 46 15 60 19 33 19 139 0 164 -8 11 -15 39 -15 63 0
73 -87 217 -163 269 -43 28 -82 105 -78 151 2 27 -6 40 -51 85 -70 68 -143
128 -185 150 -31 17 -48 17 -204 9 -129 -8 -197 -17 -279 -38 -100 -25 -110
-26 -127 -12 -25 22 -88 36 -228 49 -66 6 -133 15 -150 20 -49 15 -242 31
-370 31 -112 0 -178 11 -237 40 -53 26 -233 50 -250 34z"/>
<path d="M9795 5324 c-11 -3 -40 -12 -64 -20 -24 -8 -46 -13 -48 -10 -3 2 -23
-2 -46 -10 -23 -8 -68 -14 -102 -13 -79 3 -160 -15 -259 -57 l-81 -34 -90 10
c-212 26 -245 29 -333 29 -69 1 -101 -3 -125 -16 -19 -10 -60 -18 -102 -20
-192 -7 -345 -23 -450 -47 -72 -17 -146 -31 -240 -47 -38 -7 -108 -21 -155
-32 -47 -11 -123 -22 -170 -26 -103 -9 -103 -9 -260 -86 -69 -34 -156 -74
-195 -90 -38 -15 -79 -34 -90 -41 -11 -8 -27 -14 -35 -14 -9 0 -31 -11 -50
-25 -19 -14 -43 -25 -54 -25 -19 0 -153 -40 -201 -61 -11 -5 -45 -18 -75 -30
-83 -31 -215 -123 -242 -168 -79 -130 -88 -140 -137 -146 -52 -7 -179 -48
-231 -74 -19 -10 -53 -24 -75 -31 -72 -22 -319 -151 -355 -185 -39 -36 -81
-57 -155 -75 -71 -18 -316 -98 -339 -111 -10 -6 -61 -26 -113 -45 -102 -37
-149 -59 -174 -81 -9 -8 -67 -20 -135 -28 -152 -19 -168 -22 -231 -51 -48 -22
-127 -46 -236 -75 -27 -6 -63 -22 -80 -33 -52 -35 -187 -116 -194 -116 -16 0
-76 -55 -97 -89 -13 -21 -54 -57 -90 -81 -36 -24 -66 -47 -66 -51 0 -4 -26
-17 -57 -29 -32 -12 -88 -35 -125 -52 -60 -27 -69 -35 -78 -67 -5 -20 -10 -51
-10 -68 0 -77 -58 -166 -129 -199 -54 -25 -142 -104 -157 -141 -8 -18 -14 -52
-14 -76 0 -60 -20 -104 -75 -165 -33 -36 -59 -55 -88 -64 -53 -15 -67 -25 -67
-51 0 -22 -17 -81 -31 -109 -20 -40 3 -94 44 -102 15 -3 39 -17 53 -31 14 -14
29 -25 34 -25 6 0 10 -6 10 -14 0 -8 8 -17 18 -20 9 -3 25 -19 34 -36 9 -16
39 -42 67 -57 36 -20 51 -34 51 -50 0 -13 12 -28 33 -41 23 -14 39 -36 56 -78
13 -33 29 -72 37 -89 7 -16 16 -42 19 -57 7 -35 49 -58 105 -55 35 1 45 -3 62
-26 11 -15 26 -27 34 -27 8 0 14 -10 14 -25 0 -22 28 -82 52 -112 5 -7 31 -24
56 -39 39 -22 61 -28 129 -30 72 -2 87 -6 118 -30 19 -14 35 -30 35 -35 0 -5
7 -9 15 -9 8 0 21 -13 30 -30 8 -16 25 -35 38 -41 31 -17 104 -96 133 -145 44
-75 56 -80 229 -105 39 -5 106 -11 150 -13 44 -2 97 -11 117 -20 33 -14 37
-20 40 -58 3 -39 7 -45 48 -67 44 -23 47 -23 140 -10 122 16 210 18 235 3 11
-6 45 -14 75 -17 30 -3 98 -15 150 -27 55 -12 147 -24 220 -27 69 -2 170 -14
225 -25 186 -36 541 -60 805 -53 102 3 194 9 205 14 11 5 103 14 205 20 102 6
201 15 220 21 41 13 199 39 283 47 40 4 67 1 84 -8 16 -9 58 -14 109 -14 76 0
84 2 106 26 23 25 32 27 129 30 158 5 369 -1 412 -12 25 -7 121 -6 295 2 141
6 309 9 372 6 106 -5 117 -4 128 13 6 10 26 25 44 33 50 22 198 41 254 32 53
-7 106 -13 140 -14 17 -1 20 -6 17 -25 -6 -30 21 -46 85 -52 25 -3 64 -9 87
-14 57 -13 264 -14 296 -2 18 7 64 7 140 0 63 -5 148 -7 189 -4 41 3 133 11
204 16 77 7 133 7 140 2 24 -19 104 -24 135 -8 16 9 39 16 50 16 11 0 35 12
53 27 l33 28 155 -2 c85 -1 250 -7 366 -14 217 -12 264 -9 264 16 0 17 14 26
53 34 24 5 32 14 44 51 7 25 19 55 25 68 8 16 9 32 2 50 -5 15 -8 58 -6 96 l3
68 28 -5 c18 -4 41 1 65 14 20 10 43 19 52 19 8 0 39 7 67 16 61 19 107 63
107 102 0 51 51 96 125 112 l30 6 -2 139 c-1 77 -7 172 -13 210 -6 39 -12 90
-14 115 -1 25 -7 54 -13 65 -6 11 -11 40 -11 65 -1 25 -13 76 -27 113 -14 37
-25 77 -25 88 0 11 -7 34 -16 52 -20 37 -24 81 -30 312 -2 94 -8 181 -13 195
-5 14 -12 51 -15 83 -4 32 -13 75 -22 95 -22 52 -23 60 -29 222 -4 80 -10 163
-15 185 -8 34 -7 42 10 57 11 9 20 24 20 33 0 9 6 28 14 43 8 16 17 47 21 70
3 23 19 68 35 100 31 64 31 62 30 171 -1 47 -6 81 -15 95 -8 11 -15 39 -15 61
0 23 -4 45 -9 50 -4 6 -17 42 -27 80 -29 114 -80 213 -146 283 -34 37 -47 60
-58 107 -7 33 -21 72 -31 86 -10 14 -21 36 -24 50 -4 13 -19 47 -34 74 -20 38
-32 51 -52 53 -29 3 -228 192 -253 240 -18 34 -124 132 -143 132 -7 0 -34 20
-60 45 -26 25 -59 48 -73 51 -14 3 -37 12 -52 20 -14 8 -33 14 -41 14 -8 0
-21 7 -28 16 -11 14 -29 16 -112 12 -56 -3 -100 -1 -104 4 -3 6 -25 7 -52 2
-25 -4 -144 -7 -264 -6 -206 1 -220 2 -253 23 -30 18 -46 21 -99 17 -36 -3
-68 -1 -73 4 -6 6 -48 9 -94 8 -110 -4 -133 -4 -198 3 -30 3 -64 3 -75 1z"/>
</g>
</svg>
