<?xml version="1.0" standalone="no"?>
<!DOCTYPE svg PUBLIC "-//W3C//DTD SVG 20010904//EN"
 "http://www.w3.org/TR/2001/REC-SVG-20010904/DTD/svg10.dtd">
<svg version="1.0" xmlns="http://www.w3.org/2000/svg"
 width="1280.000000pt" height="845.000000pt" viewBox="0 0 1280.000000 845.000000"
 preserveAspectRatio="xMidYMid meet">
<metadata>
Created by potrace 1.15, written by Peter Selinger 2001-2017
</metadata>
<g transform="translate(0.000000,845.000000) scale(0.100000,-0.100000)"
fill="#000000" stroke="none">
<path d="M7593 8440 c-477 -27 -921 -108 -1296 -236 -164 -56 -240 -88 -487
-202 -499 -229 -825 -356 -1032 -401 -153 -33 -612 -47 -1028 -32 -545 20
-878 25 -953 13 -53 -8 -87 -22 -155 -63 -326 -194 -660 -512 -960 -913 -578
-771 -1034 -1736 -1363 -2886 -28 -96 -75 -257 -105 -358 -30 -101 -73 -271
-94 -379 -22 -107 -58 -263 -80 -347 -22 -85 -40 -176 -40 -205 0 -75 26 -190
70 -311 29 -80 40 -126 44 -194 16 -232 105 -470 254 -680 67 -95 265 -298
371 -381 266 -209 630 -409 994 -544 523 -194 1071 -295 1732 -317 l200 -7
400 131 c220 72 506 164 635 206 390 125 598 195 750 253 145 56 196 72 450
139 131 35 1555 391 1735 434 50 12 315 78 590 147 l500 125 185 9 c268 13
463 41 710 104 605 153 1226 486 1795 962 593 496 1002 1096 1210 1771 151
493 212 1109 150 1517 -65 427 -256 874 -529 1239 -45 61 -102 138 -126 171
-61 84 -193 219 -265 270 -211 151 -684 306 -1714 564 -868 218 -1368 324
-1796 382 -174 24 -515 32 -752 19z"/>
</g>
</svg>
