<?xml version="1.0" standalone="no"?>
<!DOCTYPE svg PUBLIC "-//W3C//DTD SVG 20010904//EN"
 "http://www.w3.org/TR/2001/REC-SVG-20010904/DTD/svg10.dtd">
<svg version="1.0" xmlns="http://www.w3.org/2000/svg"
 width="1280.000000pt" height="936.000000pt" viewBox="0 0 1280.000000 936.000000"
 preserveAspectRatio="xMidYMid meet">
<metadata>
Created by potrace 1.15, written by Peter Selinger 2001-2017
</metadata>
<g transform="translate(0.000000,936.000000) scale(0.100000,-0.100000)"
fill="#000000" stroke="none">
<path d="M9442 8486 c-6 -13 -21 -27 -33 -31 -13 -4 -29 -14 -37 -21 -18 -18
-145 -18 -232 0 -36 7 -70 12 -76 9 -7 -2 -15 0 -18 6 -9 14 -44 -6 -99 -59
-27 -25 -60 -50 -75 -57 -34 -15 -266 -17 -294 -2 -26 14 -149 11 -164 -3 -11
-12 -132 -10 -139 2 -4 6 -10 8 -15 5 -5 -3 -11 -1 -15 5 -4 6 -53 8 -132 5
-103 -3 -128 -2 -140 11 -18 18 -18 17 27 32 l35 11 -42 -2 c-23 0 -48 5 -56
11 -8 7 -22 9 -31 6 -10 -4 -26 2 -39 14 -41 38 -180 48 -201 14 -3 -5 -22
-13 -41 -16 -26 -5 -36 -13 -41 -31 -3 -13 -13 -30 -21 -37 -14 -11 -35 -15
-168 -35 -22 -3 -48 -14 -58 -24 -10 -11 -20 -19 -22 -19 -7 0 -60 24 -65 30
-3 3 -25 15 -50 27 -38 19 -51 21 -85 13 -22 -6 -91 -14 -152 -19 -62 -5 -119
-13 -125 -19 -22 -17 -132 -59 -146 -54 -6 2 -12 -4 -12 -13 0 -11 -7 -16 -22
-14 -13 1 -36 -2 -52 -6 -19 -5 -36 -4 -48 4 -11 7 -41 11 -66 10 -60 -2 -95
12 -123 51 -19 25 -28 30 -49 25 -18 -4 -35 1 -51 13 -17 14 -41 19 -86 19
-34 1 -67 4 -74 8 -15 10 -163 7 -267 -6 -55 -6 -105 -20 -146 -39 -35 -17
-72 -30 -82 -30 -10 0 -41 -7 -68 -15 -31 -9 -93 -15 -165 -16 -64 0 -170 -5
-236 -11 -66 -5 -174 -11 -240 -13 -66 -2 -136 -9 -155 -15 -19 -7 -62 -16
-95 -20 -116 -15 -240 -40 -243 -49 -6 -18 -124 -73 -145 -67 -11 2 -38 -1
-61 -9 -22 -7 -68 -15 -100 -18 -33 -2 -62 -9 -64 -15 -2 -7 -19 -12 -37 -12
-37 0 -45 -8 -55 -54 -5 -25 -11 -31 -31 -29 -54 4 -96 -8 -109 -33 -8 -13
-34 -37 -59 -53 -42 -27 -88 -42 -262 -87 -56 -14 -102 -35 -151 -67 -47 -32
-192 -88 -230 -90 -28 -1 -39 -7 -47 -25 -6 -13 -9 -27 -6 -31 10 -17 -94 -81
-131 -81 -9 0 -18 -9 -21 -20 -3 -11 -11 -20 -19 -20 -26 0 -154 -85 -154
-102 0 -10 5 -18 10 -18 16 0 50 -62 50 -92 0 -16 5 -28 11 -28 13 0 119 -106
119 -119 0 -5 8 -17 17 -26 9 -10 24 -31 32 -49 9 -18 25 -32 37 -34 47 -7 58
-45 53 -174 -1 -15 6 -35 15 -44 16 -15 14 -50 -3 -64 -12 -11 -81 -31 -89
-26 -4 2 -25 -5 -47 -17 -45 -26 -54 -50 -57 -157 -2 -84 9 -134 41 -179 25
-35 21 -51 -15 -51 -17 0 -27 -8 -34 -25 -5 -14 -17 -28 -25 -31 -8 -4 -15
-13 -15 -21 0 -8 -7 -28 -16 -46 -9 -17 -23 -63 -31 -101 -12 -55 -22 -78 -49
-105 l-34 -36 6 -80 c4 -44 13 -92 20 -107 8 -14 17 -53 20 -85 7 -62 24 -105
55 -139 17 -19 51 -94 66 -149 3 -11 24 -48 47 -81 28 -43 50 -65 74 -74 18
-6 36 -9 39 -6 3 3 11 0 17 -7 6 -8 31 -21 56 -31 25 -10 53 -22 63 -28 12 -6
23 -6 31 1 12 10 44 -14 93 -73 13 -14 29 -26 37 -26 7 0 19 -7 27 -16 12 -15
129 -74 147 -74 4 0 27 9 50 20 52 25 58 25 84 -5 21 -25 24 -25 170 -25 131
0 154 -3 189 -21 23 -11 38 -16 34 -10 -8 14 -4 14 41 -5 22 -9 53 -18 69 -20
17 -2 64 -12 105 -21 98 -22 296 -22 360 0 51 17 131 17 153 -1 12 -10 16 -9
21 3 3 8 17 20 30 25 19 7 25 17 28 47 3 35 7 39 71 72 67 33 69 34 273 45
113 6 202 14 198 18 -4 5 0 8 9 8 10 0 17 5 17 10 0 6 -4 10 -10 10 -5 0 -10
5 -10 10 0 6 11 10 24 10 13 0 26 5 28 11 4 11 175 -28 246 -56 56 -23 473
-35 480 -14 2 5 10 9 18 9 8 0 14 5 14 11 0 6 6 9 13 6 6 -2 11 -9 10 -14 -2
-12 115 -53 151 -53 15 0 39 -6 54 -14 37 -19 147 -46 187 -46 21 0 38 -6 43
-16 7 -12 18 -15 37 -12 30 6 95 -16 95 -32 0 -6 -5 -10 -11 -10 -6 0 -7 -5
-2 -12 4 -7 6 -20 5 -29 -2 -10 9 -19 30 -25 47 -14 44 -40 -4 -36 -23 2 -38
-1 -38 -7 0 -6 4 -11 9 -11 5 0 16 -6 23 -13 12 -13 132 -59 218 -85 19 -6 96
-22 170 -36 175 -32 177 -33 230 -46 25 -7 74 -13 110 -15 36 -2 72 -6 81 -10
18 -7 69 39 69 62 0 21 94 38 133 23 4 -1 10 -3 15 -4 22 -4 72 -30 72 -37 0
-5 7 -9 15 -9 8 0 23 -4 33 -9 9 -5 46 -16 82 -24 60 -14 105 -28 155 -48 27
-11 121 -48 165 -64 19 -8 63 -17 98 -20 36 -4 62 -12 62 -18 0 -8 3 -9 8 -1
11 16 89 17 99 2 4 -8 20 -19 34 -25 22 -10 34 -8 67 9 25 12 46 16 54 11 18
-11 69 -11 91 -1 9 5 17 18 17 29 0 24 25 35 44 20 11 -10 16 -8 20 6 3 10 20
24 37 30 33 13 34 26 6 82 -9 19 -9 25 1 29 7 2 18 10 26 17 11 12 22 12 64 1
28 -8 55 -17 62 -21 6 -4 18 1 25 11 12 16 16 17 24 5 10 -15 31 -7 31 12 0 7
13 20 29 30 28 17 31 16 65 -4 33 -19 37 -19 58 -5 12 9 33 16 46 16 18 0 22
4 17 19 -9 30 38 73 68 62 24 -10 52 -38 59 -61 6 -18 65 -23 95 -8 31 15 40
3 18 -22 -17 -19 -17 -22 -3 -37 27 -27 210 -30 193 -3 -8 13 65 42 91 36 23
-6 93 40 94 62 0 6 3 12 8 12 4 0 15 14 24 30 9 17 29 35 43 40 14 5 28 16 31
23 3 9 14 12 30 9 24 -4 102 23 115 40 3 4 18 9 33 10 15 1 32 10 37 19 5 10
25 23 44 29 29 10 35 16 35 40 0 16 4 32 10 35 13 8 7 60 -10 79 -10 13 -10
19 0 31 10 11 33 14 106 12 85 -2 95 0 108 19 9 12 36 27 61 33 25 6 45 15 45
20 0 4 11 13 25 19 23 11 29 9 52 -14 28 -28 68 -37 158 -36 28 0 67 0 89 1
27 0 43 6 53 21 12 17 21 20 44 15 18 -4 36 -2 44 5 14 12 67 1 105 -21 52
-31 60 -32 115 -20 35 8 55 18 55 27 0 8 -4 14 -10 14 -5 0 -10 5 -10 10 0 6
7 10 17 10 9 0 13 3 10 7 -4 3 11 17 33 30 25 15 40 31 40 44 0 12 10 23 25
29 15 6 25 17 25 29 0 11 18 35 40 54 22 19 40 41 40 50 0 10 5 17 11 17 6 0
8 8 4 19 -4 13 0 20 16 24 13 4 20 12 17 24 -3 18 41 73 59 73 6 0 22 10 37
21 l27 21 -22 24 c-17 18 -19 24 -7 24 23 0 75 29 82 45 3 8 12 15 21 15 8 0
15 4 15 9 0 6 15 11 32 13 22 2 36 10 44 27 7 13 17 27 24 31 7 5 9 23 4 57
-5 44 -10 52 -43 68 -20 11 -37 20 -39 21 -1 1 -4 11 -7 22 -3 15 6 29 28 46
31 25 31 26 12 40 -20 15 -20 15 0 16 12 0 27 13 37 30 10 17 21 29 25 28 18
-6 101 44 126 76 15 19 40 39 56 46 30 12 53 61 32 68 -6 2 -11 19 -11 39 0
19 -7 41 -15 49 -16 17 -20 34 -7 34 5 0 8 17 7 37 0 27 -6 39 -18 41 -20 4
-22 21 -5 57 9 20 9 31 0 45 -17 28 4 39 88 43 63 3 76 7 95 28 11 14 29 28
38 32 10 4 17 18 18 34 1 15 3 44 4 63 5 51 -2 67 -35 79 -20 6 -28 15 -24 24
3 8 1 18 -5 21 -7 5 -4 19 7 43 13 28 14 37 5 40 -7 3 -13 13 -13 22 0 10 -9
26 -20 36 -14 12 -18 25 -14 41 4 14 -1 40 -11 60 -9 19 -14 42 -11 49 3 8 0
20 -7 28 -7 7 -17 22 -23 32 -13 24 -49 31 -69 15 -16 -13 -35 -6 -35 13 0 7
6 24 14 39 12 23 12 30 -1 55 -10 19 -13 45 -10 81 3 35 0 66 -9 88 -8 19 -12
39 -9 44 3 5 6 25 7 44 1 27 -5 42 -27 62 -16 14 -33 27 -39 28 -27 4 -76 32
-76 43 0 7 -6 10 -13 8 -8 -4 -19 13 -30 44 -18 51 -41 66 -84 55 -17 -5 -27
4 -54 45 -37 56 -63 65 -94 31 -21 -23 -40 -27 -32 -7 3 8 8 39 12 69 l7 55
-47 13 c-26 7 -52 21 -57 30 -7 10 -19 15 -30 12 -10 -2 -18 1 -18 8 0 7 -14
11 -38 9 -21 -2 -42 0 -48 4 -6 3 -29 9 -52 13 -33 5 -47 2 -71 -16 -17 -12
-29 -25 -26 -30 3 -5 1 -11 -5 -15 -5 -3 -10 -15 -10 -26 0 -13 -7 -19 -24
-19 -37 0 -76 18 -76 34 0 8 -7 19 -16 24 -8 5 -21 20 -27 33 -7 13 -22 25
-34 27 -23 3 -50 29 -67 65 -8 15 -22 23 -44 25 -20 2 -32 9 -32 18 0 13 -15
16 -90 18 -14 1 -31 5 -38 9 -7 5 -24 6 -38 3 -16 -4 -33 0 -53 15 -21 15 -37
20 -55 15 -17 -4 -35 -1 -51 10 -16 10 -34 14 -53 9 -16 -3 -42 -1 -58 6 -16
6 -42 13 -58 15 -16 2 -34 11 -40 19 -14 18 -56 9 -56 -12 0 -12 -3 -13 -14
-4 -10 8 -41 10 -98 7 -121 -8 -121 -8 -130 9 -11 19 -32 19 -48 1 -9 -12 -29
-14 -88 -10 -42 3 -86 5 -97 5 -98 -6 -168 -5 -172 2 -3 5 -16 6 -30 2 -16 -4
-22 -2 -18 5 4 6 -12 10 -44 10 -27 0 -53 5 -56 10 -3 6 -21 10 -40 10 -19 0
-36 4 -39 9 -3 5 -25 5 -50 -1 -30 -6 -51 -6 -65 1 -31 17 -47 13 -59 -13z"/>
<path d="M6755 4408 c-82 -5 -163 -14 -180 -20 -16 -6 -43 -10 -59 -10 -15 1
-47 -9 -70 -22 -23 -13 -55 -26 -71 -29 -17 -3 -59 -12 -95 -20 -97 -22 -170
-37 -220 -45 -25 -4 -52 -12 -60 -17 -8 -5 -45 -10 -83 -11 -44 -2 -75 -8 -86
-18 -9 -8 -47 -20 -86 -26 -38 -6 -87 -18 -108 -26 -54 -20 -75 -18 -114 16
-30 27 -40 30 -103 30 -38 0 -72 -4 -75 -10 -4 -6 -59 -10 -133 -10 -104 0
-132 -3 -157 -18 -55 -33 -109 -41 -270 -43 -149 -1 -232 9 -260 31 -13 10
-73 20 -159 27 -59 4 -73 2 -97 -16 -18 -13 -43 -21 -70 -21 -35 0 -47 -6 -76
-36 l-34 -37 -172 7 c-95 4 -188 6 -207 5 -19 -1 -51 -1 -70 -1 -175 8 -232 8
-273 -1 -36 -8 -53 -8 -67 1 -26 16 -68 15 -116 -2 -29 -10 -62 -11 -129 -5
-49 4 -137 8 -195 8 -91 1 -118 5 -194 32 -67 23 -99 29 -130 25 -23 -3 -108
-10 -191 -15 -82 -6 -197 -15 -254 -21 -57 -6 -239 -10 -405 -9 -334 3 -346 1
-415 -64 -44 -42 -61 -84 -75 -185 l-11 -84 -55 -29 c-30 -16 -67 -31 -82 -34
-22 -4 -28 -11 -28 -31 0 -15 -12 -36 -28 -52 -16 -15 -35 -38 -44 -52 -18
-30 -68 -152 -68 -167 0 -6 -14 -38 -30 -72 -17 -33 -35 -83 -40 -111 -9 -49
-20 -74 -60 -135 -11 -16 -27 -43 -36 -60 -30 -53 -64 -206 -69 -310 -3 -55
-8 -161 -12 -235 -4 -74 -6 -169 -4 -210 1 -41 2 -90 1 -107 -2 -97 -1 -148 8
-356 10 -220 12 -231 38 -285 16 -32 32 -79 36 -107 17 -117 46 -219 72 -253
5 -7 11 -64 12 -126 3 -147 19 -188 83 -220 32 -16 72 -25 131 -29 47 -4 109
-15 138 -26 45 -17 70 -19 185 -14 100 4 143 2 173 -8 25 -9 90 -15 179 -16
77 -1 264 -4 415 -7 157 -3 313 -1 364 5 79 9 91 8 114 -8 67 -48 135 -68 222
-66 123 3 182 3 530 0 19 0 60 -1 90 -1 70 0 234 28 282 48 53 23 100 20 134
-7 23 -18 40 -22 94 -21 36 0 94 6 130 13 36 7 121 16 190 21 119 8 199 21
335 54 67 17 182 21 204 7 16 -10 55 4 85 31 11 10 23 18 27 18 20 0 59 57 59
85 0 16 3 39 6 50 5 20 124 93 174 107 26 7 60 54 60 81 0 27 80 97 111 97 15
0 70 14 121 30 51 17 104 30 120 30 15 0 30 5 33 11 4 6 19 7 35 4 33 -7 60 8
133 71 26 24 62 46 79 49 32 7 104 75 203 190 27 31 66 69 87 83 27 17 38 32
38 49 0 41 52 96 112 119 87 34 179 65 253 85 66 18 135 41 180 59 45 19 86
23 205 24 119 2 161 7 205 26 11 5 58 21 105 36 47 14 94 34 105 43 11 9 34
23 50 31 33 17 178 122 268 197 32 26 79 74 103 105 25 32 54 64 66 72 12 9
19 19 15 22 -4 4 1 19 10 33 15 22 18 49 17 186 0 155 -1 162 -29 215 -15 30
-40 73 -55 95 -15 22 -35 69 -46 105 -10 36 -33 87 -51 115 -18 27 -33 58 -33
68 0 27 -18 57 -60 102 -22 24 -50 73 -70 123 -20 49 -43 88 -57 97 -12 8 -32
34 -43 58 -12 23 -27 53 -35 66 -7 14 -17 59 -21 100 -3 42 -11 82 -17 89 -6
8 -23 49 -38 93 -15 44 -36 92 -45 107 -20 28 -54 126 -54 153 0 9 -8 23 -18
32 -21 19 -154 21 -427 5z"/>
</g>
</svg>
